<?xml version="1.0" encoding="utf-8"?>
<!-- Generator: Adobe Illustrator 22.0.1, SVG Export Plug-In . SVG Version: 6.00 Build 0)  -->
<svg version="1.1" id="Layer_1" xmlns="http://www.w3.org/2000/svg" xmlns:xlink="http://www.w3.org/1999/xlink" x="0px" y="0px"
	 viewBox="0 0 42.5 42.4" style="enable-background:new 0 0 42.5 42.4;" xml:space="preserve">
<style type="text/css">
	.st0{fill:#FFFFFF;}
	.st1{fill:#006FCF;}
</style>
<title>Amex_logo_bw</title>
<g>
	<polygon class="st0" points="42.4,42.4 21.5,42.4 0,42.4 0,20.9 0,0 21.1,0 42.4,0 42.4,20.9 42.4,42.4 	"/>
	<path class="st1" d="M40.8,30h-14l-0.9-1.2V30h-3v-1.8c-0.4,0.1-0.8,0.2-1.3,0.2h-0.4V30h-4.5L16,29l-0.7,1H8v-7h7.3l0.7,0.9
		l0.7-0.9h25.7V0H0v17.2l1.5-3.4h2.9l0.8,1.8v-1.8h3.6l0.4,1.4l0.5-1.4h15.5v0.7c0.6-0.4,1.3-0.7,2.2-0.7h4.8l0.8,1.8v-1.8h2.9
		l0.8,1.3v-1.3h3.1v7h-3.1l-0.8-1.2v1.2h-4.3l-0.4-1h-0.9l-0.4,1h-2.6c-0.7,0-1.5-0.1-2.1-0.6v0.6h-4.4l-0.9-1.2v1.2H3.8l-0.4-1H2.5
		l-0.4,1H0v21.6h42.5V29.5C42,29.8,41.4,30,40.8,30L40.8,30L40.8,30z"/>
	<path class="st1" d="M13.2,25.1V24H9.1v5h4.1v-1.1h-2.8V27h2.7v-1.1h-2.7v-0.8L13.2,25.1L13.2,25.1L13.2,25.1z M17.2,28.9h1.6
		l-2-2.5l2-2.5h-1.6L16,25.4l-1.2-1.5h-1.6l2,2.5l-2,2.5h1.6l1.2-1.6L17.2,28.9L17.2,28.9L17.2,28.9z M18.9,23.9v5h1.3v-1.6h1.5
		c1.1,0,1.8-0.7,1.8-1.7s-0.7-1.7-1.7-1.7H18.9L18.9,23.9L18.9,23.9z M22.2,25.6c0,0.3-0.2,0.6-0.6,0.6h-1.4v-1.1h1.4
		C22,25.1,22.2,25.3,22.2,25.6 M25.3,27.2h0.5l1.5,1.8h1.6l-1.7-1.9c0.8-0.2,1.3-0.8,1.3-1.6c0-1-0.7-1.6-1.7-1.6H24v5h1.3V27.2
		L25.3,27.2L25.3,27.2z M26.6,25.1c0.4,0,0.6,0.2,0.6,0.5s-0.2,0.5-0.6,0.5h-1.4v-1H26.6L26.6,25.1L26.6,25.1z M33.1,25.1V24H29v5
		h4.1v-1.1h-2.8V27H33v-1.1h-2.7v-0.8L33.1,25.1L33.1,25.1L33.1,25.1z M36.2,27.8h-2.6v1.1h2.6c1.1,0,1.7-0.7,1.7-1.6
		c0-0.9-0.6-1.4-1.6-1.4h-1.1c-0.3,0-0.4-0.2-0.4-0.4c0-0.3,0.2-0.4,0.4-0.4h2.2l0.5-1.1h-2.7c-1.1,0-1.7,0.7-1.7,1.6
		c0,0.9,0.6,1.5,1.6,1.5h1.1c0.3,0,0.5,0.2,0.5,0.4C36.7,27.7,36.5,27.8,36.2,27.8 M40.8,27.8h-2.6v1.1h2.6c1.1,0,1.7-0.7,1.7-1.6
		c0-0.9-0.6-1.4-1.6-1.4h-1.2c-0.3,0-0.5-0.2-0.5-0.4c0-0.3,0.2-0.4,0.5-0.4h2.2l0.5-1.1h-2.6c-1.1,0-1.7,0.7-1.7,1.6
		c0,0.9,0.6,1.5,1.6,1.5h1.2c0.3,0,0.5,0.2,0.5,0.4C41.3,27.7,41.1,27.8,40.8,27.8"/>
	<path class="st1" d="M4.5,19.8h1.4l-2.1-5H2.1l-2.1,5h1.4l0.4-1h2.3L4.5,19.8L4.5,19.8L4.5,19.8z M2.2,17.7L2.9,16l0.7,1.7H2.2
		L2.2,17.7L2.2,17.7z M8.6,19.8h1.1l1.3-3.7v3.7h1.3v-5h-2L9.2,18l-1.1-3.2h-2v5h1.3v-3.7L8.6,19.8L8.6,19.8L8.6,19.8z M17.2,15.9
		v-1.1h-4.1v5h4.1v-1.1h-2.8v-0.9h2.7v-1.1h-2.7v-0.8H17.2L17.2,15.9L17.2,15.9z M19.2,18h0.5l1.5,1.8h1.6L21.2,18
		c0.8-0.2,1.3-0.8,1.3-1.6c0-1-0.7-1.6-1.7-1.6H18v5h1.2V18L19.2,18L19.2,18z M20.6,15.9c0.4,0,0.6,0.2,0.6,0.5s-0.2,0.5-0.6,0.5
		h-1.4v-1H20.6L20.6,15.9L20.6,15.9z M23,19.8h1.2v-2.5v-2.5h-1.3v2.5L23,19.8L23,19.8L23,19.8z M27.2,19.8L27.2,19.8l0.6-1.1h-0.4
		c-0.8,0-1.3-0.5-1.3-1.3v-0.1c0-0.8,0.4-1.3,1.3-1.3h1.3v-1.2h-1.4c-1.6,0-2.4,1-2.4,2.5v0.1C24.8,18.9,25.7,19.8,27.2,19.8
		 M32.3,19.8h1.4l-2.1-5h-1.7l-2.1,5h1.4l0.4-1h2.3L32.3,19.8L32.3,19.8L32.3,19.8z M30.1,17.7l0.7-1.7l0.7,1.7H30.1L30.1,17.7
		L30.1,17.7z M37.2,19.8h1.5v-5h-1.3v3.1l-2-3.1h-1.6v5h1.3v-3.2L37.2,19.8L37.2,19.8L37.2,19.8z"/>
</g>
</svg>
