<svg xmlns="http://www.w3.org/2000/svg" viewBox="0 0 156.36 141.5"><defs><style>.cls-1{fill:#fff;}</style></defs><title>Asset 22</title><g id="Layer_2" data-name="Layer 2"><g id="Layer_1-2" data-name="Layer 1"><path class="cls-1" d="M17.84,138.46c-.06-8.29-4.42-16.8-6.36-24.82C9.38,105,8.43,96.08,10.39,87.36c3.81-17,17.33-25,34.09-24.12C71,64.59,109.66,84.8,127.89,54.35c5.72-9.56,6.82-20.36,5.63-31.07L135,24.74c4.83,4.6,10.13,10.38,17.3,10,2.7-.15,4.33-1.83,4-4.58-.81-6.11-7.11-9.44-11.34-13.25-5.62-5.06-10.3-11.36-16.25-16-1.76-1.38-5-1-6.65.43a150.78,150.78,0,0,1-12,9.8c-3.89,2.85-8.67,5-11.73,8.79-1.84,2.25.38,5.64,3.15,5.31,5-.59,9.39-3.51,13.66-6.1,3.13-1.9,6.12-4,9-6.15l.19.28c2.26,13.3,3.61,27.38-4.67,38.88C109,66.89,88.57,64,73.16,60.47c-14.47-3.35-29.83-7.74-44.68-3.93C14,60.27,4.42,71.94,1.23,86.25a62.81,62.81,0,0,0,.15,25.4c1.78,9.24,4.37,20.88,10,28.53C13,142.49,17.87,141.66,17.84,138.46Z"/></g></g></svg>