<svg xmlns="http://www.w3.org/2000/svg" viewBox="0 0 47.62 117.9"><defs><style>.cls-1{fill:#fff;}</style></defs><title>Asset 20</title><g id="Layer_2" data-name="Layer 2"><g id="Layer_1-2" data-name="Layer 1"><path class="cls-1" d="M30,.07C24.48-.54,19.06,3,14.26,5.23c-3.44,1.62-9.15,3.1-11.19,6.58a5.36,5.36,0,0,0-.45,1,2.36,2.36,0,0,0-.2,3.05c.33,2.75,1.69,5.72,2.09,8.12.72,4.29.38,8.7,1.12,12.93a2.38,2.38,0,0,0,4.29,1c2.31-3.54,3-8,3.08-12.23a29.82,29.82,0,0,0-.26-4.32c15.58,9.46,27.36,24.83,27.5,44A48.71,48.71,0,0,1,29.67,95.32c-7.4,9.51-17,15.26-28.32,18.94-1.89.62-1.84,3.82.4,3.63,10.68-.91,21.43-6.84,28.92-14.31C44.56,89.73,51.08,69.91,45.8,50.75c-4.24-15.42-15.88-30-31-35.91l.29-.12,7-3.06c4-1.72,8.22-3.22,10.47-7.11C33.69,2.59,32,.29,30,.07Z"/></g></g></svg>