<svg xmlns="http://www.w3.org/2000/svg" viewBox="0 0 170.19 133.92"><defs><style>.cls-1{fill:#fff;}</style></defs><title>Asset 19</title><g id="Layer_2" data-name="Layer 2"><g id="Layer_1-2" data-name="Layer 1"><path class="cls-1" d="M148.45,2.56A175.26,175.26,0,0,1,169.73,39.7c2.43,5.76-5.28,10.11-9.64,6.54a75.63,75.63,0,0,1-12.62-13.16c-4.36,29.5-20.88,56.16-45.3,74.25C77.23,125.81,29.6,146.1,1.07,124.83c-2.73-2,.29-5.65,3.05-4.63,30.38,11.18,69.39-4.51,93.35-23.6C119,79.46,133.19,55,136.12,28.12A109.16,109.16,0,0,1,127.47,38c-5.3,5.32-13.88-1.84-8.92-7.68,7.3-8.59,13.91-17.1,19.46-27A6.14,6.14,0,0,1,148.45,2.56Z"/></g></g></svg>