<svg xmlns="http://www.w3.org/2000/svg" viewBox="0 0 223.81 61.85"><defs><style>.cls-1{fill:#fff;}</style></defs><title>Asset 21</title><g id="Layer_2" data-name="Layer 2"><g id="Layer_1-2" data-name="Layer 1"><path class="cls-1" d="M222.42,25.07c-6.92-5.17-14.15-9.87-21.34-14.65-6-4-12.21-8.16-19.12-10.33-2.18-.68-3.81,2.51-2.18,4,5.65,5.06,12.41,8.83,18.49,13.33,2.75,2,5.39,4.21,7.95,6.45-3.51,0-7,0-10.5.29-6.22.54-12.42,1.37-18.61,2.15l-39,4.88c-12.59,1.57-85.24,13.16-97.8,14.93-6,.84-11.94,1.74-17.87,2.79-7.22,1.29-15.11,2-21.34,6.07-1.37.9-1.66,3.36.13,4,6.59,2.45,13.83,1.1,20.69.52,6.27-.54,12.55-1.29,18.8-2,12.89-1.54,85.8-13.39,98.65-15.19l37.36-5.23c11.2-1.58,21.88-3.72,32.75-6.34a90.05,90.05,0,0,0-7.95,8.76c-4.11,5.12-8.56,11.06-9.62,17.65-.53,3.26,3.78,6.07,6.49,4.05,4.92-3.66,8-9.64,11.62-14.49,3.81-5,8.07-9.83,12.32-14.52C223.92,30.43,224.61,26.7,222.42,25.07Z"/></g></g></svg>