<?xml version="1.0" encoding="UTF-8"?>
<svg width="89px" height="49px" viewBox="0 0 89 49" version="1.1" xmlns="http://www.w3.org/2000/svg" xmlns:xlink="http://www.w3.org/1999/xlink">
    <!-- Generator: Sketch 48.1 (47250) - http://www.bohemiancoding.com/sketch -->
    <title>Group 43</title>
    <desc>Created with Sketch.</desc>
    <defs>
        <rect id="path-1" x="0" y="0" width="85" height="45"></rect>
        <filter x="-4.1%" y="-5.6%" width="108.2%" height="115.6%" filterUnits="objectBoundingBox" id="filter-2">
            <feOffset dx="0" dy="1" in="SourceAlpha" result="shadowOffsetOuter1"></feOffset>
            <feGaussianBlur stdDeviation="1" in="shadowOffsetOuter1" result="shadowBlurOuter1"></feGaussianBlur>
            <feComposite in="shadowBlurOuter1" in2="SourceAlpha" operator="out" result="shadowBlurOuter1"></feComposite>
            <feColorMatrix values="0 0 0 0 0   0 0 0 0 0   0 0 0 0 0  0 0 0 0.5 0" type="matrix" in="shadowBlurOuter1"></feColorMatrix>
        </filter>
        <radialGradient cx="50.1342385%" cy="49.5398485%" fx="50.1342385%" fy="49.5398485%" r="50.0429193%" gradientTransform="translate(0.501342,0.495398),scale(1.000000,0.941761),translate(-0.501342,-0.495398)" id="radialGradient-3">
            <stop stop-color="#F8EDDF" offset="1%"></stop>
            <stop stop-color="#F6E7D6" offset="12%"></stop>
            <stop stop-color="#F2D8BE" offset="30%"></stop>
            <stop stop-color="#EBC096" offset="52%"></stop>
            <stop stop-color="#E29E5F" offset="79%"></stop>
            <stop stop-color="#D9802E" offset="100%"></stop>
        </radialGradient>
    </defs>
    <g id="Billing-&amp;-Payments" stroke="none" stroke-width="1" fill="none" fill-rule="evenodd">
        <g id="Group-43" transform="translate(2.000000, 1.000000)">
            <g id="Rectangle">
                <use fill="black" fill-opacity="1" filter="url(#filter-2)" xlink:href="#path-1"></use>
                <use fill="#FFFFFF" fill-rule="evenodd" xlink:href="#path-1"></use>
                <rect stroke="#979797" stroke-width="1" x="0.5" y="0.5" width="84" height="44"></rect>
            </g>
            <g id="discover" transform="translate(11.000000, 13.000000)" fill-rule="nonzero">
                <path d="M32.3451627,1.1 C29.5232096,1.1 27.2355645,3.54004811 27.2355645,6.55 C27.2355645,9.55995189 29.5232096,12 32.3451627,12 C33.7040497,12.0268457 35.0159899,11.4697922 35.9858091,10.4541714 C36.9556282,9.4385507 37.501871,8.04966473 37.5016379,6.6 C37.5220687,5.1347374 36.985362,3.72309363 36.0138711,2.68688193 C35.0423802,1.65067022 33.7189064,1.07820808 32.3451627,1.1 L32.3451627,1.1 Z" id="Shape" fill="url(#radialGradient-3)"></path>
                <path d="M2.81262284,1.3 L0,1.3 L0,11.7 L2.81262284,11.7 C4.06747689,11.7649627 5.30127822,11.3381528 6.28152435,10.5 C7.39614746,9.50950408 8.0472987,8.04733356 8.06285215,6.5 C8.06285215,3.4 5.90650797,1.3 2.81262284,1.3 Z M4.96896702,9.1 C4.23019448,9.73193715 3.28411349,10.020254 2.34385237,9.9 L1.8750819,9.9 L1.8750819,3 L2.34385237,3 C3.28282278,2.89619627 4.22314246,3.18275737 4.96896702,3.8 C5.64266482,4.47160231 6.01750147,5.41660375 6.00026207,6.4 C6.08005851,7.42395509 5.69691541,8.42704956 4.96896702,9.1 Z" id="Shape" fill="#0B1D27"></path>
                <rect id="Rectangle-path" fill="#0B1D27" x="8.906639" y="1.3" width="1.8750819" height="10.4"></rect>
                <path d="M15.4694256,5.3 C14.3443765,4.8 13.9693601,4.6 13.9693601,4 C13.9693601,3.4 14.5318847,2.8 15.3756715,2.8 C15.9683647,2.78848126 16.5287606,3.08734601 16.8757371,3.6 L17.9070321,2.2 C17.1188887,1.41636298 16.0780523,0.986617056 15.0006552,1 C14.2269773,0.96206276 13.4717867,1.25938946 12.9067638,1.8243877 C12.3417409,2.38938593 12.0148932,3.17405027 12.0005241,4 C12.0005241,5.4 12.6568028,6.2 14.4381306,6.9 C14.8860212,7.07313255 15.3242566,7.27345999 15.7506879,7.5 C16.1093923,7.73271864 16.3239748,8.15232832 16.3132125,8.6 C16.2826815,9.4537923 15.6139157,10.1225288 14.813147,10.1 C13.9271608,10.1071767 13.1197029,9.55910802 12.7505569,8.7 L11.5317537,10 C12.2239077,11.2806458 13.5218083,12.0497385 14.9069011,12 C15.7871831,12.0673369 16.6535788,11.7377166 17.2951991,11.0913718 C17.9368195,10.4450269 18.2948158,9.54123953 18.2820485,8.6 C18.2820485,6.9 17.6257698,6.1 15.4694256,5.3 Z" id="Shape" fill="#0B1D27"></path>
                <path d="M18.8445731,6.5 C18.8286317,7.95479946 19.3698968,9.3535524 20.3432175,10.3728401 C21.3165382,11.3921278 22.6376363,11.9436918 24.0010483,11.9 C24.8148559,11.8919495 25.6163122,11.6867856 26.3449006,11.3 L26.3449006,8.9 C25.7561275,9.62059148 24.89691,10.0238332 24.0010483,10 C23.1093289,10.0176294 22.250575,9.64060989 21.6288699,8.95854044 C21.0071649,8.27647099 20.6780193,7.35025195 20.7196549,6.4 C20.6893573,5.47015729 21.0094086,4.56609411 21.6083448,3.88967809 C22.207281,3.21326207 23.0352208,2.82082721 23.9072942,2.8 C24.8254238,2.7677373 25.700468,3.21574033 26.2511465,4 L26.2511465,1.6 C25.538824,1.16748644 24.7260654,0.95942933 23.9072942,1 C21.117112,1.10591351 18.8926629,3.52249345 18.8445731,6.5 L18.8445731,6.5 Z" id="Shape" fill="#0B1D27"></path>
                <polygon id="Shape" fill="#0B1D27" points="41.8143263 8.3 39.1892116 1.3 37.1266215 1.3 41.2518017 12 42.2830967 12 46.502031 1.3 44.533195 1.3"></polygon>
                <polygon id="Shape" fill="#0B1D27" points="47.439572 11.7 52.7835554 11.7 52.7835554 9.9 49.3146539 9.9 49.3146539 7.1 52.6898013 7.1 52.6898013 5.4 49.3146539 5.4 49.3146539 3 52.7835554 3 52.7835554 1.3 47.439572 1.3"></polygon>
                <path d="M60.4713911,4.4 C60.4713911,2.4 59.2525879,1.3 57.0024896,1.3 L54.1898668,1.3 L54.1898668,11.7 L56.0649487,11.7 L56.0649487,7.5 L56.346211,7.5 L58.9713256,11.7 L61.315178,11.7 L58.2212929,7.3 C59.5527221,7.08265209 60.5202107,5.83572126 60.4713911,4.4 L60.4713911,4.4 Z M56.5337192,6.1 L55.9711946,6.1 L55.9711946,2.9 L56.5337192,2.9 C57.7525224,2.9 58.408801,3.4 58.408801,4.4 C58.408801,5.4 57.7525224,6.1 56.5337192,6.1 Z" id="Shape" fill="#0B1D27"></path>
                <path d="M61.6901944,2.1 C61.699358,2.01782552 61.6726853,1.93570701 61.6178244,1.87719129 C61.5629635,1.81867557 61.485974,1.7902259 61.4089321,1.8 L61.1276698,1.8 L61.1276698,2.7 L61.315178,2.7 L61.315178,2.3 L61.5964403,2.7 L61.8777026,2.7 L61.5964403,2.3 C61.6473538,2.24606113 61.6802866,2.17580764 61.6901944,2.1 L61.6901944,2.1 Z M61.4089321,2.2 L61.4089321,2.2 L61.4089321,2 L61.4089321,2 C61.5026862,2 61.5964403,2 61.5964403,2.1 C61.5253675,2.11056786 61.459502,2.1456946 61.4089321,2.2 L61.4089321,2.2 Z" id="Shape" fill="#272525"></path>
                <path d="M61.4089321,1.4 C61.0065141,1.42903368 60.6861196,1.7707729 60.6588993,2.2 C60.6588994,2.64182776 60.9947005,2.9999999 61.4089321,2.9999999 C61.8231637,2.9999999 62.1589648,2.64182776 62.1589648,2.2 C62.1317446,1.7707729 61.8113501,1.42903368 61.4089321,1.4 L61.4089321,1.4 Z M61.4089321,2.9 C61.0339157,2.9 60.8464075,2.6 60.8464075,2.2 C60.8050714,1.95950937 60.9023563,1.71592813 61.0935878,1.58111206 C61.2848192,1.44629598 61.533045,1.44629598 61.7242764,1.58111206 C61.9155079,1.71592813 62.0127928,1.95950937 61.9714566,2.2 C61.9881921,2.5557216 61.7410716,2.86323588 61.4089321,2.9 Z" id="Shape" fill="#272525"></path>
                <polygon id="Shape" fill="#272525" points="17.0632453 14.4 19.5946058 17.2 19.5946058 14.5 19.9696222 14.5 19.9696222 18.1 17.4382616 15.3 17.4382616 18 17.0632453 18"></polygon>
                <path d="M17.0632453,14.4 L17.0632453,18.1 L17.5320157,18.1 L17.5320157,15.5 L20.0633763,18.3 L20.0633763,14.5 L19.5946058,14.5 L19.5946058,17.1 C19.4070976,17.1 17.0632453,14.3 17.0632453,14.4 L17.0632453,14.4 Z M17.0632453,14.5 L19.5946058,17.3 L19.5946058,14.5 L19.8758681,14.5 L19.8758681,18 L17.3445075,15.2 L17.3445075,17.9 L17.0632453,17.9 L17.0632453,14.5 Z" id="Shape" fill="#272525"></path>
                <polygon id="Shape" fill="#272525" points="21.75095 14.6 23.4385237 14.6 23.4385237 15 22.1259664 15 22.1259664 16 23.4385237 16 23.4385237 16.4 22.1259664 16.4 22.1259664 17.8 23.4385237 17.8 23.4385237 18.2 21.75095 18.2"></polygon>
                <path d="M23.4385237,14.5 L21.75095,14.5 L21.75095,18.1 L23.5322778,18.1 L23.5322778,17.7 L22.2197205,17.7 L22.2197205,16.4 L23.5322778,16.4 L23.5322778,16 L22.2197205,16 L22.2197205,15 L23.5322778,15 L23.4385237,14.5 L23.4385237,14.5 Z M23.3447696,14.6 L23.3447696,14.9 L22.0322123,14.9 L22.0322123,16 L23.3447696,16 L23.3447696,16.3 L22.0322123,16.3 L22.0322123,17.7 L23.3447696,17.7 L23.3447696,18 L21.75095,18 L21.75095,14.6 L23.3447696,14.6 Z" id="Shape" fill="#272525"></path>
                <polygon id="Shape" fill="#272525" points="25.9698843 18.1 25.5948679 18.1 25.5948679 15 24.8448351 15 24.8448351 14.6 26.8136711 14.6 26.8136711 15 26.0636383 15 26.0636383 18.1"></polygon>
                <path d="M26.8136711,14.5 L24.8448351,14.5 L24.8448351,14.9 L25.5948679,14.9 L25.5948679,18 L26.0636383,18 L26.0636383,14.9 L26.9074252,14.9 L26.8136711,14.5 L26.8136711,14.5 Z M26.719917,14.6 L26.719917,14.9 L25.8761302,14.9 L25.8761302,18 L25.5948679,18 L25.5948679,14.9 L24.8448351,14.9 L24.8448351,14.6 L26.719917,14.6 Z" id="Shape" fill="#272525"></path>
                <polygon id="Shape" fill="#272525" points="29.2512776 17.2 30.2825726 14.4 31.3138677 17.2 32.1576545 14.6 32.5326709 14.6 31.3138677 18.3 30.2825726 15.5 29.2512776 18.3 28.0324743 14.6 28.4074907 14.6"></polygon>
                <path d="M30.2825726,14.4 C30.2825726,14.4 29.3450317,16.9 29.2512776,17.1 C29.1575235,16.9 28.4074907,14.6 28.4074907,14.6 L27.9387202,14.6 L29.2512776,18.4 C29.2512776,18.4 30.2825726,15.7 30.2825726,15.6 C30.3763267,15.8 31.3138677,18.4 31.3138677,18.4 L32.626425,14.6 L32.1576545,14.6 C32.1576545,14.6 31.4076218,17 31.3138677,17.1 C31.2201136,16.9 30.2825726,14.3 30.2825726,14.4 L30.2825726,14.4 Z M29.2512776,17.2 C29.2512776,17.2 30.1888185,14.6 30.2825726,14.5 C30.3763267,14.7 31.3138677,17.3 31.3138677,17.3 C31.3138677,17.3 32.1576545,14.7 32.1576545,14.6 L32.4389168,14.6 C32.4389168,14.7 31.3138677,18 31.2201136,18.1 C31.1263595,17.9 30.1888185,15.3 30.1888185,15.3 C30.1888185,15.3 29.1575235,17.9 29.1575235,18.1 C29.0637694,17.9 28.0324743,14.7 27.9387202,14.6 L28.2199825,14.6 C28.3137366,14.7 29.2512776,17.3 29.2512776,17.2 L29.2512776,17.2 Z" id="Shape" fill="#272525"></path>
                <path d="M37.3141297,16.3 C37.3141297,17.2941125 36.5585772,18.1 35.626556,18.1 C34.6945348,18.1 33.9389823,17.2941125 33.9389823,16.3 C33.9389823,15.3058875 34.6945348,14.5 35.626556,14.5 C36.5462034,14.5311635 37.2849127,15.3190857 37.3141297,16.3 L37.3141297,16.3 Z M34.2202446,16.3 C34.212483,16.6737795 34.3482761,17.0347053 34.5961308,17.2990722 C34.8439856,17.5634391 35.1823683,17.7082786 35.5328019,17.7 C36.2514346,17.6840812 36.8304347,17.0665081 36.8453592,16.3 C36.8531208,15.9262205 36.7173278,15.5652947 36.469473,15.3009278 C36.2216183,15.0365609 35.8832355,14.8917214 35.5328019,14.9 C34.8141692,14.9159188 34.2351691,15.5334919 34.2202446,16.3 L34.2202446,16.3 Z" id="Shape" fill="#272525"></path>
                <path d="M33.8452282,16.3 C33.8498636,16.7933998 34.0421217,17.2636469 34.3779515,17.602997 C34.7137814,17.9423471 35.1643984,18.1217138 35.626556,18.1 C36.5786955,18.1117218 37.367428,17.3147216 37.4078838,16.3 C37.4078838,15.250659 36.6103562,14.4000001 35.626556,14.4000001 C34.6427559,14.4000001 33.8452283,15.250659 33.8452282,16.3 L33.8452282,16.3 Z M33.9389823,16.3 C33.9389823,15.571968 34.3501464,14.9156226 34.9807495,14.6370168 C35.6113526,14.358411 36.3372081,14.5124114 36.8198508,15.0272078 C37.3024935,15.5420042 37.4468752,16.3162163 37.1856708,16.9888302 C36.9244665,17.6614441 36.3091159,18.1 35.626556,18.1 C35.1782184,18.1026791 34.7475165,17.9138972 34.4304889,17.5757492 C34.1134613,17.2376012 33.9364706,16.778206 33.9389823,16.3 L33.9389823,16.3 Z" id="Shape" fill="#272525"></path>
                <path d="M34.2202446,16.3 C34.2202446,17.1284271 34.8498717,17.8 35.626556,17.8 C36.4032404,17.8 37.0328674,17.1284271 37.0328674,16.3 C37.0328674,15.4715729 36.4032404,14.8 35.626556,14.8 C34.8581845,14.8210247 34.2399561,15.4804395 34.2202446,16.3 L34.2202446,16.3 Z M34.3139987,16.3 C34.3139987,15.7337529 34.633793,15.2232621 35.1242621,15.0065687 C35.6147311,14.7898753 36.1792854,14.9096533 36.5546742,15.3100505 C36.930063,15.7104477 37.0423598,16.3126127 36.8392009,16.8357568 C36.6360419,17.358901 36.1574359,17.7 35.626556,17.7 C35.2761224,17.7082786 34.9377397,17.5634391 34.6898849,17.2990722 C34.4420302,17.0347053 34.3062371,16.6737795 34.3139987,16.3 L34.3139987,16.3 Z" id="Shape" fill="#272525"></path>
                <path d="M39.1892116,18.1 L38.8141952,18.1 L38.8141952,14.6 L39.2829657,14.6 C39.9392444,14.6 40.5017689,14.8 40.5017689,15.6 C40.5041908,16.1154781 40.1388481,16.548458 39.6579821,16.6 L40.6892771,18.2 L40.2205067,18.2 L39.1892116,16.7 L39.1892116,16.7 L39.1892116,18.1 Z M39.1892116,16.2 L39.2829657,16.2 C39.6579821,16.2 40.1267526,16.1 40.1267526,15.6 C40.1267526,15.1 39.7517362,15 39.2829657,15 L39.1892116,15 L39.1892116,16.2 Z" id="Shape" fill="#272525"></path>
                <path d="M38.9079493,14.5 L38.9079493,14.5 L38.9079493,18.1 L39.3767198,18.1 L39.3767198,16.6 L39.4704739,16.6 L40.4080149,18.1 L40.9705394,18.1 C40.9705394,18.1 39.9392444,16.6 39.9392444,16.5 C40.4040568,16.4424575 40.7386765,15.9963174 40.6892771,15.5 C40.6892771,14.8 40.3142608,14.5 39.4704739,14.5 L38.9079493,14.5 Z M39.3767198,14.6 C40.1267526,14.6 40.5017689,14.9 40.5017689,15.5 C40.5227219,15.7275301 40.4536666,15.9540594 40.3112633,16.1249359 C40.16886,16.2958123 39.9660403,16.3955187 39.7517362,16.4 L39.6579821,16.4 C39.6579821,16.4 40.595523,17.8 40.6892771,18 L40.3142608,18 L39.3767198,16.5 L39.2829657,16.5 L39.2829657,18 L39.0017034,18 L39.0017034,14.6 L39.3767198,14.6 Z" id="Shape" fill="#272525"></path>
                <path d="M39.1892116,14.9 L39.1892116,14.9 L39.1892116,16.2 L39.3767198,16.2 C39.7517362,16.2 40.2205067,16.1 40.2205067,15.5 C40.2205067,14.9 39.7517362,14.8 39.3767198,14.8 L39.1892116,14.8 L39.1892116,14.9 Z M39.3767198,15 C39.7517362,15 40.1267526,15 40.1267526,15.6 C40.1267526,16.2 39.7517362,16.2 39.3767198,16.2 L39.2829657,16.2 C39.2829657,16.1 39.2829657,15 39.3767198,15 Z" id="Shape" fill="#272525"></path>
                <polygon id="Shape" fill="#272525" points="44.0644245 14.6 44.533195 14.6 43.0331295 16.2 44.6269491 18.1 44.1581786 18.1 42.8456213 16.5 42.7518672 16.6 42.7518672 18.1 42.3768508 18.1 42.3768508 14.6 42.7518672 14.6 42.7518672 16.1"></polygon>
                <path d="M44.533195,14.5 L44.0644245,14.5 L42.7518672,15.9 L42.7518672,14.5 L42.2830967,14.5 L42.2830967,18.1 L42.7518672,18.1 L42.7518672,16.6 L42.8456213,16.6 C42.8456213,16.7 44.1581786,18.2 44.1581786,18.2 L44.8144573,18.2 C44.8144573,18.2 43.2206377,16.4 43.2206377,16.3 C43.2206377,16.2 44.6269491,14.5 44.533195,14.5 L44.533195,14.5 Z M44.533195,14.6 L43.0331295,16.2 L44.6269491,18 L44.1581786,18 L42.8456213,16.4 L42.8456213,16.4 L42.7518672,16.5 L42.7518672,18 L42.4706049,18 L42.4706049,14.6 L42.7518672,14.6 L42.7518672,16.1 L44.1581786,14.6 L44.533195,14.6 Z" id="Shape" fill="#272525"></path>
            </g>
        </g>
    </g>
</svg>