<?xml version="1.0" encoding="UTF-8"?>
<svg width="89px" height="49px" viewBox="0 0 89 49" version="1.1" xmlns="http://www.w3.org/2000/svg" xmlns:xlink="http://www.w3.org/1999/xlink">
    <!-- Generator: Sketch 48.1 (47250) - http://www.bohemiancoding.com/sketch -->
    <title>Group 42</title>
    <desc>Created with Sketch.</desc>
    <defs>
        <rect id="path-1" x="0" y="0" width="85" height="45"></rect>
        <filter x="-4.1%" y="-5.6%" width="108.2%" height="115.6%" filterUnits="objectBoundingBox" id="filter-2">
            <feOffset dx="0" dy="1" in="SourceAlpha" result="shadowOffsetOuter1"></feOffset>
            <feGaussianBlur stdDeviation="1" in="shadowOffsetOuter1" result="shadowBlurOuter1"></feGaussianBlur>
            <feComposite in="shadowBlurOuter1" in2="SourceAlpha" operator="out" result="shadowBlurOuter1"></feComposite>
            <feColorMatrix values="0 0 0 0 0   0 0 0 0 0   0 0 0 0 0  0 0 0 0.5 0" type="matrix" in="shadowBlurOuter1"></feColorMatrix>
        </filter>
    </defs>
    <g id="Billing-&amp;-Payments" stroke="none" stroke-width="1" fill="none" fill-rule="evenodd">
        <g id="Group-42" transform="translate(2.000000, 1.000000)">
            <g id="Rectangle-Copy">
                <use fill="black" fill-opacity="1" filter="url(#filter-2)" xlink:href="#path-1"></use>
                <use fill="#FFFFFF" fill-rule="evenodd" xlink:href="#path-1"></use>
                <rect stroke="#979797" stroke-width="1" x="0.5" y="0.5" width="84" height="44"></rect>
            </g>
            <g id="mastercard" transform="translate(18.000000, 7.000000)" fill-rule="nonzero">
                <ellipse id="Oval" fill="#ED1B2E" cx="14.5886364" cy="15.5605325" rx="14.5886364" ry="15.5605325"></ellipse>
                <path d="M34.0772727,-2.71050543e-20 C30.4517353,-0.0101460981 26.9545894,1.43103892 24.2772727,4.03861148 C23.7385458,4.53414272 23.2530024,5.09187074 22.8295455,5.70156915 L25.8363636,5.70156915 C26.2694024,6.20568947 26.6433593,6.76410743 26.95,7.36452682 L21.7159091,7.36452682 C21.3818182,7.83965758 21.1590909,8.43357104 20.825,9.02748449 L27.7295455,9.02748449 C27.9522727,9.62139794 28.175,10.0965287 28.3977273,10.6904422 L20.2681818,10.6904422 C20.0685993,11.2277197 19.9193865,11.7847566 19.8227273,12.3533998 L28.7318182,12.3533998 C28.9588854,13.4453208 29.0709432,14.5608695 29.0659091,15.6793152 C29.0973949,17.3793715 28.8330791,19.0709187 28.2863636,20.6681882 L20.1568182,20.6681882 C20.3320428,21.2428777 20.5556827,21.7994682 20.825,22.3311458 L27.7295455,22.3311458 C27.4750275,22.9101405 27.1770895,23.4662671 26.8386364,23.9941035 L21.6045455,23.9941035 C21.9383875,24.5758387 22.3105354,25.1315554 22.7181818,25.6570612 L25.725,25.6570612 C25.270554,26.2385034 24.7872886,26.7936148 24.2772727,27.3200188 C28.5517739,31.4545059 34.7093532,32.5131462 39.9853214,30.0206211 C45.2612895,27.528096 48.6640933,21.9528449 48.6659091,15.7980979 C48.7378161,11.6263668 47.2311617,7.5996145 44.4861143,4.62699077 C41.741067,1.65436705 37.989082,-0.0134842675 34.0772727,-1.72232291e-15 L34.0772727,-2.71050543e-20 Z" id="Shape" fill="#FCB131"></path>
                <polygon id="Shape" fill="#FFFFFF" points="7.79545455 19.7179266 6.125 19.7179266 7.01590909 13.5412267 5.01136364 19.7179266 4.00909091 19.7179266 3.675 13.6600094 2.89545455 19.7179266 1.33636364 19.7179266 2.56136364 11.7594864 4.78863636 11.7594864 5.01136364 16.6295767 6.45909091 11.7594864 9.02045455 11.7594864"></polygon>
                <path d="M11.5818182,16.7483594 L11.2477273,16.7483594 C10.3568182,16.7483594 9.91136364,17.1047075 9.91136364,17.6986209 C9.88539954,18.0578207 10.1322559,18.3737831 10.4681818,18.411317 C11.025,18.411317 11.4704545,17.6986209 11.5818182,16.7483594 Z M12.6954545,19.7179266 L11.3590909,19.7179266 L11.3590909,19.0052305 C10.9409786,19.5266928 10.3319033,19.8298637 9.68863636,19.8367093 C9.26529867,19.8340867 8.8635727,19.6369205 8.58631124,19.2956905 C8.30904978,18.9544605 8.18317311,18.5022981 8.24090909,18.054969 C8.24090909,16.510794 9.24318182,15.5605325 11.025,15.5605325 L11.6931818,15.5605325 C11.6931818,15.3229671 11.8045455,15.2041844 11.8045455,15.0854017 C11.8045455,14.6102709 11.5818182,14.4914883 10.8022727,14.4914883 C10.2409565,14.5291893 9.68278611,14.6085701 9.13181818,14.7290536 C9.13181818,14.6102709 9.35454545,13.3036614 9.35454545,13.3036614 C9.96654115,13.0895988 10.6040044,12.9696109 11.2477273,12.9473133 C12.5840909,12.9473133 13.3636364,13.5412267 13.3636364,14.8478363 C13.3727081,15.2864542 13.3353506,15.7247634 13.2522727,16.1544459 C13.1409091,17.2234901 12.6954545,19.1240132 12.6954545,19.7179266 Z" id="Shape" fill="#FFFFFF"></path>
                <path d="M33.9659091,11.9970518 L33.7431818,13.6600094 C33.3131152,13.3572657 32.8106924,13.1923751 32.2954545,13.1848787 C31.0704545,13.1848787 30.2909091,14.3727056 30.2909091,16.1544459 C30.2909091,17.3422728 30.8477273,18.054969 31.7386364,18.054969 C32.2024621,18.0364901 32.6575892,17.9151281 33.075,17.6986209 L32.7409091,19.4803613 C32.2665537,19.6086826 31.7817632,19.6882345 31.2931818,19.7179266 C29.6227273,19.7179266 28.5090909,18.411317 28.5090909,16.2732286 C28.5090909,13.422444 29.9568182,11.521921 32.0727273,11.521921 C32.7283264,11.5345451 33.3738166,11.6965435 33.9659091,11.9970518 Z" id="Shape" fill="#FFFFFF"></path>
                <path d="M36.5272727,16.7483594 L36.1931818,16.7483594 C35.3022727,16.7483594 34.8568182,17.1047075 34.8568182,17.6986209 C34.8308541,18.0578207 35.0777105,18.3737831 35.4136364,18.411317 C36.0818182,18.411317 36.5272727,17.6986209 36.5272727,16.7483594 Z M37.7522727,19.7179266 L36.4159091,19.7179266 L36.4159091,19.0052305 C35.9977968,19.5266928 35.3887215,19.8298637 34.7454545,19.8367093 C34.3221169,19.8340867 33.9203909,19.6369205 33.6431294,19.2956905 C33.365868,18.9544605 33.2399913,18.5022981 33.2977273,18.054969 C33.2977273,16.510794 34.3,15.5605325 36.0818182,15.5605325 L36.75,15.5605325 C36.75,15.3229671 36.8613636,15.2041844 36.8613636,15.0854017 C36.8613636,14.6102709 36.6386364,14.4914883 35.8590909,14.4914883 C35.2977747,14.5291893 34.7396043,14.6085701 34.1886364,14.7290536 C34.1886364,14.6102709 34.4113636,13.3036614 34.4113636,13.3036614 C35.0233593,13.0895988 35.6608226,12.9696109 36.3045455,12.9473133 C37.6409091,12.9473133 38.4204545,13.5412267 38.4204545,14.8478363 C38.4295263,15.2864542 38.3921688,15.7247634 38.3090909,16.1544459 C38.0506419,17.3280106 37.8646366,18.5183925 37.7522727,19.7179266 Z" id="Shape" fill="#FFFFFF"></path>
                <path d="M19.8227273,19.599144 C19.4614027,19.7241043 19.0876811,19.8038281 18.7090909,19.8367093 C17.9295455,19.8367093 17.4840909,19.3615786 17.4840909,18.411317 C17.5262218,17.8526424 17.6006053,17.2972696 17.7068182,16.7483594 C17.8181818,16.1544459 18.375,12.3533998 18.375,12.3533998 L19.9340909,12.3533998 L19.7113636,13.3036614 L20.4909091,13.3036614 L20.2681818,14.8478363 L19.4886364,14.8478363 C19.2659091,16.0356632 19.0431818,17.5798382 19.0431818,17.8174036 C19.0431818,18.054969 19.1545455,18.2925344 19.6,18.2925344 C19.8227273,18.2925344 19.9340909,18.2925344 20.0454545,18.1737517 L19.8227273,19.599144 Z" id="Shape" fill="#FFFFFF"></path>
                <path d="M24.6113636,19.4803613 C24.0631832,19.6177086 23.5036777,19.6972792 22.9409091,19.7179266 C22.2046686,19.8307766 21.4616182,19.5669582 20.9356695,19.0059708 C20.4097209,18.4449835 20.1623803,17.6524309 20.2681818,16.8671421 C20.2681818,14.6102709 21.4931818,13.066096 23.0522727,13.066096 C23.6428228,13.0311387 24.2179669,13.2745965 24.6253339,13.731971 C25.0327008,14.1893455 25.2311774,14.8144764 25.1681818,15.4417498 C25.1403442,15.9628805 25.065761,16.4799678 24.9454545,16.9859248 L21.8272727,16.9859248 C21.7159091,17.9361863 22.2727273,18.2925344 23.1636364,18.2925344 C23.7367621,18.2894793 24.3039501,18.1684845 24.8340909,17.9361863 L24.6113636,19.4803613 Z M23.7204545,15.6793152 C23.7204545,15.5605325 23.8318182,14.4914883 22.9409091,14.4914883 C22.3840909,14.4914883 22.05,14.8478363 21.9386364,15.6793152 L23.7204545,15.6793152 Z" id="Shape" fill="#FFFFFF"></path>
                <path d="M13.6977273,15.3229671 C13.6570629,16.1519651 14.1692257,16.8968966 14.9227273,17.1047075 C15.5909091,17.4610555 15.7022727,17.5798382 15.7022727,17.8174036 C15.7022727,18.054969 15.3681818,18.411317 14.8113636,18.411317 C14.3227823,18.3816249 13.8379917,18.302073 13.3636364,18.1737517 L13.1409091,19.599144 C13.6903087,19.7292879 14.249188,19.8087695 14.8113636,19.8367093 C16.4818182,19.8367093 17.2613636,19.1240132 17.2613636,17.6986209 C17.3034847,16.906482 16.8494624,16.1800782 16.1477273,15.9168805 C15.4795455,15.5605325 15.3681818,15.5605325 15.3681818,15.2041844 C15.3681818,14.8478363 15.5909091,14.7290536 16.1477273,14.7290536 C16.5224064,14.709589 16.8977175,14.7496204 17.2613636,14.8478363 L17.4840909,13.3036614 C17.0073633,13.2051336 16.5216105,13.1652787 16.0363636,13.1848787 C14.2545455,13.066096 13.6977273,14.1351402 13.6977273,15.3229671 Z" id="Shape" fill="#FFFFFF"></path>
                <path d="M46.1045455,19.7179266 L44.6568182,19.7179266 L44.7681818,19.1240132 C44.4021006,19.5696721 43.8759144,19.8287063 43.3204545,19.8367093 C42.2068182,19.8367093 41.4272727,18.7676651 41.4272727,17.2234901 C41.4272727,15.0854017 42.6522727,13.3036614 43.9886364,13.3036614 C44.6077154,13.2768736 45.1963716,13.5908098 45.5477273,14.1351402 L45.8818182,11.8782691 L47.4409091,11.8782691 L46.1045455,19.7179266 Z M43.7659091,18.1737517 C44.5454545,18.1737517 44.9909091,17.2234901 44.9909091,16.0356632 C44.9909091,15.2041844 44.6568182,14.7290536 44.1,14.7290536 C43.5431818,14.7290536 42.875,15.6793152 42.875,16.8671421 C42.9863636,17.6986209 43.2090909,18.1737517 43.7659091,18.1737517 Z" id="Shape" fill="#FFFFFF"></path>
                <path d="M39.0886364,13.1848787 C38.8659091,15.2041844 38.5318182,17.2234901 38.3090909,19.1240132 L38.1977273,19.599144 L39.7568182,19.599144 C40.3136364,15.6793152 40.425,14.8478363 41.3159091,14.966619 C41.4355974,14.3132447 41.6223272,13.6759016 41.8727273,13.066096 C41.2045455,12.9473133 40.8704545,13.3036614 40.3136364,14.1351402 C40.3136364,13.7787921 40.425,13.5412267 40.425,13.1848787 L39.0886364,13.1848787 L39.0886364,13.1848787 Z" id="Shape" fill="#FFFFFF"></path>
                <path d="M26.0590909,13.1848787 C25.8363636,15.2041844 25.5022727,17.2234901 25.2795455,19.1240132 L25.1681818,19.599144 L26.7272727,19.599144 C27.2840909,15.6793152 27.3954545,14.8478363 28.2863636,14.966619 C28.406052,14.3132447 28.5927817,13.6759016 28.8431818,13.066096 C28.175,12.9473133 27.8409091,13.3036614 27.2840909,14.1351402 C27.2840909,13.7787921 27.3954545,13.5412267 27.3954545,13.1848787 L26.0590909,13.1848787 Z" id="Shape" fill="#FFFFFF"></path>
                <path d="M46.7727273,19.1240132 C46.7727273,18.8616057 46.9721641,18.6488824 47.2181818,18.6488824 C47.4641996,18.6488824 47.6636364,18.8616057 47.6636364,19.1240132 C47.6636364,19.3864207 47.4641996,19.599144 47.2181818,19.599144 C46.9954545,19.7179266 46.7727273,19.4803613 46.7727273,19.1240132 Z M47.2181818,19.599144 C47.4026951,19.599144 47.5522727,19.4396015 47.5522727,19.2427959 C47.5522727,19.0459903 47.4026951,18.8864478 47.2181818,18.8864478 C47.0336685,18.8864478 46.8840909,19.0459903 46.8840909,19.2427959 C46.9326756,19.4136336 47.0580145,19.5473226 47.2181818,19.599144 L47.2181818,19.599144 Z M47.2181818,19.3615786 L47.2181818,19.3615786 L47.1068182,18.8864478 L47.4409091,18.8864478 L47.4409091,19.0052305 C47.4409091,19.0708324 47.3910499,19.1240132 47.3295455,19.1240132 L47.4409091,19.3615786 L47.2181818,19.3615786 L47.1068182,19.2427959 L47.1068182,19.3615786 L47.2181818,19.3615786 Z M47.2181818,19.1240132 L47.3295455,19.1240132 C47.3295455,19.0052305 47.2181818,19.0052305 47.2181818,19.1240132 Z" id="Shape" fill="#FFFFFF"></path>
            </g>
        </g>
    </g>
</svg>