<?xml version="1.0" encoding="utf-8"?>
<!-- Generator: Adobe Illustrator 19.2.1, SVG Export Plug-In . SVG Version: 6.00 Build 0)  -->
<svg version="1.1" id="icons" xmlns="http://www.w3.org/2000/svg" xmlns:xlink="http://www.w3.org/1999/xlink" x="0px" y="0px"
	 viewBox="0 0 146.1 73.5" style="enable-background:new 0 0 146.1 73.5;" xml:space="preserve">
<style type="text/css">
	.st0{fill:#0073AE;}
</style>
<title>icon</title>
<path class="st0" d="M53.8,0.8h-33v20H0v31.9h20.8v20h33.1v-20h20.8v-32H53.8V0.8L53.8,0.8z M24.7,52.3L24.7,52.3
	c-4.9-3.7-7.8-9.4-7.9-15.5c0-2.4,0.4-4.8,1.3-7l0,0l13.8,1.3c1.6,0.1,2.7,1.5,2.5,3.1c0,0.4-0.2,0.8-0.3,1.1L24.7,52.3L24.7,52.3
	L24.7,52.3z M37.3,56.5c-4,0-7.9-1.1-11.3-3.2l0,0l10-14.4c0.4-0.7,1.4-0.9,2.1-0.5c0.2,0.1,0.4,0.3,0.5,0.5l10,14.4l0,0
	C45.3,55.4,41.3,56.5,37.3,56.5L37.3,56.5z M56.5,29.8L56.5,29.8c0.9,2.2,1.3,4.6,1.3,7c0,6.1-2.9,11.8-7.8,15.5l0,0l0,0l-9.4-17
	c-0.8-1.4-0.3-3.1,1.1-3.9c0.3-0.2,0.7-0.3,1.1-0.3L56.5,29.8L56.5,29.8L56.5,29.8z M55.9,28.4H41.3c-2.1,0-3-1.2-3-2.2
	c0-1.1,0.1-1.5,1.1-2.7c0.8-1.1,0.6-2.7-0.6-3.5s-2.7-0.6-3.5,0.6c-0.6,0.9-0.6,2.1,0,3c1,1.2,1.2,1.6,1.1,2.7c0,1-1,2.1-3,2.2H18.8
	c5.2-10.3,17.8-14.3,28-9.1C50.7,21.3,53.9,24.5,55.9,28.4z"/>
<path class="st0" d="M24.7,52.3L24.7,52.3L24.7,52.3z"/>
<path class="st0" d="M30.6,33.7l-10.4-0.9c-1.3,5.3,0.1,11,3.8,15.1l7.3-13.4C31.4,34,31.4,33.7,30.6,33.7z"/>
<path class="st0" d="M50,52.3L50,52.3L50,52.3z"/>
<path class="st0" d="M50.7,47.9c3.7-4.1,5.1-9.8,3.8-15.1l-10.4,0.9c-0.8,0.1-0.8,0.4-0.6,0.8L50.7,47.9z"/>
<path class="st0" d="M41.5,25.3c-0.1,0.1-0.1,0.2-0.1,0.3l0.1,0.1h9.2c-2.3-2.5-5.2-4.4-8.5-5.3C43.3,22.1,42.5,24.3,41.5,25.3z"/>
<path class="st0" d="M26.1,53.3L26.1,53.3L26.1,53.3z"/>
<path class="st0" d="M48.6,53.3L48.6,53.3L48.6,53.3z"/>
<path class="st0" d="M141.5,0c-8.1,4-17,6.1-26,6c-9,0.1-17.9-2-26-6c-5.4,10.2-6.2,26.5-1.5,40.4c4.5,13.3,13.2,25.5,27.5,33.1
	c14.3-7.6,23-19.8,27.5-33.1C147.7,26.5,146.9,10.2,141.5,0z M137.6,38.8c-4,11.4-10.3,21.4-22.1,28.5l0,0
	c-11.8-7-18.1-17.1-22.1-28.5C89.9,28.7,89,16.9,92.9,7.6c4.1,1.4,8.3,2.4,12.6,3c3.3,0.5,6.7,0.8,10,0.8l0,0c3.3,0,6.7-0.3,10-0.8
	c4.3-0.6,8.5-1.6,12.6-3C142.1,16.9,141.2,28.7,137.6,38.8L137.6,38.8z"/>
<path class="st0" d="M115.5,67.3L115.5,67.3z"/>
<path class="st0" d="M115.5,64.5L115.5,64.5L115.5,64.5z"/>
<path class="st0" d="M125.8,13.3c-3.4,0.5-6.8,0.7-10.2,0.8l0,0c-3.4-0.1-6.8-0.3-10.2-0.8c-3.5-0.5-7-1.2-10.4-2.1
	c-2.5,6.8-2,15.4,0,23.1c3.6,14.4,12.7,25.4,20.6,30.2c8-4.8,17-15.8,20.6-30.2c1.9-7.7,2.4-16.2,0-23.1
	C132.8,12.1,129.3,12.8,125.8,13.3z M114,57.8c-0.1,0.7,0.1,1-0.1,1.4c-0.1,0.2-0.4,0.4-0.6,0.3c-0.1,0-0.2-0.2-0.3-0.3
	c-0.4-0.5-0.5-1.2-0.4-1.8c0.1-0.8,0.4-1.6,1-2.2c0.3-0.3,0.5-0.5,0.8-0.7V57C114.2,57.2,114.1,57.5,114,57.8z M117.2,60.1
	c-0.1,0.5-0.5,0.8-0.9,0.7c0,0,0,0-0.1,0c-0.5,0.1-0.9-0.2-1-0.7c0-0.1,0-0.1,0-0.2c-0.1-2.8-0.2-8.3-0.2-8.3
	c0.4,0.1,0.8,0.3,1.2,0.5c0.4,0.2,0.7,0.4,1,0.7c0.1,0.1,0.1,0.2,0.1,0.3C117.4,55.3,117.3,59.2,117.2,60.1L117.2,60.1z M119.5,54.8
	c-0.5,0.3-1,0.6-1.6,0.7v-2.1c0.2-0.1,0.3-0.3,0.2-0.5c-0.1-0.4-1.6-1.3-2.4-1.6s-1.9-0.7-2.7-1c-1.6-0.7-2.4-2.5-1.7-4.1l0,0
	c0.3-0.6,0.8-1,1.3-1.3c0.4-0.2,0.9-0.3,1.4-0.4v2.4c-0.1,0.1-0.2,0.2-0.2,0.3c0,0.2,0.1,0.5,0.3,0.6c1.4,0.5,2.8,1.2,4.1,1.9
	c1.7,1,2.2,1.9,2.2,3C120.6,53.4,120.2,54.2,119.5,54.8L119.5,54.8z M114.8,42.9c1.2,0.1,1.8,0.2,2.8,0.3l-0.1,5.4l-1.4-0.6
	l-1.4-0.6L114.8,42.9z M122.2,44.1c-0.3,0.9-0.9,1.7-1.8,2.1c-0.7,0.4-1.5,0.6-2.3,0.6l0.1-3c0.2-0.1,0.4-0.2,0.6-0.3
	c0.1-0.2,0.2-0.4,0.1-0.6c-0.1-0.2-0.3-0.4-0.5-0.4c-0.3-0.1-0.6-0.1-0.9-0.2c-1.5-0.1-3-0.3-4.4-0.6c-1.9-0.4-3.5-1.8-3.3-4.2
	c0.1-1.3,1-2.5,2.3-3c0.3,0.5,0.5,1.1,0.7,1.6c0.2,0.7,0.5,1.4,0.5,1.4c-0.3,0.1-0.4,0.4-0.4,0.7c0.1,0.3,0.3,0.5,0.6,0.5
	c1.9,0.2,3.9,0.2,5.7,0.8c0.9,0.3,1.7,0.7,2.3,1.4C122.3,41.9,122.5,43.1,122.2,44.1L122.2,44.1z M112.6,33.5c0-0.2,0-0.4,0.2-0.6
	c0.3-0.2,0.5-0.4,0.8-0.5v-0.5c0,0,0.7,0,2.2,0.1c0.7,0,1.3,0.1,2,0.2v6.3c-1.4-0.2-2.4-0.1-3.6-0.3C113.9,36.6,113.3,35,112.6,33.5
	z M118.5,37.6c0,0,0.1-2.5,0.1-3.7c0.6-0.1,1-0.8,0.9-1.4c0-0.1-0.1-0.2-0.1-0.3c-0.2-0.3-0.5-0.5-0.8-0.6c-1.4-0.3-2.9-0.5-4.4-0.5
	c-1.2,0-2.5-0.2-3.7-0.5c-2.4-0.6-4.4-2.2-5.5-4.4c-1.3-2.6-0.2-5.8,2.4-7.1c2-0.9,4.4-0.9,6.4-0.1c0.6,0.3,1.2,0.8,1.5,1.4
	c0.2,0.2,0.5,0.4,0.7,0.7c0.1,0.2-0.1,0.2-0.2,0.3c-0.8,0.1-1.6,0.1-2.5,0.1c-0.8-0.1-1.5,0-2.3,0.1c0.6,0.3,1.3,0.6,2,0.9
	c0.4,0.1,0.8,0.3,1.1,0.4c0.2,0.1,0.3,0.2,0.5,0.3c-0.2,0.2-0.4,0.3-0.7,0.3c-0.7,0.2-1.4,0.2-2.1,0c-1.2-0.3-2.1-0.9-2.9-0.7
	c-0.5,0.4-0.7,1-0.5,1.6c0.3,1.2,1.8,1.7,2.9,2c3.2,1,6.7,0.3,9.8,1.9c1.3,0.7,2.2,1.8,2.5,3.2C124.8,37.1,118.5,37.6,118.5,37.6
	L118.5,37.6z M124.3,21c-0.2,0.4-0.4,0.8-0.8,1c-0.7,0.8-1.8,1.4-2.7,2.4c-0.7,0.6-1.3,1.2-1.8,1.9c-0.2,0.2-0.4,0.6-0.4,0.6
	c-1.8-0.3-3.6-0.3-4.9-0.6v-2c0,0,1.4-0.2,1.7-0.9c0-0.2-0.1-0.3-0.2-0.4c-0.2-0.2-0.5-0.3-0.8-0.4c1.3,0.2,2.5,0.5,3.7,1
	c0.1-0.2,0.1-0.4-0.1-0.6s-0.5-0.4-0.8-0.4c-0.8-0.2-3.1-0.5-3.1-0.5c0.6,0,1.3-0.1,1.9-0.2c0.3,0,0.6-0.1,0.9-0.3
	c0-0.3-0.1-0.7-0.4-0.8c-0.2-0.2-0.4-0.4-0.6-0.6c-0.3-0.4-0.6-0.8-0.9-1.1c-0.4-0.3-0.7-0.5-1.1-0.7c-0.1-0.5-0.1-1,0.1-1.5
	c0.2-0.3,0.5-0.5,0.8-0.4c1,0.6,2.2,1.1,3.4,1.3c0.2,0.1,0.4,0.4,0.4,0.6c0.2,0.9,0,2.2,0.2,2.8c0.1,0.2,0.3,0.2,0.4,0.1l0,0
	c1.3-0.7,2.1-1.8,3.4-2.3C123,19,124.7,19.8,124.3,21L124.3,21z"/>
<path class="st0" d="M112,19.7c0.4,0.3,0.3,0.8,0.9,0.7c0.3-0.1,0.5-0.2,0.7-0.4c0.1,0,0.2,0,0.2,0c-0.6-0.6-1.7-0.5-2.6-0.6
	C111.5,19.6,111.7,19.7,112,19.7z"/>
<path class="st0" d="M37,42.2c0.1-0.1,0.2-0.2,0.3-0.2C37.2,42,37.1,42.1,37,42.2z"/>
<path class="st0" d="M37.3,42c-0.1,0-0.2,0.1-0.3,0.2h0.6C37.6,42.1,37.5,42,37.3,42z"/>
<path class="st0" d="M37,42.2l-6.9,10.2c4.6,2,9.8,2,14.4,0l-6.9-10.2H37z"/>
<path class="st0" d="M37.3,42c0.1,0,0.2,0.1,0.3,0.2C37.6,42.1,37.5,42,37.3,42z"/>
<path class="st0" d="M32.4,20.5c-3.3,0.9-6.2,2.7-8.5,5.3h9.2c0.1,0,0.2-0.2,0.2-0.3c0-0.1,0-0.1-0.1-0.1
	C32.2,24.3,31.4,22.1,32.4,20.5z"/>
<path class="st0" d="M133.8,68.5c0-0.7-0.6-1.1-1.7-1.1h-1.5v3.9h0.8v-1.6h0.8l0.8,1.7h0.9l-0.9-1.8
	C133.4,69.6,133.8,69.1,133.8,68.5L133.8,68.5z M132,69.2h-0.6V68h0.7c0.7,0,1,0.2,1,0.7S132.7,69.2,132,69.2L132,69.2z"/>
<path class="st0" d="M132,66c-1.9,0-3.5,1.5-3.6,3.4c0,0.9,0.4,1.8,1,2.4c0.7,0.7,1.6,1,2.5,1s1.9-0.4,2.6-1c0.7-0.6,1-1.5,1-2.4
	s-0.4-1.8-1-2.4C133.8,66.4,132.9,66,132,66z M134.2,71.6c-0.6,0.6-1.4,0.9-2.2,0.9s-1.6-0.3-2.2-0.9c-0.6-0.5-0.9-1.3-0.9-2.1
	c0-0.8,0.4-1.6,0.9-2.1c0.6-0.6,1.4-0.9,2.2-0.9s1.6,0.3,2.2,0.9c0.6,0.6,0.9,1.3,0.9,2.1C135.1,70.3,134.8,71.1,134.2,71.6z"/>
<path class="st0" d="M60.1,66c-1.9,0-3.5,1.5-3.6,3.4l0,0c0,0.9,0.4,1.8,1,2.4c0.7,0.7,1.6,1,2.5,1s1.9-0.4,2.5-1
	c0.7-0.6,1-1.5,1-2.4s-0.4-1.8-1-2.4C62,66.4,61.1,66,60.1,66z M62.3,71.6c-0.6,0.6-1.4,0.9-2.2,0.9s-1.6-0.3-2.2-0.9
	C57.4,71,57,70.3,57,69.5s0.3-1.6,0.9-2.1c1.2-1.2,3.2-1.2,4.4,0c0.6,0.6,0.9,1.3,0.9,2.1C63.3,70.3,62.9,71,62.3,71.6z"/>
<path class="st0" d="M61.9,68.5c0-0.7-0.6-1.1-1.7-1.1h-1.5v3.9h0.8v-1.6h0.8l0.8,1.6H62l-1-1.7C61.5,69.5,61.9,69.1,61.9,68.5z
	 M60.1,69.2h-0.6V68h0.6c0.7,0,1,0.2,1,0.7S60.8,69.2,60.1,69.2z"/>
</svg>
