<svg xmlns="http://www.w3.org/2000/svg" xmlns:xlink="http://www.w3.org/1999/xlink" viewBox="0 0 67.4 17.59"><defs><style>.cls-1{fill:url(#radial-gradient);}.cls-2{fill:#0b1d27;}.cls-3{fill:#272525;}</style><radialGradient id="radial-gradient" cx="28.66" cy="-480.53" r="5.57" gradientTransform="translate(6.42 486.08)" gradientUnits="userSpaceOnUse"><stop offset="0.01" stop-color="#f8eddf"/><stop offset="0.12" stop-color="#f6e7d6"/><stop offset="0.3" stop-color="#f2d8be"/><stop offset="0.52" stop-color="#ebc096"/><stop offset="0.79" stop-color="#e29e5f"/><stop offset="1" stop-color="#d9802e"/></radialGradient></defs><title>discover-logo</title><g id="Layer_2" data-name="Layer 2"><g id="Layer_1-2" data-name="Layer 1"><path class="cls-1" d="M35.08,0a5.55,5.55,0,0,0-5.64,5.44A5.64,5.64,0,1,0,35.08,0Z"/><path class="cls-2" d="M3,.24H0V10.82H3A5.52,5.52,0,0,0,6.8,9.6,5.32,5.32,0,0,0,8.72,5.54C8.72,2.41,6.38.24,3,.24ZM5.45,8.19A3.91,3.91,0,0,1,2.62,9H2.07V2h.55a3.83,3.83,0,0,1,2.83.86A3.55,3.55,0,0,1,6.59,5.52,3.62,3.62,0,0,1,5.45,8.19Z"/><rect class="cls-2" x="9.67" y="0.24" width="2.06" height="10.58"/><path class="cls-2" d="M16.78,4.3c-1.24-.46-1.6-.76-1.6-1.33s.65-1.17,1.54-1.17a2.15,2.15,0,0,1,1.67.86l1.08-1.41A4.63,4.63,0,0,0,16.35.06a3.11,3.11,0,0,0-3.3,3c0,1.46.67,2.21,2.6,2.91a8,8,0,0,1,1.43.6A1.27,1.27,0,0,1,17.7,7.7a1.51,1.51,0,0,1-1.6,1.49,2.44,2.44,0,0,1-2.25-1.41L12.51,9.06a4.12,4.12,0,0,0,3.67,2A3.42,3.42,0,0,0,19.83,7.6C19.83,5.92,19.13,5.16,16.78,4.3Z"/><path class="cls-2" d="M20.48,5.54a5.48,5.48,0,0,0,5.59,5.53,5.7,5.7,0,0,0,2.59-.62V8a3.3,3.3,0,0,1-2.49,1.16A3.46,3.46,0,0,1,22.6,5.52a3.52,3.52,0,0,1,3.46-3.63,3.46,3.46,0,0,1,2.59,1.19V.65A5.28,5.28,0,0,0,26.11,0,5.57,5.57,0,0,0,20.48,5.54Z"/><polygon class="cls-2" points="45.38 7.35 42.56 0.24 40.3 0.24 44.8 11.09 45.91 11.09 50.48 0.24 48.24 0.24 45.38 7.35"/><polygon class="cls-2" points="51.42 10.82 57.27 10.82 57.27 9.03 53.48 9.03 53.48 6.17 57.13 6.17 57.13 4.38 53.48 4.38 53.48 2.03 57.27 2.03 57.27 0.24 51.42 0.24 51.42 10.82"/><path class="cls-2" d="M65.45,3.36c0-2-1.36-3.12-3.75-3.12H58.64V10.82H60.7V6.57H61l2.86,4.25h2.54L63,6.36A2.82,2.82,0,0,0,65.45,3.36ZM61.3,5.11h-.6V1.9h.63c1.29,0,2,.54,2,1.57S62.62,5.11,61.3,5.11Z"/><path class="cls-3" d="M66.9,1c0-.19-.12-.29-.35-.29h-.3v.93h.22V1.31l.26.36H67l-.31-.39A.26.26,0,0,0,66.9,1Zm-.39.13h0V.91h0c.11,0,.17,0,.17.12S66.62,1.15,66.51,1.15Z"/><path class="cls-3" d="M66.59.39a.81.81,0,1,0,.8.81A.81.81,0,0,0,66.59.39Zm0,1.48a.66.66,0,0,1-.65-.67.65.65,0,1,1,1.29,0A.66.66,0,0,1,66.59,1.87Z"/><path class="cls-3" d="M18.5,13.61l2.76,2.89V13.76h.39v3.7L18.9,14.57V17.3h-.4Z"/><path class="cls-3" d="M18.47,13.61v3.73h.47V14.66l2.76,2.89V13.72h-.47v2.69l-2.76-2.89Zm.07.09,2.76,2.89v-2.8h.32v3.57l-2.76-2.89v2.78h-.32Z"/><path class="cls-3" d="M23.57,13.76h1.83v.37H24v1.05h1.4v.37H24v1.39h1.44v.37H23.57Z"/><path class="cls-3" d="M25.41,13.72H23.54v3.62h1.91v-.44H24V15.58h1.4v-.44H24v-1h1.44v-.44Zm0,.07v.29H23.93v1.13h1.4v.29h-1.4V17h1.44v.29H23.61V13.79Z"/><path class="cls-3" d="M28.2,17.3h-.4V14.12h-.85v-.37h2.11v.37H28.2Z"/><path class="cls-3" d="M29.06,13.72H26.91v.44h.86v3.17h.47V14.16h.86v-.44Zm0,.07v.29h-.86v3.18h-.32V14.09H27v-.29Z"/><path class="cls-3" d="M31.7,16.41l1.15-2.84L34,16.41l.93-2.65h.43L34,17.48l-1.15-2.85L31.7,17.48l-1.36-3.72h.43Z"/><path class="cls-3" d="M32.81,13.56,31.7,16.31l-.91-2.59h-.51l1.41,3.87,1.15-2.86L34,17.59l1.41-3.87h-.51L34,16.31l-1.14-2.83Zm-1.08,2.87,1.11-2.75L34,16.52l1-2.72h.35L34,17.38l-1.14-2.85L31.7,17.38l-1.31-3.59h.35l1,2.72Z"/><path class="cls-3" d="M40.45,15.53A1.85,1.85,0,1,1,38.6,13.7,1.84,1.84,0,0,1,40.45,15.53Zm-3.3,0a1.45,1.45,0,1,0,1.45-1.47A1.46,1.46,0,0,0,37.15,15.53Z"/><path class="cls-3" d="M36.72,15.53a1.88,1.88,0,1,0,1.88-1.87A1.88,1.88,0,0,0,36.72,15.53Zm.07,0a1.81,1.81,0,1,1,1.81,1.79A1.81,1.81,0,0,1,36.79,15.53Z"/><path class="cls-3" d="M37.11,15.53A1.49,1.49,0,1,0,38.6,14,1.5,1.5,0,0,0,37.11,15.53Zm.07,0A1.41,1.41,0,1,1,38.6,17,1.42,1.42,0,0,1,37.19,15.53Z"/><path class="cls-3" d="M42.55,17.3h-.39V13.76h.51c.67,0,1.29.18,1.29,1a.92.92,0,0,1-.89,1l1.13,1.59h-.48l-1.07-1.56h-.1Zm0-1.9h.12c.45,0,.9-.08.9-.63s-.43-.64-.9-.64h-.12Z"/><path class="cls-3" d="M42.16,13.72h0v3.62h.47V15.78h.06s1,1.54,1,1.54l.51,0h.07l-1.14-1.6a1,1,0,0,0,.86-1c0-.68-.44-1-1.33-1Zm.51.07c.86,0,1.26.3,1.26.94a.89.89,0,0,1-.85.94H43l1.12,1.58h-.41s-1-1.54-1-1.54l-.13,0h0v1.55H42.2V13.79Z"/><path class="cls-3" d="M42.55,14.09h0v1.35h.16c.44,0,.93-.08.93-.67s-.48-.68-.94-.68Zm.12.08c.45,0,.86,0,.86.6s-.43.6-.86.6h-.08v-1.2Z"/><path class="cls-3" d="M47.78,13.76h.53l-1.66,1.65,1.72,1.89h-.54l-1.45-1.63-.1.1V17.3h-.39V13.76h.39v1.52Z"/><path class="cls-3" d="M48.31,13.72h-.54l-1.46,1.47V13.72h-.47v3.62h.47V15.78l.06,0,1.43,1.6h.66L46.7,15.41l1.7-1.69Zm-.09.07L46.6,15.4l1.69,1.86h-.46s-1.43-1.61-1.43-1.61l0,0-.13.13s0,1.45,0,1.52h-.32V13.79h.32v1.57l1.56-1.57Z"/></g></g></svg>