<svg xmlns="http://www.w3.org/2000/svg" viewBox="0 0 43.5 42.67"><defs><style>.cls-1{fill:#0b91c6;}</style></defs><title>Asset 36</title><g id="Layer_2" data-name="Layer 2"><g id="ID_Card_-_Content" data-name="ID Card - Content"><path class="cls-1" d="M43.5,5.83v31a5.83,5.83,0,0,1-5.83,5.83h-20a5.83,5.83,0,0,1-5.83-5.83V31.77l4.3.92v4a1.7,1.7,0,0,0,1.69,1.69H37.51a1.7,1.7,0,0,0,1.69-1.69V6.14a1.7,1.7,0,0,0-1.69-1.69H17.87a1.7,1.7,0,0,0-1.69,1.69V17.65l-4.3-.31V13.51c-8.59,4-6.6,6-1.84,7.06a7.7,7.7,0,0,0,1.84.31l4.3.46a16.68,16.68,0,0,0,2.76.15c3.07.15,5.37.15,5.37.15V16.88c0-.77.92-.61,1.23-.31l8.9,6.14L38,25.17a.93.93,0,0,1,0,1.23l-3.53,2.46-4.3,3.07L25.69,35a1.16,1.16,0,0,1-.61.31c-.15,0-.61,0-.61-.46V31c-2.3-.46-4.45-.77-6.45-1.23a6.53,6.53,0,0,0-1.69-.31c-1.53-.31-3.07-.77-4.3-1.07-1.07-.31-2-.61-2.92-.92-22.1-7.83,2.92-17,2.92-17V5.83A5.83,5.83,0,0,1,17.87,0h20A5.8,5.8,0,0,1,43.5,5.83Z"/></g></g></svg>
