<svg xmlns="http://www.w3.org/2000/svg" viewBox="0 0 31.85 31.84"><defs><style>.cls-1{fill:#0b91c6;}</style></defs><title>Asset 35</title><g id="Layer_2" data-name="Layer 2"><g id="ID_Card_-_Content" data-name="ID Card - Content">
<polygon class="cls-1" points="14.79 0 31.85 0 31.85 17.06 14.79 0"/><polygon class="cls-1" points="17.06 31.84 0 31.84 0 14.79 17.06 31.84"/>
<path class="cls-1" d="M14.78,22.75,8,29.57a4.09,4.09,0,0,1-5.69,0,4.09,4.09,0,0,1,0-5.69L9.1,17.06a4,4,0,1,1,5.69,5.69Z"/><path class="cls-1" d="M17.06,9.1l6.82-6.82a4.09,4.09,0,0,1,5.69,0,4.09,4.09,0,0,1,0,5.68l-6.82,6.83A4,4,0,0,1,17.06,9.1Z"/>
</g></g></svg>
