<svg id="_COMPS" data-name="*COMPS" xmlns="http://www.w3.org/2000/svg" viewBox="0 0 358.14 213.21"><defs><style>.cls-1{fill:#d8e4ea;stroke:#0e92c7;stroke-width:0.87px;opacity:0.9;}.cls-1,.cls-2{stroke-miterlimit:10;}.cls-2{fill:none;stroke:#05526e;stroke-width:2px;}.cls-3{fill:#29a9e1;}.cls-4{fill:#fff;}.cls-5{fill:#333;}</style></defs><title>idcard</title><rect class="cls-1" x="0.44" y="0.44" width="357.26" height="212.33" rx="5" ry="5"/><line class="cls-2" x1="27.27" y1="137.22" x2="162.05" y2="137.22"/><line class="cls-2" x1="27.27" y1="183.73" x2="162.05" y2="183.73"/><line class="cls-2" x1="27.27" y1="160.45" x2="162.05" y2="160.45"/><line class="cls-2" x1="196.09" y1="137.22" x2="330.87" y2="137.22"/><line class="cls-2" x1="196.09" y1="183.73" x2="330.87" y2="183.73"/><line class="cls-2" x1="196.09" y1="160.45" x2="330.87" y2="160.45"/><polygon id="_Path_" data-name="&lt;Path&gt;" class="cls-3" points="115.36 106.8 115.36 88.49 134.37 88.49 134.37 59.21 115.36 59.21 115.36 40.9 85.06 40.9 85.06 59.21 66.04 59.21 66.04 88.49 85.06 88.49 85.06 106.8 115.36 106.8"/><path id="_Path_2" data-name="&lt;Path&gt;" class="cls-4" d="M962.72,6333.43l12.6,1.18a2.59,2.59,0,0,1,2,3.85l-8.64,15.61,0,0a17.82,17.82,0,0,1-7.2-14.24,17.39,17.39,0,0,1,1.21-6.37h0Z" transform="translate(-880.05 -6265.9)"/><path id="_Path_3" data-name="&lt;Path&gt;" class="cls-3" d="M964.59,6336.1l9.55,0.85c0.69,0,.74.33,0.58,0.72L968,6349.94a15.13,15.13,0,0,1-3.44-13.85" transform="translate(-880.05 -6265.9)"/><path id="_Path_4" data-name="&lt;Path&gt;" class="cls-4" d="M997.89,6333.43l-12.61,1.18a2.59,2.59,0,0,0-2,3.85l8.63,15.61v0a17.83,17.83,0,0,0,7.19-14.24,17.39,17.39,0,0,0-1.2-6.37h0Z" transform="translate(-880.05 -6265.9)"/><path id="_Path_5" data-name="&lt;Path&gt;" class="cls-4" d="M980.31,6321.72a18.84,18.84,0,0,0-17,10.43h13.37c1.91,0,2.75-1.11,2.78-2,0-1-.12-1.37-1-2.47a2.32,2.32,0,1,1,3.76,0c-0.89,1.11-1.06,1.43-1,2.47,0,0.88.87,2,2.78,2h13.37a18.84,18.84,0,0,0-17-10.43" transform="translate(-880.05 -6265.9)"/><path id="_Path_6" data-name="&lt;Path&gt;" class="cls-3" d="M996,6336.1l-9.54.85c-0.69,0-.74.33-0.58,0.72l6.69,12.28A15.14,15.14,0,0,0,996,6336.1" transform="translate(-880.05 -6265.9)"/><path id="_Path_7" data-name="&lt;Path&gt;" class="cls-3" d="M984.8,6324.84a3.88,3.88,0,0,1-.72,4.46,0.21,0.21,0,0,0,.07.38h8.46a16.27,16.27,0,0,0-7.8-4.84" transform="translate(-880.05 -6265.9)"/><path id="_Path_8" data-name="&lt;Path&gt;" class="cls-4" d="M980.31,6357.89a19.22,19.22,0,0,0,10.33-3h0l-9.16-13.18a1.37,1.37,0,0,0-2.34,0L970,6354.92h0a19.23,19.23,0,0,0,10.33,3" transform="translate(-880.05 -6265.9)"/><path id="_Path_9" data-name="&lt;Path&gt;" class="cls-3" d="M1052,6373.41c13.13-7,21.1-18.11,25.2-30.32,4.25-12.67,3.55-27.66-1.38-37a53,53,0,0,1-23.81,5.49,52.27,52.27,0,0,1-23.82-5.49c-4.93,9.34-5.64,24.33-1.38,37,4.1,12.21,12.06,23.33,25.2,30.32" transform="translate(-880.05 -6265.9)"/><path id="_Path_10" data-name="&lt;Path&gt;" class="cls-4" d="M1051.94,6367.75c10.81-6.45,16.57-15.69,20.26-26.12,3.27-9.26,4.07-20.09.47-28.55a66.12,66.12,0,0,1-20.71,3.49h0a61.67,61.67,0,0,1-9.2-.71,62.29,62.29,0,0,1-11.51-2.78c-3.6,8.46-2.8,19.29.47,28.55,3.69,10.43,9.45,19.67,20.26,26.12h0Z" transform="translate(-880.05 -6265.9)"/><path id="_Path_11" data-name="&lt;Path&gt;" class="cls-3" d="M1051.95,6365.19c7.31-4.43,15.6-14.48,18.92-27.7,1.76-7,2.25-14.89,0-21.15a78.24,78.24,0,0,1-9.49,2,77.15,77.15,0,0,1-9.36.73h0a77.13,77.13,0,0,1-9.36-.73,78.3,78.3,0,0,1-9.49-2c-2.29,6.26-1.8,14.14,0,21.15,3.31,13.22,11.61,23.27,18.92,27.7h0Z" transform="translate(-880.05 -6265.9)"/><path id="_Path_12" data-name="&lt;Path&gt;" class="cls-4" d="M1044.49,6323.71a4.9,4.9,0,0,0-2.22,6.5,7.85,7.85,0,0,0,5.07,4,15,15,0,0,0,3.37.45,20.37,20.37,0,0,1,4,.43,1.17,1.17,0,0,1,.75.51,1.05,1.05,0,0,1-.68,1.56c0,1.13-.12,3.41-0.12,3.41s5.73-.53,4.77-5.49a4.55,4.55,0,0,0-2.32-3c-2.87-1.43-6-.8-9-1.73-1-.31-2.37-0.78-2.64-1.85a1.3,1.3,0,0,1,.45-1.43c0.74-.22,1.57.37,2.64,0.61a3.9,3.9,0,0,0,1.89,0,1,1,0,0,0,.62-0.29,0.91,0.91,0,0,0-.43-0.28,9.82,9.82,0,0,0-1-.37,14.22,14.22,0,0,1-1.79-.81,8.26,8.26,0,0,1,2.07-.07,11.05,11.05,0,0,0,2.26-.07c0.09,0,.3-0.1.21-0.25a7.16,7.16,0,0,0-.62-0.6,3.31,3.31,0,0,0-1.41-1.32,7.32,7.32,0,0,0-5.87.06" transform="translate(-880.05 -6265.9)"/><path id="_Path_13" data-name="&lt;Path&gt;" class="cls-4" d="M1054.06,6341.43l0-5.79a15.43,15.43,0,0,0-1.85-.23c-1.41-.09-2-0.06-2-0.06v0.48a2.7,2.7,0,0,0-.78.45,0.61,0.61,0,0,0-.14.51,20.81,20.81,0,0,1,1.54,4.36c1,0.15,2,.11,3.25.28" transform="translate(-880.05 -6265.9)"/><path id="_Path_14" data-name="&lt;Path&gt;" class="cls-4" d="M1046.86,6340.56a3.47,3.47,0,0,0,3,3.88,36.72,36.72,0,0,0,4.06.54,3.13,3.13,0,0,1,.83.14,0.67,0.67,0,0,1,.42.4,0.53,0.53,0,0,1-.1.55,1.36,1.36,0,0,1-.56.28l-0.08,2.73a5,5,0,0,0,2.07-.58,3.14,3.14,0,0,0,1.62-2,3.18,3.18,0,0,0-.62-2.78,4.37,4.37,0,0,0-2.07-1.31,27.83,27.83,0,0,0-5.22-.71,0.61,0.61,0,0,1-.53-0.47,0.66,0.66,0,0,1,.36-0.62s-0.21-.65-0.43-1.28a15.57,15.57,0,0,0-.67-1.5,3.35,3.35,0,0,0-2.08,2.71" transform="translate(-880.05 -6265.9)"/><path id="_Path_15" data-name="&lt;Path&gt;" class="cls-4" d="M1053.92,6345.61l0,4.91-1.28-.57-1.26-.5,0-4.09c1.13,0.13,1.65.14,2.61,0.26" transform="translate(-880.05 -6265.9)"/><path id="_Path_16" data-name="&lt;Path&gt;" class="cls-4" d="M1048.21,6348.31a2.9,2.9,0,0,0,1.57,3.8c0.72,0.34,1.68.65,2.46,0.94a5.18,5.18,0,0,1,2.22,1.48,0.55,0.55,0,0,1-.23.47l0,1.91a3.92,3.92,0,0,0,1.44-.65,2.41,2.41,0,0,0,1-2c0-1-.51-1.86-2.06-2.73a36.52,36.52,0,0,0-3.79-1.71,0.55,0.55,0,0,1-.25-0.57,0.48,0.48,0,0,1,.2-0.28l0-2.21a5.66,5.66,0,0,0-1.28.4,2.71,2.71,0,0,0-1.21,1.16" transform="translate(-880.05 -6265.9)"/><path id="_Path_17" data-name="&lt;Path&gt;" class="cls-4" d="M1053.71,6354.84a0.33,0.33,0,0,0-.12-0.29,4.15,4.15,0,0,0-.95-0.64,9.41,9.41,0,0,0-1.14-.48s0.06,5,.15,7.61a0.78,0.78,0,0,0,.95.77,0.76,0.76,0,0,0,.94-0.65c0-.83.14-4.43,0.17-6.32" transform="translate(-880.05 -6265.9)"/><path id="_Path_18" data-name="&lt;Path&gt;" class="cls-4" d="M1054.26,6322.55a0.63,0.63,0,0,1,.34.56c0.17,0.8,0,2.06.15,2.61a0.28,0.28,0,0,0,.41.1c1.15-.6,1.94-1.64,3.11-2.11,0.55-.23,2.07.51,1.71,1.61a2,2,0,0,1-.74.93c-0.68.68-1.64,1.32-2.48,2.21a13.41,13.41,0,0,0-1.7,1.71c-0.14.21-.37,0.51-0.37,0.51-1.62-.32-3.25-0.26-4.51-0.51v-1.81a2.34,2.34,0,0,0,1.53-.82,0.45,0.45,0,0,0-.21-0.39,3.38,3.38,0,0,0-.71-0.36,12.14,12.14,0,0,1,3.34.93,0.56,0.56,0,0,0-.06-0.53,1,1,0,0,0-.71-0.35c-0.76-.19-2.84-0.44-2.84-0.44a13.73,13.73,0,0,0,1.76-.13,1.41,1.41,0,0,0,.8-0.26,0.82,0.82,0,0,0-.35-0.77,7.44,7.44,0,0,1-.54-0.58,6.27,6.27,0,0,0-.84-1,6.88,6.88,0,0,0-1-.62,3.26,3.26,0,0,1,.08-1.36,0.69,0.69,0,0,1,.75-0.36,9.53,9.53,0,0,0,3.09,1.22" transform="translate(-880.05 -6265.9)"/><path id="_Path_19" data-name="&lt;Path&gt;" class="cls-3" d="M1050.17,6324.42a1.71,1.71,0,0,1-.67.37c-0.53.08-.45-0.36-0.82-0.61a0.86,0.86,0,0,1-.64-0.31,3.54,3.54,0,0,1,2.36.52,0.3,0.3,0,0,0-.23,0" transform="translate(-880.05 -6265.9)"/><path id="_Path_20" data-name="&lt;Path&gt;" class="cls-3" d="M980,6344.72a0.31,0.31,0,0,1,.53,0l6.32,9.31a16.78,16.78,0,0,1-13.16,0l6.32-9.31a0.31,0.31,0,0,1,.53,0" transform="translate(-880.05 -6265.9)"/><path id="_Path_21" data-name="&lt;Path&gt;" class="cls-4" d="M1050.24,6356.69a3.16,3.16,0,0,0-.93,2,2.41,2.41,0,0,0,.37,1.66,0.43,0.43,0,0,0,.82,0c0.13-.31-0.06-0.59.06-1.26a1.27,1.27,0,0,1,.49-0.77l0-2.23a3.55,3.55,0,0,0-.78.61" transform="translate(-880.05 -6265.9)"/><path id="_Path_22" data-name="&lt;Path&gt;" class="cls-3" d="M975.81,6324.84a3.9,3.9,0,0,0,.72,4.46,0.21,0.21,0,0,1-.07.38H968a16.24,16.24,0,0,1,7.8-4.84" transform="translate(-880.05 -6265.9)"/><path id="_Compound_Path_" data-name="&lt;Compound Path&gt;" class="cls-3" d="M1053.41,6363a2.16,2.16,0,0,1,.67,1.56,2.08,2.08,0,0,1-.67,1.56,2.39,2.39,0,0,1-1.64.66,2.29,2.29,0,0,1-1.62-.66,2.13,2.13,0,0,1-.67-1.55,2.26,2.26,0,0,1,2.3-2.22,2.31,2.31,0,0,1,1.64.66m-0.21.2a2,2,0,0,0-1.43-.57,2,2,0,0,0-1.39.55,1.94,1.94,0,0,0-.61,1.38,1.89,1.89,0,0,0,.59,1.35,2,2,0,0,0,1.39.57,2.08,2.08,0,0,0,1.43-.56,1.8,1.8,0,0,0,.58-1.34,1.87,1.87,0,0,0-.57-1.37m-0.28.75a0.67,0.67,0,0,1-.6.68l0.58,1.14h-0.55l-0.53-1.07h-0.49v1.07h-0.49v-2.51h1c0.73,0,1.09.23,1.09,0.69m-1.58-.38v0.83h0.42c0.45,0,.66-0.11.66-0.4s-0.21-.43-0.67-0.43h-0.41Z" transform="translate(-880.05 -6265.9)"/><path id="_Compound_Path_2" data-name="&lt;Compound Path&gt;" class="cls-3" d="M1007.21,6363a2.18,2.18,0,0,1,.67,1.56,2.08,2.08,0,0,1-.67,1.56,2.38,2.38,0,0,1-1.64.66,2.29,2.29,0,0,1-1.62-.66,2.13,2.13,0,0,1-.67-1.55,2.26,2.26,0,0,1,2.3-2.22,2.31,2.31,0,0,1,1.64.66m-0.21.2a2.06,2.06,0,0,0-2.82,0,1.94,1.94,0,0,0-.61,1.38,1.89,1.89,0,0,0,.59,1.35,2,2,0,0,0,1.39.57,2.07,2.07,0,0,0,1.43-.56,1.8,1.8,0,0,0,.58-1.34,1.87,1.87,0,0,0-.57-1.37m-0.28.75a0.67,0.67,0,0,1-.6.68l0.58,1.14h-0.55l-0.53-1.07h-0.48v1.07h-0.49v-2.51h1c0.73,0,1.09.23,1.09,0.69m-1.58-.38v0.83h0.41c0.45,0,.66-0.11.66-0.4s-0.21-.43-0.67-0.43h-0.4Z" transform="translate(-880.05 -6265.9)"/><g id="_Group_" data-name="&lt;Group&gt;"><path id="_Compound_Path_3" data-name="&lt;Compound Path&gt;" class="cls-5" d="M1128.17,6360.24l-20.82-29.29v29.29h-7.88v-42.55h8l19.86,27.88v-27.88h7.88v42.55h-7Z" transform="translate(-880.05 -6265.9)"/><path id="_Compound_Path_4" data-name="&lt;Compound Path&gt;" class="cls-5" d="M1162.18,6361c-12.87,0-20.95-8.75-20.95-22s8.39-22.08,20.89-22.08a23.74,23.74,0,0,1,12.36,3.08l-1.22,7.71a18.18,18.18,0,0,0-10.76-3.76c-7.82,0-12.62,5.73-12.62,15s5.12,14.92,12.94,14.92a20.72,20.72,0,0,0,11.21-3.57l1.15,7A24.92,24.92,0,0,1,1162.18,6361Z" transform="translate(-880.05 -6265.9)"/></g></svg>