<?xml version="1.0" encoding="utf-8"?>
<!-- Generator: Adobe Illustrator 22.0.1, SVG Export Plug-In . SVG Version: 6.00 Build 0)  -->
<svg version="1.1" id="Layer_1" xmlns="http://www.w3.org/2000/svg" xmlns:xlink="http://www.w3.org/1999/xlink" x="0px" y="0px"
	 viewBox="0 0 350 225" style="enable-background:new 0 0 350 225;" xml:space="preserve">
<style type="text/css">
	.st0{fill:#FFFFFF;}
	.st1{fill:none;stroke:#979797;}
	.st2{fill:#231F20;}
	.st3{filter:url(#Adobe_OpacityMaskFilter);}
	.st4{mask:url(#mask-3_1_);fill:#00ADEE;}
	.st5{fill:#00ADEE;}
	.st6{filter:url(#Adobe_OpacityMaskFilter_1_);}
	.st7{mask:url(#mask-5_1_);fill:#00ADEE;}
	.st8{fill:none;stroke:#979797;stroke-linecap:square;}
	.st9{enable-background:new    ;}
	.st10{fill:#4A4A4A;}
	.st11{fill:#E3BD8E;}
</style>
<title>fad / public / no-card-image</title>
<desc>Created with Sketch.</desc>
<g id="Find-a-Doctor">
	<g id="U1b---Unauthenticated---Select-a-Plan" transform="translate(-13.000000, -1042.000000)">
		<g id="fad-_x2F_-public-_x2F_-no-card-image" transform="translate(13.000000, 1042.000000)">
			<g id="Group-18">
				<g id="Rectangle-10" transform="translate(175.000000, 112.500000) rotate(-360.000000) translate(-175.000000, -112.500000) ">
					<g>
						<path id="path-1" class="st0" d="M10,0h330c5.5,0,10,4.5,10,10v205c0,5.5-4.5,10-10,10H10c-5.5,0-10-4.5-10-10V10
							C0,4.5,4.5,0,10,0z"/>
					</g>
					<path class="st1" d="M10.5,0.5h329c5.5,0,10,4.5,10,10v204c0,5.5-4.5,10-10,10h-329c-5.5,0-10-4.5-10-10v-204
						C0.5,5,5,0.5,10.5,0.5z"/>
				</g>
				
					<g id="logo-_x2F_-black-_x2F_-full-stacked" transform="translate(80.500000, 30.000000) rotate(-360.000000) translate(-80.500000, -30.000000) translate(16.000000, 15.000000)">
					<g id="Page-1">
						<path id="Fill-1" class="st2" d="M60.4,3.2h5.2c0.5,0,1.1,0,1.6,0.3c1,0.5,1,1.5,1,1.7c0,0.5-0.2,1-0.6,1.4
							c-0.6,0.6-1.4,0.7-2,0.8c0.6,0,1.7,0.1,2.5,0.9c0.3,0.3,0.7,0.8,0.7,1.7c0,0.6-0.2,1.2-0.7,1.7c-0.7,0.7-1.7,0.8-2.5,0.8h-5.2
							v-0.3h1.3l0-1.3V4.7l0-1.1h-1.3V3.2z M63.8,3.6l0,0.9l0,2.6h0.9c0.6,0,1-0.2,1.2-0.4c0.2-0.3,0.3-0.7,0.3-1.4
							c0-1.5-0.5-1.7-1.5-1.8H63.8z M63.7,7.6V11l0,1h1c0.5,0,0.9-0.1,1.4-0.5c0.5-0.5,0.5-1.5,0.5-1.8c0-1-0.2-1.5-0.6-1.8
							c-0.3-0.2-0.8-0.4-1.6-0.4H63.7L63.7,7.6z"/>
						<path id="Fill-3" class="st2" d="M70.9,3.2c0.6,0,0.8,0,1.4-0.1l0,1.4V11l0,1h0.9v0.3h-3.8v-0.3h1l0-1V4.6l0-1h-1V3.2H70.9"/>
						<path id="Fill-5" class="st2" d="M74.7,6.1c0.7,0,0.9,0,1.5-0.1l0,1.2v2.9c0,0.5,0,0.9,0.1,1.1c0.2,0.4,0.5,0.6,1,0.6
							c0.4,0,0.7-0.1,1-0.4c0.5-0.5,0.5-1.2,0.5-1.8V7.5l0-1h-1V6.1h1.1c0.8,0,1,0,1.7-0.1l0,1.2v3.6l0,1.2h0.9v0.4h-1
							c-0.8,0-1.1,0-1.8,0.1l0-1c-0.3,0.3-0.9,1.1-2.4,1.1c-1,0-1.6-0.4-1.8-0.9c-0.2-0.4-0.2-0.8-0.2-1.2V7.4l0-0.9h-1V6.1H74.7"/>
						<path id="Fill-7" class="st2" d="M88.3,10.6c-0.3,0.6-1,2-3,2c-2,0-3.3-1.5-3.3-3.3c0-1.7,1.2-3.3,3.3-3.3
							c1.3,0,2,0.6,2.3,0.9c0.7,0.7,0.7,1.5,0.8,2.1h-4.3c0,1.1,0,2.1,0.6,2.7c0.3,0.3,0.7,0.4,1.2,0.4c1.4,0,1.9-1.2,2.1-1.6
							L88.3,10.6z M86.4,8.5c0-1,0-2.2-1.1-2.2c-1.1,0-1.2,1.1-1.2,2.2H86.4L86.4,8.5z"/>
						<path id="Fill-9" class="st2" d="M97.6,11.8c-1,0.4-2.2,0.8-3.7,0.8c-2.7,0-4.7-1.9-4.7-4.7c0-3,2.3-4.8,4.9-4.8
							c0.8,0,2,0.2,3.4,0.8v2.6h-0.4c-0.1-0.5-0.2-1.3-1-2.1c-0.6-0.6-1.3-0.8-1.9-0.8c-0.7,0-1.4,0.3-1.8,0.7
							c-0.7,0.6-0.9,1.7-0.9,3.6c0,1.8,0.2,3,0.9,3.6c0.4,0.4,1,0.7,1.7,0.7c0.7,0,1.5-0.3,2.2-1c0.8-0.8,0.9-1.5,0.9-2h0.4V11.8"/>
						<path id="Fill-11" class="st2" d="M101.4,12.1h1v0.3h-3.8v-0.3h1l0-1V7.6l0-1.1h-1V6.1h1.5c0.6,0,0.8,0,1.3-0.1l0,1v0.3
							c0.1-0.3,0.2-0.5,0.5-0.8c0.3-0.3,0.7-0.5,1.2-0.5c0.8,0,1.2,0.7,1.2,1.2c0,0.8-0.5,0.9-0.8,0.9c-0.1,0-0.8-0.1-0.8-0.9
							c0-0.1,0-0.4,0-0.5c0-0.3-0.2-0.3-0.2-0.3c-0.2,0-0.4,0.2-0.6,0.5c-0.4,0.7-0.5,1.7-0.5,2.4V11L101.4,12.1"/>
						<path id="Fill-13" class="st2" d="M111.3,9.3c0,2-1.6,3.3-3.4,3.3c-1.9,0-3.3-1.4-3.3-3.3c0-2,1.5-3.3,3.3-3.3
							C110,5.9,111.3,7.4,111.3,9.3 M106.6,9c0,2,0.1,3.2,1.4,3.2c1.3,0,1.4-1.2,1.4-2.9c0-1.6-0.1-3-1.4-3
							C106.7,6.3,106.6,7.5,106.6,9"/>
						<path id="Fill-15" class="st2" d="M112.6,10c0.1,0.4,0.1,0.7,0.3,1.1c0.2,0.4,0.7,1.1,1.7,1.1c0.8,0,1.3-0.4,1.3-0.9
							c0-0.6-0.6-0.8-1.4-1.1c-1.2-0.4-2.1-0.8-2.1-2.2c0-1.6,1.4-2,2.3-2c0.7,0,1.3,0.2,1.9,0.4l0,1.7h-0.4
							c-0.1-0.3-0.1-0.5-0.2-0.7c-0.2-0.4-0.7-1-1.5-1c-0.7,0-1,0.5-1,0.8c0,0.4,0.3,0.6,0.5,0.6c0.2,0.1,1.2,0.5,1.5,0.6
							c0.8,0.3,1.6,0.8,1.6,2c0,1.4-1.1,2.3-2.6,2.3c-0.9,0-1.5-0.2-2.2-0.5l0-2.1H112.6"/>
						<path id="Fill-17" class="st2" d="M118.6,10c0.1,0.4,0.1,0.7,0.3,1.1c0.2,0.4,0.7,1.1,1.7,1.1c0.8,0,1.3-0.4,1.3-0.9
							c0-0.6-0.6-0.8-1.4-1.1c-1.2-0.4-2.1-0.8-2.1-2.2c0-1.6,1.4-2,2.3-2c0.7,0,1.3,0.2,1.9,0.4l0,1.7h-0.4
							c-0.1-0.3-0.1-0.5-0.2-0.7c-0.2-0.4-0.7-1-1.5-1c-0.7,0-1,0.5-1,0.8c0,0.4,0.3,0.6,0.5,0.6c0.2,0.1,1.2,0.5,1.5,0.6
							c0.8,0.3,1.6,0.8,1.6,2c0,1.4-1.1,2.3-2.6,2.3c-0.9,0-1.5-0.2-2.2-0.5l0-2.1H118.6"/>
						<path id="Fill-19" class="st2" d="M60.5,17.5h5.2c0.5,0,1.1,0,1.6,0.3c1,0.5,1,1.5,1,1.7c0,0.5-0.2,1-0.6,1.4
							c-0.6,0.6-1.4,0.7-2,0.8c0.6,0,1.7,0.1,2.5,0.9c0.3,0.3,0.7,0.8,0.7,1.7c0,0.6-0.2,1.2-0.7,1.7c-0.7,0.7-1.7,0.8-2.5,0.8h-5.2
							v-0.3h1.3l0-1.3v-6.1l0-1.1h-1.3V17.5z M63.8,17.9l0,0.9l0,2.6h0.9c0.6,0,1-0.2,1.2-0.4c0.2-0.3,0.3-0.7,0.3-1.4
							c0-1.5-0.5-1.7-1.5-1.8H63.8z M63.8,21.8v3.4l0,1h1c0.5,0,0.9-0.1,1.4-0.5c0.5-0.5,0.5-1.5,0.5-1.8c0-1-0.2-1.5-0.6-1.8
							c-0.3-0.2-0.8-0.4-1.6-0.4H63.8L63.8,21.8z"/>
						<path id="Fill-21" class="st2" d="M71.3,17.5c0.6,0,0.8,0,1.4-0.1l0,1.4v6.4l0,1h0.9v0.3h-3.8v-0.3h1l0-1v-6.4l0-1.1h-1v-0.3
							H71.3"/>
						<path id="Fill-23" class="st2" d="M75,20.4c0.7,0,0.9,0,1.5-0.1l0,1.2v2.9c0,0.5,0,0.9,0.1,1.1c0.2,0.4,0.5,0.6,1,0.6
							c0.4,0,0.7-0.1,1-0.4c0.5-0.5,0.5-1.2,0.5-1.8v-2.3l0-1h-1v-0.3h1.1c0.8,0,1,0,1.7-0.1l0,1.2v3.6l0,1.2h0.9v0.4h-1
							c-0.8,0-1.1,0-1.8,0.1l0-1c-0.3,0.3-0.9,1.1-2.4,1.1c-1,0-1.6-0.4-1.8-0.9c-0.2-0.4-0.2-0.8-0.2-1.2v-3.1l0-0.9h-1v-0.3H75"/>
						<path id="Fill-25" class="st2" d="M89,24.8c-0.3,0.6-1,2-3,2c-2,0-3.3-1.5-3.3-3.3c0-1.7,1.2-3.3,3.3-3.3c1.3,0,2,0.6,2.3,0.9
							c0.7,0.7,0.7,1.5,0.8,2.1h-4.3c0,1.1,0,2.1,0.6,2.7c0.3,0.3,0.7,0.4,1.2,0.4c1.4,0,1.9-1.2,2.1-1.6L89,24.8z M87.1,22.8
							c0-1,0-2.2-1.1-2.2c-1.1,0-1.2,1.1-1.2,2.2H87.1L87.1,22.8z"/>
						<path id="Fill-27" class="st2" d="M90.3,23.5c0.1,0.4,0.1,0.7,0.4,1.2c0.8,1.6,2.2,1.7,2.5,1.7c1,0,1.9-0.6,1.9-1.6
							c0-0.9-0.7-1.3-2.7-2.1c-0.3-0.1-0.6-0.2-0.9-0.4C91.1,22.1,90,21.5,90,20c0-1.6,1.3-2.7,3.1-2.7c1.1,0,2,0.4,2.5,0.6l0.1,2.2
							h-0.4c-0.2-0.7-0.3-1.1-0.7-1.5c-0.5-0.5-1.1-0.8-1.7-0.8c-1,0-1.5,0.7-1.5,1.3c0,0.8,0.8,1.2,1.1,1.3
							c0.4,0.2,0.9,0.4,1.3,0.5c1.1,0.5,2.6,1.1,2.6,2.9c0,1.7-1.3,2.9-3.5,2.9c-1.1,0-2-0.3-2.8-0.6l-0.1-2.7H90.3"/>
						<path id="Fill-29" class="st2" d="M98.5,17.5c0.7,0,0.8,0,1.4-0.1l0,1.4v2.5c0.2-0.4,0.5-0.8,1.2-1c0.3-0.1,0.6-0.1,1-0.1
							c1,0,1.4,0.4,1.6,0.6c0.5,0.5,0.5,1.1,0.5,1.5v3.1l0,0.9h0.9v0.3h-3.8v-0.3h1l0-0.9v-3.1c0-0.5,0-1.5-1-1.5
							c-0.4,0-0.7,0.2-1,0.4c-0.4,0.4-0.5,1-0.5,1.8v2.4l0,0.9h1v0.3h-3.8v-0.3h1l0-0.9v-6.5l0-1h-1v-0.3H98.5"/>
						<path id="Fill-31" class="st2" d="M107,20.4c0.8,0,1,0,1.7-0.1l0,1.4v3.6l0,1h0.9v0.3h-3.8v-0.3h1l0-1v-3.6l0-1h-1v-0.3H107z
							 M106.6,18.4c0-0.6,0.5-1,1-1c0.6,0,1,0.5,1,1s-0.5,1-1,1c-0.3,0-0.5-0.1-0.7-0.3C106.7,19,106.6,18.7,106.6,18.4L106.6,18.4z
							"/>
						<path id="Fill-33" class="st2" d="M116.3,24.8c-0.3,0.6-1,2-3,2c-2,0-3.3-1.5-3.3-3.3c0-1.7,1.2-3.3,3.3-3.3
							c1.3,0,2,0.6,2.3,0.9c0.7,0.7,0.7,1.5,0.8,2.1h-4.3c0,1.1,0,2.1,0.6,2.7c0.3,0.3,0.7,0.4,1.2,0.4c1.4,0,1.9-1.2,2.1-1.6
							L116.3,24.8z M114.4,22.8c0-1,0-2.2-1.1-2.2c-1.1,0-1.2,1.1-1.2,2.2H114.4L114.4,22.8z"/>
						<path id="Fill-35" class="st2" d="M118.4,17.5c0.6,0,0.8,0,1.4-0.1l0,1.4v6.4l0,1h0.9v0.3h-3.8v-0.3h1l0-1v-6.4l0-1.1h-1v-0.3
							H118.4"/>
						<path id="Fill-37" class="st2" d="M126.5,17.5c0.8,0,1,0,1.6-0.1l0,1.1v6.9l0,0.9h0.9v0.4h-1.2c-0.7,0-1,0-1.6,0.1v-0.9
							c-0.3,0.4-0.8,0.9-2,0.9c-2,0-2.7-1.8-2.7-3.2c0-2,1.2-3.3,2.9-3.3c0.8,0,1.2,0.3,1.5,0.6c0.2,0.2,0.2,0.3,0.3,0.4v-2.6l0-0.8
							h-1v-0.3H126.5z M124,21.1c-0.4,0.4-0.4,1.2-0.4,2.4c0,1.5,0,2.7,1.2,2.7c0.3,0,0.7-0.1,1-0.4c0.4-0.4,0.5-0.8,0.5-2.5
							c0-1.2,0-2.6-1.4-2.6C124.4,20.8,124.1,20.9,124,21.1L124,21.1z"/>
						<g id="Group-41" transform="translate(0.000000, 0.392189)">
							<g id="Clip-40">
							</g>
							<defs>
								<filter id="Adobe_OpacityMaskFilter" filterUnits="userSpaceOnUse" x="0" y="0.3" width="28.1" height="28">
									<feColorMatrix  type="matrix" values="1 0 0 0 0  0 1 0 0 0  0 0 1 0 0  0 0 0 1 0"/>
								</filter>
							</defs>
							<mask maskUnits="userSpaceOnUse" x="0" y="0.3" width="28.1" height="28" id="mask-3_1_">
								<g class="st3">
									<polygon id="path-2_1_" class="st0" points="0,0.3 0,28.4 28.1,28.4 28.1,0.3 									"/>
								</g>
							</mask>
							<polygon id="Fill-39" class="st4" points="20.3,28.4 20.3,20.6 28.1,20.6 28.1,8.1 20.3,8.1 20.3,0.3 7.8,0.3 7.8,8.1 0,8.1 
								0,20.6 7.8,20.6 7.8,28.4 							"/>
						</g>
						<path id="Fill-42" class="st0" d="M6.8,12.1l5.2,0.5c1,0.1,1.1,1.1,0.8,1.6l-3.6,6.6l0,0c-1.8-1.4-3-3.6-3-6.1
							C6.4,13.8,6.5,12.9,6.8,12.1L6.8,12.1"/>
						<path id="Fill-44" class="st5" d="M7.6,13.2l3.9,0.4c0.3,0,0.3,0.1,0.2,0.3L9,19.1c-1-1.2-1.6-2.7-1.6-4.3
							C7.4,14.2,7.5,13.7,7.6,13.2"/>
						<path id="Fill-46" class="st0" d="M21.3,12.1l-5.2,0.5c-1,0.1-1.1,1.1-0.8,1.6l3.6,6.6l0,0c1.8-1.4,3-3.6,3-6.1
							C21.8,13.8,21.6,12.9,21.3,12.1L21.3,12.1"/>
						<path id="Fill-48" class="st0" d="M14.1,7.1c-3.1,0-5.8,1.8-7,4.4h5.5c0.8,0,1.1-0.5,1.1-0.8c0-0.4,0-0.6-0.4-1.1
							c-0.4-0.5-0.1-1.5,0.8-1.6c0.9,0,1.2,1,0.8,1.6c-0.4,0.5-0.4,0.6-0.4,1.1c0,0.4,0.4,0.8,1.1,0.8h5.5
							C19.9,8.9,17.2,7.1,14.1,7.1"/>
						<path id="Fill-50" class="st5" d="M20.6,13.2l-3.9,0.4c-0.3,0-0.3,0.1-0.2,0.3l2.8,5.2c1-1.2,1.6-2.7,1.6-4.3
							C20.7,14.2,20.7,13.7,20.6,13.2"/>
						<path id="Fill-52" class="st5" d="M15.9,8.4c0.4,0.7,0.1,1.5-0.3,1.9c-0.1,0.1,0,0.1,0,0.2h3.5C18.3,9.5,17.2,8.8,15.9,8.4"/>
						<path id="Fill-54" class="st0" d="M14.1,22.5c1.6,0,3-0.5,4.3-1.3v0l-3.8-5.6c-0.3-0.4-0.7-0.4-1,0l-3.8,5.6v0
							C11.1,22,12.5,22.5,14.1,22.5"/>
						<g id="Group-58" transform="translate(31.820000, 0.392189)">
							<g id="Clip-57">
							</g>
							<defs>
								<filter id="Adobe_OpacityMaskFilter_1_" filterUnits="userSpaceOnUse" x="0.2" y="0" width="23" height="28.7">
									<feColorMatrix  type="matrix" values="1 0 0 0 0  0 1 0 0 0  0 0 1 0 0  0 0 0 1 0"/>
								</filter>
							</defs>
							<mask maskUnits="userSpaceOnUse" x="0.2" y="0" width="23" height="28.7" id="mask-5_1_">
								<g class="st6">
									<polygon id="path-4_1_" class="st0" points="23.3,0 0.2,0 0.2,28.7 23.3,28.7 									"/>
								</g>
							</mask>
							<path id="Fill-56" class="st7" d="M11.7,28.7c5.4-3,8.7-7.7,10.4-12.9C23.9,10.4,23.6,4,21.6,0c-3.1,1.6-6.2,2.3-9.8,2.3
								C8.1,2.4,5,1.6,1.9,0c-2,4-2.3,10.4-0.6,15.7C3.1,21,6.3,25.7,11.7,28.7"/>
						</g>
						<path id="Fill-59" class="st0" d="M43.6,26.7c4.4-2.7,6.8-6.7,8.3-11.1c1.3-3.9,1.7-8.6,0.2-12.2c-2.2,0.8-3.5,1-4.7,1.2
							c-1.1,0.2-2.1,0.3-3.8,0.3h0c-1.7,0-2.7-0.1-3.8-0.3c-1.2-0.2-2.5-0.4-4.7-1.2c-1.5,3.6-1.2,8.2,0.2,12.2
							C36.8,20,39.1,23.9,43.6,26.7L43.6,26.7"/>
						<path id="Fill-61" class="st5" d="M43.6,25.6c3-1.9,6.4-6.2,7.8-11.8c0.7-3,0.9-6.3,0-9c-1.3,0.4-2.6,0.7-3.9,0.8
							c-1.3,0.2-2.6,0.3-3.9,0.3h0c-1.3,0-2.6-0.1-3.9-0.3c-1.3-0.2-2.6-0.5-3.9-0.8c-0.9,2.7-0.7,6,0,9
							C37.2,19.4,40.6,23.7,43.6,25.6L43.6,25.6"/>
						<path id="Fill-63" class="st0" d="M40.5,7.9c-1,0.5-1.4,1.8-0.9,2.8c0.4,0.9,1.2,1.4,2.1,1.7c0.5,0.1,0.9,0.2,1.4,0.2
							c0.6,0,1.1,0,1.7,0.2c0.1,0,0.2,0.1,0.3,0.2c0.1,0.3,0,0.6-0.3,0.7c0,0.5,0,1.5,0,1.5s2.4-0.2,2-2.3c-0.1-0.5-0.5-1-1-1.3
							c-1.2-0.6-2.5-0.3-3.7-0.7c-0.4-0.1-1-0.3-1.1-0.8c0-0.2,0-0.5,0.2-0.6c0.3-0.1,0.6,0.2,1.1,0.3c0.3,0.1,0.6,0.1,0.8,0
							c0.1,0,0.2-0.1,0.3-0.1c0-0.1-0.1-0.1-0.2-0.1c-0.1-0.1-0.3-0.1-0.4-0.2c-0.2-0.1-0.5-0.2-0.7-0.3c0.2,0,0.6-0.1,0.9,0
							c0.2,0,0.8,0,0.9,0c0,0,0.1,0,0.1-0.1c-0.1-0.1-0.2-0.2-0.3-0.3c-0.2-0.2-0.3-0.5-0.6-0.6C42.1,7.6,41.3,7.5,40.5,7.9"/>
						<path id="Fill-65" class="st0" d="M44.4,15.5l0-2.5c0,0-0.3-0.1-0.8-0.1c-0.6,0-0.8,0-0.8,0l0,0.2c0,0-0.3,0.1-0.3,0.2
							c0,0-0.1,0.1-0.1,0.2c0.2,0.6,0.5,1.2,0.6,1.9C43.5,15.4,43.9,15.4,44.4,15.5"/>
						<path id="Fill-67" class="st0" d="M41.5,15.1c-0.1,1,0.5,1.5,1.2,1.7c0.6,0.1,1.1,0.2,1.7,0.2c0.1,0,0.2,0,0.3,0.1
							c0.1,0,0.2,0.1,0.2,0.2c0,0.1,0,0.2,0,0.2c-0.1,0.1-0.2,0.1-0.2,0.1l0,1.2c0,0,0.5,0,0.9-0.2c0.4-0.2,0.6-0.5,0.7-0.8
							c0.1-0.4,0-0.8-0.3-1.2c-0.2-0.3-0.5-0.4-0.9-0.6c-0.7-0.2-1.4-0.2-2.2-0.3c-0.1,0-0.2-0.1-0.2-0.2c0-0.2,0.2-0.3,0.2-0.3
							s-0.1-0.3-0.2-0.5c-0.1-0.2-0.2-0.5-0.3-0.6C41.8,14.2,41.5,14.6,41.5,15.1"/>
						<path id="Fill-69" class="st0" d="M44.4,17.3l0,2.1l-0.5-0.2l-0.5-0.2l0-1.7C43.8,17.2,44,17.2,44.4,17.3"/>
						<path id="Fill-71" class="st0" d="M42,18.4c-0.3,0.7,0.1,1.3,0.6,1.6c0.3,0.1,0.7,0.3,1,0.4c0.3,0.1,0.9,0.5,0.9,0.6
							c0,0.1-0.1,0.2-0.1,0.2l0,0.8c0,0,0.3-0.1,0.6-0.3c0.2-0.2,0.4-0.4,0.4-0.9c0-0.4-0.2-0.8-0.8-1.2c-0.5-0.3-1.1-0.5-1.6-0.7
							C43,19,43,18.9,43,18.8c0-0.1,0.1-0.1,0.1-0.1l0-0.9c0,0-0.4,0.1-0.5,0.2C42.4,18,42.1,18.2,42,18.4"/>
						<path id="Fill-73" class="st0" d="M44.3,21.2c0-0.1,0-0.1-0.1-0.1c-0.1-0.1-0.3-0.2-0.4-0.3c-0.1-0.1-0.5-0.2-0.5-0.2
							s0,2.1,0.1,3.2c0,0.2,0.1,0.3,0.4,0.3c0.3,0,0.4-0.2,0.4-0.3C44.2,23.5,44.3,22,44.3,21.2"/>
						<path id="Fill-75" class="st0" d="M44.5,7.4c0.1,0.1,0.1,0.1,0.1,0.2c0.1,0.3,0,0.9,0.1,1.1c0,0.1,0.1,0.1,0.2,0
							c0.5-0.3,0.8-0.7,1.3-0.9c0.2-0.1,0.9,0.2,0.7,0.7c-0.1,0.2-0.2,0.2-0.3,0.4c-0.3,0.3-0.7,0.6-1,0.9c-0.2,0.3-0.5,0.4-0.7,0.7
							c-0.1,0.1-0.2,0.2-0.2,0.2c-0.7-0.1-1.3-0.1-1.9-0.2l0-0.8c0,0,0.5-0.1,0.6-0.4c0,0,0-0.1-0.1-0.2c-0.1-0.1-0.2-0.1-0.3-0.2
							c0.5,0.1,0.9,0.2,1.4,0.4c0-0.1,0-0.2,0-0.2c-0.1-0.1-0.1-0.1-0.3-0.1C43.8,9.2,43,9.1,43,9.1s0.4,0,0.7-0.1
							C43.9,9,44,9,44,8.9c0-0.1,0-0.2-0.1-0.3c-0.1-0.1-0.2-0.2-0.2-0.2c-0.1-0.1-0.2-0.3-0.3-0.4c-0.1-0.1-0.4-0.3-0.4-0.3
							s-0.1-0.4,0-0.6c0.1-0.1,0.2-0.2,0.3-0.2C43.6,7.1,44,7.3,44.5,7.4"/>
						<path id="Fill-77" class="st5" d="M42.8,8.2c-0.1,0.1-0.2,0.1-0.3,0.2c-0.2,0-0.2-0.2-0.3-0.3C42.1,8.1,42,8.2,42,8
							C42.3,8,42.7,8,42.8,8.2C42.9,8.2,42.8,8.2,42.8,8.2"/>
						<path id="Fill-79" class="st5" d="M14,16.9c0.1-0.1,0.1-0.1,0.2,0l2.6,4c-0.8,0.4-1.7,0.6-2.7,0.6c-1,0-1.9-0.2-2.7-0.6
							L14,16.9c0.1-0.1,0.2-0.1,0.2,0"/>
						<path id="Fill-81" class="st0" d="M42.9,22c-0.1,0.1-0.3,0.4-0.4,0.8c0,0.4,0.1,0.5,0.2,0.7c0.1,0.2,0.3,0.2,0.3,0
							c0.1-0.1,0-0.3,0-0.5c0-0.2,0.2-0.3,0.2-0.3l0-0.9C43.2,21.7,43,21.8,42.9,22"/>
						<path id="Fill-83" class="st5" d="M12.2,8.4c-0.4,0.7-0.1,1.5,0.3,1.9c0.1,0.1,0,0.1,0,0.2H9C9.9,9.5,11,8.8,12.2,8.4"/>
					</g>
				</g>
				<path id="Line" class="st8" d="M18.5,55.5h139"/>
				<path id="Line-Copy-10" class="st8" d="M18.5,106.5h139"/>
				<path id="Line-Copy-12" class="st8" d="M18.5,189.5h139"/>
				<path id="Line-Copy-9" class="st8" d="M169.5,55.5h160"/>
				<path id="Line-Copy-11" class="st8" d="M169.5,106.5h160"/>
				<path id="Line-Copy-13" class="st8" d="M169.5,189.5h160"/>
				<g class="st9">
					<path class="st10" d="M176.6,71.8c-0.1-0.8-0.7-1.3-1.9-1.3c-0.8,0-1.4,0.2-1.9,0.7c-0.7,0.8-0.9,1.9-0.9,2.7
						c0,0.7,0.1,1.9,0.8,2.6c0.5,0.6,1.4,0.8,2.2,0.8c0.9,0,1.5-0.2,1.8-0.3v-2.5h-1.9v-1h3v4.1c-0.5,0.2-1.5,0.5-3,0.5
						c-1.5,0-2.4-0.4-3-1c-0.8-0.8-1.2-2-1.2-3.2c0-0.8,0.2-2.8,1.8-3.8c0.8-0.6,1.9-0.6,2.3-0.6c0.7,0,1.7,0.1,2.5,0.9
						c0.5,0.5,0.5,1,0.6,1.3H176.6z"/>
					<path class="st10" d="M180,73.4c0-0.4,0-0.8-0.1-1.2h1.1l0,1.1c0.2-0.8,0.9-1.1,1.4-1.1c0.3,0,0.6,0,0.7,0v1.1
						c-0.1,0-0.1,0-0.2,0c-0.1,0-0.2,0-0.3,0c-1.3,0-1.6,0.8-1.6,1.7V78H180V73.4z"/>
					<path class="st10" d="M186.8,72.1c2.3,0,2.8,1.8,2.8,3c0,1.7-1,3.1-2.9,3.1c-1.9,0-2.8-1.3-2.8-3
						C183.9,73.8,184.6,72.1,186.8,72.1z M186.8,77.4c0.8,0,1.7-0.6,1.7-2.3c0-1.4-0.7-2.2-1.7-2.2c-0.7,0-1.8,0.4-1.8,2.2
						C185,76.3,185.5,77.4,186.8,77.4z"/>
					<path class="st10" d="M192.3,72.2v3.7c0,0.6,0.1,1.3,1.2,1.3c0.5,0,1-0.2,1.4-0.6c0.2-0.3,0.2-0.8,0.2-1.1v-3.3h1.1v4.7
						c0,0.1,0,0.8,0,1.1h-1.1l0-1c-0.2,0.4-0.6,1-1.8,1c-1.4,0-2.1-0.8-2.1-2v-3.9H192.3z"/>
					<path class="st10" d="M198.2,73.2c0-0.3,0-0.4,0-0.9h1.1l0,1c0.5-0.9,1.5-1,2-1c1.2,0,2.4,0.9,2.4,3c0,2.2-1.3,3.1-2.6,3.1
						c-0.8,0-1.5-0.4-1.8-0.9v2.9h-1.1V73.2z M200.9,77.4c0.3,0,0.9-0.1,1.2-0.6c0.4-0.6,0.5-1.4,0.5-1.8c0-1-0.3-2.1-1.6-2.1
						c-1.7,0-1.7,1.8-1.7,2.3C199.3,76,199.4,77.4,200.9,77.4z"/>
					<path class="st10" d="M208.4,69.7h1.6l4.1,6.9v-6.9h1.1V78h-1.5l-4.2-7.1V78h-1V69.7z"/>
					<path class="st10" d="M219.8,72.1c2.3,0,2.8,1.8,2.8,3c0,1.7-1,3.1-2.9,3.1c-1.9,0-2.8-1.3-2.8-3
						C216.8,73.8,217.5,72.1,219.8,72.1z M219.7,77.4c0.8,0,1.7-0.6,1.7-2.3c0-1.4-0.7-2.2-1.7-2.2c-0.7,0-1.8,0.4-1.8,2.2
						C218,76.3,218.5,77.4,219.7,77.4z"/>
					<path class="st10" d="M224.2,72.2h1.3v1.4h-1.3V72.2z M224.2,76.6h1.3V78h-1.3V76.6z"/>
				</g>
				<g class="st9">
					<path class="st10" d="M170.8,112.1h1v6.9h-1V112.1z"/>
					<path class="st10" d="M173.5,114.8l0-0.6h0.9l0,0.8c0.1-0.2,0.4-0.9,1.5-0.9c0.4,0,1.7,0.2,1.7,1.6v3.2h-0.9v-3
						c0-0.3,0-0.6-0.3-0.8c-0.2-0.2-0.5-0.3-0.8-0.3c-0.6,0-1.2,0.5-1.2,1.4v2.7h-0.9V114.8z"/>
					<path class="st10" d="M178.8,116.1h2.4v0.7h-2.4V116.1z"/>
					<path class="st10" d="M182.4,112.1h1.3l3.4,5.7v-5.7h0.9v6.9h-1.2l-3.5-5.8v5.8h-0.9V112.1z"/>
					<path class="st10" d="M190.2,116.8c0,1,0.4,1.7,1.4,1.7c0.6,0,1-0.3,1.1-1h0.9c0,0.2-0.1,0.6-0.4,1c-0.2,0.2-0.7,0.6-1.6,0.6
						c-1.5,0-2.2-0.9-2.2-2.4c0-0.9,0.2-1.7,0.9-2.2c0.5-0.3,1-0.4,1.3-0.4c2.1,0,2.1,1.9,2.1,2.7H190.2z M192.7,116.1
						c0-0.5-0.1-1.4-1.2-1.4c-0.6,0-1.3,0.4-1.3,1.4H192.7z"/>
					<path class="st10" d="M194.1,114.2h0.8v-1l0.9-0.3v1.3h1.1v0.7h-1.1v2.9c0,0.2,0,0.6,0.6,0.6c0.2,0,0.4,0,0.4,0v0.7
						c-0.2,0-0.4,0.1-0.7,0.1c-0.8,0-1.2-0.2-1.2-1v-3.2h-0.8V114.2z"/>
					<path class="st10" d="M198.3,114.2l1.2,3.8l1.2-3.8h1.2l1.1,3.8l1.2-3.8h0.9l-1.7,4.8h-1l-1.1-3.9l-1.2,3.9h-1.1l-1.6-4.8
						H198.3z"/>
					<path class="st10" d="M207.9,114.1c1.9,0,2.3,1.5,2.3,2.5c0,1.4-0.8,2.6-2.4,2.6c-1.6,0-2.3-1.1-2.3-2.5
						C205.5,115.5,206.1,114.1,207.9,114.1z M207.9,118.5c0.7,0,1.4-0.5,1.4-1.9c0-1.2-0.6-1.8-1.4-1.8c-0.6,0-1.5,0.4-1.5,1.9
						C206.4,117.6,206.9,118.5,207.9,118.5z"/>
					<path class="st10" d="M211.7,115.2c0-0.3,0-0.7,0-1h0.9l0,0.9c0.2-0.7,0.7-0.9,1.1-0.9c0.3,0,0.5,0,0.6,0v0.9c0,0-0.1,0-0.2,0
						s-0.2,0-0.3,0c-1.1,0-1.3,0.6-1.3,1.4v2.5h-0.9V115.2z"/>
					<path class="st10" d="M215.2,112.1h0.9v4.1l1.8-1.9h1.2l-2,2l2.1,2.7H218l-1.9-2.6v2.6h-0.9V112.1z"/>
					<path class="st10" d="M222.6,112.1h1.7l1.9,5.7l2-5.7h1.6v6.9h-0.9v-6.2l-2.3,6.2h-0.9l-2.2-6.1v6.1h-0.9V112.1z"/>
					<path class="st10" d="M232,116.8c0,1,0.4,1.7,1.4,1.7c0.6,0,1-0.3,1.1-1h0.9c0,0.2-0.1,0.6-0.4,1c-0.2,0.2-0.7,0.6-1.6,0.6
						c-1.5,0-2.2-0.9-2.2-2.4c0-0.9,0.2-1.7,0.9-2.2c0.5-0.3,1-0.4,1.3-0.4c2.1,0,2.1,1.9,2.1,2.7H232z M234.5,116.1
						c0-0.5-0.1-1.4-1.2-1.4c-0.6,0-1.3,0.4-1.3,1.4H234.5z"/>
					<path class="st10" d="M236.7,114.9l0-0.6h0.9v0.7c0.5-0.8,1.1-0.8,1.5-0.8c1.1,0,1.4,0.5,1.6,0.9c0.2-0.3,0.6-0.9,1.6-0.9
						c0.7,0,1.8,0.3,1.8,1.7v3.2h-0.9v-3.1c0-0.4-0.1-0.6-0.2-0.7c-0.2-0.2-0.5-0.4-0.9-0.4c-0.6,0-0.9,0.3-1,0.5
						c-0.2,0.3-0.2,0.8-0.2,1v2.7h-0.9v-3.2c0-0.6-0.3-1-1-1c-0.6,0-0.9,0.4-1,0.5c-0.2,0.3-0.2,0.7-0.2,1v2.7h-0.9V114.9z"/>
					<path class="st10" d="M246.5,114.9c0.1-0.2,0.5-0.8,1.6-0.8c0.5,0,1.1,0.1,1.5,0.6c0.2,0.3,0.6,0.8,0.6,1.8
						c0,0.9-0.2,1.4-0.5,1.7c-0.4,0.5-1,0.8-1.7,0.8c-0.2,0-0.7,0-1.1-0.3c-0.3-0.2-0.4-0.3-0.5-0.5l0,0.7h-0.9l0-0.9v-6h0.9V114.9z
						 M247.9,114.7c-1.4,0-1.4,1.6-1.4,1.9c0,0.3,0,1.8,1.3,1.8c1.1,0,1.4-1.1,1.4-1.9C249.2,116.1,249.1,114.7,247.9,114.7z"/>
					<path class="st10" d="M251.9,116.8c0,1,0.4,1.7,1.4,1.7c0.6,0,1-0.3,1.1-1h0.9c0,0.2-0.1,0.6-0.4,1c-0.2,0.2-0.7,0.6-1.6,0.6
						c-1.5,0-2.2-0.9-2.2-2.4c0-0.9,0.2-1.7,0.9-2.2c0.5-0.3,1-0.4,1.3-0.4c2.1,0,2.1,1.9,2.1,2.7H251.9z M254.5,116.1
						c0-0.5-0.1-1.4-1.2-1.4c-0.6,0-1.3,0.4-1.3,1.4H254.5z"/>
					<path class="st10" d="M256.7,115.2c0-0.3,0-0.7,0-1h0.9l0,0.9c0.2-0.7,0.7-0.9,1.1-0.9c0.3,0,0.5,0,0.6,0v0.9c0,0-0.1,0-0.2,0
						s-0.2,0-0.3,0c-1.1,0-1.3,0.6-1.3,1.4v2.5h-0.9V115.2z"/>
					<path class="st10" d="M262.9,112.1h2.5c0.4,0,1.1,0,1.6,0.3c0.5,0.3,0.8,0.8,0.8,1.4c0,0.5-0.2,0.9-0.5,1.2
						c-0.3,0.3-0.6,0.4-0.8,0.4c0.7,0.2,1,0.5,1,1.3c0.1,0.8,0.2,1.4,0.4,2.2h-1c-0.2-0.5-0.2-1.3-0.3-1.8c-0.1-1-0.4-1.3-1.5-1.3
						h-1.2v3.1h-0.9V112.1z M263.8,115.1h1.5c0.1,0,0.6,0,0.9-0.2c0.1-0.1,0.5-0.3,0.5-0.9c0-1.1-1-1.1-1.4-1.1h-1.5V115.1z"/>
					<path class="st10" d="M269.5,116.8c0,1,0.4,1.7,1.4,1.7c0.6,0,1-0.3,1.1-1h0.9c0,0.2-0.1,0.6-0.4,1c-0.2,0.2-0.7,0.6-1.6,0.6
						c-1.5,0-2.2-0.9-2.2-2.4c0-0.9,0.2-1.7,0.9-2.2c0.5-0.3,1-0.4,1.3-0.4c2.1,0,2.1,1.9,2.1,2.7H269.5z M272,116.1
						c0-0.5-0.1-1.4-1.2-1.4c-0.6,0-1.3,0.4-1.3,1.4H272z"/>
					<path class="st10" d="M274.7,117.6c0,0.4,0.2,0.9,1,0.9c0.4,0,0.6-0.1,0.8-0.3c0.1-0.1,0.2-0.3,0.2-0.4c0-0.5-0.3-0.6-1-0.7
						c-1-0.2-1.8-0.4-1.8-1.4c0-0.9,0.8-1.4,1.9-1.4c0.6,0,1.4,0.2,1.7,0.7c0.1,0.3,0.1,0.5,0.1,0.7h-0.9c0-0.7-0.6-0.8-0.9-0.8
						c-0.1,0-1,0-1,0.7c0,0.4,0.4,0.5,0.7,0.6c1.3,0.3,1.6,0.4,1.9,0.7c0.3,0.2,0.4,0.6,0.4,0.9c0,0.5-0.3,1-0.6,1.2
						c-0.4,0.3-0.9,0.3-1.4,0.3c-1,0-1.9-0.4-1.9-1.5H274.7z"/>
					<path class="st10" d="M278.9,115c0-0.2,0-0.3,0-0.8h0.9l0,0.8c0.4-0.8,1.2-0.9,1.6-0.9c1,0,2,0.7,2,2.5c0,1.8-1,2.6-2.2,2.6
						c-0.7,0-1.2-0.3-1.5-0.7v2.4h-0.9V115z M281.1,118.5c0.2,0,0.7,0,1-0.5c0.3-0.5,0.4-1.2,0.4-1.5c0-0.9-0.3-1.7-1.3-1.7
						c-1.4,0-1.4,1.5-1.4,1.9C279.7,117.3,279.8,118.5,281.1,118.5z"/>
					<path class="st10" d="M286.7,114.1c1.9,0,2.3,1.5,2.3,2.5c0,1.4-0.8,2.6-2.4,2.6c-1.6,0-2.3-1.1-2.3-2.5
						C284.3,115.5,284.9,114.1,286.7,114.1z M286.7,118.5c0.7,0,1.4-0.5,1.4-1.9c0-1.2-0.6-1.8-1.4-1.8c-0.6,0-1.5,0.4-1.5,1.9
						C285.2,117.6,285.7,118.5,286.7,118.5z"/>
					<path class="st10" d="M290.5,114.8l0-0.6h0.9l0,0.8c0.1-0.2,0.4-0.9,1.5-0.9c0.4,0,1.7,0.2,1.7,1.6v3.2h-0.9v-3
						c0-0.3,0-0.6-0.3-0.8c-0.2-0.2-0.5-0.3-0.8-0.3c-0.6,0-1.2,0.5-1.2,1.4v2.7h-0.9V114.8z"/>
					<path class="st10" d="M296.7,117.6c0,0.4,0.2,0.9,1,0.9c0.4,0,0.6-0.1,0.8-0.3c0.1-0.1,0.2-0.3,0.2-0.4c0-0.5-0.3-0.6-1-0.7
						c-1-0.2-1.8-0.4-1.8-1.4c0-0.9,0.8-1.4,1.9-1.4c0.6,0,1.4,0.2,1.7,0.7c0.1,0.3,0.1,0.5,0.1,0.7h-0.9c0-0.7-0.6-0.8-0.9-0.8
						c-0.1,0-1,0-1,0.7c0,0.4,0.4,0.5,0.7,0.6c1.3,0.3,1.6,0.4,1.9,0.7c0.3,0.2,0.4,0.6,0.4,0.9c0,0.5-0.3,1-0.6,1.2
						c-0.4,0.3-0.9,0.3-1.4,0.3c-1,0-1.9-0.4-1.9-1.5H296.7z"/>
					<path class="st10" d="M300.8,112.2h1.1v1h-1.1V112.2z M300.9,114.2h0.9v4.8h-0.9V114.2z"/>
					<path class="st10" d="M304.4,114.9c0.1-0.2,0.5-0.8,1.6-0.8c0.5,0,1.1,0.1,1.5,0.6c0.2,0.3,0.6,0.8,0.6,1.8
						c0,0.9-0.2,1.4-0.5,1.7c-0.4,0.5-1,0.8-1.7,0.8c-0.2,0-0.7,0-1.1-0.3c-0.3-0.2-0.4-0.3-0.5-0.5l0,0.7h-0.9l0-0.9v-6h0.9V114.9z
						 M305.7,114.7c-1.4,0-1.4,1.6-1.4,1.9c0,0.3,0,1.8,1.3,1.8c1.1,0,1.4-1.1,1.4-1.9C307.1,116.1,307,114.7,305.7,114.7z"/>
					<path class="st10" d="M309.1,112.2h1.1v1h-1.1V112.2z M309.2,114.2h0.9v4.8h-0.9V114.2z"/>
					<path class="st10" d="M311.8,112.1h0.9v6.9h-0.9V112.1z"/>
					<path class="st10" d="M314.3,112.2h1.1v1h-1.1V112.2z M314.4,114.2h0.9v4.8h-0.9V114.2z"/>
					<path class="st10" d="M316.3,114.2h0.8v-1l0.9-0.3v1.3h1.1v0.7H318v2.9c0,0.2,0,0.6,0.6,0.6c0.2,0,0.4,0,0.4,0v0.7
						c-0.2,0-0.4,0.1-0.7,0.1c-0.8,0-1.2-0.2-1.2-1v-3.2h-0.8V114.2z"/>
					<path class="st10" d="M322.3,119l-0.7,1.8h-0.9l0.7-1.8l-2-4.8h1l1.5,3.8l1.5-3.8h1L322.3,119z"/>
				</g>
				<g class="st9">
					<path class="st10" d="M170.8,123.1h2.3c0.8,0,1.4,0,1.9,0.6c0.3,0.4,0.5,0.8,0.5,1.3c0,0.5-0.2,1-0.5,1.3
						c-0.4,0.4-0.8,0.6-2.1,0.6h-1.1v3.1h-1V123.1z M171.8,126.2h1.1c0.6,0,1.6,0,1.6-1.2c0-1.1-0.9-1.1-1.4-1.1h-1.3V126.2z"/>
					<path class="st10" d="M176.5,126.2c0-0.3,0-0.7,0-1h0.9l0,0.9c0.2-0.7,0.7-0.9,1.1-0.9c0.3,0,0.5,0,0.6,0v0.9c0,0-0.1,0-0.2,0
						s-0.2,0-0.3,0c-1.1,0-1.3,0.6-1.3,1.4v2.5h-0.9V126.2z"/>
					<path class="st10" d="M180,123.2h1.1v1H180V123.2z M180.1,125.2h0.9v4.8h-0.9V125.2z"/>
					<path class="st10" d="M182.6,125.9l0-0.6h0.9v0.7c0.5-0.8,1.1-0.8,1.5-0.8c1.1,0,1.4,0.5,1.6,0.9c0.2-0.3,0.6-0.9,1.6-0.9
						c0.7,0,1.7,0.3,1.7,1.7v3.2H189v-3.1c0-0.4-0.1-0.6-0.2-0.7c-0.2-0.2-0.5-0.4-0.9-0.4c-0.6,0-0.9,0.3-1,0.5
						c-0.2,0.3-0.2,0.8-0.2,1v2.7h-0.9v-3.2c0-0.6-0.3-1-1-1c-0.6,0-0.9,0.4-1,0.5c-0.2,0.3-0.2,0.7-0.2,1v2.7h-0.9V125.9z"/>
					<path class="st10" d="M194.5,130c-0.1-0.2-0.1-0.5-0.1-0.7c-0.4,0.8-1.1,0.9-1.5,0.9c-1.1,0-1.7-0.6-1.7-1.4
						c0-0.4,0.1-1,0.8-1.4c0.5-0.3,1.3-0.3,1.7-0.3c0.2,0,0.4,0,0.6,0c0-0.6,0-0.8-0.2-1.1c-0.2-0.2-0.6-0.3-0.8-0.3
						c-0.9,0-1,0.6-1,0.8h-0.9c0-0.2,0.1-0.6,0.3-0.9c0.4-0.4,1-0.5,1.5-0.5c0.7,0,1.4,0.2,1.7,0.7c0.2,0.3,0.2,0.5,0.2,0.7l0,2.3
						c0,0.1,0,0.7,0.1,1.2H194.5z M193.9,127.7c-0.4,0-1.7,0-1.7,1c0,0.3,0.2,0.8,1,0.8c0.5,0,0.8-0.2,1-0.5
						c0.2-0.3,0.2-0.6,0.2-1.3C194.2,127.7,194.1,127.7,193.9,127.7z"/>
					<path class="st10" d="M196.8,126.2c0-0.3,0-0.7,0-1h0.9l0,0.9c0.2-0.7,0.7-0.9,1.1-0.9c0.3,0,0.5,0,0.6,0v0.9c0,0-0.1,0-0.2,0
						s-0.2,0-0.3,0c-1.1,0-1.3,0.6-1.3,1.4v2.5h-0.9V126.2z"/>
					<path class="st10" d="M202.6,130l-0.7,1.8H201l0.7-1.8l-2-4.8h1l1.5,3.8l1.5-3.8h1L202.6,130z"/>
				</g>
				<g class="st9">
					<path class="st10" d="M171.5,138c0,0.5,0.1,1.4,1.7,1.4c1.4,0,1.6-0.9,1.6-1.2c0-0.8-0.6-0.9-1.6-1.2c-1-0.3-1.5-0.4-1.9-0.6
						c-0.6-0.4-0.7-0.9-0.7-1.4c0-1.4,1.3-2,2.6-2c0.5,0,1.4,0.1,1.9,0.7c0.4,0.4,0.4,0.9,0.4,1.2h-1c0-0.9-0.8-1-1.4-1
						c-1,0-1.5,0.4-1.5,1.1c0,0.6,0.4,0.8,1.2,1c1.6,0.4,1.8,0.5,2.2,0.7c0.6,0.4,0.7,1.1,0.7,1.4c0,1.2-1,2.1-2.7,2.1
						c-0.5,0-1.6-0.1-2.1-0.8c-0.4-0.5-0.4-1.1-0.4-1.4H171.5z"/>
					<path class="st10" d="M177.1,136c0-0.2,0-0.3,0-0.8h0.9l0,0.8c0.4-0.8,1.2-0.9,1.6-0.9c1,0,2,0.7,2,2.5c0,1.8-1,2.6-2.2,2.6
						c-0.7,0-1.2-0.3-1.5-0.7v2.4h-0.9V136z M179.3,139.5c0.2,0,0.7,0,1-0.5c0.3-0.5,0.4-1.2,0.4-1.5c0-0.9-0.3-1.7-1.3-1.7
						c-1.4,0-1.4,1.5-1.4,1.9C178,138.3,178,139.5,179.3,139.5z"/>
					<path class="st10" d="M183.4,137.8c0,1,0.4,1.7,1.4,1.7c0.6,0,1-0.3,1.1-1h0.9c0,0.2-0.1,0.6-0.4,1c-0.2,0.2-0.7,0.6-1.6,0.6
						c-1.5,0-2.2-0.9-2.2-2.4c0-0.9,0.2-1.7,0.9-2.2c0.5-0.3,1-0.4,1.3-0.4c2.1,0,2.1,1.9,2.1,2.7H183.4z M185.9,137.1
						c0-0.5-0.1-1.4-1.2-1.4c-0.6,0-1.3,0.4-1.3,1.4H185.9z"/>
					<path class="st10" d="M190.8,136.8c0-0.2-0.1-1-1-1c-1.2,0-1.2,1.4-1.2,1.8c0,1,0.2,1.9,1.2,1.9c0.8,0,1-0.6,1-1h0.9
						c-0.1,0.9-0.8,1.7-1.9,1.7c-0.3,0-1.1-0.1-1.6-0.6c-0.3-0.3-0.6-0.8-0.6-1.8c0-2,1.2-2.6,2.2-2.6c0.3,0,1,0.1,1.5,0.6
						c0.4,0.4,0.4,0.8,0.4,1.1H190.8z"/>
					<path class="st10" d="M192.7,133.2h1.1v1h-1.1V133.2z M192.8,135.2h0.9v4.8h-0.9V135.2z"/>
					<path class="st10" d="M198.3,140c-0.1-0.2-0.1-0.5-0.1-0.7c-0.4,0.8-1.1,0.9-1.5,0.9c-1.1,0-1.7-0.6-1.7-1.4
						c0-0.4,0.1-1,0.8-1.4c0.5-0.3,1.3-0.3,1.7-0.3c0.2,0,0.4,0,0.6,0c0-0.6,0-0.8-0.2-1.1c-0.2-0.2-0.6-0.3-0.8-0.3
						c-0.9,0-1,0.6-1,0.8h-0.9c0-0.2,0.1-0.6,0.3-0.9c0.4-0.4,1-0.5,1.5-0.5c0.7,0,1.4,0.2,1.7,0.7c0.2,0.3,0.2,0.5,0.2,0.7l0,2.3
						c0,0.1,0,0.7,0.1,1.2H198.3z M197.7,137.7c-0.4,0-1.7,0-1.7,1c0,0.3,0.2,0.8,1,0.8c0.5,0,0.8-0.2,1-0.5
						c0.2-0.3,0.2-0.6,0.2-1.3C198.1,137.7,197.9,137.7,197.7,137.7z"/>
					<path class="st10" d="M200.7,133.1h0.9v6.9h-0.9V133.1z"/>
					<path class="st10" d="M203.2,133.2h1.1v1h-1.1V133.2z M203.2,135.2h0.9v4.8h-0.9V135.2z"/>
					<path class="st10" d="M206.3,138.6c0,0.4,0.2,0.9,1,0.9c0.4,0,0.6-0.1,0.8-0.3c0.1-0.1,0.2-0.3,0.2-0.4c0-0.5-0.3-0.6-1-0.7
						c-1-0.2-1.8-0.4-1.8-1.4c0-0.9,0.8-1.4,1.9-1.4c0.6,0,1.4,0.2,1.7,0.7c0.1,0.3,0.1,0.5,0.1,0.7h-0.9c0-0.7-0.6-0.8-0.9-0.8
						c-0.1,0-1,0-1,0.7c0,0.4,0.4,0.5,0.7,0.6c1.3,0.3,1.6,0.4,1.9,0.7c0.3,0.2,0.4,0.6,0.4,0.9c0,0.5-0.3,1-0.6,1.2
						c-0.4,0.3-0.9,0.3-1.4,0.3c-1,0-1.9-0.4-1.9-1.5H206.3z"/>
					<path class="st10" d="M209.8,135.2h0.8v-1l0.9-0.3v1.3h1.1v0.7h-1.1v2.9c0,0.2,0,0.6,0.6,0.6c0.2,0,0.4,0,0.4,0v0.7
						c-0.2,0-0.4,0.1-0.7,0.1c-0.8,0-1.2-0.2-1.2-1v-3.2h-0.8V135.2z"/>
				</g>
				<g class="st9">
					<path class="st10" d="M171.8,143.1v4.2c0,0.7,0.2,1,0.3,1.2c0.4,0.6,1.1,0.7,1.6,0.7c1.9,0,1.9-1.5,1.9-1.9v-4.2h0.9v4.2
						c0,0.4,0,1.1-0.6,1.8c-0.7,0.8-1.7,1-2.2,1c-0.6,0-1.8-0.2-2.4-1.1c-0.2-0.3-0.4-0.7-0.4-1.7v-4.2H171.8z"/>
					<path class="st10" d="M178.2,146.2c0-0.3,0-0.7,0-1h0.9l0,0.9c0.2-0.7,0.7-0.9,1.1-0.9c0.3,0,0.5,0,0.6,0v0.9c0,0-0.1,0-0.2,0
						s-0.2,0-0.3,0c-1.1,0-1.3,0.6-1.3,1.4v2.5h-0.9V146.2z"/>
					<path class="st10" d="M182.7,150.4c0,0.5,0.3,0.9,1.1,0.9c1.2,0,1.3-0.9,1.3-2.2c-0.4,0.8-1.3,0.8-1.6,0.8
						c-0.4,0-1.1-0.1-1.5-0.6c-0.4-0.5-0.5-1.1-0.5-1.8c0-1.6,1-2.4,2.1-2.4c1,0,1.3,0.5,1.5,0.7l0-0.7h0.9l0,0.9l0,3
						c0,1.2,0,1.6-0.2,2c-0.4,0.8-1.3,0.9-2,0.9c-1.9,0-2-0.9-2-1.5H182.7z M184.8,148.8c0.2-0.2,0.3-0.5,0.3-1.4
						c0-0.6-0.1-0.9-0.4-1.2c-0.2-0.3-0.6-0.4-1-0.4c-1.1,0-1.3,1.1-1.3,1.8c0,0.7,0.2,1.7,1.3,1.7
						C184.2,149.2,184.5,149.1,184.8,148.8z"/>
					<path class="st10" d="M188.1,147.8c0,1,0.4,1.7,1.4,1.7c0.6,0,1-0.3,1.1-1h0.9c0,0.2-0.1,0.6-0.4,1c-0.2,0.2-0.7,0.6-1.6,0.6
						c-1.5,0-2.2-0.9-2.2-2.4c0-0.9,0.2-1.7,0.9-2.2c0.5-0.3,1-0.4,1.3-0.4c2.1,0,2.1,1.9,2.1,2.7H188.1z M190.6,147.1
						c0-0.5-0.1-1.4-1.2-1.4c-0.6,0-1.3,0.4-1.3,1.4H190.6z"/>
					<path class="st10" d="M192.8,145.8l0-0.6h0.9l0,0.8c0.1-0.2,0.4-0.9,1.5-0.9c0.4,0,1.7,0.2,1.7,1.6v3.2h-0.9v-3
						c0-0.3,0-0.6-0.3-0.8c-0.2-0.2-0.5-0.3-0.8-0.3c-0.6,0-1.2,0.5-1.2,1.4v2.7h-0.9V145.8z"/>
					<path class="st10" d="M197.8,145.2h0.8v-1l0.9-0.3v1.3h1.1v0.7h-1.1v2.9c0,0.2,0,0.6,0.6,0.6c0.2,0,0.4,0,0.4,0v0.7
						c-0.2,0-0.4,0.1-0.7,0.1c-0.8,0-1.2-0.2-1.2-1v-3.2h-0.8V145.2z"/>
					<path class="st10" d="M208.4,145c0-0.2-0.2-1.2-1.5-1.2c-1.7,0-1.9,1.7-1.9,2.8c0,1.3,0.4,2.7,1.9,2.7c0.4,0,0.8-0.1,1.1-0.4
						c0.2-0.3,0.3-0.6,0.3-0.7h1c-0.1,1.4-1.4,1.9-2.6,1.9c-2.4,0-2.9-2.1-2.9-3.5c0-1.4,0.6-3.6,3-3.6c1,0,2.3,0.4,2.5,1.9H208.4z"
						/>
					<path class="st10" d="M213.5,150c-0.1-0.2-0.1-0.5-0.1-0.7c-0.4,0.8-1.1,0.9-1.5,0.9c-1.1,0-1.7-0.6-1.7-1.4
						c0-0.4,0.1-1,0.8-1.4c0.5-0.3,1.3-0.3,1.7-0.3c0.2,0,0.4,0,0.6,0c0-0.6,0-0.8-0.2-1.1c-0.2-0.2-0.6-0.3-0.8-0.3
						c-0.9,0-1,0.6-1,0.8h-0.9c0-0.2,0.1-0.6,0.3-0.9c0.4-0.4,1-0.5,1.5-0.5c0.7,0,1.4,0.2,1.7,0.7c0.2,0.3,0.2,0.5,0.2,0.7l0,2.3
						c0,0.1,0,0.7,0.1,1.2H213.5z M212.9,147.7c-0.4,0-1.7,0-1.7,1c0,0.3,0.2,0.8,1,0.8c0.5,0,0.8-0.2,1-0.5
						c0.2-0.3,0.2-0.6,0.2-1.3C213.2,147.7,213.1,147.7,212.9,147.7z"/>
					<path class="st10" d="M215.9,146.2c0-0.3,0-0.7,0-1h0.9l0,0.9c0.2-0.7,0.7-0.9,1.1-0.9c0.3,0,0.5,0,0.6,0v0.9c0,0-0.1,0-0.2,0
						s-0.2,0-0.3,0c-1.1,0-1.3,0.6-1.3,1.4v2.5h-0.9V146.2z"/>
					<path class="st10" d="M220,147.8c0,1,0.4,1.7,1.4,1.7c0.6,0,1-0.3,1.1-1h0.9c0,0.2-0.1,0.6-0.4,1c-0.2,0.2-0.7,0.6-1.6,0.6
						c-1.5,0-2.2-0.9-2.2-2.4c0-0.9,0.2-1.7,0.9-2.2c0.5-0.3,1-0.4,1.3-0.4c2.1,0,2.1,1.9,2.1,2.7H220z M222.5,147.1
						c0-0.5-0.1-1.4-1.2-1.4c-0.6,0-1.3,0.4-1.3,1.4H222.5z"/>
				</g>
				<g class="st9">
					<path class="st10" d="M170.7,153.1h4.3v0.8h-3.4v2.1h3.2v0.8h-3.2v2.3h3.4v0.8h-4.4V153.1z"/>
					<path class="st10" d="M176.6,153.1h2.5c0.4,0,1.1,0,1.6,0.3c0.5,0.3,0.8,0.8,0.8,1.4c0,0.5-0.2,0.9-0.5,1.2
						c-0.3,0.3-0.6,0.4-0.8,0.4c0.7,0.2,1,0.5,1,1.3c0.1,0.8,0.2,1.4,0.4,2.2h-1c-0.2-0.5-0.2-1.3-0.3-1.8c-0.1-1-0.4-1.3-1.5-1.3
						h-1.2v3.1h-0.9V153.1z M177.5,156.1h1.5c0.1,0,0.6,0,0.9-0.2c0.1-0.1,0.5-0.3,0.5-0.9c0-1.1-1-1.1-1.4-1.1h-1.5V156.1z"/>
				</g>
				<g class="st9">
					<path class="st10" d="M170.8,163.1h2.3c0.8,0,1.4,0,1.9,0.6c0.3,0.4,0.5,0.8,0.5,1.3c0,0.5-0.2,1-0.5,1.3
						c-0.4,0.4-0.8,0.6-2.1,0.6h-1.1v3.1h-1V163.1z M171.8,166.2h1.1c0.6,0,1.6,0,1.6-1.2c0-1.1-0.9-1.1-1.4-1.1h-1.3V166.2z"/>
					<path class="st10" d="M176.5,166.2c0-0.3,0-0.7,0-1h0.9l0,0.9c0.2-0.7,0.7-0.9,1.1-0.9c0.3,0,0.5,0,0.6,0v0.9c0,0-0.1,0-0.2,0
						s-0.2,0-0.3,0c-1.1,0-1.3,0.6-1.3,1.4v2.5h-0.9V166.2z"/>
					<path class="st10" d="M180.6,167.8c0,1,0.4,1.7,1.4,1.7c0.6,0,1-0.3,1.1-1h0.9c0,0.2-0.1,0.6-0.4,1c-0.2,0.2-0.7,0.6-1.6,0.6
						c-1.5,0-2.2-0.9-2.2-2.4c0-0.9,0.2-1.7,0.9-2.2c0.5-0.3,1-0.4,1.3-0.4c2.1,0,2.1,1.9,2.1,2.7H180.6z M183.1,167.1
						c0-0.5-0.1-1.4-1.2-1.4c-0.6,0-1.3,0.4-1.3,1.4H183.1z"/>
					<path class="st10" d="M185.8,168.6c0,0.4,0.2,0.9,1,0.9c0.4,0,0.6-0.1,0.8-0.3c0.1-0.1,0.2-0.3,0.2-0.4c0-0.5-0.3-0.6-1-0.7
						c-1-0.2-1.8-0.4-1.8-1.4c0-0.9,0.8-1.4,1.9-1.4c0.6,0,1.4,0.2,1.7,0.7c0.1,0.3,0.1,0.5,0.1,0.7h-0.9c0-0.7-0.6-0.8-0.9-0.8
						c-0.1,0-1,0-1,0.7c0,0.4,0.4,0.5,0.7,0.6c1.3,0.3,1.6,0.4,1.9,0.7c0.3,0.2,0.4,0.6,0.4,0.9c0,0.5-0.3,1-0.6,1.2
						c-0.4,0.3-0.9,0.3-1.4,0.3c-1,0-1.9-0.4-1.9-1.5H185.8z"/>
					<path class="st10" d="M192.7,166.8c0-0.2-0.1-1-1-1c-1.2,0-1.2,1.4-1.2,1.8c0,1,0.2,1.9,1.2,1.9c0.8,0,1-0.6,1-1h0.9
						c-0.1,0.9-0.8,1.7-1.9,1.7c-0.3,0-1.1-0.1-1.6-0.6c-0.3-0.3-0.6-0.8-0.6-1.8c0-2,1.2-2.6,2.2-2.6c0.3,0,1,0.1,1.5,0.6
						c0.4,0.4,0.4,0.8,0.4,1.1H192.7z"/>
					<path class="st10" d="M194.7,166.2c0-0.3,0-0.7,0-1h0.9l0,0.9c0.2-0.7,0.7-0.9,1.1-0.9c0.3,0,0.5,0,0.6,0v0.9c0,0-0.1,0-0.2,0
						s-0.2,0-0.3,0c-1.1,0-1.3,0.6-1.3,1.4v2.5h-0.9V166.2z"/>
					<path class="st10" d="M198.3,163.2h1.1v1h-1.1V163.2z M198.3,165.2h0.9v4.8h-0.9V165.2z"/>
					<path class="st10" d="M200.9,166c0-0.2,0-0.3,0-0.8h0.9l0,0.8c0.4-0.8,1.2-0.9,1.6-0.9c1,0,2,0.7,2,2.5c0,1.8-1,2.6-2.2,2.6
						c-0.7,0-1.2-0.3-1.5-0.7v2.4h-0.9V166z M203.1,169.5c0.2,0,0.7,0,1-0.5c0.3-0.5,0.4-1.2,0.4-1.5c0-0.9-0.3-1.7-1.3-1.7
						c-1.4,0-1.4,1.5-1.4,1.9C201.8,168.3,201.8,169.5,203.1,169.5z"/>
					<path class="st10" d="M206,165.2h0.8v-1l0.9-0.3v1.3h1.1v0.7h-1.1v2.9c0,0.2,0,0.6,0.6,0.6c0.2,0,0.4,0,0.4,0v0.7
						c-0.2,0-0.4,0.1-0.7,0.1c-0.8,0-1.2-0.2-1.2-1v-3.2H206V165.2z"/>
					<path class="st10" d="M209.7,163.2h1.1v1h-1.1V163.2z M209.8,165.2h0.9v4.8h-0.9V165.2z"/>
					<path class="st10" d="M214.5,165.1c1.9,0,2.3,1.5,2.3,2.5c0,1.4-0.8,2.6-2.4,2.6c-1.6,0-2.3-1.1-2.3-2.5
						C212,166.5,212.6,165.1,214.5,165.1z M214.4,169.5c0.7,0,1.4-0.5,1.4-1.9c0-1.2-0.6-1.8-1.4-1.8c-0.6,0-1.5,0.4-1.5,1.9
						C213,168.6,213.4,169.5,214.4,169.5z"/>
					<path class="st10" d="M218.2,165.8l0-0.6h0.9l0,0.8c0.1-0.2,0.4-0.9,1.5-0.9c0.4,0,1.7,0.2,1.7,1.6v3.2h-0.9v-3
						c0-0.3,0-0.6-0.3-0.8c-0.2-0.2-0.5-0.3-0.8-0.3c-0.6,0-1.2,0.5-1.2,1.4v2.7h-0.9V165.8z"/>
					<path class="st10" d="M226.5,163.1h2c0.9,0,2,0,2.8,0.9c0.6,0.7,0.8,1.7,0.8,2.6c0,1.5-0.6,2.4-1.1,2.8
						c-0.7,0.6-1.5,0.6-2.5,0.6h-1.9V163.1z M227.5,169.2h0.9c0.7,0,1.3,0,1.8-0.4c0.9-0.7,0.9-1.8,0.9-2.2c0-0.3,0-1.4-0.7-2.1
						c-0.4-0.5-1-0.6-1.8-0.6h-1.1V169.2z"/>
					<path class="st10" d="M233.4,166.2c0-0.3,0-0.7,0-1h0.9l0,0.9c0.2-0.7,0.7-0.9,1.1-0.9c0.3,0,0.5,0,0.6,0v0.9c0,0-0.1,0-0.2,0
						s-0.2,0-0.3,0c-1.1,0-1.3,0.6-1.3,1.4v2.5h-0.9V166.2z"/>
					<path class="st10" d="M237.8,165.2v3.1c0,0.5,0.1,1.1,1,1.1c0.4,0,0.9-0.2,1.1-0.5c0.2-0.3,0.2-0.7,0.2-0.9v-2.7h0.9v3.9
						c0,0.1,0,0.6,0,0.9h-0.9l0-0.8c-0.2,0.3-0.5,0.9-1.5,0.9c-1.2,0-1.7-0.7-1.7-1.6v-3.2H237.8z"/>
					<path class="st10" d="M243.6,170.4c0,0.5,0.3,0.9,1.1,0.9c1.2,0,1.3-0.9,1.3-2.2c-0.4,0.8-1.3,0.8-1.6,0.8
						c-0.4,0-1.1-0.1-1.5-0.6c-0.4-0.5-0.5-1.1-0.5-1.8c0-1.6,1-2.4,2.1-2.4c1,0,1.3,0.5,1.5,0.7l0-0.7h0.9l0,0.9l0,3
						c0,1.2,0,1.6-0.2,2c-0.4,0.8-1.3,0.9-2,0.9c-1.9,0-2-0.9-2-1.5H243.6z M245.7,168.8c0.2-0.2,0.3-0.5,0.3-1.4
						c0-0.6-0.1-0.9-0.4-1.2c-0.2-0.3-0.6-0.4-1-0.4c-1.1,0-1.3,1.1-1.3,1.8c0,0.7,0.2,1.7,1.3,1.7
						C245.1,169.2,245.4,169.1,245.7,168.8z"/>
				</g>
				<g class="st9">
					<path class="st10" d="M170.8,173.1h2.3c0.8,0,1.4,0,1.9,0.6c0.3,0.4,0.5,0.8,0.5,1.3c0,0.5-0.2,1-0.5,1.3
						c-0.4,0.4-0.8,0.6-2.1,0.6h-1.1v3.1h-1V173.1z M171.8,176.2h1.1c0.6,0,1.6,0,1.6-1.2c0-1.1-0.9-1.1-1.4-1.1h-1.3V176.2z"/>
					<path class="st10" d="M176.5,176.2c0-0.3,0-0.7,0-1h0.9l0,0.9c0.2-0.7,0.7-0.9,1.1-0.9c0.3,0,0.5,0,0.6,0v0.9c0,0-0.1,0-0.2,0
						s-0.2,0-0.3,0c-1.1,0-1.3,0.6-1.3,1.4v2.5h-0.9V176.2z"/>
					<path class="st10" d="M180.6,177.8c0,1,0.4,1.7,1.4,1.7c0.6,0,1-0.3,1.1-1h0.9c0,0.2-0.1,0.6-0.4,1c-0.2,0.2-0.7,0.6-1.6,0.6
						c-1.5,0-2.2-0.9-2.2-2.4c0-0.9,0.2-1.7,0.9-2.2c0.5-0.3,1-0.4,1.3-0.4c2.1,0,2.1,1.9,2.1,2.7H180.6z M183.1,177.1
						c0-0.5-0.1-1.4-1.2-1.4c-0.6,0-1.3,0.4-1.3,1.4H183.1z"/>
					<path class="st10" d="M184.6,175.2h1l1.5,3.8l1.5-3.8h1l-2.1,4.8h-0.9L184.6,175.2z"/>
					<path class="st10" d="M191.1,177.8c0,1,0.4,1.7,1.4,1.7c0.6,0,1-0.3,1.1-1h0.9c0,0.2-0.1,0.6-0.4,1c-0.2,0.2-0.7,0.6-1.6,0.6
						c-1.5,0-2.2-0.9-2.2-2.4c0-0.9,0.2-1.7,0.9-2.2c0.5-0.3,1-0.4,1.3-0.4c2.1,0,2.1,1.9,2.1,2.7H191.1z M193.6,177.1
						c0-0.5-0.1-1.4-1.2-1.4c-0.6,0-1.3,0.4-1.3,1.4H193.6z"/>
					<path class="st10" d="M195.8,175.8l0-0.6h0.9l0,0.8c0.1-0.2,0.4-0.9,1.5-0.9c0.4,0,1.7,0.2,1.7,1.6v3.2H199v-3
						c0-0.3,0-0.6-0.3-0.8c-0.2-0.2-0.5-0.3-0.8-0.3c-0.6,0-1.2,0.5-1.2,1.4v2.7h-0.9V175.8z"/>
					<path class="st10" d="M200.8,175.2h0.8v-1l0.9-0.3v1.3h1.1v0.7h-1.1v2.9c0,0.2,0,0.6,0.6,0.6c0.2,0,0.4,0,0.4,0v0.7
						c-0.2,0-0.4,0.1-0.7,0.1c-0.8,0-1.2-0.2-1.2-1v-3.2h-0.8V175.2z"/>
					<path class="st10" d="M204.5,173.2h1.1v1h-1.1V173.2z M204.6,175.2h0.9v4.8h-0.9V175.2z"/>
					<path class="st10" d="M206.7,175.2h1l1.5,3.8l1.5-3.8h1l-2.1,4.8h-0.9L206.7,175.2z"/>
					<path class="st10" d="M213.2,177.8c0,1,0.4,1.7,1.4,1.7c0.6,0,1-0.3,1.1-1h0.9c0,0.2-0.1,0.6-0.4,1c-0.2,0.2-0.7,0.6-1.6,0.6
						c-1.5,0-2.2-0.9-2.2-2.4c0-0.9,0.2-1.7,0.9-2.2c0.5-0.3,1-0.4,1.3-0.4c2.1,0,2.1,1.9,2.1,2.7H213.2z M215.7,177.1
						c0-0.5-0.1-1.4-1.2-1.4c-0.6,0-1.3,0.4-1.3,1.4H215.7z"/>
					<path class="st10" d="M224.6,175c0-0.2-0.2-1.2-1.5-1.2c-1.7,0-1.9,1.7-1.9,2.8c0,1.3,0.4,2.7,1.9,2.7c0.4,0,0.8-0.1,1.1-0.4
						c0.2-0.3,0.3-0.6,0.3-0.7h1c-0.1,1.4-1.4,1.9-2.6,1.9c-2.4,0-2.9-2.1-2.9-3.5c0-1.4,0.6-3.6,3-3.6c1,0,2.3,0.4,2.5,1.9H224.6z"
						/>
					<path class="st10" d="M229.7,180c-0.1-0.2-0.1-0.5-0.1-0.7c-0.4,0.8-1.1,0.9-1.5,0.9c-1.1,0-1.7-0.6-1.7-1.4
						c0-0.4,0.1-1,0.8-1.4c0.5-0.3,1.3-0.3,1.7-0.3c0.2,0,0.4,0,0.6,0c0-0.6,0-0.8-0.2-1.1c-0.2-0.2-0.6-0.3-0.8-0.3
						c-0.9,0-1,0.6-1,0.8h-0.9c0-0.2,0.1-0.6,0.3-0.9c0.4-0.4,1-0.5,1.5-0.5c0.7,0,1.4,0.2,1.7,0.7c0.2,0.3,0.2,0.5,0.2,0.7l0,2.3
						c0,0.1,0,0.7,0.1,1.2H229.7z M229.1,177.7c-0.4,0-1.7,0-1.7,1c0,0.3,0.2,0.8,1,0.8c0.5,0,0.8-0.2,1-0.5
						c0.2-0.3,0.2-0.6,0.2-1.3C229.4,177.7,229.3,177.7,229.1,177.7z"/>
					<path class="st10" d="M232,176.2c0-0.3,0-0.7,0-1h0.9l0,0.9c0.2-0.7,0.7-0.9,1.1-0.9c0.3,0,0.5,0,0.6,0v0.9c0,0-0.1,0-0.2,0
						s-0.2,0-0.3,0c-1.1,0-1.3,0.6-1.3,1.4v2.5H232V176.2z"/>
					<path class="st10" d="M236.2,177.8c0,1,0.4,1.7,1.4,1.7c0.6,0,1-0.3,1.1-1h0.9c0,0.2-0.1,0.6-0.4,1c-0.2,0.2-0.7,0.6-1.6,0.6
						c-1.5,0-2.2-0.9-2.2-2.4c0-0.9,0.2-1.7,0.9-2.2c0.5-0.3,1-0.4,1.3-0.4c2.1,0,2.1,1.9,2.1,2.7H236.2z M238.7,177.1
						c0-0.5-0.1-1.4-1.2-1.4c-0.6,0-1.3,0.4-1.3,1.4H238.7z"/>
				</g>
				<g class="st9">
					<path class="st10" d="M262.9,122.6v0.8c0.4,0,2,0.1,2.1,1.6h-1c0-0.6-0.5-0.8-1.1-0.8v2c1,0.3,2.2,0.6,2.2,2
						c0,0.9-0.6,1.4-0.9,1.6c-0.4,0.3-1,0.3-1.3,0.4v0.9h-0.5V130c-0.4,0-1,0-1.6-0.5c-0.5-0.4-0.5-0.9-0.5-1.3h1c0,0.4,0.2,1,1.1,1
						V127c-1.6-0.5-2-0.9-2-1.9c0-0.8,0.5-1.2,0.8-1.4c0.4-0.3,1-0.3,1.2-0.3v-0.8H262.9z M262.4,124.2c-1,0.1-1.1,0.7-1.1,0.9
						c0,0.6,0.6,0.8,1.1,1V124.2z M262.9,129.2c0.8,0,1.2-0.5,1.2-1c0-0.7-0.7-0.9-1.2-1.1V129.2z"/>
					<path class="st10" d="M265.7,129.1l1.7-1.7c0.4-0.4,0.7-0.7,1-1.1c0.4-0.5,0.5-0.8,0.5-1.2c0-0.3-0.1-1.1-1.1-1.1
						c-1.1,0-1.1,0.9-1.1,1.2h-1c0-0.3,0-1,0.6-1.4c0.5-0.4,1-0.5,1.4-0.5c1,0,2,0.5,2,1.9c0,0.4,0,0.7-0.7,1.6
						c-0.2,0.2-1,1.1-1.2,1.3l-1.2,1.1h3.1v0.8h-4.2V129.1z"/>
					<path class="st10" d="M272,128.4c0,0.7,0.6,0.9,1.1,0.9c1.2,0,1.3-1.1,1.3-1.5c0-0.9-0.5-1.4-1.2-1.4c-0.4,0-0.7,0.1-0.9,0.3
						c-0.2,0.2-0.3,0.4-0.3,0.6h-0.9l0.2-3.9h3.7v0.8h-2.9l-0.1,2.1c0.2-0.2,0.6-0.6,1.4-0.6c1.3,0,2,1,2,2.2c0,1.3-0.9,2.3-2.3,2.3
						c-1.1,0-1.9-0.6-2-1.7H272z"/>
				</g>
				<g class="st9">
					<path class="st10" d="M262.9,132.6v0.8c0.4,0,2,0.1,2.1,1.6h-1c0-0.6-0.5-0.8-1.1-0.8v2c1,0.3,2.2,0.6,2.2,2
						c0,0.9-0.6,1.4-0.9,1.6c-0.4,0.3-1,0.3-1.3,0.4v0.9h-0.5V140c-0.4,0-1,0-1.6-0.5c-0.5-0.4-0.5-0.9-0.5-1.3h1c0,0.4,0.2,1,1.1,1
						V137c-1.6-0.5-2-0.9-2-1.9c0-0.8,0.5-1.2,0.8-1.4c0.4-0.3,1-0.3,1.2-0.3v-0.8H262.9z M262.4,134.2c-1,0.1-1.1,0.7-1.1,0.9
						c0,0.6,0.6,0.8,1.1,1V134.2z M262.9,139.2c0.8,0,1.2-0.5,1.2-1c0-0.7-0.7-0.9-1.2-1.1V139.2z"/>
					<path class="st10" d="M266.8,138.4c0,0.7,0.6,0.9,1.1,0.9c1.2,0,1.3-1.1,1.3-1.5c0-0.9-0.5-1.4-1.2-1.4c-0.4,0-0.7,0.1-0.9,0.3
						c-0.2,0.2-0.3,0.4-0.3,0.6h-0.9l0.2-3.9h3.7v0.8h-2.9l-0.1,2.1c0.2-0.2,0.6-0.6,1.4-0.6c1.3,0,2,1,2,2.2c0,1.3-0.9,2.3-2.3,2.3
						c-1.1,0-1.9-0.6-2-1.7H266.8z"/>
					<path class="st10" d="M273.1,133.3c2,0,2.2,2.1,2.2,3.3c0,1.6-0.3,2.4-0.9,3c-0.5,0.4-1,0.5-1.3,0.5c-0.9,0-1.5-0.5-1.8-1.1
						c-0.2-0.4-0.4-1.1-0.4-2.3C270.9,135.8,271,133.3,273.1,133.3z M273.1,139.3c1.1,0,1.3-1.4,1.3-2.6c0-1.6-0.3-2.7-1.3-2.7
						c-1.2,0-1.3,1.5-1.3,2.7C271.8,138.2,272.1,139.3,273.1,139.3z"/>
				</g>
				<g class="st9">
					<path class="st10" d="M262.9,142.6v0.8c0.4,0,2,0.1,2.1,1.6h-1c0-0.6-0.5-0.8-1.1-0.8v2c1,0.3,2.2,0.6,2.2,2
						c0,0.9-0.6,1.4-0.9,1.6c-0.4,0.3-1,0.3-1.3,0.4v0.9h-0.5V150c-0.4,0-1,0-1.6-0.5c-0.5-0.4-0.5-0.9-0.5-1.3h1c0,0.4,0.2,1,1.1,1
						V147c-1.6-0.5-2-0.9-2-1.9c0-0.8,0.5-1.2,0.8-1.4c0.4-0.3,1-0.3,1.2-0.3v-0.8H262.9z M262.4,144.2c-1,0.1-1.1,0.7-1.1,0.9
						c0,0.6,0.6,0.8,1.1,1V144.2z M262.9,149.2c0.8,0,1.2-0.5,1.2-1c0-0.7-0.7-0.9-1.2-1.1V149.2z"/>
					<path class="st10" d="M266.8,148.4c0,0.7,0.6,0.9,1.1,0.9c1.2,0,1.3-1.1,1.3-1.5c0-0.9-0.5-1.4-1.2-1.4c-0.4,0-0.7,0.1-0.9,0.3
						c-0.2,0.2-0.3,0.4-0.3,0.6h-0.9l0.2-3.9h3.7v0.8h-2.9l-0.1,2.1c0.2-0.2,0.6-0.6,1.4-0.6c1.3,0,2,1,2,2.2c0,1.3-0.9,2.3-2.3,2.3
						c-1.1,0-1.9-0.6-2-1.7H266.8z"/>
					<path class="st10" d="M273.1,143.3c2,0,2.2,2.1,2.2,3.3c0,1.6-0.3,2.4-0.9,3c-0.5,0.4-1,0.5-1.3,0.5c-0.9,0-1.5-0.5-1.8-1.1
						c-0.2-0.4-0.4-1.1-0.4-2.3C270.9,145.8,271,143.3,273.1,143.3z M273.1,149.3c1.1,0,1.3-1.4,1.3-2.6c0-1.6-0.3-2.7-1.3-2.7
						c-1.2,0-1.3,1.5-1.3,2.7C271.8,148.2,272.1,149.3,273.1,149.3z"/>
				</g>
				<g class="st9">
					<path class="st10" d="M262.9,152.6v0.8c0.4,0,2,0.1,2.1,1.6h-1c0-0.6-0.5-0.8-1.1-0.8v2c1,0.3,2.2,0.6,2.2,2
						c0,0.9-0.6,1.4-0.9,1.6c-0.4,0.3-1,0.3-1.3,0.4v0.9h-0.5V160c-0.4,0-1,0-1.6-0.5c-0.5-0.4-0.5-0.9-0.5-1.3h1c0,0.4,0.2,1,1.1,1
						V157c-1.6-0.5-2-0.9-2-1.9c0-0.8,0.5-1.2,0.8-1.4c0.4-0.3,1-0.3,1.2-0.3v-0.8H262.9z M262.4,154.2c-1,0.1-1.1,0.7-1.1,0.9
						c0,0.6,0.6,0.8,1.1,1V154.2z M262.9,159.2c0.8,0,1.2-0.5,1.2-1c0-0.7-0.7-0.9-1.2-1.1V159.2z"/>
					<path class="st10" d="M265.7,159.1l1.7-1.7c0.4-0.4,0.7-0.7,1-1.1c0.4-0.5,0.5-0.8,0.5-1.2c0-0.3-0.1-1.1-1.1-1.1
						c-1.1,0-1.1,0.9-1.1,1.2h-1c0-0.3,0-1,0.6-1.4c0.5-0.4,1-0.5,1.4-0.5c1,0,2,0.5,2,1.9c0,0.4,0,0.7-0.7,1.6
						c-0.2,0.2-1,1.1-1.2,1.3l-1.2,1.1h3.1v0.8h-4.2V159.1z"/>
					<path class="st10" d="M273.1,153.3c2,0,2.2,2.1,2.2,3.3c0,1.6-0.3,2.4-0.9,3c-0.5,0.4-1,0.5-1.3,0.5c-0.9,0-1.5-0.5-1.8-1.1
						c-0.2-0.4-0.4-1.1-0.4-2.3C270.9,155.8,271,153.3,273.1,153.3z M273.1,159.3c1.1,0,1.3-1.4,1.3-2.6c0-1.6-0.3-2.7-1.3-2.7
						c-1.2,0-1.3,1.5-1.3,2.7C271.8,158.2,272.1,159.3,273.1,159.3z"/>
					<path class="st10" d="M278.7,153.3c2,0,2.2,2.1,2.2,3.3c0,1.6-0.3,2.4-0.9,3c-0.5,0.4-1,0.5-1.3,0.5c-0.9,0-1.5-0.5-1.8-1.1
						c-0.2-0.4-0.4-1.1-0.4-2.3C276.5,155.8,276.6,153.3,278.7,153.3z M278.7,159.3c1.1,0,1.3-1.4,1.3-2.6c0-1.6-0.3-2.7-1.3-2.7
						c-1.2,0-1.3,1.5-1.3,2.7C277.4,158.2,277.7,159.3,278.7,159.3z"/>
				</g>
				<g class="st9">
					<path class="st10" d="M262.9,162.6v0.8c0.4,0,2,0.1,2.1,1.6h-1c0-0.6-0.5-0.8-1.1-0.8v2c1,0.3,2.2,0.6,2.2,2
						c0,0.9-0.6,1.4-0.9,1.6c-0.4,0.3-1,0.3-1.3,0.4v0.9h-0.5V170c-0.4,0-1,0-1.6-0.5c-0.5-0.4-0.5-0.9-0.5-1.3h1c0,0.4,0.2,1,1.1,1
						V167c-1.6-0.5-2-0.9-2-1.9c0-0.8,0.5-1.2,0.8-1.4c0.4-0.3,1-0.3,1.2-0.3v-0.8H262.9z M262.4,164.2c-1,0.1-1.1,0.7-1.1,0.9
						c0,0.6,0.6,0.8,1.1,1V164.2z M262.9,169.2c0.8,0,1.2-0.5,1.2-1c0-0.7-0.7-0.9-1.2-1.1V169.2z"/>
					<path class="st10" d="M265.7,165.1c0-0.6,0.4-1.8,2.1-1.8c1.4,0,2.2,0.8,2.2,1.8c0,0.6-0.4,1.3-1.3,1.5
						c0.4,0.1,1.4,0.4,1.4,1.7c0,0.9-0.6,1.9-2.3,1.9c-0.6,0-1.2-0.1-1.7-0.6c-0.4-0.3-0.6-0.8-0.6-1.3c0-0.4,0.2-0.9,0.5-1.2
						c0.3-0.3,0.7-0.4,1-0.5C266.2,166.3,265.7,165.7,265.7,165.1z M267.9,169.4c1.1,0,1.3-0.7,1.3-1.2c0-0.7-0.5-1.2-1.3-1.2
						c-0.8,0-1.3,0.5-1.3,1.2C266.5,168.7,266.9,169.4,267.9,169.4z M267.9,164c-0.7,0-1.2,0.4-1.2,1.1c0,0.6,0.5,1.1,1.2,1.1
						c0.7,0,1.3-0.4,1.3-1.1C269.1,164.4,268.7,164,267.9,164z"/>
					<path class="st10" d="M272.6,163.2h0.6l-2.2,6.9h-0.6L272.6,163.2z"/>
					<path class="st10" d="M276,162.6v0.8c0.4,0,2,0.1,2.1,1.6h-1c0-0.6-0.5-0.8-1.1-0.8v2c1,0.3,2.2,0.6,2.2,2
						c0,0.9-0.6,1.4-0.9,1.6c-0.4,0.3-1,0.3-1.3,0.4v0.9h-0.5V170c-0.4,0-1,0-1.6-0.5c-0.5-0.4-0.5-0.9-0.5-1.3h1c0,0.4,0.2,1,1.1,1
						V167c-1.6-0.5-2-0.9-2-1.9c0-0.8,0.5-1.2,0.8-1.4c0.4-0.3,1-0.3,1.2-0.3v-0.8H276z M275.5,164.2c-1,0.1-1.1,0.7-1.1,0.9
						c0,0.6,0.6,0.8,1.1,1V164.2z M275.9,169.2c0.8,0,1.2-0.5,1.2-1c0-0.7-0.7-0.9-1.2-1.1V169.2z"/>
					<path class="st10" d="M279.7,168.3c0,0.6,0.4,1.1,1.2,1.1c0.9,0,1.3-0.6,1.3-1.2c0-0.7-0.5-1.1-1-1.2c-0.3-0.1-0.6-0.1-0.9,0
						v-0.8c0.7,0.1,1.8-0.1,1.8-1.1c0-0.7-0.5-1-1.2-1c-0.5,0-1.1,0.2-1.2,1h-1c0.1-1.6,1.6-1.8,2.1-1.8c1.4,0,2.1,0.9,2.1,1.8
						c0,0.5-0.3,1.3-1.3,1.5c1.4,0.2,1.4,1.5,1.4,1.6c0,0.9-0.8,1.9-2.3,1.9c-0.7,0-1.4-0.2-1.8-0.7c-0.4-0.4-0.4-0.9-0.4-1.2H279.7
						z"/>
					<path class="st10" d="M285.1,168.4c0,0.7,0.6,0.9,1.1,0.9c1.2,0,1.3-1.1,1.3-1.5c0-0.9-0.5-1.4-1.2-1.4c-0.4,0-0.7,0.1-0.9,0.3
						c-0.2,0.2-0.3,0.4-0.3,0.6h-0.9l0.2-3.9h3.7v0.8h-2.9l-0.1,2.1c0.2-0.2,0.6-0.6,1.4-0.6c1.3,0,2,1,2,2.2c0,1.3-0.9,2.3-2.3,2.3
						c-1.1,0-1.9-0.6-2-1.7H285.1z"/>
					<path class="st10" d="M290.9,163.2h0.6l-2.2,6.9h-0.6L290.9,163.2z"/>
					<path class="st10" d="M294.2,162.6v0.8c0.4,0,2,0.1,2.1,1.6h-1c0-0.6-0.5-0.8-1.1-0.8v2c1,0.3,2.2,0.6,2.2,2
						c0,0.9-0.6,1.4-0.9,1.6c-0.4,0.3-1,0.3-1.3,0.4v0.9h-0.5V170c-0.4,0-1,0-1.6-0.5c-0.5-0.4-0.5-0.9-0.5-1.3h1c0,0.4,0.2,1,1.1,1
						V167c-1.6-0.5-2-0.9-2-1.9c0-0.8,0.5-1.2,0.8-1.4c0.4-0.3,1-0.3,1.2-0.3v-0.8H294.2z M293.8,164.2c-1,0.1-1.1,0.7-1.1,0.9
						c0,0.6,0.6,0.8,1.1,1V164.2z M294.2,169.2c0.8,0,1.2-0.5,1.2-1c0-0.7-0.7-0.9-1.2-1.1V169.2z"/>
					<path class="st10" d="M298.1,168.4c0,0.7,0.6,0.9,1.1,0.9c1.2,0,1.3-1.1,1.3-1.5c0-0.9-0.5-1.4-1.2-1.4c-0.4,0-0.7,0.1-0.9,0.3
						c-0.2,0.2-0.3,0.4-0.3,0.6h-0.9l0.2-3.9h3.7v0.8h-2.9l-0.1,2.1c0.2-0.2,0.6-0.6,1.4-0.6c1.3,0,2,1,2,2.2c0,1.3-0.9,2.3-2.3,2.3
						c-1.1,0-1.9-0.6-2-1.7H298.1z"/>
					<path class="st10" d="M304.5,163.3c2,0,2.2,2.1,2.2,3.3c0,1.6-0.3,2.4-0.9,3c-0.5,0.4-1,0.5-1.3,0.5c-0.9,0-1.5-0.5-1.8-1.1
						c-0.2-0.4-0.4-1.1-0.4-2.3C302.2,165.8,302.4,163.3,304.5,163.3z M304.4,169.3c1.1,0,1.3-1.4,1.3-2.6c0-1.6-0.3-2.7-1.3-2.7
						c-1.2,0-1.3,1.5-1.3,2.7C303.2,168.2,303.4,169.3,304.4,169.3z"/>
					<path class="st10" d="M309.2,163.2h0.6l-2.2,6.9H307L309.2,163.2z"/>
					<path class="st10" d="M310.2,169.1l1.7-1.7c0.4-0.4,0.7-0.7,1-1.1c0.4-0.5,0.5-0.8,0.5-1.2c0-0.3-0.1-1.1-1.1-1.1
						c-1.1,0-1.1,0.9-1.1,1.2h-1c0-0.3,0-1,0.6-1.4c0.5-0.4,1-0.5,1.4-0.5c1,0,2,0.5,2,1.9c0,0.4,0,0.7-0.7,1.6
						c-0.2,0.2-1,1.1-1.2,1.3l-1.2,1.1h3.1v0.8h-4.2V169.1z"/>
					<path class="st10" d="M316.4,168.4c0,0.7,0.6,0.9,1.1,0.9c1.2,0,1.3-1.1,1.3-1.5c0-0.9-0.5-1.4-1.2-1.4c-0.4,0-0.7,0.1-0.9,0.3
						c-0.2,0.2-0.3,0.4-0.3,0.6h-0.9l0.2-3.9h3.7v0.8h-2.9l-0.1,2.1c0.2-0.2,0.6-0.6,1.4-0.6c1.3,0,2,1,2,2.2c0,1.3-0.9,2.3-2.3,2.3
						c-1.1,0-1.9-0.6-2-1.7H316.4z"/>
					<path class="st10" d="M323.7,164.9c0,1.2-0.7,1.7-1.6,1.7c-0.8,0-1.5-0.5-1.5-1.7c0-1,0.5-1.7,1.6-1.7
						C323.3,163.2,323.7,164.1,323.7,164.9z M323,165c0-0.5-0.1-1.2-0.8-1.2c-0.8,0-0.8,0.9-0.8,1.2c0,0.2,0,1.1,0.8,1.1
						C323,166.1,323,165.2,323,165z M321.9,170.4l4.2-7.3h0.6l-4.2,7.3H321.9z M327.7,167.2c0.2,0.2,0.4,0.5,0.4,1.2
						c0,1-0.5,1.7-1.5,1.7c-1.2,0-1.6-0.9-1.6-1.7c0-1.2,0.7-1.7,1.6-1.7C326.8,166.7,327.3,166.8,327.7,167.2z M327.3,168.4
						c0-0.3-0.1-1.2-0.8-1.2c-0.8,0-0.8,1-0.8,1.3c0,0.3,0.1,1,0.8,1C327.3,169.6,327.3,168.7,327.3,168.4z"/>
				</g>
				<g class="st9">
					<path class="st10" d="M260.9,173.1h1.3l3.4,5.7v-5.7h0.9v6.9h-1.2l-3.5-5.8v5.8h-0.9V173.1z"/>
					<path class="st10" d="M270.3,175.1c1.9,0,2.3,1.5,2.3,2.5c0,1.4-0.8,2.6-2.4,2.6c-1.6,0-2.3-1.1-2.3-2.5
						C267.8,176.5,268.4,175.1,270.3,175.1z M270.2,179.5c0.7,0,1.4-0.5,1.4-1.9c0-1.2-0.6-1.8-1.4-1.8c-0.6,0-1.5,0.4-1.5,1.9
						C268.8,178.6,269.2,179.5,270.2,179.5z"/>
					<path class="st10" d="M280.7,175c0-0.2-0.2-1.2-1.5-1.2c-1.7,0-1.9,1.7-1.9,2.8c0,1.3,0.4,2.7,1.9,2.7c0.4,0,0.8-0.1,1.1-0.4
						c0.2-0.3,0.3-0.6,0.3-0.7h1c-0.1,1.4-1.4,1.9-2.6,1.9c-2.4,0-2.9-2.1-2.9-3.5c0-1.4,0.6-3.6,3-3.6c1,0,2.3,0.4,2.5,1.9H280.7z"
						/>
					<path class="st10" d="M284.9,175.1c1.9,0,2.3,1.5,2.3,2.5c0,1.4-0.8,2.6-2.4,2.6c-1.6,0-2.3-1.1-2.3-2.5
						C282.5,176.5,283,175.1,284.9,175.1z M284.8,179.5c0.7,0,1.4-0.5,1.4-1.9c0-1.2-0.6-1.8-1.4-1.8c-0.6,0-1.5,0.4-1.5,1.9
						C283.4,178.6,283.8,179.5,284.8,179.5z"/>
					<path class="st10" d="M288.5,176c0-0.2,0-0.3,0-0.8h0.9l0,0.8c0.4-0.8,1.2-0.9,1.6-0.9c1,0,2,0.7,2,2.5c0,1.8-1,2.6-2.2,2.6
						c-0.7,0-1.2-0.3-1.5-0.7v2.4h-0.9V176z M290.7,179.5c0.2,0,0.7,0,1-0.5c0.3-0.5,0.4-1.2,0.4-1.5c0-0.9-0.3-1.7-1.3-1.7
						c-1.4,0-1.4,1.5-1.4,1.9C289.4,178.3,289.5,179.5,290.7,179.5z"/>
					<path class="st10" d="M297.2,180c-0.1-0.2-0.1-0.5-0.1-0.7c-0.4,0.8-1.1,0.9-1.5,0.9c-1.1,0-1.7-0.6-1.7-1.4
						c0-0.4,0.1-1,0.8-1.4c0.5-0.3,1.3-0.3,1.7-0.3c0.2,0,0.4,0,0.6,0c0-0.6,0-0.8-0.2-1.1c-0.2-0.2-0.6-0.3-0.8-0.3
						c-0.9,0-1,0.6-1,0.8h-0.9c0-0.2,0.1-0.6,0.3-0.9c0.4-0.4,1-0.5,1.5-0.5c0.7,0,1.4,0.2,1.7,0.7c0.2,0.3,0.2,0.5,0.2,0.7l0,2.3
						c0,0.1,0,0.7,0.1,1.2H297.2z M296.6,177.7c-0.4,0-1.7,0-1.7,1c0,0.3,0.2,0.8,1,0.8c0.5,0,0.8-0.2,1-0.5
						c0.2-0.3,0.2-0.6,0.2-1.3C297,177.7,296.8,177.7,296.6,177.7z"/>
					<path class="st10" d="M301.7,180l-0.7,1.8h-0.9l0.7-1.8l-2-4.8h1l1.5,3.8l1.5-3.8h1L301.7,180z"/>
				</g>
				<g class="st9">
					<path class="st10" d="M18,111.7h2l2.3,6.8l2.4-6.8h1.9v8.3h-1.1v-7.5l-2.7,7.5h-1.1l-2.6-7.4v7.4H18V111.7z"/>
					<path class="st10" d="M29.5,117.3c0,1.2,0.5,2.1,1.7,2.1c0.7,0,1.3-0.4,1.4-1.2h1.1c0,0.3-0.1,0.8-0.5,1.2
						c-0.3,0.3-0.8,0.8-2,0.8c-1.8,0-2.7-1.1-2.7-3c0-1.1,0.2-2.1,1.1-2.7c0.6-0.4,1.2-0.4,1.6-0.4c2.6,0,2.5,2.3,2.5,3.2H29.5z
						 M32.5,116.5c0-0.6-0.1-1.7-1.4-1.7c-0.7,0-1.6,0.4-1.6,1.7H32.5z"/>
					<path class="st10" d="M35.1,115l0-0.8h1.1v0.8c0.6-0.9,1.3-1,1.8-1c1.3,0,1.7,0.7,1.9,1.1c0.2-0.3,0.7-1.1,1.9-1.1
						c0.8,0,2.1,0.3,2.1,2v3.9h-1.1v-3.7c0-0.5-0.1-0.7-0.2-0.9c-0.2-0.3-0.6-0.5-1.1-0.5c-0.7,0-1.1,0.4-1.2,0.6
						c-0.3,0.4-0.3,1-0.3,1.2v3.2H39v-3.8c0-0.7-0.4-1.3-1.3-1.3c-0.7,0-1.1,0.5-1.3,0.6c-0.2,0.3-0.3,0.8-0.3,1.2v3.3h-1.1V115z"/>
					<path class="st10" d="M47,115.1c0.1-0.3,0.6-1,1.9-1c0.6,0,1.3,0.1,1.8,0.7c0.3,0.3,0.7,0.9,0.7,2.2c0,1.1-0.3,1.7-0.6,2.1
						c-0.5,0.7-1.2,1-2,1c-0.3,0-0.8,0-1.3-0.4c-0.3-0.2-0.4-0.4-0.6-0.6l0,0.9h-1l0-1v-7.3H47V115.1z M48.7,114.8
						c-1.7,0-1.7,1.9-1.7,2.3c0,0.4,0,2.2,1.6,2.2c1.3,0,1.7-1.3,1.7-2.2C50.3,116.5,50.2,114.8,48.7,114.8z"/>
					<path class="st10" d="M53.6,117.3c0,1.2,0.5,2.1,1.7,2.1c0.7,0,1.3-0.4,1.4-1.2h1.1c0,0.3-0.1,0.8-0.5,1.2
						c-0.3,0.3-0.8,0.8-2,0.8c-1.8,0-2.7-1.1-2.7-3c0-1.1,0.2-2.1,1.1-2.7c0.6-0.4,1.2-0.4,1.6-0.4c2.6,0,2.5,2.3,2.5,3.2H53.6z
						 M56.6,116.5c0-0.6-0.1-1.7-1.4-1.7c-0.7,0-1.6,0.4-1.6,1.7H56.6z"/>
					<path class="st10" d="M59.3,115.4c0-0.4,0-0.8-0.1-1.2h1.1l0,1.1c0.2-0.8,0.9-1.1,1.4-1.1c0.3,0,0.6,0,0.7,0v1.1
						c-0.1,0-0.1,0-0.2,0c-0.1,0-0.2,0-0.3,0c-1.3,0-1.6,0.8-1.6,1.7v3.1h-1.1V115.4z"/>
					<path class="st10" d="M64.5,118.3c0,0.4,0.2,1,1.3,1c0.4,0,0.8-0.1,1-0.4c0.1-0.1,0.2-0.3,0.2-0.5c0-0.6-0.4-0.7-1.3-0.9
						c-1.2-0.3-2.2-0.5-2.2-1.7c0-1.1,0.9-1.7,2.3-1.7c0.7,0,1.7,0.2,2.1,0.9c0.1,0.3,0.1,0.6,0.1,0.8h-1.1c0-0.9-0.7-0.9-1.1-0.9
						c-0.2,0-1.2,0-1.2,0.8c0,0.5,0.5,0.7,0.8,0.7c1.6,0.4,1.9,0.5,2.3,0.8c0.3,0.3,0.4,0.7,0.4,1.1c0,0.6-0.4,1.2-0.8,1.5
						c-0.5,0.3-1.1,0.4-1.7,0.4c-1.2,0-2.3-0.5-2.3-1.9H64.5z"/>
					<path class="st10" d="M69.5,114.2h1.3v1.4h-1.3V114.2z M69.5,118.6h1.3v1.4h-1.3V118.6z"/>
				</g>
				<g class="st9">
					<path class="st10" d="M171,80.7h3c0.4,0,1.3,0,1.9,0.4c0.6,0.4,0.9,1,0.9,1.7c0,0.6-0.2,1.1-0.6,1.5c-0.4,0.4-0.7,0.5-1,0.5
						c0.8,0.2,1.2,0.6,1.3,1.6c0.1,1,0.2,1.7,0.5,2.6h-1.2c-0.2-0.6-0.3-1.6-0.4-2.2c-0.1-1.2-0.4-1.6-1.8-1.6h-1.4V89H171V80.7z
						 M172.1,84.3h1.8c0.1,0,0.8,0,1.1-0.2c0.2-0.1,0.6-0.4,0.6-1.1c0-1.3-1.2-1.3-1.7-1.3h-1.8V84.3z"/>
					<path class="st10" d="M183.7,89h-1.4l-1.6-2.3L179,89h-1.3l2.3-3l-2.2-2.8h1.4l1.5,2.2l1.6-2.2h1.3l-2.3,2.8L183.7,89z"/>
					<path class="st10" d="M185,80.7h3c1,0,1.6,0.1,2.1,0.6c0.4,0.3,0.6,0.8,0.6,1.5c0,1.4-1,1.7-1.4,1.9c0.5,0.1,1.7,0.5,1.7,2.1
						c0,1.1-0.7,1.7-1,1.9c-0.6,0.4-1.2,0.4-1.9,0.4h-3V80.7z M186.2,84.2h1.6c0.4,0,1.7,0,1.7-1.3c0-1.3-1-1.3-1.7-1.3h-1.7V84.2z
						 M186.2,88.1h2c0.9,0,1.6-0.5,1.6-1.4c0-0.8-0.6-1.4-1.6-1.4h-2V88.1z"/>
					<path class="st10" d="M192.6,80.7h1.2V89h-1.2V80.7z"/>
					<path class="st10" d="M195.8,80.7h1.6l4.1,6.9v-6.9h1.1V89h-1.5l-4.2-7.1V89h-1V80.7z"/>
					<path class="st10" d="M209.3,80.8h0.7l-2.7,8.4h-0.8L209.3,80.8z"/>
					<path class="st10" d="M219.6,82.8c-0.1-0.8-0.7-1.3-1.9-1.3c-0.8,0-1.4,0.2-1.9,0.7c-0.7,0.8-0.9,1.9-0.9,2.7
						c0,0.7,0.1,1.9,0.8,2.6c0.5,0.6,1.4,0.8,2.2,0.8c0.9,0,1.5-0.2,1.8-0.3v-2.5h-1.9v-1h3v4.1c-0.5,0.2-1.5,0.5-3,0.5
						c-1.5,0-2.4-0.4-3-1c-0.8-0.8-1.2-2-1.2-3.2c0-0.8,0.2-2.8,1.8-3.8c0.8-0.6,1.9-0.6,2.3-0.6c0.7,0,1.7,0.1,2.5,0.9
						c0.5,0.5,0.5,1,0.6,1.3H219.6z"/>
					<path class="st10" d="M223,84.4c0-0.4,0-0.8-0.1-1.2h1.1l0,1.1c0.2-0.8,0.9-1.1,1.4-1.1c0.3,0,0.6,0,0.7,0v1.1
						c-0.1,0-0.1,0-0.2,0c-0.1,0-0.2,0-0.3,0c-1.3,0-1.6,0.8-1.6,1.7V89H223V84.4z"/>
					<path class="st10" d="M229.8,83.1c2.3,0,2.8,1.8,2.8,3c0,1.7-1,3.1-2.9,3.1c-1.9,0-2.8-1.3-2.8-3
						C226.9,84.8,227.6,83.1,229.8,83.1z M229.8,88.4c0.8,0,1.7-0.6,1.7-2.3c0-1.4-0.7-2.2-1.7-2.2c-0.7,0-1.8,0.4-1.8,2.2
						C228,87.3,228.5,88.4,229.8,88.4z"/>
					<path class="st10" d="M235.3,83.2v3.7c0,0.6,0.1,1.3,1.2,1.3c0.5,0,1-0.2,1.4-0.6c0.2-0.3,0.2-0.8,0.2-1.1v-3.3h1.1v4.7
						c0,0.1,0,0.8,0,1.1h-1.1l0-1c-0.2,0.4-0.6,1-1.8,1c-1.4,0-2.1-0.8-2.1-2v-3.9H235.3z"/>
					<path class="st10" d="M241.2,84.2c0-0.3,0-0.4,0-0.9h1.1l0,1c0.5-0.9,1.5-1,2-1c1.2,0,2.4,0.9,2.4,3c0,2.2-1.3,3.1-2.6,3.1
						c-0.8,0-1.5-0.4-1.8-0.9v2.9h-1.1V84.2z M243.9,88.4c0.3,0,0.9-0.1,1.2-0.6c0.4-0.6,0.5-1.4,0.5-1.8c0-1-0.3-2.1-1.6-2.1
						c-1.7,0-1.7,1.8-1.7,2.3C242.3,87,242.4,88.4,243.9,88.4z"/>
					<path class="st10" d="M248.2,83.2h1.3v1.4h-1.3V83.2z M248.2,87.6h1.3V89h-1.3V87.6z"/>
				</g>
				<g class="st9">
					<path class="st10" d="M18.5,128.7c0,0.3,0,0.6,0.2,0.9c0.1,0.2,0.5,0.5,1.1,0.5c0.5,0,0.9-0.2,1.2-0.6c0.2-0.3,0.2-0.9,0.2-1.1
						v-5.8h1.2v6.1c0,1.5-1.2,2.4-2.6,2.4c-0.4,0-1.4-0.1-2-0.9c-0.4-0.5-0.4-1.2-0.4-1.5H18.5z"/>
					<path class="st10" d="M26.5,122.7h1.2l3.4,8.3h-1.3l-0.9-2.2h-3.9l-0.9,2.2H23L26.5,122.7z M25.4,127.9h3.1l-1.5-4.1
						L25.4,127.9z"/>
					<path class="st10" d="M32.2,122.7h1.6l4.1,6.9v-6.9H39v8.3h-1.5l-4.2-7.1v7.1h-1V122.7z"/>
					<path class="st10" d="M40.9,122.7h5.2v1H42v2.6h3.9v1H42v2.8h4.2v1h-5.3V122.7z"/>
				</g>
				<g class="st9">
					<path class="st10" d="M18.8,64.6c0,0.6,0.1,1.6,2,1.6c1.7,0,1.9-1.1,1.9-1.5c0-0.9-0.7-1.1-1.9-1.4c-1.3-0.3-1.8-0.4-2.3-0.7
						c-0.7-0.5-0.9-1.1-0.9-1.6c0-1.7,1.6-2.4,3.2-2.4c0.6,0,1.7,0.1,2.3,0.8c0.5,0.5,0.5,1.1,0.5,1.4h-1.2c-0.1-1-0.9-1.3-1.7-1.3
						c-1.2,0-1.8,0.5-1.8,1.3c0,0.7,0.5,1,1.5,1.2c2,0.5,2.2,0.6,2.7,0.9c0.8,0.5,0.8,1.3,0.8,1.7c0,1.5-1.2,2.6-3.3,2.6
						c-0.6,0-1.9-0.1-2.6-0.9c-0.5-0.6-0.5-1.3-0.5-1.7H18.8z"/>
					<path class="st10" d="M26.6,61.2v3.7c0,0.6,0.1,1.3,1.2,1.3c0.5,0,1-0.2,1.4-0.6c0.2-0.3,0.2-0.8,0.2-1.1v-3.3h1.1v4.7
						c0,0.1,0,0.8,0,1.1h-1.1l0-1c-0.2,0.4-0.6,1-1.8,1c-1.4,0-2.1-0.8-2.1-2v-3.9H26.6z"/>
					<path class="st10" d="M33.7,62.1c0.1-0.3,0.6-1,1.9-1c0.6,0,1.3,0.1,1.8,0.7c0.3,0.3,0.7,0.9,0.7,2.2c0,1.1-0.3,1.7-0.6,2.1
						c-0.5,0.7-1.2,1-2,1c-0.3,0-0.8,0-1.3-0.4c-0.3-0.2-0.4-0.4-0.6-0.6l0,0.9h-1l0-1v-7.3h1.1V62.1z M35.3,61.8
						c-1.7,0-1.7,1.9-1.7,2.3c0,0.4,0,2.2,1.6,2.2c1.3,0,1.7-1.3,1.7-2.2C36.9,63.5,36.8,61.8,35.3,61.8z"/>
					<path class="st10" d="M40.2,65.3c0,0.4,0.2,1,1.3,1c0.4,0,0.8-0.1,1-0.4c0.1-0.1,0.2-0.3,0.2-0.5c0-0.6-0.4-0.7-1.3-0.9
						c-1.2-0.3-2.2-0.5-2.2-1.7c0-1.1,0.9-1.7,2.3-1.7c0.7,0,1.7,0.2,2.1,0.9c0.1,0.3,0.1,0.6,0.1,0.8h-1.1c0-0.9-0.7-0.9-1.1-0.9
						c-0.2,0-1.2,0-1.2,0.8c0,0.5,0.5,0.7,0.8,0.7c1.6,0.4,1.9,0.5,2.3,0.8c0.3,0.3,0.4,0.7,0.4,1.1c0,0.6-0.4,1.2-0.8,1.5
						c-0.5,0.3-1.1,0.4-1.7,0.4c-1.2,0-2.3-0.5-2.3-1.9H40.2z"/>
					<path class="st10" d="M48.5,63.1c0-0.3-0.1-1.2-1.2-1.2c-1.5,0-1.5,1.7-1.5,2.2c0,1.2,0.3,2.3,1.4,2.3c0.9,0,1.2-0.7,1.3-1.3
						h1.1c-0.1,1.1-0.9,2.1-2.3,2.1c-0.4,0-1.3-0.1-1.9-0.7c-0.3-0.4-0.7-1-0.7-2.2c0-2.4,1.5-3.1,2.6-3.1c0.4,0,1.2,0.1,1.8,0.7
						c0.4,0.5,0.5,1,0.5,1.3H48.5z"/>
					<path class="st10" d="M51,62.4c0-0.4,0-0.8-0.1-1.2H52l0,1.1c0.2-0.8,0.9-1.1,1.4-1.1c0.3,0,0.6,0,0.7,0v1.1
						c-0.1,0-0.1,0-0.2,0c-0.1,0-0.2,0-0.3,0c-1.3,0-1.6,0.8-1.6,1.7V67H51V62.4z"/>
					<path class="st10" d="M55.3,58.7h1.3v1.2h-1.3V58.7z M55.4,61.2h1.1V67h-1.1V61.2z"/>
					<path class="st10" d="M59.6,62.1c0.1-0.3,0.6-1,1.9-1c0.6,0,1.3,0.1,1.8,0.7c0.3,0.3,0.7,0.9,0.7,2.2c0,1.1-0.3,1.7-0.6,2.1
						c-0.5,0.7-1.2,1-2,1c-0.3,0-0.8,0-1.3-0.4c-0.3-0.2-0.4-0.4-0.6-0.6l0,0.9h-1l0-1v-7.3h1.1V62.1z M61.2,61.8
						c-1.7,0-1.7,1.9-1.7,2.3c0,0.4,0,2.2,1.6,2.2c1.3,0,1.7-1.3,1.7-2.2C62.8,63.5,62.7,61.8,61.2,61.8z"/>
					<path class="st10" d="M66.1,64.3c0,1.2,0.5,2.1,1.7,2.1c0.7,0,1.3-0.4,1.4-1.2h1.1c0,0.3-0.1,0.8-0.5,1.2
						c-0.3,0.3-0.8,0.8-2,0.8c-1.8,0-2.7-1.1-2.7-3c0-1.1,0.2-2.1,1.1-2.7c0.6-0.4,1.2-0.4,1.6-0.4c2.6,0,2.5,2.3,2.5,3.2H66.1z
						 M69.2,63.5c0-0.6-0.1-1.7-1.4-1.7c-0.7,0-1.6,0.4-1.6,1.7H69.2z"/>
					<path class="st10" d="M71.9,62.4c0-0.4,0-0.8-0.1-1.2h1.1l0,1.1c0.2-0.8,0.9-1.1,1.4-1.1c0.3,0,0.6,0,0.7,0v1.1
						c-0.1,0-0.1,0-0.2,0c-0.1,0-0.2,0-0.3,0c-1.3,0-1.6,0.8-1.6,1.7V67h-1.1V62.4z"/>
					<path class="st10" d="M79.4,58.7H81l4.1,6.9v-6.9h1.1V67h-1.5l-4.2-7.1V67h-1V58.7z"/>
					<path class="st10" d="M91.8,67c-0.1-0.3-0.1-0.6-0.1-0.9c-0.5,1-1.3,1-1.8,1c-1.3,0-2-0.7-2-1.7c0-0.5,0.2-1.2,1-1.7
						c0.6-0.3,1.5-0.4,2-0.4c0.3,0,0.4,0,0.8,0c0-0.7,0-1-0.2-1.3c-0.2-0.3-0.7-0.4-1-0.4c-1.1,0-1.2,0.7-1.2,1h-1.1
						c0-0.3,0.1-0.7,0.4-1.1c0.4-0.5,1.3-0.6,1.9-0.6c0.8,0,1.7,0.3,2,0.9c0.2,0.3,0.2,0.6,0.2,0.9l0,2.8c0,0.1,0,0.9,0.1,1.4H91.8z
						 M91,64.2c-0.4,0-2.1,0-2.1,1.2c0,0.4,0.2,1,1.2,1c0.6,0,1-0.2,1.2-0.6c0.2-0.4,0.3-0.7,0.3-1.5C91.5,64.2,91.3,64.2,91,64.2z"
						/>
					<path class="st10" d="M94.6,62l0-0.8h1.1v0.8c0.6-0.9,1.3-1,1.8-1c1.3,0,1.7,0.7,1.9,1.1c0.2-0.3,0.7-1.1,1.9-1.1
						c0.8,0,2.1,0.3,2.1,2V67h-1.1v-3.7c0-0.5-0.1-0.7-0.2-0.9c-0.2-0.3-0.6-0.5-1.1-0.5c-0.7,0-1.1,0.4-1.2,0.6
						c-0.3,0.4-0.3,1-0.3,1.2V67h-1.1v-3.8c0-0.7-0.4-1.3-1.3-1.3c-0.7,0-1.1,0.5-1.3,0.6c-0.2,0.3-0.3,0.8-0.3,1.2V67h-1.1V62z"/>
					<path class="st10" d="M106,64.3c0,1.2,0.5,2.1,1.7,2.1c0.7,0,1.3-0.4,1.4-1.2h1.1c0,0.3-0.1,0.8-0.5,1.2
						c-0.3,0.3-0.8,0.8-2,0.8c-1.8,0-2.7-1.1-2.7-3c0-1.1,0.2-2.1,1.1-2.7c0.6-0.4,1.2-0.4,1.6-0.4c2.6,0,2.5,2.3,2.5,3.2H106z
						 M109.1,63.5c0-0.6-0.1-1.7-1.4-1.7c-0.7,0-1.6,0.4-1.6,1.7H109.1z"/>
					<path class="st10" d="M111.7,61.2h1.3v1.4h-1.3V61.2z M111.7,65.6h1.3V67h-1.3V65.6z"/>
				</g>
				<g class="st9">
					<path class="st10" d="M18.9,75.3c0,0.9,0.2,1.5,1,1.5c0.7,0,0.9-0.5,0.9-0.7c0.1-0.3,0.1-0.9,0.1-1.3v-5.1h1.8v5.1
						c0,1.3-0.2,2.3-1.3,2.9c-0.3,0.2-0.8,0.4-1.6,0.4c-0.9,0-1.6-0.2-2.2-1c-0.4-0.6-0.4-1.3-0.4-1.8H18.9z"/>
					<path class="st10" d="M26.6,72.1c2.1,0,3,1.4,3,3c0,1.6-0.9,3.1-3,3.1c-1.7,0-3-1-3-3.1C23.6,73.7,24.4,72.1,26.6,72.1z
						 M26.7,77c0.7,0,1.3-0.4,1.3-2c0-0.8-0.1-1.8-1.3-1.8c-1.2,0-1.3,1.4-1.3,2C25.4,76.5,25.8,77,26.7,77z"/>
					<path class="st10" d="M30.9,69.7h1.7V73c0.2-0.3,0.6-0.9,1.7-0.9c0.9,0,1.4,0.4,1.7,0.8c0.2,0.3,0.4,0.8,0.4,1.6V78h-1.7v-3.5
						c0-0.3,0-1.3-1-1.3c-0.5,0-1.1,0.3-1.1,1.2l0,3.6h-1.7V69.7z"/>
					<path class="st10" d="M37.9,73.2c0,0,0-0.7,0-1.1h1.6l0,0.9c0.2-0.3,0.6-1,1.9-1c1.1,0,1.6,0.7,1.8,1.1
						c0.1,0.4,0.2,0.7,0.2,1.7V78h-1.7v-3.6c0-0.2,0-0.4-0.1-0.6c-0.1-0.3-0.4-0.5-0.8-0.5c-0.4,0-0.7,0.2-0.9,0.4
						c-0.1,0.1-0.2,0.4-0.2,0.9V78h-1.7V73.2z"/>
					<path class="st10" d="M48,69.7l2.7,0c0.5,0,1.9,0,2.9,0.7c1,0.8,1.4,2.1,1.4,3.3c0,2.6-1.4,3.9-2.9,4.2
						C51.7,78,51.4,78,50.5,78H48V69.7z M49.8,76.6c0.2,0,0.5,0,0.7,0c0.8,0,1.4-0.1,1.9-0.6c0.7-0.7,0.7-1.9,0.7-2.3
						c0-1.2-0.4-2.3-1.5-2.6c-0.4-0.1-0.8-0.2-1.9-0.1V76.6z"/>
					<path class="st10" d="M58.9,72.1c2.1,0,3,1.4,3,3c0,1.6-0.9,3.1-3,3.1c-1.7,0-3-1-3-3.1C55.9,73.7,56.7,72.1,58.9,72.1z M59,77
						c0.7,0,1.3-0.4,1.3-2c0-0.8-0.1-1.8-1.3-1.8c-1.2,0-1.3,1.4-1.3,2C57.7,76.5,58.1,77,59,77z"/>
					<path class="st10" d="M64.5,75.5c0,0.4,0,1.6,1.2,1.6c0.4,0,0.9-0.2,1-0.8h1.6c0,0.3-0.1,0.8-0.6,1.3c-0.4,0.4-1.2,0.7-2,0.7
						c-0.5,0-1.4-0.1-2-0.7c-0.5-0.6-0.7-1.3-0.7-2.3c0-0.9,0.2-2.1,1.2-2.8c0.4-0.3,1-0.5,1.6-0.5c0.8,0,1.8,0.3,2.3,1.4
						c0.4,0.8,0.4,1.6,0.3,2.1H64.5z M66.7,74.5c0-0.3,0-1.3-1-1.3c-0.7,0-1.1,0.6-1.1,1.3H66.7z"/>
				</g>
				<g class="st9">
					<path class="st10" d="M148.2,69.9c1.1,0,1.8,0.6,2.1,1.1c0.4,0.6,0.7,1.4,0.7,2.9c0,1.9-0.4,4.3-2.8,4.3c-2.1,0-2.8-2-2.8-4.1
						C145.4,72.9,145.6,69.9,148.2,69.9z M149.1,72.1c0-0.2-0.2-0.9-0.9-0.9c-0.5,0-0.7,0.4-0.8,0.7c-0.3,0.8-0.3,2-0.3,2.2
						c0,1.4,0.2,2.6,1.1,2.6c0.9,0,1.1-1.6,1.1-2.7C149.3,73.6,149.2,72.7,149.1,72.1z"/>
					<path class="st10" d="M151.8,71.2c0.7-0.3,1.5-0.7,2.1-1.2h1.5v8h-1.7v-6.2c-0.3,0.3-1,0.7-1.9,1V71.2z"/>
				</g>
				<g class="st9">
					<path class="st10" d="M18.8,86.6c0,0.6,0.1,1.6,2,1.6c1.7,0,1.9-1.1,1.9-1.5c0-0.9-0.7-1.1-1.9-1.4c-1.3-0.3-1.8-0.4-2.3-0.7
						c-0.7-0.5-0.9-1.1-0.9-1.6c0-1.7,1.6-2.4,3.2-2.4c0.6,0,1.7,0.1,2.3,0.8c0.5,0.5,0.5,1.1,0.5,1.4h-1.2c-0.1-1-0.9-1.3-1.7-1.3
						c-1.2,0-1.8,0.5-1.8,1.3c0,0.7,0.5,1,1.5,1.2c2,0.5,2.2,0.6,2.7,0.9c0.8,0.5,0.8,1.3,0.8,1.7c0,1.5-1.2,2.6-3.3,2.6
						c-0.6,0-1.9-0.1-2.6-0.9c-0.5-0.6-0.5-1.3-0.5-1.7H18.8z"/>
					<path class="st10" d="M26.6,83.2v3.7c0,0.6,0.1,1.3,1.2,1.3c0.5,0,1-0.2,1.4-0.6c0.2-0.3,0.2-0.8,0.2-1.1v-3.3h1.1v4.7
						c0,0.1,0,0.8,0,1.1h-1.1l0-1c-0.2,0.4-0.6,1-1.8,1c-1.4,0-2.1-0.8-2.1-2v-3.9H26.6z"/>
					<path class="st10" d="M33.7,84.1c0.1-0.3,0.6-1,1.9-1c0.6,0,1.3,0.1,1.8,0.7c0.3,0.3,0.7,0.9,0.7,2.2c0,1.1-0.3,1.7-0.6,2.1
						c-0.5,0.7-1.2,1-2,1c-0.3,0-0.8,0-1.3-0.4c-0.3-0.2-0.4-0.4-0.6-0.6l0,0.9h-1l0-1v-7.3h1.1V84.1z M35.3,83.8
						c-1.7,0-1.7,1.9-1.7,2.3c0,0.4,0,2.2,1.6,2.2c1.3,0,1.7-1.3,1.7-2.2C36.9,85.5,36.8,83.8,35.3,83.8z"/>
					<path class="st10" d="M40.2,87.3c0,0.4,0.2,1,1.3,1c0.4,0,0.8-0.1,1-0.4c0.1-0.1,0.2-0.3,0.2-0.5c0-0.6-0.4-0.7-1.3-0.9
						c-1.2-0.3-2.2-0.5-2.2-1.7c0-1.1,0.9-1.7,2.3-1.7c0.7,0,1.7,0.2,2.1,0.9c0.1,0.3,0.1,0.6,0.1,0.8h-1.1c0-0.9-0.7-0.9-1.1-0.9
						c-0.2,0-1.2,0-1.2,0.8c0,0.5,0.5,0.7,0.8,0.7c1.6,0.4,1.9,0.5,2.3,0.8c0.3,0.3,0.4,0.7,0.4,1.1c0,0.6-0.4,1.2-0.8,1.5
						c-0.5,0.3-1.1,0.4-1.7,0.4c-1.2,0-2.3-0.5-2.3-1.9H40.2z"/>
					<path class="st10" d="M48.5,85.1c0-0.3-0.1-1.2-1.2-1.2c-1.5,0-1.5,1.7-1.5,2.2c0,1.2,0.3,2.3,1.4,2.3c0.9,0,1.2-0.7,1.3-1.3
						h1.1c-0.1,1.1-0.9,2.1-2.3,2.1c-0.4,0-1.3-0.1-1.9-0.7c-0.3-0.4-0.7-1-0.7-2.2c0-2.4,1.5-3.1,2.6-3.1c0.4,0,1.2,0.1,1.8,0.7
						c0.4,0.5,0.5,1,0.5,1.3H48.5z"/>
					<path class="st10" d="M51,84.4c0-0.4,0-0.8-0.1-1.2H52l0,1.1c0.2-0.8,0.9-1.1,1.4-1.1c0.3,0,0.6,0,0.7,0v1.1
						c-0.1,0-0.1,0-0.2,0c-0.1,0-0.2,0-0.3,0c-1.3,0-1.6,0.8-1.6,1.7V89H51V84.4z"/>
					<path class="st10" d="M55.3,80.7h1.3v1.2h-1.3V80.7z M55.4,83.2h1.1V89h-1.1V83.2z"/>
					<path class="st10" d="M59.6,84.1c0.1-0.3,0.6-1,1.9-1c0.6,0,1.3,0.1,1.8,0.7c0.3,0.3,0.7,0.9,0.7,2.2c0,1.1-0.3,1.7-0.6,2.1
						c-0.5,0.7-1.2,1-2,1c-0.3,0-0.8,0-1.3-0.4c-0.3-0.2-0.4-0.4-0.6-0.6l0,0.9h-1l0-1v-7.3h1.1V84.1z M61.2,83.8
						c-1.7,0-1.7,1.9-1.7,2.3c0,0.4,0,2.2,1.6,2.2c1.3,0,1.7-1.3,1.7-2.2C62.8,85.5,62.7,83.8,61.2,83.8z"/>
					<path class="st10" d="M66.1,86.3c0,1.2,0.5,2.1,1.7,2.1c0.7,0,1.3-0.4,1.4-1.2h1.1c0,0.3-0.1,0.8-0.5,1.2
						c-0.3,0.3-0.8,0.8-2,0.8c-1.8,0-2.7-1.1-2.7-3c0-1.1,0.2-2.1,1.1-2.7c0.6-0.4,1.2-0.4,1.6-0.4c2.6,0,2.5,2.3,2.5,3.2H66.1z
						 M69.2,85.5c0-0.6-0.1-1.7-1.4-1.7c-0.7,0-1.6,0.4-1.6,1.7H69.2z"/>
					<path class="st10" d="M71.9,84.4c0-0.4,0-0.8-0.1-1.2h1.1l0,1.1c0.2-0.8,0.9-1.1,1.4-1.1c0.3,0,0.6,0,0.7,0v1.1
						c-0.1,0-0.1,0-0.2,0c-0.1,0-0.2,0-0.3,0c-1.3,0-1.6,0.8-1.6,1.7V89h-1.1V84.4z"/>
					<path class="st10" d="M79.4,80.7h1.2V89h-1.2V80.7z"/>
					<path class="st10" d="M82.5,80.7h2.4c1.1,0,2.4,0,3.3,1.1c0.7,0.9,1,2,1,3.1c0,1.8-0.7,2.9-1.4,3.4C87.1,89,86.1,89,84.8,89
						h-2.3V80.7z M83.7,88.1h1.1c0.8,0,1.6,0,2.2-0.5C88,86.8,88,85.4,88,85c0-0.3,0-1.7-0.8-2.6c-0.5-0.6-1.2-0.7-2.2-0.7h-1.4
						V88.1z"/>
					<path class="st10" d="M90.7,83.2H92v1.4h-1.3V83.2z M90.7,87.6H92V89h-1.3V87.6z"/>
				</g>
				<g class="st9">
					<path class="st10" d="M19.3,91.7l1.7,3.8l1.7-3.8h1.8L21.8,97v3H20v-3l-2.8-5.2H19.3z"/>
					<path class="st10" d="M25.4,91.7h2.6c1.2,0,2.2,0.1,2.9,0.9c0.4,0.5,0.5,1.1,0.5,1.6c0,1-0.4,1.8-1.1,2.2
						c-0.6,0.4-1.4,0.4-1.9,0.4h-1.2v3.2h-1.8V91.7z M27.1,95.4h0.7c0.6,0,1.6,0,1.6-1.3c0-1.1-1-1.1-1.5-1.1h-0.9V95.4z"/>
					<path class="st10" d="M33.6,91.7l1.3,6.2l1.6-6.2h2l1.5,6.2l1.3-6.2H43l-2.1,8.3h-2l-1.5-6.4l-1.6,6.4h-2l-2-8.3H33.6z"/>
					<path class="st10" d="M44.1,93.2c0.7-0.3,1.5-0.7,2.1-1.2h1.5v8H46v-6.2c-0.3,0.3-1,0.7-1.9,1V93.2z"/>
					<path class="st10" d="M49.6,98.4l2.1-1.9c0.4-0.3,0.8-0.7,1.2-1.2c0.4-0.5,0.6-0.8,0.6-1.2c0-0.6-0.4-1-1-1c-0.9,0-1,0.9-1,1.2
						h-1.8c0-0.3,0-0.9,0.5-1.5c0.5-0.6,1.3-0.9,2.3-0.9c1.7,0,2.7,0.9,2.7,2.2c0,0.8-0.3,1.9-3.8,4.7c1.2,0,1.3,0,2.2,0
						c1.2,0,1.4,0,1.6,0v1.3h-5.6V98.4z"/>
					<path class="st10" d="M57.7,97.8c0,0.3,0.1,1.1,1,1.1c0.6,0,1-0.5,1-1.1c0-1.2-1.1-1.2-2-1.2v-1.3c0.8,0,2,0,2-1.2
						c0-0.6-0.5-1-1-1c-0.5,0-1,0.3-1,1h-1.8c0-0.4,0.1-0.9,0.5-1.4c0.5-0.6,1.4-0.9,2.2-0.9c2,0,2.7,1.3,2.7,2.2
						c0,1.3-1.2,1.7-1.5,1.8c0.3,0.1,0.6,0.2,1,0.5c0.6,0.5,0.7,1.1,0.7,1.4c0,1.4-1.2,2.4-2.9,2.4c-0.6,0-1.4-0.1-1.9-0.5
						C56,99,56,98.1,56,97.8H57.7z"/>
					<path class="st10" d="M62.2,98.3v-1.6l3.2-4.7h1.7l0,5h1.1v1.3h-1.1v1.7h-1.7v-1.7H62.2z M63.5,97h2v-2.1c0-0.1,0-0.7,0-0.9
						L63.5,97z"/>
					<path class="st10" d="M70.4,98c0,0.2,0.1,0.9,0.9,0.9c0.6,0,1.2-0.4,1.2-1.5c0-0.8-0.3-1.4-1.1-1.4c-0.8,0-1,0.6-1,0.8l-1.7,0
						L69,92h4.9v1.3h-3.3l-0.1,2c0.3-0.2,0.6-0.6,1.5-0.6c1.3,0,2.4,0.9,2.4,2.6c0,1.4-0.8,2.9-2.9,2.9c-0.8,0-1.7-0.2-2.2-0.9
						c-0.4-0.5-0.4-1-0.4-1.3H70.4z"/>
					<path class="st10" d="M79,94c0-0.6-0.4-0.8-0.8-0.8c-1.2,0-1.2,1.4-1.2,2.3c0.3-0.3,0.7-0.6,1.6-0.6c1.1,0,2.3,0.8,2.3,2.5
						c0,0.9-0.2,1.5-0.9,2.1c-0.5,0.5-1.2,0.7-2,0.7c-2.8,0-2.8-2.7-2.8-3.6c0-1.6,0.2-3.3,1.3-4.1c0.7-0.5,1.5-0.6,1.9-0.6
						c1.2,0,2.4,0.6,2.4,2.1H79z M79.1,97.4c0-0.9-0.5-1.4-1-1.4c-0.3,0-1.2,0.2-1.2,1.4c0,1,0.5,1.4,1.1,1.4
						C78.5,98.9,79.1,98.5,79.1,97.4z"/>
					<path class="st10" d="M81.5,92h5.4v1.4l-2.8,6.6h-1.9l2.9-6.7h-3.7V92z"/>
					<path class="st10" d="M87.9,94.1c0-1,0.8-2.2,2.8-2.2c1.6,0,2.7,0.9,2.7,2.2c0,1-0.8,1.6-1.6,1.8c0.3,0.1,0.9,0.2,1.3,0.8
						c0.3,0.4,0.4,0.8,0.4,1.2c0,1.5-1.4,2.3-2.9,2.3c-1.6,0-2.8-1-2.8-2.3c0-0.6,0.2-1.1,0.6-1.4c0.4-0.4,0.8-0.5,1.1-0.6
						C89,95.7,87.9,95.3,87.9,94.1z M91.8,97.7c0-0.7-0.5-1.2-1.2-1.2c-0.7,0-1.2,0.5-1.2,1.2c0,0.8,0.6,1.2,1.2,1.2
						C91.1,98.9,91.8,98.6,91.8,97.7z M91.7,94.1c0-0.7-0.5-1-1.1-1c-0.6,0-1,0.4-1,1c0,0.6,0.4,1,1,1
						C91.2,95.1,91.7,94.7,91.7,94.1z"/>
					<path class="st10" d="M95.8,98c0,0.5,0.4,0.8,0.8,0.8c1.2,0,1.3-1.2,1.3-2.3C97.4,97,96.8,97,96.5,97c-2,0-2.5-1.6-2.5-2.5
						c0-1.5,1.1-2.6,2.8-2.6c2.8,0,2.8,2.6,2.8,3.9c0,3.4-1.2,4.4-3.1,4.4c-0.4,0-2.5,0-2.5-2.1H95.8z M97.9,94.4
						c0-0.7-0.4-1.2-1.1-1.2c-0.8,0-1.1,0.7-1.1,1.3c0,0.3,0.1,1.3,1.1,1.3C97.6,95.7,97.9,95,97.9,94.4z"/>
				</g>
				<g class="st9">
					<path class="st10" d="M171,91.7h2.4c1.1,0,2.4,0,3.3,1.1c0.7,0.9,1,2,1,3.1c0,1.8-0.7,2.9-1.4,3.4c-0.8,0.7-1.8,0.7-3.1,0.7
						H171V91.7z M172.2,99.1h1.1c0.8,0,1.6,0,2.2-0.5c1.1-0.8,1.1-2.2,1.1-2.6c0-0.3,0-1.7-0.8-2.6c-0.5-0.6-1.2-0.7-2.2-0.7h-1.4
						V99.1z"/>
					<path class="st10" d="M182.8,100c-0.1-0.3-0.1-0.6-0.1-0.9c-0.5,1-1.3,1-1.8,1c-1.3,0-2-0.7-2-1.7c0-0.5,0.2-1.2,1-1.7
						c0.6-0.3,1.5-0.4,2-0.4c0.3,0,0.4,0,0.8,0c0-0.7,0-1-0.2-1.3c-0.2-0.3-0.7-0.4-1-0.4c-1.1,0-1.2,0.7-1.2,1h-1.1
						c0-0.3,0.1-0.7,0.4-1.1c0.4-0.5,1.3-0.6,1.9-0.6c0.8,0,1.7,0.3,2,0.9c0.2,0.3,0.2,0.6,0.2,0.9l0,2.8c0,0.1,0,0.9,0.1,1.4H182.8
						z M182,97.2c-0.4,0-2.1,0-2.1,1.2c0,0.4,0.2,1,1.2,1c0.6,0,1-0.2,1.2-0.6c0.2-0.4,0.3-0.7,0.3-1.5
						C182.5,97.2,182.3,97.2,182,97.2z"/>
					<path class="st10" d="M184.7,94.2h1V93l1.1-0.3v1.6h1.3V95h-1.3v3.5c0,0.3,0,0.8,0.8,0.8c0.2,0,0.4,0,0.5-0.1v0.8
						c-0.2,0-0.5,0.1-0.9,0.1c-1,0-1.5-0.3-1.5-1.2V95h-1V94.2z"/>
					<path class="st10" d="M190,97.3c0,1.2,0.5,2.1,1.7,2.1c0.7,0,1.3-0.4,1.4-1.2h1.1c0,0.3-0.1,0.8-0.5,1.2
						c-0.3,0.3-0.8,0.8-2,0.8c-1.8,0-2.7-1.1-2.7-3c0-1.1,0.2-2.1,1.1-2.7c0.6-0.4,1.2-0.4,1.6-0.4c2.6,0,2.5,2.3,2.5,3.2H190z
						 M193.1,96.5c0-0.6-0.1-1.7-1.4-1.7c-0.7,0-1.6,0.4-1.6,1.7H193.1z"/>
					<path class="st10" d="M198.8,91.7h1.2v8.3h-1.2V91.7z"/>
					<path class="st10" d="M202.6,98.3c0,0.4,0.2,1,1.3,1c0.4,0,0.8-0.1,1-0.4c0.1-0.1,0.2-0.3,0.2-0.5c0-0.6-0.4-0.7-1.3-0.9
						c-1.2-0.3-2.2-0.5-2.2-1.7c0-1.1,0.9-1.7,2.3-1.7c0.7,0,1.7,0.2,2.1,0.9c0.2,0.3,0.2,0.6,0.2,0.8H205c0-0.9-0.7-0.9-1.1-0.9
						c-0.2,0-1.2,0-1.2,0.8c0,0.5,0.5,0.7,0.8,0.7c1.6,0.4,1.9,0.5,2.3,0.8c0.3,0.3,0.4,0.7,0.4,1.1c0,0.6-0.4,1.2-0.8,1.5
						c-0.5,0.3-1.1,0.4-1.7,0.4c-1.2,0-2.3-0.5-2.3-1.9H202.6z"/>
					<path class="st10" d="M208.3,98.3c0,0.4,0.2,1,1.3,1c0.4,0,0.8-0.1,1-0.4c0.1-0.1,0.2-0.3,0.2-0.5c0-0.6-0.4-0.7-1.3-0.9
						c-1.2-0.3-2.2-0.5-2.2-1.7c0-1.1,0.9-1.7,2.3-1.7c0.7,0,1.7,0.2,2.1,0.9c0.1,0.3,0.1,0.6,0.1,0.8h-1.1c0-0.9-0.7-0.9-1.1-0.9
						c-0.2,0-1.2,0-1.2,0.8c0,0.5,0.5,0.7,0.8,0.7c1.6,0.4,1.9,0.5,2.3,0.8c0.3,0.3,0.4,0.7,0.4,1.1c0,0.6-0.4,1.2-0.8,1.5
						c-0.5,0.3-1.1,0.4-1.7,0.4c-1.2,0-2.3-0.5-2.3-1.9H208.3z"/>
					<path class="st10" d="M214.4,94.2v3.7c0,0.6,0.1,1.3,1.2,1.3c0.5,0,1-0.2,1.4-0.6c0.2-0.3,0.2-0.8,0.2-1.1v-3.3h1.1v4.7
						c0,0.1,0,0.8,0,1.1h-1.1l0-1c-0.2,0.4-0.6,1-1.8,1c-1.4,0-2.1-0.8-2.1-2v-3.9H214.4z"/>
					<path class="st10" d="M221,97.3c0,1.2,0.5,2.1,1.7,2.1c0.7,0,1.3-0.4,1.4-1.2h1.1c0,0.3-0.1,0.8-0.5,1.2
						c-0.3,0.3-0.8,0.8-2,0.8c-1.8,0-2.7-1.1-2.7-3c0-1.1,0.2-2.1,1.1-2.7c0.6-0.4,1.2-0.4,1.6-0.4c2.6,0,2.5,2.3,2.5,3.2H221z
						 M224,96.5c0-0.6-0.1-1.7-1.4-1.7c-0.7,0-1.6,0.4-1.6,1.7H224z"/>
					<path class="st10" d="M230.7,91.7h1.1v7.4c0,0.1,0,0.6,0,0.9h-1.1l0-0.9c-0.1,0.2-0.2,0.4-0.5,0.6c-0.5,0.3-1,0.4-1.4,0.4
						c-0.8,0-2.5-0.4-2.5-2.9c0-2.2,1.3-3.2,2.6-3.2c1.2,0,1.7,0.7,1.8,1V91.7z M230.3,95.4c-0.2-0.3-0.7-0.6-1.3-0.6
						c-1.6,0-1.6,1.9-1.6,2.3c0,1,0.3,2.2,1.6,2.2c1.7,0,1.7-1.9,1.7-2.3C230.7,96.2,230.5,95.7,230.3,95.4z"/>
					<path class="st10" d="M233.6,94.2h1.3v1.4h-1.3V94.2z M233.6,98.6h1.3v1.4h-1.3V98.6z"/>
				</g>
				<g class="st9">
					<path class="st10" d="M18.5,139.7c0,0.3,0,0.6,0.2,0.9c0.1,0.2,0.5,0.5,1.1,0.5c0.5,0,0.9-0.2,1.2-0.6c0.2-0.3,0.2-0.9,0.2-1.1
						v-5.8h1.2v6.1c0,1.5-1.2,2.4-2.6,2.4c-0.4,0-1.4-0.1-2-0.9c-0.4-0.5-0.4-1.2-0.4-1.5H18.5z"/>
					<path class="st10" d="M24.2,133.7h5.2v1h-4.1v2.6h3.9v1h-3.9v2.8h4.2v1h-5.3V133.7z"/>
					<path class="st10" d="M32.1,139.6c0,0.6,0.1,1.6,2,1.6c1.7,0,1.9-1.1,1.9-1.5c0-0.9-0.7-1.1-1.9-1.4c-1.3-0.3-1.8-0.4-2.3-0.7
						c-0.7-0.5-0.9-1.1-0.9-1.6c0-1.7,1.6-2.4,3.2-2.4c0.6,0,1.7,0.1,2.3,0.8c0.5,0.5,0.5,1.1,0.5,1.4h-1.2c-0.1-1-0.9-1.3-1.7-1.3
						c-1.2,0-1.8,0.5-1.8,1.3c0,0.7,0.5,1,1.5,1.2c2,0.5,2.2,0.6,2.7,0.9c0.8,0.5,0.8,1.3,0.8,1.7c0,1.5-1.2,2.6-3.3,2.6
						c-0.6,0-1.9-0.1-2.6-0.9c-0.5-0.6-0.5-1.3-0.5-1.7H32.1z"/>
					<path class="st10" d="M39.8,139.6c0,0.6,0.1,1.6,2,1.6c1.7,0,1.9-1.1,1.9-1.5c0-0.9-0.7-1.1-1.9-1.4c-1.3-0.3-1.8-0.4-2.3-0.7
						c-0.7-0.5-0.9-1.1-0.9-1.6c0-1.7,1.6-2.4,3.2-2.4c0.6,0,1.7,0.1,2.3,0.8c0.5,0.5,0.5,1.1,0.5,1.4h-1.2c-0.1-1-0.9-1.3-1.7-1.3
						c-1.2,0-1.8,0.5-1.8,1.3c0,0.7,0.5,1,1.5,1.2c2,0.5,2.2,0.6,2.7,0.9c0.8,0.5,0.8,1.3,0.8,1.7c0,1.5-1.2,2.6-3.3,2.6
						c-0.6,0-1.9-0.1-2.6-0.9c-0.5-0.6-0.5-1.3-0.5-1.7H39.8z"/>
					<path class="st10" d="M46.5,133.7h1.2v8.3h-1.2V133.7z"/>
					<path class="st10" d="M54.7,135.9c0-0.3-0.2-1.4-1.8-1.4c-2,0-2.4,2-2.4,3.4c0,1.6,0.4,3.3,2.3,3.3c0.5,0,1-0.1,1.3-0.5
						c0.3-0.3,0.4-0.7,0.4-0.9h1.3c-0.2,1.6-1.7,2.3-3.1,2.3c-2.9,0-3.5-2.6-3.5-4.2c0-1.7,0.7-4.4,3.6-4.4c1.2,0,2.8,0.5,3,2.4
						H54.7z"/>
					<path class="st10" d="M59.9,133.7h1.2l3.4,8.3h-1.3l-0.9-2.2h-3.9l-0.9,2.2h-1.2L59.9,133.7z M58.8,138.9H62l-1.5-4.1
						L58.8,138.9z"/>
				</g>
				<g class="st9">
					<path class="st10" d="M147.6,120.9c1.1,0,1.8,0.6,2.1,1.1c0.4,0.6,0.7,1.4,0.7,2.9c0,1.9-0.4,4.3-2.8,4.3c-2.1,0-2.8-2-2.8-4.1
						C144.8,123.9,145,120.9,147.6,120.9z M148.5,123.1c0-0.2-0.2-0.9-0.9-0.9c-0.5,0-0.7,0.4-0.8,0.7c-0.3,0.8-0.3,2-0.3,2.2
						c0,1.4,0.2,2.6,1.1,2.6c0.9,0,1.1-1.6,1.1-2.7C148.7,124.6,148.6,123.7,148.5,123.1z"/>
					<path class="st10" d="M151,127.4l2.1-1.9c0.4-0.3,0.8-0.7,1.2-1.2c0.4-0.5,0.6-0.8,0.6-1.2c0-0.6-0.4-1-1-1c-0.9,0-1,0.9-1,1.2
						h-1.8c0-0.3,0-0.9,0.5-1.5c0.5-0.6,1.3-0.9,2.3-0.9c1.7,0,2.7,0.9,2.7,2.2c0,0.8-0.3,1.9-3.8,4.7c1.2,0,1.3,0,2.2,0
						c1.2,0,1.4,0,1.6,0v1.3H151V127.4z"/>
				</g>
				<g class="st9">
					<path class="st10" d="M147.6,131.9c1.1,0,1.8,0.6,2.1,1.1c0.4,0.6,0.7,1.4,0.7,2.9c0,1.9-0.4,4.3-2.8,4.3c-2.1,0-2.8-2-2.8-4.1
						C144.8,134.9,145,131.9,147.6,131.9z M148.5,134.1c0-0.2-0.2-0.9-0.9-0.9c-0.5,0-0.7,0.4-0.8,0.7c-0.3,0.8-0.3,2-0.3,2.2
						c0,1.4,0.2,2.6,1.1,2.6c0.9,0,1.1-1.6,1.1-2.7C148.7,135.6,148.6,134.7,148.5,134.1z"/>
					<path class="st10" d="M152.7,137.8c0,0.3,0.1,1.1,1,1.1c0.6,0,1-0.5,1-1.1c0-1.2-1.1-1.2-2-1.2v-1.3c0.8,0,2,0,2-1.2
						c0-0.6-0.5-1-1-1c-0.5,0-1,0.3-1,1H151c0-0.4,0.1-0.9,0.5-1.4c0.5-0.6,1.4-0.9,2.2-0.9c2,0,2.7,1.3,2.7,2.2
						c0,1.3-1.2,1.7-1.5,1.8c0.3,0.1,0.6,0.2,1,0.5c0.6,0.5,0.7,1.1,0.7,1.4c0,1.4-1.2,2.4-2.9,2.4c-0.6,0-1.4-0.1-1.9-0.5
						c-0.7-0.6-0.7-1.5-0.7-1.8H152.7z"/>
				</g>
				<path id="_xF2C8_" class="st10" d="M22.7,195.4c3.3,0,5,1.6,5,4.8s-1.7,4.8-5,4.8h-2.6v-9.7H22.7z M23,204.2
					c2.5,0,3.7-1.3,3.7-4c0-2.8-1.4-4.2-4.3-4.1H21v8.1H23z M29.4,201.8c0,1.7,0.8,2.6,2.4,2.6c1.1,0,1.7-0.5,1.9-1.6h0.9
					c-0.4,1.6-1.4,2.4-3,2.4c-1,0-1.7-0.4-2.2-1.1s-0.7-1.5-0.7-2.5s0.2-1.8,0.7-2.5s1.2-1.1,2.2-1.1c2.1,0,3.1,1.2,3.1,3.7H29.4z
					 M33.8,201.1c-0.2-1.5-0.9-2.2-2.2-2.2c-1.2,0-1.9,0.7-2.1,2.2H33.8z M36.2,205h-0.9v-6.8h0.7l0.1,1c0.4-0.7,1.1-1.1,2.1-1.1
					c1.6,0,2.4,0.9,2.4,2.7v4.1H40v-4.3c0-1.2-0.6-1.9-1.9-1.9s-1.9,0.8-1.9,2.4V205z M42.7,198.9h-1.4v-0.7h1.4v-1.4l0.9-0.4v1.7
					h1.5v0.7h-1.5v4.6c0,0.6,0.3,0.9,0.9,0.9h0.7v0.6c-0.2,0.1-0.5,0.1-0.9,0.1c-0.5,0-0.9-0.1-1.1-0.4s-0.4-0.5-0.4-0.6
					s-0.1-0.5-0.1-1V198.9z M49.9,200.2c0-0.9-0.5-1.4-1.6-1.4s-1.6,0.4-1.7,1.1h-0.9c0.2-1.2,1.1-1.9,2.6-1.9
					c1.6,0,2.4,0.7,2.4,2.2v4.7H50l-0.1-1c-0.4,0.7-1.1,1.1-2.1,1.1c-0.7,0-1.2-0.2-1.6-0.6s-0.6-0.9-0.6-1.6c0-0.9,0.5-1.5,1.4-1.9
					c0.2-0.2,1.2-0.3,3-0.4V200.2z M47.9,204.4c1.5,0,2.1-1,2-2.9h-1c-0.2,0-0.4,0-0.6,0.1s-0.4,0.1-0.6,0.1s-0.3,0.1-0.5,0.2
					s-0.3,0.2-0.4,0.2s-0.2,0.2-0.3,0.4s-0.1,0.4-0.1,0.6C46.4,204,46.9,204.4,47.9,204.4z M53.1,205h-0.7v-9.7h0.7V205z
					 M54.6,195.2h5.5c0.7,0,1.3,0.1,1.7,0.4c0.7,0.3,1.1,0.9,1.1,1.7c0,0.6-0.2,1.1-0.6,1.5s-1.1,0.7-2.1,0.7c1.2,0.1,2,0.4,2.6,1
					c0.5,0.5,0.7,1.1,0.7,1.8s-0.2,1.3-0.7,1.8c-0.6,0.6-1.4,0.9-2.6,0.9h-5.6v-0.4H56v-9.1h-1.4V195.2z M58.2,195.7l-0.1,0.9v2.9h1
					c0.6,0,1-0.1,1.2-0.4s0.4-0.8,0.4-1.4c0-0.5-0.1-0.9-0.2-1.2s-0.3-0.5-0.5-0.6s-0.5-0.1-0.9-0.1H58.2z M58.1,199.8v3.7l0.1,1.1
					h1c0.7,0,1.1-0.2,1.4-0.5c0.4-0.4,0.6-1.1,0.6-2c0-1-0.2-1.7-0.6-2c-0.3-0.2-0.9-0.4-1.7-0.4H58.1z M63.5,195.2h3.1v9.4h1v0.4
					h-4.1v-0.4h1.1v-9.1h-1.1V195.2z M67.4,198.3h3l-0.1,1.2v3.1c0,0.6,0.1,1,0.2,1.2c0.2,0.4,0.5,0.6,1,0.6c0.3,0,0.7-0.2,1-0.5
					s0.5-1,0.5-1.9v-3.5h-1v-0.4h3v6.3h1v0.4h-2.9l-0.1-1c-0.6,0.7-1.4,1.1-2.5,1.1c-1,0-1.6-0.3-1.9-0.9c-0.2-0.3-0.2-0.8-0.2-1.4
					v-4.2h-1V198.3z M82.5,203c-0.7,1.4-1.8,2.1-3.1,2.1c-1.1,0-1.9-0.4-2.5-1.1s-0.9-1.6-0.9-2.5c0-0.9,0.3-1.7,0.9-2.4
					s1.4-1,2.5-1s1.8,0.3,2.4,0.9s0.9,1.3,0.9,2.2H78c0,1.5,0.2,2.4,0.6,2.9c0.2,0.3,0.6,0.5,1.1,0.5c1.1,0,1.9-0.6,2.4-1.7
					L82.5,203z M80.5,200.9c0-1.6-0.4-2.4-1.2-2.4c-0.7,0-1.2,0.8-1.2,2.4H80.5z M82.9,198.5h0.2c0.2,0,0.2,0.1,0.2,0.2
					s0,0.2-0.1,0.2l0.1,0.2h-0.1l-0.1-0.2H83v0.2h-0.1V198.5z M83,198.7h0.1c0.1,0,0.1,0,0.1-0.1H83V198.7z M83.1,198.2
					c0.3,0,0.5,0.2,0.5,0.6c0,0.2-0.2,0.4-0.5,0.4s-0.5-0.1-0.5-0.4C82.6,198.4,82.8,198.2,83.1,198.2z M83.1,199.2
					c0.3,0,0.5-0.1,0.5-0.4c0-0.3-0.2-0.5-0.5-0.5c-0.2,0-0.4,0.1-0.4,0.4C82.7,199,82.8,199.2,83.1,199.2z"/>
				<g class="st9">
					<path class="st10" d="M170,193.2h5.9c0.8,0,1.4,0.1,2,0.3c0.8,0.3,1.2,1,1.2,2c0,0.6-0.2,1.1-0.7,1.5c-0.5,0.5-1.2,0.8-2.3,0.9
						c1.2,0.1,2.2,0.4,2.8,1c0.6,0.6,0.8,1.2,0.8,2c0,0.8-0.3,1.5-0.8,2c-0.6,0.6-1.6,0.9-2.9,0.9h-6v-0.4h1.4l0.1-1.5v-7.1
						l-0.1-1.2H170V193.2z M173.8,193.7v1.1v3.1h1c0.7,0,1.2-0.2,1.4-0.5c0.2-0.3,0.3-0.8,0.3-1.5c0-0.6-0.1-1-0.2-1.3
						c-0.1-0.3-0.3-0.5-0.6-0.6c-0.3-0.1-0.6-0.2-1-0.2H173.8z M173.8,198.3v4.1l0.1,1.2h1.1c0.7,0,1.2-0.2,1.6-0.6
						c0.4-0.4,0.6-1.1,0.6-2c0-1.1-0.3-1.8-0.8-2.2c-0.3-0.3-1-0.4-1.9-0.4H173.8z M183.1,193.2l-0.1,1.7v7.5l0.1,1.2h1v0.4h-4.4
						v-0.4h1.1l0.1-1.2v-7.5l-0.1-1.2h-1.1v-0.4h1.8C181.9,193.2,182.4,193.2,183.1,193.2z M187.1,196.6v1.4v3.4
						c0,0.6,0.1,1.1,0.2,1.4c0.2,0.5,0.5,0.7,1.1,0.7c0.4,0,0.8-0.1,1.1-0.4c0.3-0.4,0.5-1.1,0.5-2v-2.7V197h-1.1v-0.3h1.3
						c0.6,0,1.2,0,2-0.1v1.4v4.2v1.4h1.1v0.4h-1.2c-0.6,0-1.3,0-2,0v-1.1c-0.7,0.8-1.6,1.3-2.8,1.3c-1.1,0-1.8-0.3-2.1-1
						c-0.1-0.3-0.2-0.8-0.2-1.4v-3.6l-0.1-1.1h-1.1v-0.3h1.5C185.9,196.6,186.5,196.6,187.1,196.6z M200.5,201.8
						c-0.8,1.5-2,2.3-3.6,2.3c-1.1,0-2-0.4-2.7-1.1c-0.7-0.8-1-1.7-1-2.8c0-0.7,0.1-1.3,0.4-1.9c0.3-0.6,0.7-1,1.3-1.4
						c0.6-0.4,1.3-0.6,2.1-0.6c1.1,0,2,0.3,2.7,1c0.6,0.6,0.8,1.4,0.8,2.5h-5.1c0.1,1.6,0.3,2.6,0.7,3.1c0.3,0.4,0.8,0.6,1.4,0.6
						c1.1,0,2-0.6,2.5-1.9L200.5,201.8z M198.3,199.4c0-1.7-0.5-2.5-1.4-2.5c-0.4,0-0.7,0.1-0.9,0.4c-0.2,0.3-0.4,0.6-0.4,0.8
						c0,0.3,0,0.7,0,1.3H198.3z M213.2,197.8c0.3,1.8-0.1,3.1-1.3,4c-1.1,0.9-2.3,1.3-3.5,1.3c-0.8-0.1-1.5-0.3-2-0.7
						c-0.5-0.4-0.9-0.8-1.1-1.3c-0.2-0.5-0.4-1-0.4-1.6h7.1V199c0-1.2-0.4-2.3-1.1-3.1c-0.7-0.8-1.7-1.2-3-1.2c-1.2,0-2.2,0.4-3,1.3
						c-0.8,0.8-1.2,2-1.2,3.3c0,1.3,0.4,2.4,1.3,3.4c0.8,0.9,1.9,1.4,3.1,1.4h0.1c-0.8,0-1.6-0.1-2.3-0.3c-0.7-0.2-1.3-0.6-1.8-1
						c-0.5-0.5-0.9-1-1.1-1.7c-0.3-0.7-0.4-1.4-0.4-2.2c0-1.6,0.6-3,1.7-4.1c1.1-1.1,2.4-1.6,3.9-1.6c1.2,0,2.4,0.5,3.4,1.4
						C212.4,195.6,213,196.6,213.2,197.8z M210.6,198.6h-5.8c0-0.7,0.3-1.4,0.9-2c0.6-0.6,1.3-0.8,2.1-0.8c0.5,0,0.8,0.1,1.2,0.2
						s0.6,0.3,0.8,0.6c0.2,0.2,0.4,0.5,0.6,0.8C210.5,197.8,210.6,198.1,210.6,198.6z M211.8,204c0.2,0,0.3-0.1,0.3-0.2
						c0-0.1-0.1-0.1-0.3-0.2c-0.2-0.1-0.3-0.2-0.3-0.3s0.1-0.3,0.3-0.3c0.1,0,0.2,0,0.3,0.1l-0.2,0.1c-0.1-0.1-0.1-0.1-0.2-0.1
						c-0.2,0-0.3,0.1-0.3,0.2c0,0.1,0.1,0.1,0.3,0.2c0.2,0.1,0.3,0.2,0.3,0.3c0,0.2-0.1,0.3-0.4,0.3c-0.1,0-0.2-0.1-0.3-0.2l0.2-0.1
						C211.7,204,211.7,204,211.8,204z M212.7,203.1l0.3,0.8h0.1l0.3-0.8h0.2v1h-0.2v-0.8l-0.3,0.8h-0.1l-0.3-0.8v0.8h-0.2v-1H212.7z
						"/>
				</g>
				<g class="st9">
					<path class="st10" d="M295.5,196c0.3,0.2,0.4,0.5,0.4,0.9v11.3c0,0.4-0.1,0.7-0.4,0.9s-0.6,0.4-0.9,0.4h-18.4
						c-0.4,0-0.7-0.1-0.9-0.4c-0.2-0.2-0.4-0.6-0.4-0.9v-11.3c0-0.2,0-0.3,0.1-0.5c0.1-0.2,0.2-0.3,0.3-0.4c0.1-0.1,0.3-0.2,0.4-0.3
						s0.3-0.1,0.5-0.1h5.5v0c-0.1,0-0.2-0.1-0.2-0.2c-0.1-0.2,0-0.5,0.3-0.8c-0.3-1.6-0.1-2.6,0.7-3.2c0.4-0.3,1.3-0.5,2.8-0.5
						c1.4,0,2.4,0.1,2.8,0.5c0.8,0.6,1.1,1.6,0.7,3.2c0.3,0.3,0.4,0.6,0.3,0.8c0,0.1-0.1,0.2-0.2,0.2h5.6
						C295,195.6,295.3,195.7,295.5,196z M295.6,208.2v-11.3c0-0.3-0.1-0.5-0.3-0.7s-0.4-0.3-0.7-0.3h-18.4c-0.3,0-0.5,0.1-0.7,0.3
						c-0.2,0.2-0.3,0.4-0.3,0.7v11.3c0,0.3,0.1,0.5,0.3,0.7c0.2,0.2,0.4,0.3,0.7,0.3h18.4c0.3,0,0.5-0.1,0.7-0.3
						C295.5,208.7,295.6,208.4,295.6,208.2z M281.8,200c0.4,0.3,0.6,0.8,0.6,1.4c0,0.7-0.2,1.3-0.6,1.6c-0.4,0.3-0.9,0.5-1.5,0.5h-1
						v1.9h-1.5v-5.8h2.5C281,199.5,281.4,199.7,281.8,200z M280.8,201.5c0-0.2,0-0.4-0.1-0.5c-0.1-0.1-0.3-0.1-0.5-0.1h-0.8v1.2h0.8
						c0.2,0,0.4,0,0.5-0.1C280.8,201.9,280.8,201.7,280.8,201.5z M282.1,194.7c-0.2,0.2-0.3,0.4-0.3,0.6l0.5-0.1
						c0.2,0,0.4,0,0.5,0.1l0,0c0,0,0-0.1,0-0.1c0-0.1,0-0.1-0.1-0.2c0-0.1-0.1-0.1-0.1-0.2c0-0.1-0.1-0.1-0.1-0.1H282.1z
						 M282.8,195.6L282.8,195.6l5.2,0v0c-0.1,0-0.2-0.1-0.2-0.2c-0.1-0.3,0-0.6,0.3-0.8c0.1-1.5-0.1-2.4-0.6-2.5
						c0-0.1-0.3-0.1-0.8,0c-0.5,0.1-0.9,0.1-1.3,0.1c-0.4,0-0.8,0-1.4-0.1c-0.5-0.1-0.8-0.1-0.8,0c-0.4,0.1-0.6,0.9-0.6,2.5
						c0.3,0.3,0.4,0.6,0.3,0.8C283.1,195.5,283,195.6,282.8,195.6z M286.9,200c0.4,0.3,0.6,0.8,0.6,1.4c0,0.7-0.2,1.3-0.6,1.6
						c-0.4,0.3-0.9,0.5-1.5,0.5h-1v1.9h-1.5v-5.8h2.5C286,199.5,286.5,199.7,286.9,200z M285.9,201.5c0-0.2-0.1-0.4-0.2-0.5
						c-0.1-0.1-0.2-0.1-0.5-0.1h-0.9v1.2h0.9c0.2,0,0.4,0,0.5-0.1C285.9,201.9,285.9,201.7,285.9,201.5z M292.5,200.1
						c0.6,0.5,0.9,1.3,0.9,2.4c0,1-0.3,1.8-0.9,2.4c-0.5,0.5-1.1,0.7-1.9,0.7s-1.5-0.2-1.9-0.7c-0.6-0.6-0.9-1.3-0.9-2.4
						c0-1.1,0.3-1.9,0.9-2.4c0.5-0.5,1.1-0.7,1.9-0.7S292,199.6,292.5,200.1z M288.3,194.7c-0.1,0.1-0.1,0.2-0.2,0.3
						c-0.1,0.2-0.1,0.3-0.1,0.3c0.1-0.1,0.3-0.1,0.5-0.1c0.2,0,0.4,0,0.6,0.1c0-0.1,0-0.2-0.1-0.3c-0.1-0.1-0.1-0.2-0.2-0.3H288.3z
						 M291.9,202.5c0-0.6-0.1-1-0.4-1.3c-0.2-0.3-0.6-0.5-1-0.5s-0.7,0.1-0.9,0.4c-0.2,0.3-0.4,0.7-0.4,1.3c0,0.6,0.1,1,0.4,1.3
						c0.2,0.3,0.6,0.4,0.9,0.4c0.4,0,0.7-0.1,1-0.4C291.8,203.5,291.9,203,291.9,202.5z M298.2,208c0.2,0.2,0.3,0.4,0.3,0.6
						c0,0.2-0.1,0.4-0.3,0.6c-0.2,0.2-0.4,0.3-0.6,0.3c-0.2,0-0.4-0.1-0.6-0.3c-0.2-0.2-0.3-0.4-0.3-0.6c0-0.2,0.1-0.4,0.3-0.6
						c0.2-0.2,0.4-0.3,0.6-0.3C297.9,207.8,298.1,207.8,298.2,208z M297.1,208.1c-0.1,0.1-0.2,0.3-0.2,0.5c0,0.2,0.1,0.4,0.2,0.5
						c0.1,0.2,0.3,0.2,0.5,0.2s0.4-0.1,0.5-0.2s0.2-0.3,0.2-0.5c0-0.2-0.1-0.4-0.2-0.5c-0.2-0.1-0.3-0.2-0.5-0.2
						S297.3,208,297.1,208.1z M297.4,208.2h0.3c0.2,0,0.3,0.1,0.3,0.2c0,0.1-0.1,0.2-0.2,0.2c0.1,0,0.1,0.1,0.1,0.2
						c0,0.1,0,0.2,0,0.3h-0.1c0-0.1,0-0.2,0-0.2c0-0.1-0.1-0.2-0.2-0.2h-0.2v0.4h-0.1V208.2z M297.5,208.5h0.2c0.1,0,0.2,0,0.2-0.1
						s-0.1-0.1-0.2-0.1h-0.2V208.5z"/>
				</g>
				<g class="st9">
					<path class="st10" d="M329.1,205.3c0,0,0,0.1,0,0.1s0,0.1,0,0.1c0,0,0,0.1,0,0.1c0,0-0.1,0-0.4,0c-0.4,0-0.9,0-1.6,0
						c-0.7,0-1.3,0-1.6,0c-0.1,0-0.1,0-0.1-0.1c0-0.2,0-0.3,0-0.3c0,0,0.1,0,0.3-0.1c0.1,0,0.2,0,0.3,0c0.1,0,0.2,0,0.2-0.1
						c0-0.1,0-0.2,0-0.3c0-0.1-0.1-0.3-0.3-0.5c-0.1-0.1-0.4-0.5-0.9-1.1c-0.1-0.2-0.2-0.3-0.3-0.3c0,0-0.1,0-0.1,0
						c-0.3,0.4-0.6,0.6-0.7,0.8c-0.1,0.1-0.2,0.2-0.3,0.4s-0.3,0.3-0.3,0.4c0,0,0,0.1-0.1,0.1c-0.1,0.1-0.1,0.1-0.1,0.2
						c0,0,0,0.1-0.1,0.1c-0.1,0.2,0,0.4,0.2,0.4c0.1,0,0.2,0,0.4,0c0.1,0,0.1,0,0.1,0.1c0,0,0,0.1,0,0.1c0,0.1,0,0.1,0,0.1
						c0,0,0,0.1-0.1,0.1c0,0-0.1,0-0.3,0c-0.3,0-0.7,0-1.2,0s-0.9,0-1.2,0c-0.1,0-0.1,0-0.1-0.1c0-0.1,0-0.1,0-0.2
						c0-0.1,0-0.2,0.2-0.2c0.3,0,0.6-0.1,0.8-0.4c0.3-0.3,0.7-0.6,1.2-1.1c0.1-0.1,0.3-0.3,0.6-0.6s0.4-0.4,0.6-0.6
						c0,0,0-0.1,0.1-0.1c0-0.1,0.1-0.1,0.1-0.1c0,0,0-0.1,0-0.1c-0.3-0.4-0.6-0.7-0.9-1.1c-0.6-0.8-1.5-1.9-2.7-3.5
						c0-0.1-0.1-0.1-0.2-0.1c-0.2,0-0.4,0-0.6,0c-0.1,0-0.1,0-0.1,0.1c0,1.5,0,2.7,0,3.5c0,0.4,0.2,0.6,0.6,0.6c0.1,0,0.3,0,0.5,0
						c0.1,0,0.1,0,0.1,0.1c0,0.1,0,0.3,0,0.4c0,0.1,0,0.1-0.1,0.1H318c-0.1,0-0.2,0-0.3,0c-0.1,0-0.3,0-0.4,0c-0.1,0-0.2,0-0.3,0
						c-0.1,0-0.3,0-0.4,0c-0.1,0-0.1,0-0.1-0.1c0-0.1,0-0.3,0-0.4c0-0.1,0-0.1,0.1-0.1c0.2,0,0.4,0,0.5,0c0.2,0,0.4-0.1,0.5-0.2
						c0.1-0.1,0.2-0.3,0.2-0.5c0-0.1,0-0.3,0-0.5v-6.8c0-0.1,0-0.3,0-0.4c-0.1-0.4-0.3-0.5-0.6-0.5c-0.2,0-0.3,0-0.5,0
						c-0.1,0-0.1,0-0.1-0.1c0-0.1,0-0.3,0-0.4c0-0.1,0-0.1,0.1-0.1h5.4c0.8,0,1.4,0.1,1.8,0.2c1,0.3,1.5,0.9,1.7,1.8
						c0.1,0.6,0.1,1.2-0.2,1.7s-0.7,0.9-1.2,1.2c-0.5,0.2-1,0.3-1.7,0.4c-0.1,0-0.2,0-0.3,0c0.1,0.1,0.2,0.2,0.3,0.4
						s0.2,0.3,0.3,0.4c0.1,0.2,0.4,0.5,0.8,0.9c0.4,0.5,0.7,0.8,0.9,1.1c0,0,0.2,0.2,0.4,0.4c0.2,0.2,0.4,0.4,0.5,0.5
						c0,0.1,0.1,0.1,0.1,0c0.6-0.6,0.9-1,1.1-1.2c0,0,0-0.1,0.1-0.1c0.1-0.1,0.1-0.2,0-0.3c0-0.1-0.1-0.1-0.3-0.2
						c-0.2,0-0.3,0-0.4,0c-0.1,0-0.1,0-0.1-0.1c0,0,0,0,0-0.1s0-0.1,0-0.1c0,0,0-0.1,0-0.1c0,0,0,0,0-0.1c0,0,0.1,0,0.4,0
						c0.3,0,0.7,0,1.2,0c0.6,0,1,0,1.3,0c0.1,0,0.1,0,0.1,0.1c0,0.1,0,0.2,0,0.3c0,0.1,0,0.1-0.1,0.1c-0.4,0-0.7,0.2-1,0.5
						c-0.6,0.6-1.1,1.1-1.3,1.3c-0.2,0.2-0.3,0.3-0.5,0.5c-0.1,0.1-0.1,0.1,0,0.2c0.1,0.1,0.3,0.3,0.4,0.5s0.3,0.4,0.4,0.5
						c0.5,0.5,0.8,0.9,1,1.1c0.1,0.1,0.2,0.2,0.3,0.3c0.1,0.1,0.2,0.3,0.3,0.4s0.2,0.2,0.3,0.3c0.2,0.1,0.4,0.2,0.7,0.3
						C329,205.2,329.1,205.2,329.1,205.3z M319.7,196.7c0.2,0,0.5,0,1,0c0.4,0,0.8,0,1,0c0.3,0,0.6,0,0.9-0.1
						c0.7-0.2,1.1-0.5,1.3-1.2c0.1-0.3,0.1-0.6,0.1-0.9c-0.1-0.7-0.4-1.2-0.9-1.5c-0.3-0.1-0.6-0.2-1-0.2c-0.2,0-0.6,0-1.1,0
						s-0.9,0-1.1,0c-0.1,0-0.1,0-0.1,0.1v1.8c0,0.8,0,1.4,0,1.8C319.5,196.7,319.6,196.7,319.7,196.7z M324.6,202.3
						C324.5,202.3,324.5,202.2,324.6,202.3L324.6,202.3C324.6,202.2,324.6,202.2,324.6,202.3C324.6,202.2,324.6,202.2,324.6,202.3z
						 M324.6,202.2L324.6,202.2C324.5,202.2,324.5,202.2,324.6,202.2L324.6,202.2C324.6,202.2,324.6,202.2,324.6,202.2z"/>
				</g>
				<path id="Rectangle-13" class="st11" d="M176,23h113c1.7,0,3,1.3,3,3v20c0,1.7-1.3,3-3,3H176c-1.7,0-3-1.3-3-3V26
					C173,24.3,174.3,23,176,23z"/>
				<path id="_xF2B1_" class="st10" d="M184,30.5h5.8c0.7,0,1.4,0.1,1.9,0.4c0.7,0.4,1.1,1,1.1,1.9c0,0.6-0.2,1.1-0.6,1.5
					c-0.5,0.6-1.2,0.9-2.2,0.9c1.2,0.1,2.1,0.4,2.6,0.9c0.6,0.6,0.9,1.3,0.9,2.1s-0.3,1.4-0.9,1.9c-0.5,0.6-1.4,0.9-2.8,0.9H184
					v-0.4h1.5v-9.7H184V30.5z M187.7,31v3.9h0.9c0.6,0,1.1-0.1,1.4-0.4s0.5-0.7,0.5-1.5c0-1.4-0.6-2.1-1.7-2.1H187.7z M187.7,35.3v5
					h1.1c0.6,0,1.1-0.1,1.5-0.4c0.4-0.5,0.6-1.2,0.6-2.1s-0.2-1.6-0.6-2.1c-0.4-0.2-1-0.4-1.9-0.4H187.7z M193.5,30.5h3.4l-0.2,1.7
					v7.3l0.2,1.1h0.9v0.4h-4.3v-0.4h1.1v-9.7h-1.1V30.5z M199.1,33.8c0.6,0,1.2-0.1,1.7-0.2v4.7c0,0.6,0.1,1.1,0.2,1.3
					c0.1,0.5,0.4,0.7,0.9,0.7s0.9-0.1,1.1-0.4c0.4-0.5,0.6-1.2,0.6-2.1v-3.7h-1.1v-0.4h1.3c0.7,0,1.4-0.1,1.9-0.2v6.9h1.1v0.4h-3.2
					v-1.1c-0.6,0.9-1.5,1.3-2.6,1.3s-1.8-0.3-2.1-0.9c-0.1-0.2-0.2-0.7-0.2-1.5v-3.4l-0.2-1.1h-0.9v-0.4H199.1z M213.8,38.9
					c-0.9,1.5-2.1,2.2-3.5,2.2c-1.1,0-2-0.4-2.6-1.1s-0.9-1.7-0.9-2.8c0-1,0.3-1.8,0.9-2.5s1.6-1,2.8-1c1,0,1.9,0.3,2.6,0.9
					c0.5,0.6,0.7,1.4,0.7,2.4H209c0,1.5,0.2,2.5,0.6,3c0.4,0.4,0.8,0.5,1.3,0.4c1,0,1.8-0.6,2.4-1.7L213.8,38.9z M211.6,36.4
					c0-1.6-0.4-2.4-1.3-2.4s-1.3,0.8-1.3,2.4H211.6z M214,41.1l4.1-10.6h1.1l4.3,10.6h-1.1l-1.1-2.8h-5.2l-1.1,2.8H214z M220.9,37.4
					l-2.2-6l-2.2,6H220.9z M229.3,40c-0.6,0.9-1.4,1.3-2.4,1.3c-2.1,0-3.2-1.3-3.2-3.9s1.1-3.9,3.2-3.9c1.1,0,1.9,0.4,2.4,1.3v-4.3
					h0.9v10.6h-0.7L229.3,40z M226.9,34.2c-1.4,0-2.1,1-2.1,3c0,2.2,0.7,3.4,2.1,3.4c1.6,0,2.4-1.1,2.4-3.4
					C229.3,35.2,228.5,34.2,226.9,34.2z M231.9,33.6l2.6,6.2l2.4-6.2h0.9l-2.8,7.5H234l-3-7.5H231.9z M242.9,35.9
					c0-1.1-0.6-1.7-1.7-1.7s-1.7,0.4-1.9,1.3h-0.9c0.2-1.4,1.2-2.1,2.8-2.1c1.7,0,2.6,0.8,2.6,2.4v5.2h-0.9V40
					c-0.4,0.9-1.1,1.3-2.2,1.3c-1.7,0-2.6-0.7-2.6-2.2c0-1,0.5-1.7,1.5-2.2c0.2-0.1,1.4-0.2,3.4-0.4V35.9z M240.7,40.5
					c1.6,0,2.4-1.1,2.2-3.2c-2.5,0.1-3.7,0.7-3.7,1.7S239.7,40.5,240.7,40.5z M246.5,41.1h-0.7v-5.8c0-0.4-0.1-0.9-0.2-1.7h0.9v1.3
					c0.6-1,1.4-1.5,2.4-1.5c1.7,0,2.6,1,2.6,3v4.7h-0.9v-4.8c0-1.2-0.6-1.9-1.9-1.9c-1.5,0-2.2,0.8-2.2,2.4V41.1z M253.9,34.6h-1.5
					v-0.9h1.5v-1.5l0.9-0.4v1.9h1.7v0.9h-1.7v4.8c0,0.7,0.3,1.1,0.9,1.1c0.1,0,0.4-0.1,0.7-0.2v0.7c-0.2,0.1-0.5,0.2-0.7,0.2
					c-1.2,0-1.9-0.7-1.9-2.2V34.6z M261.8,35.9c0-1.1-0.6-1.7-1.7-1.7s-1.7,0.4-1.9,1.3h-0.9c0.2-1.4,1.2-2.1,2.8-2.1
					c1.7,0,2.6,0.8,2.6,2.4v3.5c0,0.4,0.1,0.9,0.2,1.7H262l-0.2-1.1c-0.4,0.9-1.1,1.3-2.2,1.3c-1.6,0-2.4-0.7-2.4-2.2
					c0-1,0.5-1.7,1.5-2.2c0.1-0.1,1.2-0.2,3.2-0.4V35.9z M259.7,40.5c1.5,0,2.2-1.1,2.2-3.2c-2.6,0.1-3.9,0.7-3.9,1.7
					S258.6,40.5,259.7,40.5z M269.6,33.6h0.9v6.2c0,2-0.6,3.2-1.7,3.7c-0.5,0.2-1.1,0.4-1.7,0.4c-1.9,0-2.8-0.7-2.8-2.1h0.9
					c0.1,0.9,0.8,1.3,2.1,1.3c1.5,0,2.2-0.7,2.2-2.1v-1.3c-0.5,0.9-1.3,1.3-2.4,1.3c-2.1,0-3.2-1.2-3.2-3.7c0-2.6,1.1-3.9,3.2-3.9
					c1,0,1.8,0.5,2.4,1.5V33.6z M267.2,34.2c-1.5,0-2.2,1-2.2,3s0.7,3,2.2,3c1.6,0,2.4-1,2.4-3S268.8,34.2,267.2,34.2z M272.8,37.6
					c0,2,0.8,3,2.4,3c1.2,0,2-0.6,2.2-1.9h0.9c-0.5,1.7-1.6,2.6-3.4,2.6c-2.2,0-3.4-1.3-3.4-3.9c0-1,0.3-1.9,0.9-2.7
					s1.4-1.2,2.4-1.2c2.2,0,3.4,1.4,3.4,4.1H272.8z M277.4,36.8c-0.1-1.6-0.9-2.4-2.4-2.4c-1.4,0-2.1,0.8-2.2,2.4H277.4z
					 M278.6,34.4v0.2V34.4z M278.6,34.4v-0.6h0.4c0.1,0,0.2,0.1,0.2,0.2s-0.1,0.2-0.2,0.2l0.2,0.4l-0.4-0.4h-0.2V34.4z M278.6,34.2
					h0.2c0.1,0,0.2-0.1,0.2-0.2s-0.1-0.2-0.2-0.2h-0.2V34.2z M278.8,33.5c0.5,0,0.7,0.2,0.7,0.7s-0.2,0.7-0.7,0.7s-0.7-0.2-0.7-0.7
					S278.4,33.5,278.8,33.5z M278.8,34.8c0.4,0,0.6-0.2,0.6-0.6s-0.2-0.6-0.6-0.6s-0.6,0.2-0.6,0.6S278.4,34.8,278.8,34.8z"/>
			</g>
		</g>
	</g>
</g>
</svg>
