<?xml version="1.0" encoding="utf-8"?>
<!-- Generator: Adobe Illustrator 19.2.1, SVG Export Plug-In . SVG Version: 6.00 Build 0)  -->
<svg version="1.1" id="Layer_1" xmlns="http://www.w3.org/2000/svg" xmlns:xlink="http://www.w3.org/1999/xlink" x="0px" y="0px"
	 viewBox="0 0 845.9 92" style="enable-background:new 0 0 845.9 92;" xml:space="preserve">
<style type="text/css">
	.st0{fill:#29ABE2;}
	.st1{fill:#FFFFFF;}
	.st2{fill:none;stroke:#FFFFFF;stroke-width:0.7822;stroke-miterlimit:10;}
</style>
<polygon id="XMLID_2266_" class="st0" points="67.4,91 67.4,66 93.4,66 93.4,26 67.4,26 67.4,1 26,1 26,26 0,26 0,66 26,66 26,91 
	"/>
<path id="XMLID_2258_" class="st1" d="M22.7,37.4L40,39c3.2,0.4,3.6,3.4,2.8,5.3L30.9,65.6l0,0c-6-4.5-9.8-11.6-9.8-19.5
	C21.1,43,21.7,40.1,22.7,37.4L22.7,37.4z"/>
<path id="XMLID_2245_" class="st0" d="M25.3,41l13,1.2c0.9,0.1,1,0.5,0.8,1L30,59.9c-3.3-3.7-5.3-8.6-5.3-13.9
	C24.7,44.3,24.9,42.6,25.3,41"/>
<path id="XMLID_2244_" class="st1" d="M70.8,37.4L53.6,39c-3.2,0.4-3.6,3.4-2.7,5.3l11.8,21.3l0,0c6-4.5,9.8-11.6,9.8-19.5
	C72.4,43,71.9,40.1,70.8,37.4L70.8,37.4z"/>
<path id="XMLID_2243_" class="st1" d="M46.8,21.4c-10.3,0-19.2,5.8-23.3,14.3h18.3c2.6-0.1,3.8-1.5,3.8-2.7c0.1-1.4-0.2-1.9-1.4-3.4
	c-1.3-1.7-0.4-5,2.6-5c3,0.1,3.9,3.3,2.6,5c-1.2,1.5-1.4,2-1.4,3.4c0.1,1.2,1.2,2.7,3.8,2.7H70C65.9,27.2,57.1,21.4,46.8,21.4"/>
<path id="XMLID_2242_" class="st0" d="M68.2,41l-13,1.2c-0.9,0.1-1,0.5-0.8,1l9.1,16.8c3.3-3.7,5.3-8.6,5.3-13.9
	C68.9,44.3,68.7,42.6,68.2,41"/>
<path id="XMLID_2230_" class="st0" d="M52.9,25.6c1.3,2.1,0.3,4.8-1,6.1c-0.2,0.2-0.1,0.5,0.1,0.5h11.6
	C60.8,29.1,57.1,26.8,52.9,25.6"/>
<path id="XMLID_2229_" class="st1" d="M46.8,70.8c5.2,0,10.1-1.5,14.1-4.1l0,0l-12.5-18c-0.9-1.2-2.3-1.2-3.2,0l-12.5,18v0
	C36.7,69.3,41.6,70.8,46.8,70.8"/>
<path id="XMLID_2228_" class="st0" d="M144.7,92c17.9-9.6,28.8-24.8,34.4-41.4c5.8-17.3,4.8-37.8-1.9-50.6
	c-10.2,5-20.6,7.5-32.5,7.5c-12,0-22.3-2.5-32.6-7.5c-6.7,12.8-7.7,33.2-1.9,50.6C115.9,67.3,126.7,82.5,144.7,92"/>
<path id="XMLID_2227_" class="st1" d="M144.7,84.3c14.8-8.8,22.6-21.4,27.7-35.7c4.5-12.7,5.6-27.5,0.6-39
	c-7.4,2.4-11.7,3.2-15.7,3.8c-3.7,0.6-7.1,0.9-12.6,1h0c-5.5-0.1-8.8-0.4-12.6-1c-4-0.6-8.3-1.4-15.7-3.8c-4.9,11.6-3.8,26.4,0.6,39
	C122.1,62.8,129.9,75.5,144.7,84.3L144.7,84.3z"/>
<path id="XMLID_2226_" class="st0" d="M144.7,80.8c10-6,21.3-19.8,25.9-37.9c2.4-9.6,3.1-20.4-0.1-28.9c-4.5,1.2-8.7,2.1-13,2.7
	c-4.3,0.6-8.6,1-12.8,1h0c-4.2,0-8.5-0.4-12.8-1c-4.3-0.6-8.5-1.5-13-2.7c-3.1,8.6-2.5,19.3-0.1,28.9
	C123.4,61,134.7,74.7,144.7,80.8L144.7,80.8z"/>
<path id="XMLID_2225_" class="st1" d="M134.5,24.1c-3.4,1.7-4.5,5.7-3,8.9c1.3,2.8,3.9,4.6,6.9,5.5c1.5,0.4,3,0.5,4.6,0.6
	c1.9,0.1,3.6,0.1,5.5,0.6c0.4,0.1,0.8,0.3,1,0.7c0.5,0.9,0,1.9-0.9,2.1c0,1.5-0.2,4.7-0.2,4.7s7.8-0.7,6.5-7.5
	c-0.3-1.6-1.7-3.3-3.2-4c-3.9-2-8.2-1.1-12.3-2.4c-1.4-0.4-3.2-1.1-3.6-2.5c-0.1-0.6,0-1.8,0.6-2c1-0.3,2.1,0.5,3.6,0.8
	c0.9,0.2,1.9,0.2,2.6,0c0.3-0.1,0.8-0.2,0.8-0.4c0-0.2-0.4-0.3-0.6-0.4c-0.5-0.2-0.9-0.3-1.4-0.5c-0.8-0.3-1.6-0.7-2.4-1.1
	c0.8-0.2,2.1-0.2,2.8-0.1c0.6,0.1,2.5,0,3.1-0.1c0.1,0,0.4-0.1,0.3-0.3c-0.2-0.4-0.6-0.5-0.8-0.8c-0.6-0.7-1-1.5-1.9-1.8
	C139.9,23,137.1,22.8,134.5,24.1"/>
<path id="XMLID_2224_" class="st1" d="M147.6,48.3l0-7.9c0,0-1.1-0.2-2.5-0.3c-1.9-0.1-2.8-0.1-2.8-0.1l0,0.7c0,0-0.9,0.4-1.1,0.6
	c-0.1,0.1-0.3,0.4-0.2,0.7c0.8,2,1.8,3.9,2.1,6C144.6,48.1,145.8,48.1,147.6,48.3"/>
<path id="XMLID_2190_" class="st1" d="M137.7,47.1c-0.3,3.1,1.8,4.8,4.1,5.3c1.8,0.4,3.6,0.5,5.6,0.7c0.2,0,0.8,0,1.1,0.2
	c0.3,0.1,0.5,0.3,0.6,0.5c0.1,0.3,0.1,0.5-0.1,0.7c-0.2,0.2-0.8,0.4-0.8,0.4l-0.1,3.7c0,0,1.6-0.1,2.8-0.8c1.2-0.7,1.9-1.6,2.2-2.7
	c0.3-1.3,0.1-2.5-0.9-3.8c-0.6-0.8-1.7-1.4-2.8-1.8c-2.3-0.8-4.8-0.7-7.1-1c-0.4-0.1-0.7-0.3-0.7-0.6c-0.1-0.6,0.5-0.8,0.5-0.8
	s-0.3-0.9-0.6-1.7c-0.3-0.7-0.6-1.6-0.9-2.1C139,44.1,137.9,45.5,137.7,47.1"/>
<path id="XMLID_2187_" class="st1" d="M147.4,54l-0.1,6.7l-1.7-0.8l-1.7-0.7l0-5.6C145.4,53.8,146.1,53.9,147.4,54"/>
<path id="XMLID_2186_" class="st1" d="M139.6,57.7c-0.9,2.2,0.2,4.3,2.1,5.2c1,0.5,2.3,0.9,3.4,1.3c1,0.4,2.9,1.5,3,2
	c0.1,0.3-0.3,0.6-0.3,0.6l0,2.6c0,0,1.1-0.2,2-0.9c0.8-0.6,1.4-1.4,1.4-2.8c0-1.4-0.7-2.5-2.8-3.7c-1.6-0.9-3.6-1.7-5.2-2.3
	c-0.2-0.1-0.4-0.5-0.3-0.8c0.1-0.3,0.3-0.4,0.3-0.4l0-3c0,0-1.2,0.2-1.7,0.5C140.7,56.4,139.9,56.9,139.6,57.7"/>
<path id="XMLID_2185_" class="st1" d="M147.1,66.6c0-0.2-0.1-0.2-0.2-0.4c-0.5-0.5-1.1-0.8-1.3-0.9c-0.5-0.3-1.6-0.7-1.6-0.7
	s0.1,6.9,0.2,10.4c0,0.8,0.5,1,1.3,1.1c1,0.1,1.3-0.5,1.3-0.9C146.9,74.1,147,69.2,147.1,66.6"/>
<path id="XMLID_2184_" class="st1" d="M147.8,22.5c0.4,0.3,0.4,0.3,0.5,0.8c0.2,1.1,0,2.8,0.2,3.6c0.1,0.2,0.4,0.2,0.6,0.1
	c1.6-0.8,2.6-2.2,4.2-2.9c0.7-0.3,2.8,0.7,2.3,2.2c-0.2,0.7-0.6,0.8-1,1.3c-0.9,0.9-2.2,1.8-3.4,3c-0.8,0.8-1.7,1.4-2.3,2.3
	c-0.2,0.3-0.5,0.7-0.5,0.7c-2.2-0.4-4.4-0.4-6.2-0.7l0-2.5c0,0,1.8-0.3,2.1-1.1c0-0.1,0-0.4-0.3-0.5c-0.3-0.2-0.8-0.4-1-0.5
	c1.8,0.3,2.9,0.5,4.6,1.3c0.1-0.2,0.1-0.6-0.1-0.7c-0.2-0.3-0.4-0.3-1-0.5c-1-0.3-3.9-0.6-3.9-0.6s1.3,0,2.4-0.2
	c0.5-0.1,1-0.2,1.1-0.4c0.1-0.3-0.1-0.7-0.5-1c-0.3-0.3-0.5-0.5-0.7-0.8c-0.3-0.3-0.7-1-1.1-1.4c-0.4-0.3-1.4-0.8-1.4-0.8
	s-0.2-1.3,0.1-1.9c0.2-0.4,0.7-0.6,1-0.5C144.9,21.5,146.1,22.2,147.8,22.5"/>
<path id="XMLID_2183_" class="st0" d="M142.3,25.1c-0.3,0.2-0.6,0.4-0.9,0.5c-0.7,0.1-0.6-0.5-1.1-0.8c-0.3-0.2-0.6,0.1-0.9-0.4
	c1.1,0,2.4-0.1,3.2,0.7C142.5,25,142.3,25,142.3,25.1"/>
<path id="XMLID_2182_" class="st0" d="M46.4,52.8c0.2-0.3,0.5-0.3,0.7,0l8.6,12.7c-2.7,1.2-5.8,1.8-9,1.8c-3.2,0-6.3-0.7-9-1.8
	L46.4,52.8c0.2-0.3,0.5-0.3,0.7,0"/>
<path id="XMLID_2181_" class="st1" d="M142.3,69.2c-0.4,0.4-1.1,1.3-1.3,2.7c-0.1,1.2,0.2,1.6,0.5,2.3c0.3,0.6,0.9,0.5,1.1,0
	c0.2-0.4-0.1-0.8,0.1-1.7c0.1-0.7,0.7-1.1,0.7-1.1l-0.1-3C143.4,68.3,142.9,68.6,142.3,69.2"/>
<path id="XMLID_2180_" class="st0" d="M40.6,25.6c-1.3,2.1-0.2,4.8,1,6.1c0.2,0.2,0.1,0.5-0.1,0.5H30C32.7,29.1,36.4,26.8,40.6,25.6
	"/>
<path id="XMLID_2175_" class="st0" d="M168.5,84c0.8,0.8,1.3,1.9,1.3,3c0,1.2-0.5,2.2-1.3,3c-0.9,0.8-2,1.3-3.2,1.3
	c-1.2,0-2.3-0.5-3.2-1.3c-0.8-0.8-1.3-1.9-1.3-3c0-1.1,0.5-2.2,1.4-3.1c0.8-0.8,1.9-1.2,3.1-1.2C166.5,82.7,167.7,83.2,168.5,84
	 M168.1,84.4c-0.7-0.7-1.7-1.1-2.8-1.1c-1,0-2,0.4-2.7,1.1c-0.8,0.7-1.2,1.7-1.2,2.7c0,1,0.4,1.9,1.1,2.6c0.7,0.7,1.7,1.1,2.7,1.1
	c1.1,0,2-0.4,2.8-1.1c0.7-0.7,1.1-1.6,1.1-2.6C169.2,86,168.8,85.1,168.1,84.4 M167.6,85.8c0,0.7-0.4,1.2-1.2,1.3l1.1,2.2h-1.1
	l-1-2.1h-1v2.1h-1v-4.9h1.9C166.9,84.5,167.6,85,167.6,85.8 M164.5,85.1v1.6h0.8c0.9,0,1.3-0.2,1.3-0.8c0-0.6-0.4-0.8-1.3-0.8H164.5
	z"/>
<path id="XMLID_1663_" class="st0" d="M78.5,84c0.8,0.8,1.3,1.9,1.3,3c0,1.2-0.5,2.2-1.3,3c-0.9,0.8-2,1.3-3.2,1.3
	c-1.2,0-2.3-0.5-3.2-1.3c-0.9-0.8-1.3-1.9-1.3-3c0-1.1,0.5-2.2,1.4-3.1c0.8-0.8,1.9-1.2,3.1-1.2C76.5,82.7,77.6,83.2,78.5,84
	 M78.1,84.4c-0.7-0.7-1.7-1.1-2.8-1.1c-1,0-2,0.4-2.7,1.1c-0.8,0.7-1.2,1.7-1.2,2.7c0,1,0.4,1.9,1.1,2.6c0.7,0.7,1.7,1.1,2.7,1.1
	c1.1,0,2-0.4,2.8-1.1c0.7-0.7,1.1-1.6,1.1-2.6C79.2,86,78.8,85.1,78.1,84.4 M77.5,85.8c0,0.7-0.4,1.2-1.2,1.3l1.1,2.2h-1.1l-1-2.1
	h-0.9v2.1h-1v-4.9h1.9C76.8,84.5,77.5,85,77.5,85.8 M74.5,85.1v1.6h0.8c0.9,0,1.3-0.2,1.3-0.8c0-0.6-0.4-0.8-1.3-0.8H74.5z"/>
<g id="XMLID_1658_">
	<path id="XMLID_1661_" class="st1" d="M248.9,74l-28.5-40v40h-10.8V15.9h10.9L247.7,54V15.9h10.8V74H248.9z"/>
	<path id="XMLID_1659_" class="st1" d="M295.3,75c-17.6,0-28.6-12-28.6-30c0-18,11.5-30.2,28.5-30.2c7,0,12.4,1.6,16.9,4.2
		l-1.7,10.5c-3.9-2.9-8.8-5.1-14.7-5.1c-10.7,0-17.2,7.8-17.2,20.5c0,12.8,7,20.4,17.7,20.4c5.6,0,10.7-1.9,15.3-4.9l1.6,9.6
		C308.3,73,302.2,75,295.3,75z"/>
</g>
<line id="XMLID_1656_" class="st2" x1="339.5" y1="7.6" x2="339.5" y2="88.3"/>
<g id="XMLID_703_">
	<path id="XMLID_746_" class="st1" d="M361.2,17h33.5c3.4,0,7.1,0.2,10.6,1.8c6.4,3.1,6.6,9.5,6.6,10.8c0,3.4-1.2,6.5-3.6,9
		c-4,4.2-9.2,4.7-13,5.2c4.1,0.2,10.8,0.5,16,5.8c2,2,4.5,5.4,4.5,10.9c0,3.9-1.3,8-4.5,11.2c-4.8,4.8-10.9,5.2-16.2,5.2h-33.9v-2.2
		h8.2l0.2-8.4v-40l-0.2-7h-8.2V17z M382.8,19.5l-0.1,5.8l-0.1,17.3h5.6c3.7,0,6.7-1.2,7.9-2.7c1.4-1.7,2.2-4.5,2.2-8.9
		c0-9.6-3-11.5-9.5-11.5H382.8z M382.7,45.1v22.5l0.2,6.7h6.4c3,0,6.1-0.3,8.8-3c3.6-3.6,3.5-9.7,3.5-11.8c0-6.5-1.4-10-4.1-12
		c-1.9-1.5-5.3-2.4-10.5-2.4H382.7z"/>
	<path id="XMLID_744_" class="st1" d="M426.3,17c4,0,5.2-0.1,8.9-0.3l-0.2,9.4v41.8l0.2,6.8h5.8v2.2h-24.7v-2.2h6.4l0.2-6.8V26.1
		l-0.2-6.9h-6.4V17H426.3z"/>
	<path id="XMLID_726_" class="st1" d="M447.9,35.8c4.4,0,5.8-0.1,9.9-0.3l-0.2,7.9v19c0,3.2,0.2,5.7,0.8,7.4
		c1.1,2.6,3.4,3.8,6.2,3.8c2.5,0,4.6-0.9,6.2-2.5c3.3-3.3,3.2-7.7,3.2-11.4V44.5l-0.2-6.5h-6.3v-2.2h7.3c4.9,0,6.3-0.1,11.3-0.3
		l-0.2,7.9v23.5l0.2,7.7h6.1v2.3h-6.4c-5.4,0-7.4,0.1-11.4,0.3l-0.3-6.5c-1.8,2.2-5.9,7.1-15.5,7.1c-6.3,0-10.2-2.4-11.9-5.6
		c-1.3-2.4-1.2-5.4-1.2-8v-20l-0.2-6.2h-6.2v-2.2H447.9z"/>
	<path id="XMLID_722_" class="st1" d="M533.5,64.9c-2.2,4.1-6.8,12.8-19.6,12.8c-13.1,0-21.2-10.1-21.2-21.9
		c0-11.3,7.6-21.3,21.3-21.3c8.5,0,13.1,3.6,15.2,5.8c4.7,4.8,4.8,9.9,4.9,13.6h-28.3c0.1,7.2,0.3,13.7,3.8,17.4
		c1.9,2,4.7,2.9,7.5,2.9c9.2,0,12.6-7.7,13.8-10.4L533.5,64.9z M521.1,51.4c0.1-6.6,0.2-14.4-7.5-14.4c-7.2,0-7.5,7.2-7.8,14.4
		H521.1z"/>
</g>
<g>
	<path class="st1" d="M599.8,67.1c-1,1.5-2.3,3-3.8,4.3s-3.2,2.5-5.1,3.5c-1.9,1-4,1.8-6.2,2.3c-2.2,0.6-4.6,0.8-7.1,0.8
		c-4.5,0-8.6-0.8-12.4-2.4c-3.8-1.6-7.1-3.8-9.9-6.6c-2.8-2.8-5-6.1-6.6-10c-1.6-3.8-2.4-8-2.4-12.6s0.8-8.8,2.4-12.6
		c1.6-3.8,3.8-7.2,6.6-10c2.8-2.8,6.1-5,9.9-6.6c3.8-1.6,7.9-2.4,12.4-2.4c3.7,0,7.5,0.7,11.2,2.2c3.7,1.5,6.9,3.9,9.6,7.3l-5.3,4
		c-0.6-1-1.5-1.9-2.5-2.9c-1.1-1-2.3-1.8-3.7-2.5c-1.4-0.7-2.9-1.3-4.4-1.8c-1.6-0.5-3.2-0.7-4.7-0.7c-3.8,0-7.3,0.7-10.3,2.1
		c-3,1.4-5.6,3.3-7.8,5.7c-2.1,2.4-3.7,5.1-4.9,8.3c-1.1,3.1-1.7,6.4-1.7,9.9c0,3.4,0.6,6.7,1.7,9.9c1.1,3.1,2.8,5.9,4.9,8.3
		c2.1,2.4,4.7,4.3,7.8,5.7c3,1.4,6.5,2.1,10.3,2.1c1.6,0,3.1-0.1,4.7-0.4c1.6-0.3,3.1-0.8,4.6-1.4c1.5-0.7,2.9-1.6,4.2-2.8
		c1.3-1.2,2.6-2.6,3.7-4.4L599.8,67.1z"/>
	<path class="st1" d="M644.7,56.8c0,3-0.5,5.8-1.6,8.3c-1,2.5-2.5,4.7-4.4,6.6c-1.9,1.9-4.1,3.3-6.6,4.4c-2.6,1-5.4,1.6-8.5,1.6
		c-3,0-5.9-0.5-8.4-1.6c-2.6-1-4.8-2.5-6.6-4.4c-1.9-1.9-3.3-4.1-4.4-6.6c-1-2.5-1.6-5.3-1.6-8.3c0-3,0.5-5.8,1.6-8.3
		c1-2.5,2.5-4.7,4.4-6.6c1.9-1.9,4.1-3.3,6.6-4.4c2.6-1,5.4-1.6,8.4-1.6c3.1,0,5.9,0.5,8.5,1.6c2.6,1,4.8,2.5,6.6,4.4
		c1.9,1.9,3.3,4.1,4.4,6.6C644.1,51,644.7,53.8,644.7,56.8z M638.6,56.8c0-2.2-0.4-4.3-1.1-6.2c-0.7-1.9-1.7-3.6-3-5
		c-1.3-1.4-2.9-2.5-4.7-3.3c-1.8-0.8-3.9-1.2-6.2-1.2c-2.3,0-4.4,0.4-6.2,1.2c-1.8,0.8-3.4,1.9-4.7,3.3c-1.3,1.4-2.3,3.1-3,5
		c-0.7,1.9-1.1,4-1.1,6.2c0,2.2,0.4,4.3,1.1,6.2c0.7,1.9,1.7,3.6,3,5c1.3,1.4,2.8,2.5,4.7,3.3c1.8,0.8,3.9,1.2,6.2,1.2
		c2.3,0,4.4-0.4,6.2-1.2c1.8-0.8,3.4-1.9,4.7-3.3c1.3-1.4,2.3-3.1,3-5C638.2,61,638.6,59,638.6,56.8z"/>
	<path class="st1" d="M656.8,36.9c0.1,1.1,0.2,2.1,0.2,3.2c0,1,0,2.1,0,3.2h0.2c0.6-1.1,1.4-2.1,2.4-3c1-0.9,2-1.7,3.2-2.3
		c1.2-0.6,2.4-1.2,3.8-1.5c1.3-0.4,2.6-0.6,3.9-0.6c5.1,0,8.8,1.3,11.3,4c2.4,2.7,3.6,6.5,3.6,11.5v25.2h-5.6V54.6
		c0-4.4-0.8-7.8-2.3-10.1c-1.5-2.3-4.3-3.5-8.5-3.5c-0.3,0-1.1,0.1-2.4,0.3c-1.3,0.2-2.7,0.8-4.1,1.9c-1.4,1-2.7,2.5-3.9,4.6
		c-1.1,2-1.7,4.9-1.7,8.5v20.3h-5.6V45.7c0-1.1,0-2.4-0.1-4.1c-0.1-1.6-0.2-3.2-0.3-4.7H656.8z"/>
	<path class="st1" d="M698.8,36.9c0.1,1.1,0.2,2.1,0.2,3.2c0,1,0,2.1,0,3.2h0.2c0.6-1.1,1.4-2.1,2.4-3c1-0.9,2-1.7,3.2-2.3
		c1.2-0.6,2.4-1.2,3.8-1.5c1.3-0.4,2.6-0.6,3.9-0.6c5.1,0,8.8,1.3,11.3,4c2.4,2.7,3.6,6.5,3.6,11.5v25.2h-5.6V54.6
		c0-4.4-0.8-7.8-2.3-10.1c-1.5-2.3-4.3-3.5-8.5-3.5c-0.3,0-1.1,0.1-2.4,0.3c-1.3,0.2-2.7,0.8-4.1,1.9c-1.4,1-2.7,2.5-3.9,4.6
		c-1.1,2-1.7,4.9-1.7,8.5v20.3h-5.6V45.7c0-1.1,0-2.4-0.1-4.1c-0.1-1.6-0.2-3.2-0.3-4.7H698.8z"/>
	<path class="st1" d="M739.3,58.3c0.2,2,0.6,3.8,1.4,5.6c0.8,1.8,1.8,3.3,3.1,4.5c1.3,1.3,2.8,2.3,4.5,3c1.7,0.7,3.5,1.1,5.5,1.1
		c3,0,5.6-0.7,7.7-2.1c2.2-1.4,3.8-3,5-4.8l4.3,3.6c-2.4,3-5,5.1-7.8,6.4c-2.9,1.3-5.9,1.9-9.2,1.9c-2.9,0-5.7-0.5-8.2-1.6
		c-2.5-1-4.7-2.5-6.5-4.4c-1.8-1.9-3.2-4.1-4.3-6.6c-1-2.5-1.6-5.3-1.6-8.3c0-3,0.5-5.8,1.5-8.3c1-2.5,2.4-4.7,4.2-6.6
		c1.8-1.9,3.9-3.3,6.4-4.4c2.4-1,5.1-1.6,7.9-1.6c3,0,5.7,0.5,8,1.6c2.4,1.1,4.4,2.5,6,4.3c1.6,1.8,2.8,3.9,3.7,6.3
		c0.8,2.4,1.3,5,1.3,7.7v2.5H739.3z M766.3,53.7c0-3.8-1.1-6.8-3.4-9.2c-2.3-2.3-5.4-3.5-9.5-3.5c-1.8,0-3.6,0.4-5.3,1.1
		c-1.7,0.7-3.2,1.7-4.4,2.8c-1.3,1.2-2.3,2.5-3,4.1c-0.8,1.5-1.1,3.1-1.1,4.7H766.3z"/>
	<path class="st1" d="M809.7,46.3c-1-1.5-2.3-2.7-4-3.7c-1.7-1-3.7-1.5-5.9-1.5c-2.3-0.1-4.4,0.3-6.2,1.1c-1.8,0.8-3.4,1.9-4.7,3.3
		c-1.3,1.4-2.3,3.1-3,5c-0.7,1.9-1,4.1-1,6.3c0,2.3,0.3,4.4,1,6.3c0.7,1.9,1.7,3.6,3,5c1.3,1.4,2.9,2.5,4.7,3.3
		c1.8,0.8,3.9,1.2,6.2,1.1c2.2,0,4.2-0.5,5.9-1.5c1.7-1,3.1-2.3,4-3.7l4.6,3.5c-2,2.3-4.2,4-6.7,5.1c-2.5,1.1-5.1,1.7-7.8,1.7
		c-3.2,0.1-6.1-0.4-8.7-1.5c-2.6-1-4.8-2.5-6.6-4.4c-1.8-1.9-3.2-4.1-4.2-6.6c-1-2.6-1.4-5.3-1.4-8.3c0-3,0.5-5.8,1.4-8.3
		c1-2.6,2.4-4.8,4.2-6.6s4.1-3.3,6.6-4.4c2.6-1,5.5-1.5,8.7-1.5c2.7,0.1,5.3,0.6,7.8,1.7c2.5,1.1,4.7,2.8,6.7,5.1L809.7,46.3z"/>
	<path class="st1" d="M845.6,42h-11.4v23.4c0,1.5,0.1,2.7,0.4,3.6c0.3,0.9,0.7,1.7,1.2,2.2c0.5,0.5,1.1,0.9,1.8,1.1
		c0.7,0.2,1.5,0.3,2.3,0.3c1,0,1.9-0.1,3-0.4c1-0.3,1.9-0.6,2.8-1.1l0.3,5.2c-2.1,1-4.6,1.4-7.5,1.4c-1.1,0-2.2-0.1-3.3-0.4
		c-1.2-0.3-2.2-0.8-3.2-1.6c-1-0.8-1.8-1.9-2.4-3.2c-0.6-1.4-0.9-3.1-0.9-5.3V42h-8.4v-5.1h8.4V25.8h5.6v11.2h11.4V42z"/>
</g>
</svg>
