<?xml version="1.0" encoding="UTF-8"?>
<svg width="203px" height="24px" viewBox="0 0 203 24" version="1.1" xmlns="http://www.w3.org/2000/svg" xmlns:xlink="http://www.w3.org/1999/xlink">
    <!-- Generator: Sketch 49.3 (51167) - http://www.bohemiancoding.com/sketch -->
    <title>main-menu / logo-signature-services</title>
    <desc>Created with Sketch.</desc>
    <defs>
        <polygon id="path-1" points="0.406142733 23.4782609 19.7676728 23.4782609 19.7676728 0.198782609 0.406142733 0.198782609 0.406142733 23.4782609"></polygon>
        <polygon id="path-3" points="11.8291304 15.2684348 11.8291304 0.0414782609 0.0901304348 0.0414782609 0.0901304348 15.2684348 11.8291304 15.2684348"></polygon>
        <polygon id="path-5" points="0.017393617 0.228235294 7.75755319 0.228235294 7.75755319 12.1855882 0.017393617 12.1855882"></polygon>
    </defs>
    <g id="Menu" stroke="none" stroke-width="1" fill="none" fill-rule="evenodd">
        <g id="Main-Menu---Signature-Service" transform="translate(-101.000000, -14.000000)">
            <g id="Group">
                <g id="main-menu-/-logo-signature-services" transform="translate(101.000000, 14.000000)">
                    <g id="logo-/-white-/-cross-shield-nc" fill-rule="evenodd" stroke-width="1">
                        <g id="Page-1">
                            <polygon id="Fill-1" fill="#29ABE2" points="6.57665217 0.682652174 6.57665217 7.0143913 0.000130434782 7.0143913 0.000130434782 17.137 6.57665217 17.137 6.57665217 23.4687391 17.0540435 23.4687391 17.0540435 17.137 23.6292609 17.137 23.6292609 7.0143913 17.0540435 7.0143913 17.0540435 0.682652174"></polygon>
                            <g id="Group-54" transform="translate(5.217391, 0.236174)">
                                <path d="M0.535869565,9.65234783 L4.89413043,10.0593043 C5.7123913,10.1671304 5.80717391,10.9306087 5.59065217,11.3893043 L2.60369565,16.7866957 L2.60934783,16.7793043 C1.09326087,15.6345217 0.120217391,13.854087 0.120217391,11.8562609 C0.120217391,11.0810435 0.268043478,10.3366957 0.53673913,9.65234783 L0.535869565,9.65234783 Z" id="Fill-2" fill="#FFFFFF"></path>
                                <path d="M1.18169565,10.5760435 L4.48256522,10.8695217 C4.71995652,10.8860435 4.73865217,10.9847391 4.68386957,11.1173478 L2.37169565,15.3643043 C1.53082609,14.4238696 1.02256522,13.1973478 1.02256522,11.8564783 C1.02256522,11.4160435 1.07821739,10.986913 1.18169565,10.5760435" id="Fill-4" fill="#29ABE2"></path>
                                <path d="M12.6966522,9.65234783 L8.33795652,10.0593043 C7.51969565,10.1671304 7.42491304,10.9306087 7.64273913,11.3893043 L10.6283913,16.7866957 L10.6240435,16.7793043 C12.1388261,15.6345217 13.1114348,13.854087 13.1114348,11.8562609 C13.1114348,11.0810435 12.9644783,10.3366957 12.6957826,9.65234783 L12.6966522,9.65234783 Z" id="Fill-6" fill="#FFFFFF"></path>
                                <path d="M6.61647826,5.60321739 C4.0103913,5.60321739 1.76386957,7.07973913 0.729086957,9.2106087 L5.35213043,9.2106087 C6.01169565,9.198 6.30213043,8.82756522 6.31517391,8.52321739 C6.33213043,8.16452174 6.27343478,8.05104348 5.9656087,7.66843478 C5.62952174,7.23886957 5.86213043,6.41365217 6.61647826,6.39973913 C7.36952174,6.41365217 7.603,7.23886957 7.26604348,7.66843478 C6.95908696,8.05104348 6.90082609,8.16452174 6.91691304,8.52321739 C6.93082609,8.82756522 7.21952174,9.198 7.87908696,9.2106087 L12.5021304,9.2106087 C11.4673478,7.07973913 9.22213043,5.60321739 6.61647826,5.60321739" id="Fill-8" fill="#FFFFFF"></path>
                                <path d="M12.05,10.5760435 L8.74956522,10.8695217 C8.51130435,10.8860435 8.49391304,10.9847391 8.54782609,11.1173478 L10.8604348,15.3643043 C11.7008696,14.4238696 12.2086957,13.1973478 12.2086957,11.8564783 C12.2086957,11.4160435 12.153913,10.986913 12.05,10.5760435" id="Fill-10" fill="#29ABE2"></path>
                                <path d="M8.17004348,6.68273913 C8.50047826,7.21230435 8.23352174,7.89969565 7.92047826,8.22578261 C7.86352174,8.28186957 7.89221739,8.341 7.94352174,8.35621739 L10.8674348,8.35621739 C10.1665652,7.56795652 9.23308696,6.97795652 8.17004348,6.68273913" id="Fill-12" fill="#29ABE2"></path>
                                <path d="M6.61647826,18.1116957 C7.93517391,18.1116957 9.16343478,17.7325652 10.1877826,17.0821304 L10.1882174,17.0864783 L7.02169565,12.5277826 C6.79952174,12.236913 6.44517391,12.2125652 6.2103913,12.5277826 L3.04430435,17.0864783 L3.04430435,17.0821304 C4.06908696,17.7325652 5.29734783,18.1116957 6.61647826,18.1116957" id="Fill-14" fill="#FFFFFF"></path>
                                <g id="Group-18" transform="translate(21.304348, 0.000000)">
                                    <mask id="mask-2" fill="white">
                                        <use xlink:href="#path-1"></use>
                                    </mask>
                                    <g id="Clip-17"></g>
                                    <path d="M10.0875217,23.4783478 C14.6283913,21.060087 17.3823043,17.2157391 18.8005652,12.9926957 C20.2714348,8.61008696 20.027087,3.42921739 18.3223043,0.198782609 C15.7296957,1.45747826 13.1201304,2.08704348 10.0875217,2.09573913 C7.05491304,2.10617391 4.44491304,1.45747826 1.85186957,0.198782609 C0.147086957,3.42921739 -0.0981304348,8.61008696 1.3736087,12.9926957 C2.79230435,17.2157391 5.54578261,21.060087 10.0875217,23.4783478" id="Fill-16" fill="#29ABE2" mask="url(#mask-2)"></path>
                                </g>
                                <path d="M31.3867826,21.5220435 C35.1254783,19.2924783 37.1172174,16.0972609 38.3928696,12.4907391 C39.5250435,9.289 39.8015652,5.54421739 38.5563478,2.61986957 C36.688087,3.23726087 35.5937391,3.42813043 34.5772174,3.58030435 C33.6298261,3.72334783 32.782,3.80813043 31.395913,3.82726087 L31.3867826,3.82726087 C29.9989565,3.80813043 29.1533043,3.72334783 28.2063478,3.58030435 C27.1893913,3.42813043 26.0946087,3.23726087 24.2267826,2.61986957 C22.9824348,5.54421739 23.2585217,9.289 24.3902609,12.4907391 C25.6667826,16.0972609 27.6585217,19.2924783 31.395913,21.5220435 L31.3867826,21.5220435 Z" id="Fill-19" fill="#FFFFFF"></path>
                                <path d="M31.3893043,20.6354783 C33.9166957,19.1050435 36.7832174,15.6302609 37.9306087,11.0576522 C38.5375652,8.63156522 38.7071304,5.90721739 37.9149565,3.74330435 C36.7832174,4.03591304 35.7266957,4.27504348 34.6332174,4.41808696 C33.5401739,4.55982609 32.4601739,4.662 31.3962609,4.66895652 L31.3866957,4.66895652 C30.3227826,4.662 29.2427826,4.55982609 28.1497391,4.41808696 C27.0566957,4.27504348 26.0001739,4.03591304 24.8684348,3.74330435 C24.0766957,5.90721739 24.2453913,8.63156522 24.8536522,11.0576522 C25.9988696,15.6302609 28.8662609,19.1050435 31.3949565,20.6354783 L31.3893043,20.6354783 Z" id="Fill-21" fill="#29ABE2"></path>
                                <path d="M28.809913,6.29295652 C27.9546957,6.72078261 27.659913,7.726 28.042087,8.53947826 C28.3755652,9.23947826 29.0329565,9.7086087 29.7964348,9.9286087 C30.1786087,10.036 30.5664348,10.0642609 30.9625217,10.0833913 C31.4464348,10.106 31.8846957,10.1194783 32.3512174,10.2329565 C32.4494783,10.2573043 32.5586087,10.3142609 32.609913,10.4073043 C32.7346957,10.629913 32.622087,10.8777391 32.3755652,10.9477391 C32.3707826,11.3386087 32.3346957,12.1264348 32.3346957,12.1264348 C32.3346957,12.1264348 34.3177391,11.9442609 33.9833913,10.2273043 C33.902087,9.81556522 33.5655652,9.396 33.182087,9.20556522 C32.1881739,8.71165217 31.096,8.92817391 30.0764348,8.60817391 C29.7333913,8.50121739 29.2564348,8.33686957 29.1625217,7.96730435 C29.1251304,7.81773913 29.1594783,7.52034783 29.3181739,7.47252174 C29.5751304,7.39556522 29.859913,7.60208696 30.2325217,7.68469565 C30.4686087,7.73643478 30.702087,7.73643478 30.8864348,7.68121739 C30.9694783,7.65904348 31.0890435,7.62730435 31.1003478,7.58078261 C31.0890435,7.54165217 30.9977391,7.50469565 30.949913,7.48208696 C30.8346957,7.42513043 30.716,7.3986087 30.592087,7.35295652 C30.3855652,7.27686957 30.179913,7.18252174 29.9733913,7.07165217 C30.1686087,7.0333913 30.496,7.02382609 30.689913,7.04556522 C30.8473043,7.06295652 31.3277391,7.05773913 31.4707826,7.02165217 C31.502087,7.01295652 31.5733913,6.98773913 31.542087,6.936 C31.486,6.84556522 31.3933913,6.81078261 31.3277391,6.72817391 C31.1877391,6.54295652 31.0664348,6.35426087 30.8407826,6.27078261 C30.1873043,6.02904348 29.459913,5.96773913 28.809913,6.29295652" id="Fill-23" fill="#FFFFFF"></path>
                                <path d="M32.1196087,12.4208696 L32.1304783,10.4182609 C32.1304783,10.4182609 31.863087,10.3643478 31.4900435,10.3395652 C31.0035217,10.3104348 30.7813478,10.3173913 30.7813478,10.3173913 L30.7800435,10.4847826 C30.7800435,10.4847826 30.5452609,10.5813043 30.5096087,10.6417391 C30.4939565,10.6691304 30.4317826,10.7452174 30.460913,10.8182609 C30.6526522,11.316087 30.9174348,11.796087 30.9939565,12.3243478 C31.3565652,12.3756522 31.677,12.3626087 32.1196087,12.4208696" id="Fill-25" fill="#FFFFFF"></path>
                                <path d="M29.6302174,12.1192174 C29.5428261,12.9048696 30.0763043,13.3266087 30.665,13.4609565 C31.1319565,13.567913 31.5841304,13.590087 32.0697826,13.6466087 C32.1306522,13.6535652 32.261087,13.6557391 32.3580435,13.6961739 C32.4454348,13.7322609 32.4871739,13.7818261 32.5045652,13.8335652 C32.5267391,13.9070435 32.5180435,13.964 32.4684783,14.0231304 C32.415,14.0848696 32.2758696,14.120087 32.2758696,14.120087 L32.2480435,15.0644348 C32.2480435,15.0644348 32.6441304,15.0509565 32.9641304,14.8644348 C33.2663043,14.6887826 33.4554348,14.4653043 33.5232609,14.1844348 C33.6006522,13.8583478 33.5467391,13.5405217 33.3071739,13.2218261 C33.1497826,13.0131304 32.8723913,12.8626957 32.5919565,12.7674783 C32.0141304,12.5735652 31.3858696,12.6009565 30.7858696,12.5205217 C30.6936957,12.5057391 30.6102174,12.4387826 30.6023913,12.3596522 C30.5867391,12.2144348 30.7280435,12.1444348 30.7280435,12.1444348 C30.7280435,12.1444348 30.6571739,11.9209565 30.581087,11.7018261 C30.5132609,11.5357391 30.4180435,11.3035652 30.3480435,11.1818261 C29.941087,11.3492174 29.6758696,11.7135652 29.6302174,12.1192174" id="Fill-27" fill="#FFFFFF"></path>
                                <path d="M32.0699565,13.8666087 L32.0534348,15.5631304 L31.6121304,15.3674783 L31.1764783,15.1935652 L31.166913,13.7774783 C31.5586522,13.8231304 31.736913,13.8274783 32.0699565,13.8666087" id="Fill-29" fill="#FFFFFF"></path>
                                <path d="M30.0964348,14.8007391 C29.8564348,15.3503043 30.1581739,15.8876957 30.6381739,16.115087 C30.8886087,16.2337826 31.2181739,16.3407391 31.4890435,16.4411739 C31.7533913,16.5398696 32.2216522,16.8172609 32.2573043,16.9542174 C32.2790435,17.0355217 32.1781739,17.115087 32.1781739,17.115087 L32.1677391,17.7768261 C32.1677391,17.7768261 32.4546957,17.7185652 32.6668696,17.5511739 C32.8655652,17.3924783 33.0112174,17.1859565 33.0103478,16.8546522 C33.0073043,16.4946522 32.832087,16.2116087 32.2977391,15.9098696 C31.8812174,15.6724783 31.3781739,15.4859565 30.9864348,15.3198696 C30.9294783,15.2955217 30.8786087,15.1876957 30.9007826,15.122913 C30.922087,15.0520435 30.9694783,15.0263913 30.9694783,15.0263913 L30.9581739,14.2607391 C30.9581739,14.2607391 30.6573043,14.319 30.5155652,14.3994348 C30.3842609,14.4737826 30.186,14.5972609 30.0964348,14.8007391" id="Fill-31" fill="#FFFFFF"></path>
                                <path d="M31.9973478,17.0557391 C32.0025652,17.0005217 31.9816957,16.9944348 31.9551739,16.9561739 C31.8382174,16.8383478 31.6677826,16.7570435 31.6273478,16.7335652 C31.5047391,16.6626957 31.2325652,16.5674783 31.2325652,16.5674783 C31.2325652,16.5674783 31.2516957,18.3022609 31.2843043,19.1996522 C31.2912609,19.4035652 31.4103913,19.4566087 31.6121304,19.4661739 C31.8621304,19.480087 31.9338696,19.3296522 31.9364783,19.2426957 C31.9482174,18.9557391 31.9847391,17.7092174 31.9973478,17.0557391" id="Fill-33" fill="#FFFFFF"></path>
                                <path d="M32.1879565,5.89043478 C32.2779565,5.95478261 32.2779565,5.95913043 32.3057826,6.08521739 C32.3653478,6.3626087 32.3018696,6.79695652 32.3583913,6.98869565 C32.3892609,7.05 32.4536087,7.04826087 32.5018696,7.0226087 C32.9005652,6.81478261 33.1718696,6.45695652 33.5762174,6.29173913 C33.7653478,6.21347826 34.2914348,6.46869565 34.1696957,6.84913043 C34.1123043,7.02782609 34.0279565,7.05521739 33.9131739,7.16956522 C33.6775217,7.40608696 33.3444783,7.6273913 33.0553478,7.93347826 C32.8583913,8.14086957 32.621,8.29130435 32.4688261,8.52434783 C32.4205652,8.59869565 32.341,8.7 32.341,8.7 C31.7805652,8.59 31.2166522,8.61 30.7796957,8.52347826 L30.7788261,7.8973913 C30.7788261,7.8973913 31.2240435,7.82565217 31.3079565,7.61347826 C31.3140435,7.59782609 31.3014348,7.52434783 31.2366522,7.47913043 C31.1618696,7.42304348 31.0292609,7.36782609 30.9896957,7.35391304 C31.4362174,7.42086957 31.7144783,7.49304348 32.1462174,7.67478261 C32.174913,7.62956522 32.1592609,7.52782609 32.1262174,7.49173913 C32.0666522,7.42608696 32.0353478,7.40478261 31.8823043,7.37086957 C31.6179565,7.30434783 30.901,7.21956522 30.901,7.21956522 C30.901,7.21956522 31.2331739,7.2173913 31.5105652,7.17304348 C31.6457826,7.15173913 31.7562174,7.12956522 31.7862174,7.08391304 C31.8183913,7.0173913 31.7605652,6.91652174 31.6657826,6.81913043 C31.6018696,6.75478261 31.5305652,6.68695652 31.4779565,6.62 C31.4131739,6.53347826 31.3057826,6.37565217 31.1879565,6.27478261 C31.0875217,6.18826087 30.8336087,6.06217391 30.8336087,6.06217391 C30.8336087,6.06217391 30.7896957,5.7273913 30.8601304,5.5926087 C30.9123043,5.49217391 31.0483913,5.43521739 31.1192609,5.46782609 C31.441,5.64043478 31.7579565,5.81956522 32.1879565,5.89043478" id="Fill-35" fill="#FFFFFF"></path>
                                <path d="M30.774087,6.58567391 C30.6914783,6.65469565 30.6336522,6.7258913 30.5410435,6.74436957 C30.3588696,6.78023913 30.3845217,6.5883913 30.258,6.47969565 C30.1801739,6.4161087 30.1071304,6.5008913 30.0375652,6.34491304 C30.304087,6.35523913 30.6536522,6.3258913 30.854087,6.56991304 C30.8288696,6.55523913 30.7853913,6.57480435 30.774087,6.58567391" id="Fill-37" fill="#29ABE2"></path>
                                <path d="M6.52434783,13.5596522 C6.57565217,13.494 6.64782609,13.4896522 6.7073913,13.5596522 L8.89217391,16.7783478 C8.19782609,17.0766087 7.42652174,17.2431304 6.61652174,17.2431304 C5.80565217,17.2431304 5.03478261,17.0766087 4.34043478,16.7783478 L6.52434783,13.5596522 C6.58521739,13.4896522 6.65652174,13.494 6.7073913,13.5596522" id="Fill-39" fill="#29ABE2"></path>
                                <path d="M30.7974348,17.6975217 C30.6896087,17.8057826 30.5083043,18.0279565 30.477,18.3818696 C30.4474348,18.6975217 30.5239565,18.7862174 30.6061304,18.9566522 C30.6743913,19.0975217 30.833087,19.0892609 30.8887391,18.9588261 C30.9348261,18.8518696 30.8691739,18.7536087 30.9113478,18.5236087 C30.9413478,18.3518696 31.080913,18.2579565 31.080913,18.2579565 L31.0665652,17.4866522 C31.0665652,17.4866522 30.9426522,17.5514348 30.7974348,17.6975217" id="Fill-41" fill="#FFFFFF"></path>
                                <path d="M5.06247826,6.68273913 C4.73247826,7.21230435 4.99986957,7.89969565 5.31073913,8.22578261 C5.36856522,8.28186957 5.339,8.341 5.28813043,8.35621739 L2.36552174,8.35621739 C3.06465217,7.56795652 3.99943478,6.97795652 5.06247826,6.68273913" id="Fill-43" fill="#29ABE2"></path>
                                <path d="M36.399087,21.7306957 L36.399087,22.138087 L36.6043043,22.138087 C36.8247391,22.138087 36.9286522,22.0863478 36.9286522,21.9402609 C36.9286522,21.7911304 36.8247391,21.7306957 36.599087,21.7306957 L36.399087,21.7306957 Z M37.1777826,21.9172174 C37.1777826,22.0928696 37.0703913,22.2146087 36.8843043,22.2515652 L37.1712609,22.8154783 L36.9003913,22.8154783 L36.6395217,22.2867826 L36.399087,22.2867826 L36.399087,22.8154783 L36.1560435,22.8154783 L36.1560435,21.5772174 L36.6421304,21.5772174 C37.0016957,21.5772174 37.1777826,21.6924348 37.1777826,21.9172174 L37.1777826,21.9172174 Z M37.3160435,21.5493913 C37.1277826,21.3641739 36.8843043,21.268087 36.613,21.268087 C36.3486522,21.268087 36.106913,21.362 35.9264783,21.538087 C35.7338696,21.7276522 35.626913,21.9676522 35.626913,22.218087 C35.626913,22.4667826 35.7316957,22.6998261 35.9173478,22.8828696 C36.1021304,23.0641739 36.3512609,23.1637391 36.6043043,23.1637391 C36.8712609,23.1637391 37.1147391,23.0663478 37.3108261,22.8850435 C37.4964783,22.7137391 37.5973478,22.4793913 37.5973478,22.2263478 C37.5973478,21.9615652 37.4986522,21.7276522 37.3160435,21.5493913 L37.3160435,21.5493913 Z M37.4199565,21.4498261 C37.629087,21.6533043 37.7482174,21.9267826 37.7482174,22.218087 C37.7482174,22.5176522 37.6312609,22.7867826 37.4173478,22.9846087 C37.1921304,23.1954783 36.9064783,23.3098261 36.6099565,23.3098261 C36.3073478,23.3098261 36.026913,23.1954783 35.8103913,22.9824348 C35.5947391,22.7750435 35.4786522,22.5072174 35.4786522,22.218087 C35.4786522,21.9298261 35.6025652,21.6511304 35.8225652,21.4350435 C36.0299565,21.2306957 36.3051739,21.125913 36.6099565,21.125913 C36.9182174,21.125913 37.2034348,21.2372174 37.4199565,21.4498261 L37.4199565,21.4498261 Z" id="Fill-45" fill="#29ABE2"></path>
                                <path d="M13.6222609,21.7306957 L13.6222609,22.138087 L13.8270435,22.138087 C14.047913,22.138087 14.1505217,22.0863478 14.1505217,21.9402609 C14.1505217,21.7911304 14.047913,21.7306957 13.8205217,21.7306957 L13.6222609,21.7306957 Z M14.4009565,21.9172174 C14.4009565,22.0928696 14.2926957,22.2146087 14.1070435,22.2515652 L14.3944348,22.8154783 L14.1231304,22.8154783 L13.8613913,22.2867826 L13.6222609,22.2867826 L13.6222609,22.8154783 L13.3787826,22.8154783 L13.3787826,21.5772174 L13.8644348,21.5772174 C14.224,21.5772174 14.4009565,21.6924348 14.4009565,21.9172174 L14.4009565,21.9172174 Z M14.5383478,21.5493913 C14.3496522,21.3641739 14.1070435,21.268087 13.8361739,21.268087 C13.5709565,21.268087 13.3296522,21.362 13.1483478,21.538087 C12.9566087,21.7276522 12.850087,21.9676522 12.850087,22.218087 C12.850087,22.4667826 12.954,22.6998261 13.1396522,22.8828696 C13.3257391,23.0641739 13.5748696,23.1637391 13.8270435,23.1637391 C14.0953043,23.1637391 14.337913,23.0663478 14.5335652,22.8850435 C14.7183478,22.7137391 14.8205217,22.4793913 14.8205217,22.2263478 C14.8205217,21.9615652 14.7218261,21.7276522 14.5383478,21.5493913 L14.5383478,21.5493913 Z M14.6435652,21.4498261 C14.8509565,21.6533043 14.9713913,21.9267826 14.9713913,22.218087 C14.9713913,22.5176522 14.854,22.7867826 14.6396522,22.9846087 C14.4166087,23.1954783 14.1292174,23.3098261 13.8331304,23.3098261 C13.530087,23.3098261 13.2496522,23.1954783 13.0331304,22.9824348 C12.8170435,22.7750435 12.7013913,22.5072174 12.7013913,22.218087 C12.7013913,21.9298261 12.8244348,21.6511304 13.044,21.4350435 C13.2526957,21.2306957 13.527913,21.125913 13.8331304,21.125913 C14.1422609,21.125913 14.4257391,21.2372174 14.6435652,21.4498261 L14.6435652,21.4498261 Z" id="Fill-47" fill="#29ABE2"></path>
                                <polygon id="Fill-49" fill="#FFFFFF" points="57.7454783 18.925 50.5472174 8.79543478 50.5472174 18.925 47.8224348 18.925 47.8224348 4.21065217 50.5911304 4.21065217 57.458087 13.8506522 57.458087 4.21065217 60.1824348 4.21065217 60.1824348 18.925"></polygon>
                                <g id="Group-53" transform="translate(62.173913, 3.913043)">
                                    <mask id="mask-4" fill="white">
                                        <use xlink:href="#path-3"></use>
                                    </mask>
                                    <g id="Clip-52"></g>
                                    <path d="M7.33317391,15.2684348 C2.88143478,15.2684348 0.0901304348,12.2414783 0.0901304348,7.67756522 C0.0901304348,3.11278261 2.99230435,0.0414782609 7.31186957,0.0414782609 C9.08317391,0.0414782609 10.4562174,0.445826087 11.5853478,1.108 L11.164913,3.77365217 C10.1675217,3.04930435 8.92665217,2.47191304 7.44447826,2.47191304 C4.74143478,2.47191304 3.08056522,4.45452174 3.08056522,7.6553913 C3.08056522,10.8962609 4.85186957,12.8153913 7.55534783,12.8153913 C8.97273913,12.8153913 10.2566522,12.3271304 11.431,11.5793043 L11.8292609,14.0101739 C10.6114348,14.758 9.061,15.2684348 7.33317391,15.2684348" id="Fill-51" fill="#FFFFFF" mask="url(#mask-4)"></path>
                                </g>
                            </g>
                        </g>
                    </g>
                    <g id="Group-3" stroke-width="1" fill-rule="evenodd" transform="translate(94.000000, 6.000000)">
                        <mask id="mask-6" fill="white">
                            <use xlink:href="#path-5"></use>
                        </mask>
                        <g id="Clip-2"></g>
                        <path d="M3.36943351,12.1855882 C1.56716489,12.1855882 0.046962766,10.85 0,8.95794118 L1.09695745,8.95794118 C1.12826596,10.7229412 2.41336436,11.2317647 3.93356649,11.2317647 C5.20301064,11.2317647 6.66059574,10.4841176 6.66059574,9.02147059 C6.66059574,7.87647059 5.84570479,7.33588235 4.88963564,7.01794118 C3.05605851,6.39794118 0.266412234,5.80970588 0.266412234,3.32882353 C0.266412234,1.32558824 2.08433511,0.228235294 3.87094947,0.228235294 C5.35984309,0.228235294 7.30328989,0.753235294 7.55404787,2.96323529 L6.45680053,2.96323529 C6.42549202,1.54823529 5.15604787,1.18235294 3.9964734,1.18235294 C2.82095479,1.18235294 1.36336968,1.78676471 1.36336968,3.18588235 C1.36336968,6.44558824 7.75755319,4.96676471 7.75755319,8.92588235 C7.75755319,11.4223529 5.64190957,12.1855882 3.36943351,12.1855882" id="Fill-1" fill="#FFFFFF" mask="url(#mask-6)"></path>
                    </g>
                    <path d="M103.29341,17.9470588 L104.233824,17.9470588 L104.233824,9.965 L103.29341,9.965 L103.29341,17.9470588 Z M103.215138,7.65941176 L104.312096,7.65941176 L104.312096,6.46676471 L103.215138,6.46676471 L103.215138,7.65941176 Z" id="Fill-4" fill="#FFFFFF" fill-rule="evenodd"></path>
                    <path d="M109.170133,10.6011765 C107.46179,10.6011765 106.741114,12.35 106.741114,13.8129412 C106.741114,15.2758824 107.477734,17.0408824 109.201731,17.0408824 C111.004,17.0408824 111.693367,15.3394118 111.693367,13.7811765 C111.693367,12.2547059 110.862822,10.6011765 109.170133,10.6011765 Z M111.74033,9.965 L112.712053,9.965 C112.680745,10.5055882 112.633782,11.1414706 112.633782,11.7617647 L112.633782,16.5479412 C112.633782,18.1379412 112.712053,19.8073529 110.972402,20.6341176 C110.345652,20.9364706 109.922407,21 109.185787,21 C107.759801,21 106.067112,20.5070588 106.067112,18.8535294 L107.085798,18.8535294 C107.195668,19.8073529 108.308279,20.1252941 109.311311,20.1252941 C110.533793,20.1252941 111.662059,19.2508824 111.693367,17.9152941 L111.693367,16.4205882 L111.662059,16.4205882 C111.207505,17.3588235 110.126202,17.9152941 109.107516,17.9152941 C106.741114,17.9152941 105.722428,16.0867647 105.722428,13.8926471 C105.722428,11.73 106.678207,9.72647059 109.076207,9.72647059 C110.220418,9.72647059 111.035309,10.2832353 111.662059,11.2052941 L111.693367,11.1414706 L111.74033,9.965 Z" id="Fill-5" fill="#FFFFFF" fill-rule="evenodd"></path>
                    <path d="M115.28254,17.9470588 L114.342125,17.9470588 L114.342125,11.7617647 C114.342125,11.1414706 114.294872,10.5055882 114.263564,9.965 L115.235287,9.965 L115.28254,11.1414706 L115.313559,11.1735294 C115.862327,10.1876471 116.755489,9.72647059 117.774176,9.72647059 C120.344662,9.72647059 120.548168,12.0320588 120.548168,12.9544118 L120.548168,17.9470588 L119.607753,17.9470588 L119.607753,12.7952941 C119.607753,11.4120588 118.82417,10.6011765 117.539072,10.6011765 C115.987561,10.6011765 115.28254,11.9208824 115.28254,13.3517647 L115.28254,17.9470588" id="Fill-6" fill="#FFFFFF" fill-rule="evenodd"></path>
                    <path d="M124.513332,17.3111765 C126.566359,17.3111765 126.958005,15.5938235 126.86408,13.9241176 C125.532019,13.9720588 122.742372,13.7176471 122.742372,15.7208824 C122.742372,16.8023529 123.557263,17.3111765 124.513332,17.3111765 Z M126.86408,12.3185294 C126.770154,11.0144118 126.111806,10.6011765 124.999194,10.6011765 C124.011816,10.6011765 123.196636,10.9032353 123.071402,11.9844118 L122.06837,11.9844118 C122.303473,10.3464706 123.510301,9.72647059 125.014848,9.72647059 C126.7545,9.72647059 127.835803,10.5373529 127.804495,12.3661765 L127.804495,16.1502941 C127.78884,16.7705882 127.851457,17.4064706 127.882766,17.9470588 L126.911043,17.9470588 L126.879734,16.7705882 L126.848426,16.7705882 L126.801463,16.8817647 C126.456489,17.5497059 125.406495,18.1855882 124.340846,18.1855882 C122.883261,18.1855882 121.723686,17.2794118 121.723686,15.7208824 C121.723686,14.6397059 122.36609,13.8129412 123.306505,13.4152941 C124.3565,12.9544118 125.71987,13.1135294 126.86408,13.0497059 L126.86408,12.3185294 Z" id="Fill-7" fill="#FFFFFF" fill-rule="evenodd"></path>
                    <path d="M130.437019,10.8397059 L128.870144,10.8397059 L128.870144,9.965 L130.437019,9.965 L130.437019,8.26352941 L131.377723,7.85029412 L131.377723,9.965 L133.164048,9.965 L133.164048,10.8397059 L131.377723,10.8397059 L131.377723,16.1820588 C131.361779,16.9135294 131.738061,17.3111765 132.459027,17.3111765 C132.741093,17.3111765 133.02316,17.2952941 133.273918,17.2155882 L133.273918,18.0423529 C132.976197,18.1220588 132.631223,18.1855882 132.317848,18.1855882 C130.327439,18.1855882 130.437019,16.8976471 130.437019,15.8164706 L130.437019,10.8397059" id="Fill-8" fill="#FFFFFF" fill-rule="evenodd"></path>
                    <path d="M139.683755,9.965 L140.62417,9.965 L140.62417,16.1502941 C140.62417,16.7705882 140.671133,17.4064706 140.702441,17.9470588 L139.730718,17.9470588 L139.683755,16.7705882 L139.652447,16.7385294 C139.103678,17.7244118 138.210516,18.1855882 137.19183,18.1855882 C134.621633,18.1855882 134.417838,15.88 134.417838,14.9579412 L134.417838,9.965 L135.358253,9.965 L135.358253,15.1167647 C135.358253,16.5002941 136.141835,17.3111765 137.426934,17.3111765 C138.978444,17.3111765 139.683755,15.9914706 139.683755,14.5602941 L139.683755,9.965" id="Fill-9" fill="#FFFFFF" fill-rule="evenodd"></path>
                    <path d="M143.742846,17.9470588 L142.802431,17.9470588 L142.802431,11.7617647 C142.818085,11.1414706 142.755468,10.5055882 142.72416,9.965 L143.695593,9.965 L143.742846,11.1414706 L143.774154,11.1414706 C144.056221,10.3308824 144.761532,9.75823529 145.545114,9.72647059 C145.858489,9.71058824 146.171864,9.72647059 146.485239,9.74235294 L146.485239,10.6647059 C146.297388,10.6488235 146.093593,10.6011765 145.905452,10.6011765 C144.510774,10.6011765 143.774154,11.6188235 143.742846,13.1452941 L143.742846,17.9470588" id="Fill-10" fill="#FFFFFF" fill-rule="evenodd"></path>
                    <path d="M152.83246,13.3041176 C152.72259,11.7617647 151.907989,10.6011765 150.277918,10.6011765 C148.742061,10.6011765 147.92717,11.905 147.801646,13.3041176 L152.83246,13.3041176 Z M147.770338,14.1788235 C147.801646,15.88 148.569574,17.3111765 150.497367,17.3111765 C151.610269,17.3111765 152.534739,16.5002941 152.769843,15.4029412 L153.757221,15.4029412 C153.271359,17.3111765 152.09584,18.1855882 150.199646,18.1855882 C147.848609,18.1855882 146.751652,16.1344118 146.751652,13.9561765 C146.751652,11.7935294 147.92717,9.72647059 150.262263,9.72647059 C152.895367,9.72647059 153.851146,11.6823529 153.851146,14.1788235 L147.770338,14.1788235 Z" id="Fill-11" fill="#FFFFFF" fill-rule="evenodd"></path>
                    <path d="M158.787745,18.1855882 C156.985476,18.1855882 155.465274,16.85 155.418311,14.9579412 L156.514979,14.9579412 C156.546577,16.7229412 157.831386,17.2317647 159.352168,17.2317647 C160.621322,17.2317647 162.078907,16.4841176 162.078907,15.0214706 C162.078907,13.8764706 161.263726,13.3358824 160.307657,13.0179412 C158.47408,12.3979412 155.684434,11.8097059 155.684434,9.32882353 C155.684434,7.32558824 157.502646,6.22823529 159.289261,6.22823529 C160.778154,6.22823529 162.721601,6.75323529 162.972359,8.96323529 L161.875112,8.96323529 C161.843803,7.54823529 160.574359,7.18235294 159.414495,7.18235294 C158.239266,7.18235294 156.781681,7.78676471 156.781681,9.18588235 C156.781681,12.4455882 163.175864,10.9667647 163.175864,14.9258824 C163.175864,17.4223529 161.060221,18.1855882 158.787745,18.1855882" id="Fill-12" fill="#FFFFFF" fill-rule="evenodd"></path>
                    <path d="M170.306378,13.3041176 C170.196798,11.7617647 169.381617,10.6011765 167.751835,10.6011765 C166.215979,10.6011765 165.401088,11.905 165.275564,13.3041176 L170.306378,13.3041176 Z M165.244255,14.1788235 C165.275564,15.88 166.043782,17.3111765 167.971285,17.3111765 C169.083896,17.3111765 170.008657,16.5002941 170.243761,15.4029412 L171.231138,15.4029412 C170.744987,17.3111765 169.570048,18.1855882 167.673564,18.1855882 C165.322527,18.1855882 164.225569,16.1344118 164.225569,13.9561765 C164.225569,11.7935294 165.401088,9.72647059 167.735891,9.72647059 C170.368995,9.72647059 171.325064,11.6823529 171.325064,14.1788235 L165.244255,14.1788235 Z" id="Fill-13" fill="#FFFFFF" fill-rule="evenodd"></path>
                    <path d="M173.70712,17.9470588 L172.766995,17.9470588 L172.766995,11.7617647 C172.782649,11.1414706 172.720032,10.5055882 172.688434,9.965 L173.660157,9.965 L173.70712,11.1414706 L173.738718,11.1414706 C174.020495,10.3308824 174.726096,9.75823529 175.509678,9.72647059 C175.823053,9.71058824 176.136428,9.72647059 176.449803,9.74235294 L176.449803,10.6647059 C176.261952,10.6488235 176.058157,10.6011765 175.870016,10.6011765 C174.475338,10.6011765 173.738718,11.6188235 173.70712,13.1452941 L173.70712,17.9470588" id="Fill-14" fill="#FFFFFF" fill-rule="evenodd"></path>
                    <polyline id="Fill-15" fill="#FFFFFF" fill-rule="evenodd" points="177.969715 9.965 180.68109 16.6273529 183.29825 9.965 184.33259 9.965 181.213915 17.9470588 180.148266 17.9470588 176.935375 9.965 177.969715 9.965"></polyline>
                    <path d="M185.492165,17.9470588 L186.43287,17.9470588 L186.43287,9.965 L185.492165,9.965 L185.492165,17.9470588 Z M185.413894,7.65941176 L186.510851,7.65941176 L186.510851,6.46676471 L185.413894,6.46676471 L185.413894,7.65941176 Z" id="Fill-16" fill="#FFFFFF" fill-rule="evenodd"></path>
                    <path d="M193.594691,12.4138235 C193.51613,11.1894118 192.748202,10.6011765 191.44716,10.6011765 C190.005519,10.6011765 189.112356,12.1276471 189.112356,13.9402941 C189.112356,15.7688235 190.005519,17.3111765 191.44716,17.3111765 C192.669641,17.3111765 193.51613,16.5479412 193.594691,15.4505882 L194.613088,15.4505882 C194.36233,17.2794118 193.328279,18.1855882 191.541665,18.1855882 C189.190628,18.1855882 188.09367,16.1344118 188.09367,13.9561765 C188.09367,11.7935294 189.268899,9.72647059 191.603992,9.72647059 C193.21841,9.72647059 194.534816,10.7123529 194.613088,12.4138235 L193.594691,12.4138235" id="Fill-17" fill="#FFFFFF" fill-rule="evenodd"></path>
                    <path d="M201.900434,13.3041176 C201.790854,11.7617647 200.975963,10.6011765 199.346181,10.6011765 C197.810324,10.6011765 196.995144,11.905 196.86991,13.3041176 L201.900434,13.3041176 Z M196.838311,14.1788235 C196.86991,15.88 197.637838,17.3111765 199.56534,17.3111765 C200.677952,17.3111765 201.603003,16.5002941 201.837816,15.4029412 L202.825194,15.4029412 C202.339332,17.3111765 201.164104,18.1855882 199.26762,18.1855882 C196.916872,18.1855882 195.819625,16.1344118 195.819625,13.9561765 C195.819625,11.7935294 196.995144,9.72647059 199.330237,9.72647059 C201.96334,9.72647059 202.91941,11.6823529 202.91941,14.1788235 L196.838311,14.1788235 Z" id="Fill-18" fill="#FFFFFF" fill-rule="evenodd"></path>
                    <path d="M86,3 L86,21.4325915" id="Stroke-53" stroke="#FFFFFF" stroke-width="0.306"></path>
                </g>
            </g>
        </g>
    </g>
</svg>