<svg xmlns="http://www.w3.org/2000/svg" viewBox="0 0 44.6 26.69"><defs><style>.cls-1{fill:#ed1b2e;}.cls-2{fill:#fcb131;}.cls-3{fill:#fff;}</style></defs><title>mastercard-logo</title><g id="Layer_2" data-name="Layer 2"><g id="Layer_1-2" data-name="Layer 1"><circle class="cls-1" cx="13.34" cy="13.34" r="13.34"/><path class="cls-2" d="M31.26,0a13.3,13.3,0,0,0-9,3.45A13.63,13.63,0,0,0,21,4.87h2.7a13.64,13.64,0,0,1,1,1.41H19.94a13.44,13.44,0,0,0-.77,1.41h6.27A13.32,13.32,0,0,1,26,9.1H18.6a13.21,13.21,0,0,0-.39,1.41h8.17A13.43,13.43,0,0,1,26,17.58H18.6A13.39,13.39,0,0,0,19.17,19h6.27a13.33,13.33,0,0,1-.77,1.41H19.94a13.43,13.43,0,0,0,1,1.41h2.69a13.34,13.34,0,0,1-1.35,1.41A13.34,13.34,0,1,0,31.26,0Z"/><polygon class="cls-3" points="7.08 16.86 5.63 16.86 6.46 11.65 4.61 16.86 3.62 16.86 3.5 11.68 2.62 16.86 1.27 16.86 2.4 10.09 4.48 10.09 4.54 14.28 5.95 10.09 8.2 10.09 7.08 16.86"/><path class="cls-3" d="M10.64,14.4l-.32,0c-.82,0-1.24.28-1.24.84a.51.51,0,0,0,.52.56C10.19,15.78,10.62,15.22,10.64,14.4Zm1.05,2.45H10.5l0-.57A1.82,1.82,0,0,1,9,17a1.35,1.35,0,0,1-1.32-1.5c0-1.34.94-2.12,2.54-2.12a4.84,4.84,0,0,1,.59,0,1.36,1.36,0,0,0,.06-.36c0-.36-.25-.5-.93-.5a4.81,4.81,0,0,0-1.53.25l.2-1.24a5.77,5.77,0,0,1,1.73-.29c1.24,0,1.9.56,1.9,1.61a7,7,0,0,1-.12,1.09C12,14.73,11.73,16.44,11.7,16.85Z"/><path class="cls-3" d="M31.13,10.27l-.24,1.47a2.77,2.77,0,0,0-1.29-.37c-1.08,0-1.84,1-1.84,2.54,0,1,.51,1.65,1.35,1.65a2.8,2.8,0,0,0,1.23-.35l-.25,1.54a4.53,4.53,0,0,1-1.28.2c-1.56,0-2.53-1.12-2.53-2.92,0-2.42,1.34-4.11,3.26-4.11A5,5,0,0,1,31.13,10.27Z"/><path class="cls-3" d="M33.46,14.4l-.32,0c-.82,0-1.24.28-1.24.84a.51.51,0,0,0,.52.56C33,15.78,33.44,15.22,33.46,14.4Zm1.05,2.45h-1.2l0-.57a1.82,1.82,0,0,1-1.52.67,1.35,1.35,0,0,1-1.32-1.5c0-1.34.94-2.12,2.54-2.12a4.82,4.82,0,0,1,.59,0,1.37,1.37,0,0,0,.06-.36c0-.36-.25-.5-.93-.5a4.82,4.82,0,0,0-1.53.25l.2-1.24a5.78,5.78,0,0,1,1.73-.29c1.24,0,1.9.56,1.9,1.61A7,7,0,0,1,35,13.93C34.82,14.73,34.56,16.44,34.52,16.85Z"/><path class="cls-3" d="M18.14,16.77a3.31,3.31,0,0,1-1,.18A1.06,1.06,0,0,1,16,15.74a12.73,12.73,0,0,1,.2-1.47c.08-.51.63-3.76.63-3.76h1.44l-.17.83h.74l-.2,1.32h-.74c-.17,1-.41,2.35-.41,2.52s.15.41.5.41a1.16,1.16,0,0,0,.39-.05Z"/><path class="cls-3" d="M22.55,16.73a4.94,4.94,0,0,1-1.48.22,2.19,2.19,0,0,1-2.45-2.46c0-1.88,1.07-3.27,2.52-3.27a1.84,1.84,0,0,1,1.95,2,6,6,0,0,1-.18,1.35H20c-.1.8.41,1.13,1.25,1.13a3.41,3.41,0,0,0,1.5-.35Zm-.81-3.26c0-.11.15-1-.67-1-.46,0-.79.35-.92,1Z"/><path class="cls-3" d="M12.57,13.09a1.61,1.61,0,0,0,1.1,1.54c.59.28.68.36.68.61s-.26.5-.83.5a4.08,4.08,0,0,1-1.3-.22L12,16.79a6.71,6.71,0,0,0,1.51.16c1.53,0,2.23-.58,2.23-1.84a1.51,1.51,0,0,0-1-1.53c-.61-.28-.68-.34-.68-.6s.24-.45.71-.45a8,8,0,0,1,1,.08L16,11.34a9.86,9.86,0,0,0-1.27-.11C13.12,11.23,12.56,12.07,12.57,13.09Z"/><path class="cls-3" d="M42.19,16.85H40.81l.07-.51a1.71,1.71,0,0,1-1.34.61c-1.05,0-1.75-.91-1.75-2.28,0-1.83,1.08-3.37,2.36-3.37a1.63,1.63,0,0,1,1.38.75l.32-2h1.43ZM40,15.58c.68,0,1.15-.76,1.15-1.85,0-.7-.27-1.08-.77-1.08-.66,0-1.12.77-1.12,1.85C39.31,15.22,39.56,15.58,40,15.58Z"/><path class="cls-3" d="M35.82,11.35c-.18,1.7-.5,3.43-.76,5.13l-.07.37h1.45c.52-3.37.64-4,1.46-3.94a5.4,5.4,0,0,1,.55-1.6c-.61-.13-.95.22-1.39.87a5,5,0,0,0,.09-.83Z"/><path class="cls-3" d="M23.9,11.35c-.18,1.7-.5,3.43-.76,5.13l-.07.37h1.45c.52-3.37.64-4,1.45-3.94a5.44,5.44,0,0,1,.55-1.6c-.61-.13-.95.22-1.39.87a5,5,0,0,0,.09-.83Z"/><path class="cls-3" d="M42.82,16.42a.43.43,0,1,1,.43.43A.43.43,0,0,1,42.82,16.42Zm.43.33a.33.33,0,1,0-.33-.33A.33.33,0,0,0,43.25,16.75Zm-.06-.14h-.09v-.38h.16a.18.18,0,0,1,.1,0,.11.11,0,0,1,0,.09.1.1,0,0,1-.07.1l.07.17h-.1l-.06-.15h-.06Zm0-.21h.1a.05.05,0,0,0,0,0,0,0,0,0,0,0,0h-.1Z"/></g></g></svg>