<svg xmlns="http://www.w3.org/2000/svg" viewBox="0 0 572.8 296.7"><defs><style>.cls-1{opacity:0.8;}.cls-2{fill:#ddeef4;}.cls-3{opacity:0.5;}.cls-4{fill:#8ed4ed;}.cls-5{fill:#b3efff;}.cls-6{fill:#04506e;}.cls-7{fill:#fff;}.cls-8{fill:none;stroke:#fff;stroke-miterlimit:10;stroke-width:3.5px;}</style></defs><title>routing-account-esp</title><g id="Layer_2" data-name="Layer 2"><g id="Comps"><g class="cls-1"><rect class="cls-2" x="23.93" width="548.87" height="238.06"/><g class="cls-3"><rect class="cls-4" x="43.59" y="18.69" width="509.57" height="1.25"/><rect class="cls-4" x="43.59" y="23.55" width="509.57" height="1.25"/><rect class="cls-4" x="43.59" y="28.42" width="509.57" height="1.25"/><rect class="cls-4" x="43.59" y="33.28" width="509.57" height="1.25"/><rect class="cls-4" x="43.59" y="38.15" width="509.57" height="1.25"/><rect class="cls-4" x="43.59" y="43.01" width="509.57" height="1.25"/><rect class="cls-4" x="43.59" y="47.87" width="509.57" height="1.25"/><rect class="cls-4" x="43.59" y="52.74" width="509.57" height="1.25"/><rect class="cls-4" x="43.59" y="57.6" width="509.57" height="1.25"/><rect class="cls-4" x="43.59" y="62.47" width="509.57" height="1.25"/><rect class="cls-4" x="43.59" y="67.33" width="509.57" height="1.25"/><rect class="cls-4" x="43.59" y="72.2" width="509.57" height="1.25"/><rect class="cls-4" x="43.59" y="77.06" width="509.57" height="1.25"/><rect class="cls-4" x="43.59" y="81.92" width="509.57" height="1.25"/><rect class="cls-4" x="43.59" y="86.79" width="509.57" height="1.25"/><rect class="cls-4" x="43.59" y="91.65" width="509.57" height="1.25"/><rect class="cls-4" x="43.59" y="96.52" width="509.57" height="1.25"/><rect class="cls-4" x="43.59" y="101.38" width="509.57" height="1.25"/><rect class="cls-4" x="43.59" y="106.25" width="509.57" height="1.25"/><rect class="cls-4" x="43.59" y="111.11" width="509.57" height="1.25"/><rect class="cls-4" x="43.59" y="115.98" width="509.57" height="1.25"/><rect class="cls-4" x="43.59" y="120.84" width="509.57" height="1.25"/><rect class="cls-4" x="43.59" y="125.7" width="509.57" height="1.25"/><rect class="cls-4" x="43.59" y="130.57" width="509.57" height="1.25"/><rect class="cls-4" x="43.59" y="135.43" width="509.57" height="1.25"/><rect class="cls-4" x="43.59" y="140.3" width="509.57" height="1.25"/><rect class="cls-4" x="43.59" y="145.16" width="509.57" height="1.25"/><rect class="cls-4" x="43.59" y="150.03" width="509.57" height="1.25"/><rect class="cls-4" x="43.59" y="154.89" width="509.57" height="1.25"/><rect class="cls-4" x="43.59" y="159.75" width="509.57" height="1.25"/><rect class="cls-4" x="43.59" y="164.62" width="509.57" height="1.25"/><rect class="cls-4" x="43.59" y="169.48" width="509.57" height="1.25"/><rect class="cls-4" x="43.59" y="174.35" width="509.57" height="1.25"/><rect class="cls-4" x="43.59" y="179.21" width="509.57" height="1.25"/><rect class="cls-4" x="43.59" y="184.08" width="509.57" height="1.25"/><rect class="cls-4" x="43.59" y="188.94" width="509.57" height="1.25"/><rect class="cls-4" x="43.59" y="193.81" width="509.57" height="1.25"/><rect class="cls-4" x="43.59" y="198.67" width="509.57" height="1.25"/><rect class="cls-4" x="43.59" y="203.53" width="509.57" height="1.25"/><rect class="cls-4" x="43.59" y="208.4" width="509.57" height="1.25"/><rect class="cls-4" x="43.59" y="213.26" width="509.57" height="1.25"/><rect class="cls-4" x="43.59" y="218.13" width="509.57" height="1.25"/></g><g class="cls-3"><polygon class="cls-4" points="254.06 230.03 248.52 235.57 245.75 232.8 248.52 230.03 245.75 227.26 248.52 224.5 254.06 230.03"/><rect class="cls-5" x="243.79" y="228.08" width="3.92" height="3.92" transform="translate(-90.68 241.15) rotate(-45)"/><rect class="cls-4" x="241.02" y="225.31" width="3.92" height="3.92" transform="translate(-89.53 238.45) rotate(-45.01)"/><rect class="cls-4" x="241.02" y="230.85" width="3.92" height="3.92" transform="translate(-93.45 239.93) rotate(-44.99)"/><rect class="cls-5" x="238.25" y="228.08" width="3.92" height="3.92" transform="translate(-92.3 237.3) rotate(-45.01)"/><polygon class="cls-4" points="240.21 227.26 237.44 230.03 240.21 232.8 237.44 235.57 231.9 230.03 237.44 224.5 240.21 227.26"/><path class="cls-5" d="M231.9,232.85a2.82,2.82,0,0,0,0-5.64Z"/><path class="cls-5" d="M254.06,227.21a2.82,2.82,0,1,0,0,5.64Z"/></g><g class="cls-3"><polygon class="cls-4" points="276.21 230.03 270.68 235.57 267.91 232.8 270.68 230.03 267.91 227.26 270.68 224.5 276.21 230.03"/><rect class="cls-5" x="265.95" y="228.08" width="3.92" height="3.92" transform="translate(-84.19 256.81) rotate(-45)"/><rect class="cls-4" x="263.18" y="225.31" width="3.92" height="3.92" transform="translate(-83.04 254.12) rotate(-45.01)"/><rect class="cls-4" x="263.18" y="230.85" width="3.92" height="3.92" transform="translate(-86.97 255.59) rotate(-44.99)"/><rect class="cls-5" x="260.41" y="228.08" width="3.92" height="3.92" transform="translate(-85.81 252.97) rotate(-45.01)"/><polygon class="cls-4" points="262.37 227.26 259.6 230.03 262.37 232.8 259.6 235.57 254.06 230.03 259.6 224.5 262.37 227.26"/><path class="cls-5" d="M254.06,232.85a2.82,2.82,0,0,0,0-5.64Z"/><path class="cls-5" d="M276.21,227.21a2.82,2.82,0,1,0,0,5.64Z"/></g><g class="cls-3"><polygon class="cls-4" points="209.75 230.03 204.21 235.57 201.44 232.8 204.21 230.03 201.44 227.26 204.21 224.5 209.75 230.03"/><rect class="cls-5" x="199.48" y="228.08" width="3.92" height="3.92" transform="translate(-103.66 209.82) rotate(-45)"/><rect class="cls-4" x="196.71" y="225.31" width="3.92" height="3.92" transform="translate(-102.51 207.11) rotate(-45.01)"/><rect class="cls-4" x="196.71" y="230.85" width="3.92" height="3.92" transform="translate(-106.42 208.6) rotate(-44.99)"/><rect class="cls-5" x="193.94" y="228.08" width="3.92" height="3.92" transform="translate(-105.29 205.97) rotate(-45.01)"/><polygon class="cls-4" points="195.9 227.26 193.13 230.03 195.9 232.8 193.13 235.57 187.59 230.03 193.13 224.5 195.9 227.26"/><path class="cls-5" d="M187.59,232.85a2.82,2.82,0,0,0,0-5.64Z"/><path class="cls-5" d="M209.75,227.21a2.82,2.82,0,1,0,0,5.64Z"/></g><g class="cls-3"><polygon class="cls-4" points="231.9 230.03 226.37 235.57 223.6 232.8 226.37 230.03 223.6 227.26 226.37 224.5 231.9 230.03"/><rect class="cls-5" x="221.64" y="228.08" width="3.92" height="3.92" transform="translate(-97.17 225.48) rotate(-45)"/><rect class="cls-4" x="218.87" y="225.31" width="3.92" height="3.92" transform="translate(-96.02 222.78) rotate(-45.01)"/><rect class="cls-4" x="218.87" y="230.85" width="3.92" height="3.92" transform="translate(-99.94 224.26) rotate(-44.99)"/><rect class="cls-5" x="216.1" y="228.08" width="3.92" height="3.92" transform="translate(-98.79 221.63) rotate(-45.01)"/><polygon class="cls-4" points="218.06 227.26 215.29 230.03 218.06 232.8 215.29 235.57 209.75 230.03 215.29 224.5 218.06 227.26"/><path class="cls-5" d="M209.75,232.85a2.82,2.82,0,0,0,0-5.64Z"/><path class="cls-5" d="M231.9,227.21a2.82,2.82,0,1,0,0,5.64Z"/></g><g class="cls-3"><polygon class="cls-4" points="165.44 230.03 159.9 235.57 157.13 232.8 159.9 230.03 157.13 227.26 159.9 224.5 165.44 230.03"/><rect class="cls-5" x="155.17" y="228.08" width="3.92" height="3.92" transform="translate(-116.64 178.48) rotate(-45)"/><rect class="cls-4" x="152.4" y="225.31" width="3.92" height="3.92" transform="translate(-115.5 175.77) rotate(-45.01)"/><rect class="cls-4" x="152.4" y="230.85" width="3.92" height="3.92" transform="translate(-119.39 177.28) rotate(-44.99)"/><rect class="cls-5" x="149.63" y="228.08" width="3.92" height="3.92" transform="translate(-118.27 174.63) rotate(-45.01)"/><polygon class="cls-4" points="151.59 227.26 148.82 230.03 151.59 232.8 148.82 235.57 143.28 230.03 148.82 224.5 151.59 227.26"/><path class="cls-5" d="M143.28,232.85a2.82,2.82,0,0,0,0-5.64Z"/><path class="cls-5" d="M165.44,227.21a2.82,2.82,0,1,0,0,5.64Z"/></g><g class="cls-3"><polygon class="cls-4" points="187.59 230.03 182.05 235.57 179.29 232.8 182.06 230.03 179.29 227.26 182.05 224.5 187.59 230.03"/><rect class="cls-5" x="177.33" y="228.08" width="3.92" height="3.92" transform="translate(-110.15 194.15) rotate(-45)"/><rect class="cls-4" x="174.56" y="225.31" width="3.92" height="3.92" transform="translate(-109.01 191.44) rotate(-45.01)"/><rect class="cls-4" x="174.56" y="230.85" width="3.92" height="3.92" transform="translate(-112.91 192.94) rotate(-44.99)"/><rect class="cls-5" x="171.79" y="228.08" width="3.92" height="3.92" transform="translate(-111.78 190.3) rotate(-45.01)"/><polygon class="cls-4" points="173.75 227.26 170.98 230.03 173.75 232.8 170.98 235.57 165.44 230.03 170.98 224.5 173.75 227.26"/><path class="cls-5" d="M165.44,232.85a2.82,2.82,0,0,0,0-5.64Z"/><path class="cls-5" d="M187.59,227.21a2.82,2.82,0,1,0,0,5.64Z"/></g><g class="cls-3"><polygon class="cls-4" points="121.13 230.03 115.59 235.57 112.82 232.8 115.59 230.03 112.82 227.26 115.59 224.5 121.13 230.03"/><rect class="cls-5" x="110.86" y="228.08" width="3.92" height="3.92" transform="translate(-129.61 147.15) rotate(-45)"/><rect class="cls-4" x="108.09" y="225.31" width="3.92" height="3.92" transform="translate(-128.48 144.43) rotate(-45.01)"/><rect class="cls-4" x="108.09" y="230.85" width="3.92" height="3.92" transform="translate(-132.36 145.95) rotate(-44.99)"/><rect class="cls-5" x="105.32" y="228.08" width="3.92" height="3.92" transform="translate(-131.26 143.29) rotate(-45.01)"/><polygon class="cls-4" points="107.28 227.26 104.51 230.03 107.28 232.8 104.51 235.57 98.97 230.03 104.51 224.5 107.28 227.26"/><path class="cls-5" d="M99,232.85a2.82,2.82,0,0,0,0-5.64Z"/><path class="cls-5" d="M121.13,227.21a2.82,2.82,0,1,0,0,5.64Z"/></g><g class="cls-3"><polygon class="cls-4" points="143.28 230.03 137.74 235.57 134.97 232.8 137.75 230.03 134.97 227.26 137.74 224.5 143.28 230.03"/><rect class="cls-5" x="133.02" y="228.08" width="3.92" height="3.92" transform="translate(-123.13 162.82) rotate(-45)"/><rect class="cls-4" x="130.25" y="225.31" width="3.92" height="3.92" transform="translate(-121.99 160.1) rotate(-45.01)"/><rect class="cls-4" x="130.25" y="230.85" width="3.92" height="3.92" transform="translate(-125.88 161.61) rotate(-44.99)"/><rect class="cls-5" x="127.48" y="228.08" width="3.92" height="3.92" transform="translate(-124.76 158.96) rotate(-45.01)"/><polygon class="cls-4" points="129.44 227.26 126.67 230.03 129.44 232.8 126.67 235.57 121.13 230.03 126.67 224.5 129.44 227.26"/><path class="cls-5" d="M121.13,232.85a2.82,2.82,0,0,0,0-5.64Z"/><path class="cls-5" d="M143.28,227.21a2.82,2.82,0,1,0,0,5.64Z"/></g><g class="cls-3"><polygon class="cls-4" points="76.82 230.03 71.28 235.57 68.51 232.8 71.28 230.03 68.51 227.26 71.28 224.5 76.82 230.03"/><rect class="cls-5" x="66.55" y="228.08" width="3.92" height="3.92" transform="translate(-142.59 115.82) rotate(-45)"/><rect class="cls-4" x="63.78" y="225.31" width="3.92" height="3.92" transform="translate(-141.47 113.09) rotate(-45.01)"/><rect class="cls-4" x="63.78" y="230.85" width="3.92" height="3.92" transform="translate(-145.34 114.63) rotate(-44.99)"/><rect class="cls-5" x="61.01" y="228.08" width="3.92" height="3.92" transform="translate(-144.24 111.95) rotate(-45.01)"/><polygon class="cls-4" points="62.97 227.26 60.2 230.03 62.97 232.8 60.2 235.57 54.66 230.03 60.2 224.5 62.97 227.26"/><path class="cls-5" d="M54.66,232.85a2.82,2.82,0,0,0,0-5.64Z"/><path class="cls-5" d="M76.82,227.21a2.82,2.82,0,1,0,0,5.64Z"/></g><g class="cls-3"><polygon class="cls-4" points="98.97 230.03 93.43 235.57 90.67 232.8 93.44 230.03 90.67 227.26 93.43 224.5 98.97 230.03"/><rect class="cls-5" x="88.71" y="228.08" width="3.92" height="3.92" transform="translate(-136.1 131.49) rotate(-45)"/><rect class="cls-4" x="85.94" y="225.31" width="3.92" height="3.92" transform="translate(-134.98 128.76) rotate(-45.01)"/><rect class="cls-4" x="85.94" y="230.85" width="3.92" height="3.92" transform="translate(-138.85 130.29) rotate(-44.99)"/><rect class="cls-5" x="83.17" y="228.08" width="3.92" height="3.92" transform="translate(-137.75 127.62) rotate(-45.01)"/><polygon class="cls-4" points="85.13 227.26 82.36 230.03 85.13 232.8 82.36 235.57 76.82 230.03 82.36 224.5 85.13 227.26"/><path class="cls-5" d="M76.82,232.85a2.82,2.82,0,0,0,0-5.64Z"/><path class="cls-5" d="M99,227.21a2.82,2.82,0,1,0,0,5.64Z"/></g><g class="cls-3"><polygon class="cls-4" points="497.77 230.03 492.23 235.57 489.46 232.8 492.23 230.03 489.46 227.26 492.23 224.5 497.77 230.03"/><rect class="cls-5" x="487.5" y="228.08" width="3.92" height="3.92" transform="translate(-19.3 413.48) rotate(-45)"/><rect class="cls-4" x="484.73" y="225.31" width="3.92" height="3.92" transform="translate(-18.11 410.81) rotate(-45.01)"/><rect class="cls-4" x="484.73" y="230.85" width="3.92" height="3.92" transform="translate(-22.11 412.22) rotate(-44.99)"/><rect class="cls-5" x="481.96" y="228.08" width="3.92" height="3.92" transform="translate(-20.88 409.67) rotate(-45.01)"/><polygon class="cls-4" points="483.92 227.26 481.15 230.03 483.92 232.8 481.15 235.57 475.61 230.03 481.15 224.5 483.92 227.26"/><path class="cls-5" d="M475.61,232.85a2.82,2.82,0,0,0,0-5.64Z"/><path class="cls-5" d="M497.77,227.21a2.82,2.82,0,1,0,0,5.64Z"/></g><g class="cls-3"><polygon class="cls-4" points="519.92 230.03 514.38 235.57 511.61 232.8 514.38 230.03 511.61 227.26 514.38 224.5 519.92 230.03"/><rect class="cls-5" x="509.65" y="228.08" width="3.92" height="3.92" transform="translate(-12.81 429.14) rotate(-45)"/><rect class="cls-4" x="506.89" y="225.31" width="3.92" height="3.92" transform="translate(-11.62 426.48) rotate(-45.01)"/><rect class="cls-4" x="506.89" y="230.85" width="3.92" height="3.92" transform="translate(-15.62 427.88) rotate(-44.99)"/><rect class="cls-5" x="504.12" y="228.08" width="3.92" height="3.92" transform="translate(-14.39 425.34) rotate(-45.01)"/><polygon class="cls-4" points="506.07 227.26 503.31 230.03 506.07 232.8 503.31 235.57 497.77 230.03 503.31 224.5 506.07 227.26"/><path class="cls-5" d="M497.77,232.85a2.82,2.82,0,0,0,0-5.64Z"/><path class="cls-5" d="M519.92,227.21a2.82,2.82,0,1,0,0,5.64Z"/></g><g class="cls-3"><polygon class="cls-4" points="542.08 230.03 536.54 235.57 533.77 232.8 536.54 230.03 533.77 227.26 536.54 224.5 542.08 230.03"/><rect class="cls-5" x="531.81" y="228.08" width="3.92" height="3.92" transform="translate(-6.32 444.81) rotate(-45)"/><rect class="cls-4" x="529.04" y="225.31" width="3.92" height="3.92" transform="translate(-5.13 442.15) rotate(-45.01)"/><rect class="cls-4" x="529.04" y="230.85" width="3.92" height="3.92" transform="translate(-9.14 443.54) rotate(-44.99)"/><rect class="cls-5" x="526.27" y="228.08" width="3.92" height="3.92" transform="translate(-7.9 441.01) rotate(-45.01)"/><polygon class="cls-4" points="528.23 227.26 525.46 230.03 528.23 232.8 525.46 235.57 519.92 230.03 525.46 224.5 528.23 227.26"/><path class="cls-5" d="M519.92,232.85a2.82,2.82,0,0,0,0-5.64Z"/><path class="cls-5" d="M542.08,227.21a2.82,2.82,0,1,0,0,5.64Z"/></g><g class="cls-3"><polygon class="cls-4" points="453.45 230.03 447.92 235.57 445.15 232.8 447.92 230.03 445.15 227.26 447.92 224.5 453.45 230.03"/><rect class="cls-5" x="443.19" y="228.08" width="3.92" height="3.92" transform="translate(-32.28 382.14) rotate(-45)"/><rect class="cls-4" x="440.42" y="225.31" width="3.92" height="3.92" transform="translate(-31.1 379.48) rotate(-45.01)"/><rect class="cls-4" x="440.42" y="230.85" width="3.92" height="3.92" transform="translate(-35.08 380.89) rotate(-44.99)"/><rect class="cls-5" x="437.65" y="228.08" width="3.92" height="3.92" transform="translate(-33.87 378.33) rotate(-45.01)"/><polygon class="cls-4" points="439.61 227.26 436.84 230.03 439.61 232.8 436.84 235.57 431.3 230.03 436.84 224.5 439.61 227.26"/><path class="cls-5" d="M431.3,232.85a2.82,2.82,0,0,0,0-5.64Z"/><path class="cls-5" d="M453.46,227.21a2.82,2.82,0,1,0,0,5.64Z"/></g><g class="cls-3"><polygon class="cls-4" points="475.61 230.03 470.07 235.57 467.3 232.8 470.07 230.03 467.3 227.26 470.07 224.5 475.61 230.03"/><rect class="cls-5" x="465.34" y="228.08" width="3.92" height="3.92" transform="translate(-25.79 397.81) rotate(-45)"/><rect class="cls-4" x="462.58" y="225.31" width="3.92" height="3.92" transform="translate(-24.61 395.14) rotate(-45.01)"/><rect class="cls-4" x="462.58" y="230.85" width="3.92" height="3.92" transform="translate(-28.59 396.55) rotate(-44.99)"/><rect class="cls-5" x="459.81" y="228.08" width="3.92" height="3.92" transform="translate(-27.38 394) rotate(-45.01)"/><polygon class="cls-4" points="461.76 227.26 459 230.03 461.76 232.8 459 235.57 453.45 230.03 459 224.5 461.76 227.26"/><path class="cls-5" d="M453.46,232.85a2.82,2.82,0,0,0,0-5.64Z"/><path class="cls-5" d="M475.61,227.21a2.82,2.82,0,1,0,0,5.64Z"/></g><g class="cls-3"><polygon class="cls-4" points="409.14 230.03 403.61 235.57 400.84 232.8 403.61 230.03 400.84 227.26 403.61 224.5 409.14 230.03"/><rect class="cls-5" x="398.88" y="228.08" width="3.92" height="3.92" transform="translate(-45.26 350.81) rotate(-45)"/><rect class="cls-4" x="396.11" y="225.31" width="3.92" height="3.92" transform="translate(-44.08 348.14) rotate(-45.01)"/><rect class="cls-4" x="396.11" y="230.85" width="3.92" height="3.92" transform="translate(-48.05 349.57) rotate(-44.99)"/><rect class="cls-5" x="393.34" y="228.08" width="3.92" height="3.92" transform="translate(-46.85 346.99) rotate(-45.01)"/><polygon class="cls-4" points="395.3 227.26 392.53 230.03 395.3 232.8 392.53 235.57 386.99 230.03 392.53 224.5 395.3 227.26"/><path class="cls-5" d="M387,232.85a2.82,2.82,0,0,0,0-5.64Z"/><path class="cls-5" d="M409.15,227.21a2.82,2.82,0,1,0,0,5.64Z"/></g><g class="cls-3"><polygon class="cls-4" points="431.3 230.03 425.76 235.57 422.99 232.8 425.76 230.03 422.99 227.26 425.76 224.5 431.3 230.03"/><rect class="cls-5" x="421.03" y="228.08" width="3.92" height="3.92" transform="translate(-38.77 366.48) rotate(-45)"/><rect class="cls-4" x="418.27" y="225.31" width="3.92" height="3.92" transform="translate(-37.59 363.81) rotate(-45.01)"/><rect class="cls-4" x="418.27" y="230.85" width="3.92" height="3.92" transform="translate(-41.57 365.23) rotate(-44.99)"/><rect class="cls-5" x="415.5" y="228.08" width="3.92" height="3.92" transform="translate(-40.36 362.66) rotate(-45.01)"/><polygon class="cls-4" points="417.45 227.26 414.68 230.03 417.45 232.8 414.68 235.57 409.14 230.03 414.68 224.5 417.45 227.26"/><path class="cls-5" d="M409.15,232.85a2.82,2.82,0,0,0,0-5.64Z"/><path class="cls-5" d="M431.3,227.21a2.82,2.82,0,1,0,0,5.64Z"/></g><g class="cls-3"><polygon class="cls-4" points="364.83 230.03 359.3 235.57 356.53 232.8 359.3 230.03 356.53 227.26 359.3 224.5 364.83 230.03"/><rect class="cls-5" x="354.57" y="228.08" width="3.92" height="3.92" transform="translate(-58.23 319.48) rotate(-45)"/><rect class="cls-4" x="351.8" y="225.31" width="3.92" height="3.92" transform="translate(-57.07 316.8) rotate(-45.01)"/><rect class="cls-4" x="351.8" y="230.85" width="3.92" height="3.92" transform="translate(-61.02 318.24) rotate(-44.99)"/><rect class="cls-5" x="349.03" y="228.08" width="3.92" height="3.92" transform="translate(-59.84 315.65) rotate(-45.01)"/><polygon class="cls-4" points="350.99 227.26 348.22 230.03 350.99 232.8 348.22 235.57 342.68 230.03 348.22 224.5 350.99 227.26"/><path class="cls-5" d="M342.68,232.85a2.82,2.82,0,0,0,0-5.64Z"/><path class="cls-5" d="M364.83,227.21a2.82,2.82,0,1,0,0,5.64Z"/></g><g class="cls-3"><polygon class="cls-4" points="386.99 230.03 381.45 235.57 378.68 232.8 381.45 230.03 378.68 227.26 381.45 224.5 386.99 230.03"/><rect class="cls-5" x="376.72" y="228.08" width="3.92" height="3.92" transform="translate(-51.74 335.15) rotate(-45)"/><rect class="cls-4" x="373.95" y="225.31" width="3.92" height="3.92" transform="translate(-50.57 332.47) rotate(-45.01)"/><rect class="cls-4" x="373.95" y="230.85" width="3.92" height="3.92" transform="translate(-54.54 333.9) rotate(-44.99)"/><rect class="cls-5" x="371.19" y="228.08" width="3.92" height="3.92" transform="translate(-53.35 331.32) rotate(-45.01)"/><polygon class="cls-4" points="373.14 227.26 370.37 230.03 373.14 232.8 370.37 235.57 364.83 230.03 370.37 224.5 373.14 227.26"/><path class="cls-5" d="M364.83,232.85a2.82,2.82,0,0,0,0-5.64Z"/><path class="cls-5" d="M387,227.21a2.82,2.82,0,1,0,0,5.64Z"/></g><g class="cls-3"><polygon class="cls-4" points="320.52 230.03 314.99 235.57 312.22 232.8 314.99 230.03 312.22 227.26 314.99 224.5 320.52 230.03"/><rect class="cls-5" x="310.26" y="228.08" width="3.92" height="3.92" transform="translate(-71.21 288.15) rotate(-45)"/><rect class="cls-4" x="307.49" y="225.31" width="3.92" height="3.92" transform="translate(-70.05 285.46) rotate(-45.01)"/><rect class="cls-4" x="307.49" y="230.85" width="3.92" height="3.92" transform="translate(-73.99 286.92) rotate(-44.99)"/><rect class="cls-5" x="304.72" y="228.08" width="3.92" height="3.92" transform="translate(-72.82 284.31) rotate(-45.01)"/><polygon class="cls-4" points="306.68 227.26 303.91 230.03 306.68 232.8 303.91 235.57 298.37 230.03 303.91 224.5 306.68 227.26"/><path class="cls-5" d="M298.37,232.85a2.82,2.82,0,0,0,0-5.64Z"/><path class="cls-5" d="M320.52,227.21a2.82,2.82,0,1,0,0,5.64Z"/></g><g class="cls-3"><polygon class="cls-4" points="298.37 230.03 292.83 235.57 290.06 232.8 292.83 230.03 290.06 227.26 292.83 224.5 298.37 230.03"/><rect class="cls-5" x="288.1" y="228.08" width="3.92" height="3.92" transform="translate(-77.7 272.48) rotate(-45)"/><rect class="cls-4" x="285.33" y="225.31" width="3.92" height="3.92" transform="translate(-76.54 269.79) rotate(-45.01)"/><rect class="cls-4" x="285.33" y="230.85" width="3.92" height="3.92" transform="translate(-80.48 271.25) rotate(-44.99)"/><rect class="cls-5" x="282.57" y="228.08" width="3.92" height="3.92" transform="translate(-79.32 268.64) rotate(-45.01)"/><polygon class="cls-4" points="284.52 227.26 281.75 230.03 284.52 232.8 281.75 235.57 276.21 230.03 281.75 224.5 284.52 227.26"/><path class="cls-5" d="M276.22,232.85a2.82,2.82,0,0,0,0-5.64Z"/><path class="cls-5" d="M298.37,227.21a2.82,2.82,0,1,0,0,5.64Z"/></g><g class="cls-3"><polygon class="cls-4" points="342.68 230.03 337.14 235.57 334.37 232.8 337.14 230.03 334.37 227.26 337.14 224.5 342.68 230.03"/><rect class="cls-5" x="332.41" y="228.08" width="3.92" height="3.92" transform="translate(-64.72 303.81) rotate(-45)"/><rect class="cls-4" x="329.64" y="225.31" width="3.92" height="3.92" transform="translate(-63.56 301.13) rotate(-45.01)"/><rect class="cls-4" x="329.64" y="230.85" width="3.92" height="3.92" transform="translate(-67.51 302.58) rotate(-44.99)"/><rect class="cls-5" x="326.88" y="228.08" width="3.92" height="3.92" transform="translate(-66.33 299.98) rotate(-45.01)"/><polygon class="cls-4" points="328.83 227.26 326.06 230.03 328.83 232.8 326.06 235.57 320.52 230.03 326.06 224.5 328.83 227.26"/><path class="cls-5" d="M320.52,232.85a2.82,2.82,0,0,0,0-5.64Z"/><path class="cls-5" d="M342.68,227.21a2.82,2.82,0,1,0,0,5.64Z"/></g><g class="cls-3"><polygon class="cls-4" points="564.23 207.9 569.77 213.44 567 216.21 564.23 213.44 561.46 216.21 558.69 213.44 564.23 207.9"/><rect class="cls-5" x="562.27" y="214.25" width="3.92" height="3.92" transform="translate(12.38 462.31) rotate(-45)"/><rect class="cls-4" x="559.5" y="217.02" width="3.92" height="3.92" transform="translate(9.66 461.26) rotate(-45.01)"/><rect class="cls-4" x="565.04" y="217.02" width="3.92" height="3.92" transform="translate(11.17 464.93) rotate(-44.99)"/><rect class="cls-5" x="562.27" y="219.79" width="3.92" height="3.92" transform="translate(8.52 464.05) rotate(-45.01)"/><polygon class="cls-4" points="561.46 221.75 564.23 224.51 567 221.75 569.77 224.51 564.23 230.05 558.69 224.51 561.46 221.75"/><path class="cls-5" d="M567.05,230.05a2.82,2.82,0,0,0-5.64,0Z"/><path class="cls-5" d="M561.41,207.9a2.82,2.82,0,1,0,5.64,0Z"/></g><g class="cls-3"><polygon class="cls-4" points="542.08 230.05 547.62 224.51 550.38 227.28 547.61 230.05 550.38 232.82 547.62 235.59 542.08 230.05"/><rect class="cls-5" x="548.43" y="228.1" width="3.92" height="3.92" transform="translate(-1.46 456.57) rotate(-45)"/><rect class="cls-4" x="551.19" y="230.87" width="3.92" height="3.92" transform="translate(-2.57 459.44) rotate(-45.01)"/><rect class="cls-4" x="551.19" y="225.33" width="3.92" height="3.92" transform="translate(1.26 457.6) rotate(-44.99)"/><rect class="cls-5" x="553.96" y="228.1" width="3.92" height="3.92" transform="translate(0.21 460.61) rotate(-45.01)"/><polygon class="cls-4" points="555.92 232.82 558.69 230.05 555.92 227.28 558.69 224.51 564.23 230.05 558.69 235.59 555.92 232.82"/><path class="cls-5" d="M564.23,227.23a2.82,2.82,0,0,0,0,5.64Z"/><path class="cls-5" d="M542.08,232.87a2.82,2.82,0,1,0,0-5.64Z"/><path class="cls-5" d="M564.23,232.87a2.82,2.82,0,0,0,0-5.64Z"/></g><g class="cls-3"><polygon class="cls-4" points="32.51 207.9 26.97 213.44 29.74 216.21 32.51 213.44 35.28 216.21 38.05 213.44 32.51 207.9"/><rect class="cls-5" x="30.55" y="214.25" width="3.92" height="3.92" transform="translate(-143.36 86.31) rotate(-45)"/><rect class="cls-4" x="33.32" y="217.02" width="3.92" height="3.92" transform="translate(-144.48 89.05) rotate(-44.99)"/><rect class="cls-4" x="27.78" y="217.02" width="3.92" height="3.92" transform="translate(-146.16 85.21) rotate(-45.01)"/><rect class="cls-5" x="30.55" y="219.79" width="3.92" height="3.92" transform="translate(-147.25 87.89) rotate(-44.99)"/><polygon class="cls-4" points="35.28 221.75 32.51 224.52 29.74 221.75 26.97 224.52 32.51 230.06 38.05 224.52 35.28 221.75"/><path class="cls-5" d="M29.69,230.06a2.82,2.82,0,0,1,5.64,0Z"/><path class="cls-5" d="M35.33,207.9a2.82,2.82,0,1,1-5.64,0Z"/></g><g class="cls-3"><polygon class="cls-4" points="54.66 230.06 49.13 224.52 46.36 227.29 49.13 230.06 46.36 232.83 49.13 235.59 54.66 230.06"/><rect class="cls-5" x="44.4" y="228.1" width="3.92" height="3.92" transform="translate(-149.09 100.16) rotate(-45)"/><rect class="cls-4" x="41.63" y="230.87" width="3.92" height="3.92" transform="translate(-151.84 98.98) rotate(-44.99)"/><rect class="cls-4" x="41.63" y="225.33" width="3.92" height="3.92" transform="translate(-147.97 97.43) rotate(-45.01)"/><rect class="cls-5" x="38.86" y="228.1" width="3.92" height="3.92" transform="translate(-150.69 96.2) rotate(-44.99)"/><polygon class="cls-4" points="40.82 232.82 38.05 230.06 40.82 227.29 38.05 224.52 32.51 230.06 38.05 235.59 40.82 232.82"/><path class="cls-5" d="M32.51,227.24a2.82,2.82,0,0,1,0,5.64Z"/><path class="cls-5" d="M54.66,232.88a2.82,2.82,0,1,1,0-5.64Z"/><path class="cls-5" d="M32.51,232.88a2.82,2.82,0,0,1,0-5.64Z"/></g><g class="cls-3"><polygon class="cls-4" points="32.53 185.53 26.99 179.99 29.76 177.23 32.53 180 35.3 177.23 38.07 179.99 32.53 185.53"/><rect class="cls-5" x="30.57" y="175.27" width="3.92" height="3.92" transform="translate(-115.79 74.91) rotate(-45)"/><rect class="cls-4" x="33.34" y="172.5" width="3.92" height="3.92" transform="translate(-113.04 76.09) rotate(-45.01)"/><rect class="cls-4" x="27.8" y="172.5" width="3.92" height="3.92" transform="translate(-114.62 72.11) rotate(-44.99)"/><rect class="cls-5" x="30.57" y="169.73" width="3.92" height="3.92" transform="translate(-111.89 73.32) rotate(-45.01)"/><polygon class="cls-4" points="35.3 171.69 32.53 168.92 29.76 171.69 26.99 168.92 32.53 163.38 38.07 168.92 35.3 171.69"/><path class="cls-5" d="M29.71,163.38a2.82,2.82,0,0,0,5.64,0Z"/><path class="cls-5" d="M35.35,185.53a2.82,2.82,0,1,0-5.64,0Z"/></g><g class="cls-3"><polygon class="cls-4" points="32.53 207.69 26.99 202.15 29.76 199.38 32.53 202.15 35.3 199.38 38.07 202.15 32.53 207.69"/><rect class="cls-5" x="30.57" y="197.42" width="3.92" height="3.92" transform="translate(-131.46 81.4) rotate(-45)"/><rect class="cls-4" x="33.34" y="194.65" width="3.92" height="3.92" transform="translate(-128.71 82.58) rotate(-45.01)"/><rect class="cls-4" x="27.8" y="194.65" width="3.92" height="3.92" transform="translate(-130.28 78.6) rotate(-44.99)"/><rect class="cls-5" x="30.57" y="191.88" width="3.92" height="3.92" transform="translate(-127.56 79.81) rotate(-45.01)"/><polygon class="cls-4" points="35.3 193.84 32.53 191.07 29.76 193.84 26.99 191.07 32.53 185.53 38.07 191.07 35.3 193.84"/><path class="cls-5" d="M29.71,185.53a2.82,2.82,0,0,0,5.64,0Z"/><path class="cls-5" d="M35.35,207.69a2.82,2.82,0,1,0-5.64,0Z"/></g><g class="cls-3"><polygon class="cls-4" points="32.53 141.22 26.99 135.68 29.76 132.91 32.53 135.69 35.3 132.91 38.07 135.68 32.53 141.22"/><rect class="cls-5" x="30.57" y="130.96" width="3.92" height="3.92" transform="translate(-84.46 61.93) rotate(-45)"/><rect class="cls-4" x="33.34" y="128.19" width="3.92" height="3.92" transform="translate(-81.7 63.11) rotate(-45.01)"/><rect class="cls-4" x="27.8" y="128.19" width="3.92" height="3.92" transform="translate(-83.29 59.14) rotate(-44.99)"/><rect class="cls-5" x="30.57" y="125.42" width="3.92" height="3.92" transform="translate(-80.56 60.34) rotate(-45.01)"/><polygon class="cls-4" points="35.3 127.38 32.53 124.61 29.76 127.38 26.99 124.61 32.53 119.07 38.07 124.61 35.3 127.38"/><path class="cls-5" d="M29.71,119.07a2.82,2.82,0,0,0,5.64,0Z"/><path class="cls-5" d="M35.35,141.22a2.82,2.82,0,1,0-5.64,0Z"/></g><g class="cls-3"><polygon class="cls-4" points="32.53 163.38 26.99 157.84 29.76 155.07 32.53 157.84 35.3 155.07 38.07 157.84 32.53 163.38"/><rect class="cls-5" x="30.57" y="153.11" width="3.92" height="3.92" transform="translate(-100.12 68.42) rotate(-45)"/><rect class="cls-4" x="33.34" y="150.34" width="3.92" height="3.92" transform="translate(-97.37 69.6) rotate(-45.01)"/><rect class="cls-4" x="27.8" y="150.34" width="3.92" height="3.92" transform="translate(-98.96 65.63) rotate(-44.99)"/><rect class="cls-5" x="30.57" y="147.57" width="3.92" height="3.92" transform="translate(-96.23 66.83) rotate(-45.01)"/><polygon class="cls-4" points="35.3 149.53 32.53 146.76 29.76 149.53 26.99 146.76 32.53 141.22 38.07 146.76 35.3 149.53"/><path class="cls-5" d="M29.71,141.22a2.82,2.82,0,0,0,5.64,0Z"/><path class="cls-5" d="M35.35,163.38a2.82,2.82,0,1,0-5.64,0Z"/></g><g class="cls-3"><polygon class="cls-4" points="32.53 96.91 26.99 91.37 29.76 88.61 32.53 91.38 35.3 88.61 38.07 91.37 32.53 96.91"/><rect class="cls-5" x="30.57" y="86.65" width="3.92" height="3.92" transform="translate(-53.13 48.96) rotate(-45)"/><rect class="cls-4" x="33.34" y="83.88" width="3.92" height="3.92" transform="translate(-50.36 50.12) rotate(-45.01)"/><rect class="cls-4" x="27.8" y="83.88" width="3.92" height="3.92" transform="translate(-51.97 46.17) rotate(-44.99)"/><rect class="cls-5" x="30.57" y="81.11" width="3.92" height="3.92" transform="translate(-49.22 47.35) rotate(-45.01)"/><polygon class="cls-4" points="35.3 83.07 32.53 80.3 29.76 83.07 26.99 80.3 32.53 74.76 38.07 80.3 35.3 83.07"/><path class="cls-5" d="M29.71,74.76a2.82,2.82,0,0,0,5.64,0Z"/><path class="cls-5" d="M35.35,96.91a2.82,2.82,0,1,0-5.64,0Z"/></g><g class="cls-3"><polygon class="cls-4" points="32.53 119.07 26.99 113.53 29.76 110.76 32.53 113.53 35.3 110.76 38.07 113.53 32.53 119.07"/><rect class="cls-5" x="30.57" y="108.8" width="3.92" height="3.92" transform="translate(-68.79 55.44) rotate(-45)"/><rect class="cls-4" x="33.34" y="106.03" width="3.92" height="3.92" transform="translate(-66.03 56.61) rotate(-45.01)"/><rect class="cls-4" x="27.8" y="106.03" width="3.92" height="3.92" transform="translate(-67.63 52.65) rotate(-44.99)"/><rect class="cls-5" x="30.57" y="103.26" width="3.92" height="3.92" transform="translate(-64.89 53.84) rotate(-45.01)"/><polygon class="cls-4" points="35.3 105.22 32.53 102.45 29.76 105.22 26.99 102.45 32.53 96.91 38.07 102.45 35.3 105.22"/><path class="cls-5" d="M29.71,96.91a2.82,2.82,0,0,0,5.64,0Z"/><path class="cls-5" d="M35.35,119.07a2.82,2.82,0,1,0-5.64,0Z"/></g><g class="cls-3"><polygon class="cls-4" points="32.53 52.6 26.99 47.06 29.76 44.3 32.53 47.06 35.3 44.3 38.07 47.06 32.53 52.6"/><rect class="cls-5" x="30.57" y="42.34" width="3.92" height="3.92" transform="translate(-21.79 35.98) rotate(-45)"/><rect class="cls-4" x="33.34" y="39.57" width="3.92" height="3.92" transform="translate(-19.02 37.14) rotate(-45.01)"/><rect class="cls-4" x="27.8" y="39.57" width="3.92" height="3.92" transform="translate(-20.64 33.2) rotate(-44.99)"/><rect class="cls-5" x="30.57" y="36.8" width="3.92" height="3.92" transform="translate(-17.88 34.37) rotate(-45.01)"/><polygon class="cls-4" points="35.3 38.76 32.53 35.99 29.76 38.76 26.99 35.99 32.53 30.45 38.07 35.99 35.3 38.76"/><path class="cls-5" d="M29.71,30.45a2.82,2.82,0,0,0,5.64,0Z"/><path class="cls-5" d="M35.35,52.6a2.82,2.82,0,1,0-5.64,0Z"/></g><g class="cls-3"><polygon class="cls-4" points="32.53 74.76 26.99 69.22 29.76 66.45 32.53 69.22 35.3 66.45 38.07 69.22 32.53 74.76"/><rect class="cls-5" x="30.57" y="64.49" width="3.92" height="3.92" transform="translate(-37.46 42.47) rotate(-45)"/><rect class="cls-4" x="33.34" y="61.72" width="3.92" height="3.92" transform="translate(-34.69 43.63) rotate(-45.01)"/><rect class="cls-4" x="27.8" y="61.72" width="3.92" height="3.92" transform="translate(-36.31 39.68) rotate(-44.99)"/><rect class="cls-5" x="30.57" y="58.95" width="3.92" height="3.92" transform="translate(-33.55 40.86) rotate(-45.01)"/><polygon class="cls-4" points="35.3 60.91 32.53 58.14 29.76 60.91 26.99 58.14 32.53 52.6 38.07 58.14 35.3 60.91"/><path class="cls-5" d="M29.71,52.6a2.82,2.82,0,0,0,5.64,0Z"/><path class="cls-5" d="M35.35,74.76a2.82,2.82,0,1,0-5.64,0Z"/></g><g class="cls-3"><polygon class="cls-4" points="54.66 8.29 49.13 2.75 46.36 5.52 49.13 8.29 46.36 11.06 49.13 13.83 54.66 8.29"/><rect class="cls-5" x="44.4" y="6.34" width="3.92" height="3.92" transform="translate(7.71 35.21) rotate(-45)"/><rect class="cls-4" x="41.63" y="9.1" width="3.92" height="3.92" transform="translate(4.94 34.05) rotate(-44.99)"/><rect class="cls-4" x="41.63" y="3.57" width="3.92" height="3.92" transform="translate(8.87 32.45) rotate(-45.01)"/><rect class="cls-5" x="38.86" y="6.34" width="3.92" height="3.92" transform="translate(6.09 31.28) rotate(-44.99)"/><polygon class="cls-4" points="40.82 11.06 38.05 8.29 40.82 5.52 38.05 2.75 32.51 8.29 38.05 13.83 40.82 11.06"/><path class="cls-5" d="M32.51,5.47a2.82,2.82,0,0,1,0,5.64Z"/><path class="cls-5" d="M54.67,11.11a2.82,2.82,0,1,1,0-5.64Z"/></g><g class="cls-3"><polygon class="cls-4" points="32.51 30.45 38.05 24.91 35.28 22.14 32.51 24.91 29.74 22.14 26.97 24.91 32.51 30.45"/><rect class="cls-5" x="30.55" y="20.18" width="3.92" height="3.92" transform="translate(-6.13 29.47) rotate(-45)"/><rect class="cls-4" x="27.78" y="17.41" width="3.92" height="3.92" transform="translate(-4.99 26.7) rotate(-44.99)"/><rect class="cls-4" x="33.32" y="17.41" width="3.92" height="3.92" transform="translate(-3.36 30.63) rotate(-45.01)"/><rect class="cls-5" x="30.55" y="14.64" width="3.92" height="3.92" transform="translate(-2.22 27.84) rotate(-44.99)"/><polygon class="cls-4" points="29.74 16.6 32.51 13.83 35.28 16.6 38.05 13.83 32.51 8.29 26.97 13.83 29.74 16.6"/><path class="cls-5" d="M35.33,8.29a2.82,2.82,0,0,1-5.64,0Z"/><path class="cls-5" d="M29.69,30.45a2.82,2.82,0,1,1,5.64,0Z"/><path class="cls-5" d="M29.69,8.29a2.82,2.82,0,0,1,5.64,0Z"/></g><g class="cls-3"><polygon class="cls-4" points="342.75 8.09 348.29 2.55 351.06 5.32 348.29 8.09 351.06 10.86 348.29 13.63 342.75 8.09"/><rect class="cls-5" x="349.1" y="6.13" width="3.92" height="3.92" transform="translate(97.1 250.6) rotate(-45)"/><rect class="cls-4" x="351.87" y="8.9" width="3.92" height="3.92" transform="translate(96.01 253.43) rotate(-45.01)"/><rect class="cls-4" x="351.87" y="3.36" width="3.92" height="3.92" transform="translate(99.82 251.7) rotate(-44.99)"/><rect class="cls-5" x="354.64" y="6.13" width="3.92" height="3.92" transform="translate(98.78 254.58) rotate(-45.01)"/><polygon class="cls-4" points="356.6 10.86 359.37 8.09 356.6 5.32 359.37 2.55 364.9 8.09 359.37 13.63 356.6 10.86"/><path class="cls-5" d="M364.9,5.27a2.82,2.82,0,0,0,0,5.64Z"/><path class="cls-5" d="M342.75,10.91a2.82,2.82,0,1,0,0-5.64Z"/></g><g class="cls-3"><polygon class="cls-4" points="320.59 8.09 326.13 2.55 328.9 5.32 326.13 8.09 328.9 10.86 326.13 13.63 320.59 8.09"/><rect class="cls-5" x="326.94" y="6.13" width="3.92" height="3.92" transform="translate(90.62 234.94) rotate(-45)"/><rect class="cls-4" x="329.71" y="8.9" width="3.92" height="3.92" transform="translate(89.52 237.76) rotate(-45.01)"/><rect class="cls-4" x="329.71" y="3.36" width="3.92" height="3.92" transform="translate(93.33 236.03) rotate(-44.99)"/><rect class="cls-5" x="332.48" y="6.13" width="3.92" height="3.92" transform="translate(92.29 238.91) rotate(-45.01)"/><polygon class="cls-4" points="334.44 10.86 337.21 8.09 334.44 5.32 337.21 2.55 342.75 8.09 337.21 13.63 334.44 10.86"/><path class="cls-5" d="M342.75,5.27a2.82,2.82,0,0,0,0,5.64Z"/><path class="cls-5" d="M320.59,10.91a2.82,2.82,0,1,0,0-5.64Z"/></g><g class="cls-3"><polygon class="cls-4" points="387.06 8.09 392.6 2.55 395.37 5.32 392.6 8.09 395.37 10.86 392.6 13.63 387.06 8.09"/><rect class="cls-5" x="393.41" y="6.13" width="3.92" height="3.92" transform="translate(110.08 281.94) rotate(-45)"/><rect class="cls-4" x="396.18" y="8.9" width="3.92" height="3.92" transform="translate(108.99 284.77) rotate(-45.01)"/><rect class="cls-4" x="396.18" y="3.36" width="3.92" height="3.92" transform="translate(112.79 283.02) rotate(-44.99)"/><rect class="cls-5" x="398.95" y="6.13" width="3.92" height="3.92" transform="translate(111.76 285.92) rotate(-45.01)"/><polygon class="cls-4" points="400.91 10.86 403.68 8.09 400.91 5.32 403.68 2.55 409.21 8.09 403.68 13.63 400.91 10.86"/><path class="cls-5" d="M409.21,5.27a2.82,2.82,0,0,0,0,5.64Z"/><path class="cls-5" d="M387.06,10.91a2.82,2.82,0,1,0,0-5.64Z"/></g><g class="cls-3"><polygon class="cls-4" points="364.9 8.09 370.44 2.55 373.21 5.32 370.44 8.09 373.21 10.86 370.44 13.63 364.9 8.09"/><rect class="cls-5" x="371.25" y="6.13" width="3.92" height="3.92" transform="translate(103.59 266.27) rotate(-45)"/><rect class="cls-4" x="374.02" y="8.9" width="3.92" height="3.92" transform="translate(102.5 269.1) rotate(-45.01)"/><rect class="cls-4" x="374.02" y="3.36" width="3.92" height="3.92" transform="translate(106.31 267.36) rotate(-44.99)"/><rect class="cls-5" x="376.79" y="6.13" width="3.92" height="3.92" transform="translate(105.27 270.25) rotate(-45.01)"/><polygon class="cls-4" points="378.75 10.86 381.52 8.09 378.75 5.32 381.52 2.55 387.06 8.09 381.52 13.63 378.75 10.86"/><path class="cls-5" d="M387.06,5.27a2.82,2.82,0,0,0,0,5.64Z"/><path class="cls-5" d="M364.9,10.91a2.82,2.82,0,1,0,0-5.64Z"/></g><g class="cls-3"><polygon class="cls-4" points="431.37 8.09 436.91 2.55 439.68 5.32 436.91 8.09 439.68 10.86 436.91 13.63 431.37 8.09"/><rect class="cls-5" x="437.72" y="6.13" width="3.92" height="3.92" transform="translate(123.06 313.27) rotate(-45)"/><rect class="cls-4" x="440.49" y="8.9" width="3.92" height="3.92" transform="translate(121.98 316.11) rotate(-45.01)"/><rect class="cls-4" x="440.49" y="3.36" width="3.92" height="3.92" transform="translate(125.76 314.35) rotate(-44.99)"/><rect class="cls-5" x="443.26" y="6.13" width="3.92" height="3.92" transform="translate(124.75 317.25) rotate(-45.01)"/><polygon class="cls-4" points="445.22 10.86 447.99 8.09 445.22 5.32 447.99 2.55 453.52 8.09 447.99 13.63 445.22 10.86"/><path class="cls-5" d="M453.53,5.27a2.82,2.82,0,0,0,0,5.64Z"/><path class="cls-5" d="M431.37,10.91a2.82,2.82,0,1,0,0-5.64Z"/></g><g class="cls-3"><polygon class="cls-4" points="409.21 8.09 414.75 2.55 417.52 5.32 414.75 8.09 417.52 10.86 414.75 13.63 409.21 8.09"/><rect class="cls-5" x="415.56" y="6.13" width="3.92" height="3.92" transform="translate(116.57 297.6) rotate(-45)"/><rect class="cls-4" x="418.33" y="8.9" width="3.92" height="3.92" transform="translate(115.49 300.44) rotate(-45.01)"/><rect class="cls-4" x="418.33" y="3.36" width="3.92" height="3.92" transform="translate(119.28 298.68) rotate(-44.99)"/><rect class="cls-5" x="421.1" y="6.13" width="3.92" height="3.92" transform="translate(118.26 301.58) rotate(-45.01)"/><polygon class="cls-4" points="423.06 10.86 425.83 8.09 423.06 5.32 425.83 2.55 431.37 8.09 425.83 13.63 423.06 10.86"/><path class="cls-5" d="M431.37,5.27a2.82,2.82,0,0,0,0,5.64Z"/><path class="cls-5" d="M409.21,10.91a2.82,2.82,0,1,0,0-5.64Z"/></g><g class="cls-3"><polygon class="cls-4" points="475.68 8.09 481.22 2.55 483.99 5.32 481.22 8.09 483.99 10.86 481.22 13.63 475.68 8.09"/><rect class="cls-5" x="482.03" y="6.13" width="3.92" height="3.92" transform="translate(136.04 344.6) rotate(-45)"/><rect class="cls-4" x="484.8" y="8.9" width="3.92" height="3.92" transform="translate(134.96 347.45) rotate(-45.01)"/><rect class="cls-4" x="484.8" y="3.36" width="3.92" height="3.92" transform="translate(138.73 345.67) rotate(-44.99)"/><rect class="cls-5" x="487.57" y="6.13" width="3.92" height="3.92" transform="translate(137.74 348.59) rotate(-45.01)"/><polygon class="cls-4" points="489.53 10.86 492.3 8.09 489.53 5.32 492.3 2.55 497.84 8.09 492.3 13.63 489.53 10.86"/><path class="cls-5" d="M497.84,5.27a2.82,2.82,0,0,0,0,5.64Z"/><path class="cls-5" d="M475.68,10.91a2.82,2.82,0,1,0,0-5.64Z"/></g><g class="cls-3"><polygon class="cls-4" points="453.52 8.09 459.06 2.55 461.83 5.32 459.06 8.09 461.83 10.86 459.06 13.63 453.52 8.09"/><rect class="cls-5" x="459.87" y="6.13" width="3.92" height="3.92" transform="translate(129.55 328.93) rotate(-45)"/><rect class="cls-4" x="462.64" y="8.9" width="3.92" height="3.92" transform="translate(128.47 331.78) rotate(-45.01)"/><rect class="cls-4" x="462.64" y="3.36" width="3.92" height="3.92" transform="translate(132.25 330.01) rotate(-44.99)"/><rect class="cls-5" x="465.41" y="6.13" width="3.92" height="3.92" transform="translate(131.24 332.92) rotate(-45.01)"/><polygon class="cls-4" points="467.37 10.86 470.14 8.09 467.37 5.32 470.14 2.55 475.68 8.09 470.14 13.63 467.37 10.86"/><path class="cls-5" d="M475.68,5.27a2.82,2.82,0,0,0,0,5.64Z"/><path class="cls-5" d="M453.53,10.91a2.82,2.82,0,1,0,0-5.64Z"/></g><g class="cls-3"><polygon class="cls-4" points="519.99 8.09 525.53 2.55 528.3 5.32 525.53 8.09 528.3 10.86 525.53 13.63 519.99 8.09"/><rect class="cls-5" x="526.34" y="6.13" width="3.92" height="3.92" transform="translate(149.02 375.93) rotate(-45)"/><rect class="cls-4" x="529.11" y="8.9" width="3.92" height="3.92" transform="translate(147.95 378.78) rotate(-45.01)"/><rect class="cls-4" x="529.11" y="3.36" width="3.92" height="3.92" transform="translate(151.71 377) rotate(-44.99)"/><rect class="cls-5" x="531.88" y="6.13" width="3.92" height="3.92" transform="translate(150.72 379.93) rotate(-45.01)"/><polygon class="cls-4" points="533.84 10.86 536.61 8.09 533.84 5.32 536.61 2.55 542.15 8.09 536.61 13.63 533.84 10.86"/><path class="cls-5" d="M542.15,5.27a2.82,2.82,0,0,0,0,5.64Z"/><path class="cls-5" d="M520,10.91a2.82,2.82,0,1,0,0-5.64Z"/></g><g class="cls-3"><polygon class="cls-4" points="497.84 8.09 503.38 2.55 506.14 5.32 503.37 8.09 506.14 10.86 503.38 13.63 497.84 8.09"/><rect class="cls-5" x="504.18" y="6.13" width="3.92" height="3.92" transform="translate(142.53 360.27) rotate(-45)"/><rect class="cls-4" x="506.95" y="8.9" width="3.92" height="3.92" transform="translate(141.46 363.11) rotate(-45.01)"/><rect class="cls-4" x="506.95" y="3.36" width="3.92" height="3.92" transform="translate(145.22 361.33) rotate(-44.99)"/><rect class="cls-5" x="509.72" y="6.13" width="3.92" height="3.92" transform="translate(144.23 364.26) rotate(-45.01)"/><polygon class="cls-4" points="511.68 10.86 514.45 8.09 511.68 5.32 514.45 2.55 519.99 8.09 514.45 13.63 511.68 10.86"/><path class="cls-5" d="M520,5.27a2.82,2.82,0,0,0,0,5.64Z"/><path class="cls-5" d="M497.84,10.91a2.82,2.82,0,1,0,0-5.64Z"/></g><g class="cls-3"><polygon class="cls-4" points="99.04 8.09 104.58 2.55 107.35 5.32 104.58 8.09 107.35 10.86 104.58 13.63 99.04 8.09"/><rect class="cls-5" x="105.39" y="6.13" width="3.92" height="3.92" transform="translate(25.72 78.28) rotate(-45)"/><rect class="cls-4" x="108.16" y="8.9" width="3.92" height="3.92" transform="translate(24.59 81.06) rotate(-45.01)"/><rect class="cls-4" x="108.16" y="3.36" width="3.92" height="3.92" transform="translate(28.48 79.41) rotate(-44.99)"/><rect class="cls-5" x="110.93" y="6.13" width="3.92" height="3.92" transform="translate(27.36 82.21) rotate(-45.01)"/><polygon class="cls-4" points="112.89 10.86 115.66 8.09 112.89 5.32 115.66 2.55 121.2 8.09 115.66 13.63 112.89 10.86"/><path class="cls-5" d="M121.2,5.27a2.82,2.82,0,0,0,0,5.64Z"/><path class="cls-5" d="M99,10.91a2.82,2.82,0,1,0,0-5.64Z"/></g><g class="cls-3"><polygon class="cls-4" points="76.89 8.09 82.43 2.55 85.19 5.32 82.42 8.09 85.19 10.86 82.43 13.63 76.89 8.09"/><rect class="cls-5" x="83.24" y="6.13" width="3.92" height="3.92" transform="translate(19.23 62.61) rotate(-45)"/><rect class="cls-4" x="86.01" y="8.9" width="3.92" height="3.92" transform="translate(18.1 65.4) rotate(-45.01)"/><rect class="cls-4" x="86.01" y="3.36" width="3.92" height="3.92" transform="translate(21.99 63.74) rotate(-44.99)"/><rect class="cls-5" x="88.78" y="6.13" width="3.92" height="3.92" transform="translate(20.87 66.54) rotate(-45.01)"/><polygon class="cls-4" points="90.73 10.86 93.5 8.09 90.73 5.32 93.5 2.55 99.04 8.09 93.5 13.63 90.73 10.86"/><path class="cls-5" d="M99,5.27a2.82,2.82,0,0,0,0,5.64Z"/><path class="cls-5" d="M76.89,10.91a2.82,2.82,0,1,0,0-5.64Z"/></g><g class="cls-3"><polygon class="cls-4" points="54.73 8.09 60.27 2.55 63.04 5.32 60.27 8.09 63.04 10.86 60.27 13.63 54.73 8.09"/><rect class="cls-5" x="61.08" y="6.13" width="3.92" height="3.92" transform="translate(12.75 46.94) rotate(-45)"/><rect class="cls-4" x="63.85" y="8.9" width="3.92" height="3.92" transform="translate(11.61 49.73) rotate(-45.01)"/><rect class="cls-4" x="63.85" y="3.36" width="3.92" height="3.92" transform="translate(15.51 48.08) rotate(-44.99)"/><rect class="cls-5" x="66.62" y="6.13" width="3.92" height="3.92" transform="translate(14.38 50.87) rotate(-45.01)"/><polygon class="cls-4" points="68.58 10.86 71.35 8.09 68.58 5.32 71.35 2.55 76.89 8.09 71.35 13.63 68.58 10.86"/><path class="cls-5" d="M76.89,5.27a2.82,2.82,0,0,0,0,5.64Z"/><path class="cls-5" d="M54.73,10.91a2.82,2.82,0,1,0,0-5.64Z"/></g><g class="cls-3"><polygon class="cls-4" points="143.35 8.09 148.89 2.55 151.66 5.32 148.89 8.09 151.66 10.86 148.89 13.63 143.35 8.09"/><rect class="cls-5" x="149.7" y="6.13" width="3.92" height="3.92" transform="translate(38.7 109.61) rotate(-45)"/><rect class="cls-4" x="152.47" y="8.9" width="3.92" height="3.92" transform="translate(37.58 112.4) rotate(-45.01)"/><rect class="cls-4" x="152.47" y="3.36" width="3.92" height="3.92" transform="translate(41.45 110.73) rotate(-44.99)"/><rect class="cls-5" x="155.24" y="6.13" width="3.92" height="3.92" transform="translate(40.35 113.55) rotate(-45.01)"/><polygon class="cls-4" points="157.2 10.86 159.97 8.09 157.2 5.32 159.97 2.55 165.51 8.09 159.97 13.63 157.2 10.86"/><path class="cls-5" d="M165.51,5.27a2.82,2.82,0,0,0,0,5.64Z"/><path class="cls-5" d="M143.35,10.91a2.82,2.82,0,1,0,0-5.64Z"/></g><g class="cls-3"><polygon class="cls-4" points="121.2 8.09 126.74 2.55 129.51 5.32 126.74 8.09 129.51 10.86 126.74 13.63 121.2 8.09"/><rect class="cls-5" x="127.55" y="6.13" width="3.92" height="3.92" transform="translate(32.21 93.94) rotate(-45)"/><rect class="cls-4" x="130.32" y="8.9" width="3.92" height="3.92" transform="translate(31.08 96.73) rotate(-45.01)"/><rect class="cls-4" x="130.32" y="3.36" width="3.92" height="3.92" transform="translate(34.96 95.07) rotate(-44.99)"/><rect class="cls-5" x="133.09" y="6.13" width="3.92" height="3.92" transform="translate(33.85 97.88) rotate(-45.01)"/><polygon class="cls-4" points="135.04 10.86 137.81 8.09 135.04 5.32 137.81 2.55 143.35 8.09 137.81 13.63 135.04 10.86"/><path class="cls-5" d="M143.35,5.27a2.82,2.82,0,0,0,0,5.64Z"/><path class="cls-5" d="M121.2,10.91a2.82,2.82,0,1,0,0-5.64Z"/></g><g class="cls-3"><polygon class="cls-4" points="187.66 8.09 193.2 2.55 195.97 5.32 193.2 8.09 195.97 10.86 193.2 13.63 187.66 8.09"/><rect class="cls-5" x="194.01" y="6.13" width="3.92" height="3.92" transform="translate(51.68 140.94) rotate(-45)"/><rect class="cls-4" x="196.78" y="8.9" width="3.92" height="3.92" transform="translate(50.56 143.74) rotate(-45.01)"/><rect class="cls-4" x="196.78" y="3.36" width="3.92" height="3.92" transform="translate(54.42 142.06) rotate(-44.99)"/><rect class="cls-5" x="199.55" y="6.13" width="3.92" height="3.92" transform="translate(53.33 144.89) rotate(-45.01)"/><polygon class="cls-4" points="201.51 10.86 204.28 8.09 201.51 5.32 204.28 2.55 209.82 8.09 204.28 13.63 201.51 10.86"/><path class="cls-5" d="M209.82,5.27a2.82,2.82,0,0,0,0,5.64Z"/><path class="cls-5" d="M187.66,10.91a2.82,2.82,0,1,0,0-5.64Z"/></g><g class="cls-3"><polygon class="cls-4" points="165.51 8.09 171.05 2.55 173.82 5.32 171.05 8.09 173.82 10.86 171.05 13.63 165.51 8.09"/><rect class="cls-5" x="171.86" y="6.13" width="3.92" height="3.92" transform="translate(45.19 125.28) rotate(-45)"/><rect class="cls-4" x="174.63" y="8.9" width="3.92" height="3.92" transform="translate(44.07 128.07) rotate(-45.01)"/><rect class="cls-4" x="174.63" y="3.36" width="3.92" height="3.92" transform="translate(47.93 126.39) rotate(-44.99)"/><rect class="cls-5" x="177.4" y="6.13" width="3.92" height="3.92" transform="translate(46.84 129.22) rotate(-45.01)"/><polygon class="cls-4" points="179.35 10.86 182.12 8.09 179.35 5.32 182.12 2.55 187.66 8.09 182.12 13.63 179.35 10.86"/><path class="cls-5" d="M187.66,5.27a2.82,2.82,0,0,0,0,5.64Z"/><path class="cls-5" d="M165.51,10.91a2.82,2.82,0,1,0,0-5.64Z"/></g><g class="cls-3"><polygon class="cls-4" points="231.97 8.09 237.51 2.55 240.28 5.32 237.51 8.09 240.28 10.86 237.51 13.63 231.97 8.09"/><rect class="cls-5" x="238.32" y="6.13" width="3.92" height="3.92" transform="translate(64.66 172.27) rotate(-45)"/><rect class="cls-4" x="241.09" y="8.9" width="3.92" height="3.92" transform="translate(63.55 175.08) rotate(-45.01)"/><rect class="cls-4" x="241.09" y="3.36" width="3.92" height="3.92" transform="translate(67.39 173.38) rotate(-44.99)"/><rect class="cls-5" x="243.86" y="6.13" width="3.92" height="3.92" transform="translate(66.32 176.23) rotate(-45.01)"/><polygon class="cls-4" points="245.82 10.86 248.59 8.09 245.82 5.32 248.59 2.55 254.13 8.09 248.59 13.63 245.82 10.86"/><path class="cls-5" d="M254.13,5.27a2.82,2.82,0,0,0,0,5.64Z"/><path class="cls-5" d="M232,10.91a2.82,2.82,0,1,0,0-5.64Z"/></g><g class="cls-3"><polygon class="cls-4" points="209.82 8.09 215.36 2.55 218.13 5.32 215.36 8.09 218.13 10.86 215.36 13.63 209.82 8.09"/><rect class="cls-5" x="216.17" y="6.13" width="3.92" height="3.92" transform="translate(58.17 156.61) rotate(-45)"/><rect class="cls-4" x="218.94" y="8.9" width="3.92" height="3.92" transform="translate(57.05 159.41) rotate(-45.01)"/><rect class="cls-4" x="218.94" y="3.36" width="3.92" height="3.92" transform="translate(60.91 157.72) rotate(-44.99)"/><rect class="cls-5" x="221.71" y="6.13" width="3.92" height="3.92" transform="translate(59.82 160.56) rotate(-45.01)"/><polygon class="cls-4" points="223.66 10.86 226.43 8.09 223.66 5.32 226.43 2.55 231.97 8.09 226.43 13.63 223.66 10.86"/><path class="cls-5" d="M232,5.27a2.82,2.82,0,0,0,0,5.64Z"/><path class="cls-5" d="M209.82,10.91a2.82,2.82,0,1,0,0-5.64Z"/></g><g class="cls-3"><polygon class="cls-4" points="276.28 8.09 281.82 2.55 284.59 5.32 281.82 8.09 284.59 10.86 281.82 13.63 276.28 8.09"/><rect class="cls-5" x="282.63" y="6.13" width="3.92" height="3.92" transform="translate(77.64 203.61) rotate(-45)"/><rect class="cls-4" x="285.4" y="8.9" width="3.92" height="3.92" transform="translate(76.53 206.42) rotate(-45.01)"/><rect class="cls-4" x="285.4" y="3.36" width="3.92" height="3.92" transform="translate(80.36 204.71) rotate(-44.99)"/><rect class="cls-5" x="288.17" y="6.13" width="3.92" height="3.92" transform="translate(79.3 207.57) rotate(-45.01)"/><polygon class="cls-4" points="290.13 10.86 292.9 8.09 290.13 5.32 292.9 2.55 298.44 8.09 292.9 13.63 290.13 10.86"/><path class="cls-5" d="M298.44,5.27a2.82,2.82,0,0,0,0,5.64Z"/><path class="cls-5" d="M276.28,10.91a2.82,2.82,0,1,0,0-5.64Z"/></g><g class="cls-3"><polygon class="cls-4" points="298.44 8.09 303.98 2.55 306.75 5.32 303.98 8.09 306.75 10.86 303.98 13.63 298.44 8.09"/><rect class="cls-5" x="304.79" y="6.13" width="3.92" height="3.92" transform="translate(84.13 219.27) rotate(-45)"/><rect class="cls-4" x="307.56" y="8.9" width="3.92" height="3.92" transform="translate(83.02 222.09) rotate(-45.01)"/><rect class="cls-4" x="307.56" y="3.36" width="3.92" height="3.92" transform="translate(86.85 220.37) rotate(-44.99)"/><rect class="cls-5" x="310.33" y="6.13" width="3.92" height="3.92" transform="translate(85.79 223.24) rotate(-45.01)"/><polygon class="cls-4" points="312.28 10.86 315.05 8.09 312.28 5.32 315.05 2.55 320.59 8.09 315.05 13.63 312.28 10.86"/><path class="cls-5" d="M320.59,5.27a2.82,2.82,0,0,0,0,5.64Z"/><path class="cls-5" d="M298.44,10.91a2.82,2.82,0,1,0,0-5.64Z"/></g><g class="cls-3"><polygon class="cls-4" points="254.13 8.09 259.67 2.55 262.44 5.32 259.67 8.09 262.44 10.86 259.67 13.63 254.13 8.09"/><rect class="cls-5" x="260.48" y="6.13" width="3.92" height="3.92" transform="translate(71.15 187.94) rotate(-45)"/><rect class="cls-4" x="263.25" y="8.9" width="3.92" height="3.92" transform="translate(70.04 190.75) rotate(-45.01)"/><rect class="cls-4" x="263.25" y="3.36" width="3.92" height="3.92" transform="translate(73.88 189.04) rotate(-44.99)"/><rect class="cls-5" x="266.02" y="6.13" width="3.92" height="3.92" transform="translate(72.81 191.9) rotate(-45.01)"/><polygon class="cls-4" points="267.98 10.86 270.75 8.09 267.98 5.32 270.75 2.55 276.28 8.09 270.75 13.63 267.98 10.86"/><path class="cls-5" d="M276.28,5.27a2.82,2.82,0,0,0,0,5.64Z"/><path class="cls-5" d="M254.13,10.91a2.82,2.82,0,1,0,0-5.64Z"/></g><g class="cls-3"><polygon class="cls-4" points="564.3 30.22 569.84 24.68 567.07 21.91 564.3 24.68 561.53 21.91 558.76 24.68 564.3 30.22"/><rect class="cls-5" x="562.34" y="19.95" width="3.92" height="3.92" transform="translate(149.78 405.43) rotate(-45)"/><rect class="cls-4" x="559.57" y="17.19" width="3.92" height="3.92" transform="translate(150.86 402.59) rotate(-44.99)"/><rect class="cls-4" x="565.11" y="17.19" width="3.92" height="3.92" transform="translate(152.65 406.69) rotate(-45.01)"/><rect class="cls-5" x="562.34" y="14.42" width="3.92" height="3.92" transform="translate(153.61 403.72) rotate(-44.99)"/><polygon class="cls-4" points="561.53 16.37 564.3 13.6 567.07 16.37 569.84 13.6 564.3 8.06 558.76 13.6 561.53 16.37"/><path class="cls-5" d="M567.12,8.07a2.82,2.82,0,0,1-5.64,0Z"/><path class="cls-5" d="M561.48,30.22a2.82,2.82,0,1,1,5.64,0Z"/></g><g class="cls-3"><polygon class="cls-4" points="542.14 8.06 547.68 13.6 550.45 10.84 547.68 8.06 550.45 5.29 547.68 2.53 542.14 8.06"/><rect class="cls-5" x="548.49" y="6.11" width="3.92" height="3.92" transform="translate(155.51 391.58) rotate(-45)"/><rect class="cls-4" x="551.26" y="3.34" width="3.92" height="3.92" transform="translate(158.21 392.66) rotate(-44.99)"/><rect class="cls-4" x="551.26" y="8.88" width="3.92" height="3.92" transform="translate(154.45 394.44) rotate(-45.01)"/><rect class="cls-5" x="554.03" y="6.11" width="3.92" height="3.92" transform="translate(157.05 395.41) rotate(-44.99)"/><polygon class="cls-4" points="555.99 5.3 558.76 8.06 555.99 10.84 558.76 13.6 564.3 8.06 558.76 2.53 555.99 5.3"/><path class="cls-5" d="M564.3,10.89a2.82,2.82,0,0,1,0-5.64Z"/><path class="cls-5" d="M542.14,5.24a2.82,2.82,0,1,1,0,5.64Z"/><path class="cls-5" d="M564.3,5.24a2.82,2.82,0,0,1,0,5.64Z"/></g><g class="cls-3"><polygon class="cls-4" points="564.28 52.59 569.82 58.13 567.05 60.9 564.28 58.13 561.51 60.9 558.74 58.13 564.28 52.59"/><rect class="cls-5" x="562.32" y="58.94" width="3.92" height="3.92" transform="translate(122.21 416.84) rotate(-45)"/><rect class="cls-4" x="559.55" y="61.71" width="3.92" height="3.92" transform="translate(119.52 415.79) rotate(-45.01)"/><rect class="cls-4" x="565.09" y="61.71" width="3.92" height="3.92" transform="translate(120.99 419.51) rotate(-44.99)"/><rect class="cls-5" x="562.32" y="64.48" width="3.92" height="3.92" transform="translate(118.37 418.56) rotate(-45.01)"/><polygon class="cls-4" points="561.51 66.43 564.28 69.2 567.05 66.43 569.82 69.2 564.28 74.74 558.74 69.2 561.51 66.43"/><path class="cls-5" d="M567.1,74.74a2.82,2.82,0,0,0-5.64,0Z"/><path class="cls-5" d="M561.46,52.59a2.82,2.82,0,1,0,5.64,0Z"/></g><g class="cls-3"><polygon class="cls-4" points="564.28 30.43 569.82 35.97 567.05 38.74 564.28 35.97 561.51 38.74 558.74 35.97 564.28 30.43"/><rect class="cls-5" x="562.32" y="36.78" width="3.92" height="3.92" transform="translate(137.88 410.35) rotate(-45)"/><rect class="cls-4" x="559.55" y="39.55" width="3.92" height="3.92" transform="translate(135.19 409.3) rotate(-45.01)"/><rect class="cls-4" x="565.09" y="39.55" width="3.92" height="3.92" transform="translate(136.65 413.03) rotate(-44.99)"/><rect class="cls-5" x="562.32" y="42.32" width="3.92" height="3.92" transform="translate(134.04 412.07) rotate(-45.01)"/><polygon class="cls-4" points="561.51 44.28 564.28 47.05 567.05 44.28 569.82 47.05 564.28 52.59 558.74 47.05 561.51 44.28"/><path class="cls-5" d="M567.1,52.59a2.82,2.82,0,0,0-5.64,0Z"/><path class="cls-5" d="M561.46,30.43a2.82,2.82,0,1,0,5.64,0Z"/></g><g class="cls-3"><polygon class="cls-4" points="564.28 96.9 569.82 102.44 567.05 105.21 564.28 102.44 561.51 105.21 558.74 102.44 564.28 96.9"/><rect class="cls-5" x="562.32" y="103.25" width="3.92" height="3.92" transform="translate(90.88 429.82) rotate(-45)"/><rect class="cls-4" x="559.55" y="106.02" width="3.92" height="3.92" transform="translate(88.18 428.77) rotate(-45.01)"/><rect class="cls-4" x="565.09" y="106.02" width="3.92" height="3.92" transform="translate(89.66 432.48) rotate(-44.99)"/><rect class="cls-5" x="562.32" y="108.79" width="3.92" height="3.92" transform="translate(87.04 431.54) rotate(-45.01)"/><polygon class="cls-4" points="561.51 110.74 564.28 113.51 567.05 110.74 569.82 113.51 564.28 119.05 558.74 113.51 561.51 110.74"/><path class="cls-5" d="M567.1,119.05a2.82,2.82,0,0,0-5.64,0Z"/><path class="cls-5" d="M561.46,96.9a2.82,2.82,0,1,0,5.64,0Z"/></g><g class="cls-3"><polygon class="cls-4" points="564.28 74.74 569.82 80.28 567.05 83.05 564.28 80.28 561.51 83.05 558.74 80.28 564.28 74.74"/><rect class="cls-5" x="562.32" y="81.09" width="3.92" height="3.92" transform="translate(106.55 423.33) rotate(-45)"/><rect class="cls-4" x="559.55" y="83.86" width="3.92" height="3.92" transform="translate(103.85 422.28) rotate(-45.01)"/><rect class="cls-4" x="565.09" y="83.86" width="3.92" height="3.92" transform="translate(105.33 426) rotate(-44.99)"/><rect class="cls-5" x="562.32" y="86.63" width="3.92" height="3.92" transform="translate(102.7 425.05) rotate(-45.01)"/><polygon class="cls-4" points="561.51 88.59 564.28 91.36 567.05 88.59 569.82 91.36 564.28 96.9 558.74 91.36 561.51 88.59"/><path class="cls-5" d="M567.1,96.9a2.82,2.82,0,0,0-5.64,0Z"/><path class="cls-5" d="M561.46,74.74a2.82,2.82,0,1,0,5.64,0Z"/></g><g class="cls-3"><polygon class="cls-4" points="564.28 141.21 569.82 146.75 567.05 149.52 564.28 146.75 561.51 149.52 558.74 146.75 564.28 141.21"/><rect class="cls-5" x="562.32" y="147.56" width="3.92" height="3.92" transform="translate(59.55 442.8) rotate(-45)"/><rect class="cls-4" x="559.55" y="150.33" width="3.92" height="3.92" transform="translate(56.84 441.76) rotate(-45.01)"/><rect class="cls-4" x="565.09" y="150.33" width="3.92" height="3.92" transform="translate(58.34 445.45) rotate(-44.99)"/><rect class="cls-5" x="562.32" y="153.1" width="3.92" height="3.92" transform="translate(55.7 444.53) rotate(-45.01)"/><polygon class="cls-4" points="561.51 155.05 564.28 157.82 567.05 155.05 569.82 157.82 564.28 163.36 558.74 157.82 561.51 155.05"/><path class="cls-5" d="M567.1,163.36a2.82,2.82,0,0,0-5.64,0Z"/><path class="cls-5" d="M561.46,141.21a2.82,2.82,0,1,0,5.64,0Z"/></g><g class="cls-3"><polygon class="cls-4" points="564.28 119.05 569.82 124.59 567.05 127.36 564.28 124.59 561.51 127.36 558.74 124.59 564.28 119.05"/><rect class="cls-5" x="562.32" y="125.4" width="3.92" height="3.92" transform="translate(75.22 436.31) rotate(-45)"/><rect class="cls-4" x="559.55" y="128.17" width="3.92" height="3.92" transform="translate(72.51 435.27) rotate(-45.01)"/><rect class="cls-4" x="565.09" y="128.17" width="3.92" height="3.92" transform="translate(74 438.97) rotate(-44.99)"/><rect class="cls-5" x="562.32" y="130.94" width="3.92" height="3.92" transform="translate(71.37 438.04) rotate(-45.01)"/><polygon class="cls-4" points="561.51 132.9 564.28 135.67 567.05 132.9 569.82 135.67 564.28 141.21 558.74 135.67 561.51 132.9"/><path class="cls-5" d="M567.1,141.21a2.82,2.82,0,0,0-5.64,0Z"/><path class="cls-5" d="M561.46,119.05a2.82,2.82,0,1,0,5.64,0Z"/></g><g class="cls-3"><polygon class="cls-4" points="564.28 185.52 569.82 191.06 567.05 193.83 564.28 191.06 561.51 193.83 558.74 191.06 564.28 185.52"/><rect class="cls-5" x="562.32" y="191.87" width="3.92" height="3.92" transform="translate(28.22 455.78) rotate(-45)"/><rect class="cls-4" x="559.55" y="194.64" width="3.92" height="3.92" transform="translate(25.5 454.74) rotate(-45.01)"/><rect class="cls-4" x="565.09" y="194.64" width="3.92" height="3.92" transform="translate(27.01 458.43) rotate(-44.99)"/><rect class="cls-5" x="562.32" y="197.41" width="3.92" height="3.92" transform="translate(24.36 457.51) rotate(-45.01)"/><polygon class="cls-4" points="561.51 199.36 564.28 202.13 567.05 199.36 569.82 202.13 564.28 207.67 558.74 202.13 561.51 199.36"/><path class="cls-5" d="M567.1,207.67a2.82,2.82,0,0,0-5.64,0Z"/><path class="cls-5" d="M561.46,185.52a2.82,2.82,0,1,0,5.64,0Z"/></g><g class="cls-3"><polygon class="cls-4" points="564.28 163.36 569.82 168.9 567.05 171.67 564.28 168.9 561.51 171.67 558.74 168.9 564.28 163.36"/><rect class="cls-5" x="562.32" y="169.71" width="3.92" height="3.92" transform="translate(43.88 449.29) rotate(-45)"/><rect class="cls-4" x="559.55" y="172.48" width="3.92" height="3.92" transform="translate(41.17 448.25) rotate(-45.01)"/><rect class="cls-4" x="565.09" y="172.48" width="3.92" height="3.92" transform="translate(42.68 451.94) rotate(-44.99)"/><rect class="cls-5" x="562.32" y="175.25" width="3.92" height="3.92" transform="translate(40.03 451.02) rotate(-45.01)"/><polygon class="cls-4" points="561.51 177.21 564.28 179.98 567.05 177.21 569.82 179.98 564.28 185.52 558.74 179.98 561.51 177.21"/><path class="cls-5" d="M567.1,185.52a2.82,2.82,0,0,0-5.64,0Z"/><path class="cls-5" d="M561.46,163.36a2.82,2.82,0,1,0,5.64,0Z"/></g><path class="cls-6" d="M53.21,87.71a4,4,0,0,1-2.62.77H48.41v3.76H46.24V81.77h4.49a3.62,3.62,0,0,1,2.48.81,3.16,3.16,0,0,1,.92,2.5A3.25,3.25,0,0,1,53.21,87.71Zm-1.67-3.77a1.76,1.76,0,0,0-1.16-.35h-2v3.08h2a1.67,1.67,0,0,0,1.16-.38A1.53,1.53,0,0,0,52,85.1,1.44,1.44,0,0,0,51.54,83.94Z"/><path class="cls-6" d="M58.78,87.53a3.19,3.19,0,0,0,.81-.18.61.61,0,0,0,.44-.57.68.68,0,0,0-.33-.66,2.11,2.11,0,0,0-1-.18,1.29,1.29,0,0,0-1,.35,1.46,1.46,0,0,0-.29.71h-2A3,3,0,0,1,56,85.34a3.32,3.32,0,0,1,2.77-1,4.93,4.93,0,0,1,2.27.5,1.93,1.93,0,0,1,1,1.9v3.55q0,.37,0,.89a1.12,1.12,0,0,0,.12.54.72.72,0,0,0,.3.23v.3h-2.2a2.24,2.24,0,0,1-.13-.44q0-.21-.06-.47a4.17,4.17,0,0,1-1,.77,2.93,2.93,0,0,1-1.48.38,2.56,2.56,0,0,1-1.74-.6,2.13,2.13,0,0,1-.69-1.7,2.2,2.2,0,0,1,1.11-2.06,5,5,0,0,1,1.79-.5Zm1.24.94a2.22,2.22,0,0,1-.39.2,3.32,3.32,0,0,1-.54.14l-.46.09a3,3,0,0,0-.93.28.92.92,0,0,0-.48.86.9.9,0,0,0,.29.75,1.11,1.11,0,0,0,.71.23,2.11,2.11,0,0,0,1.22-.38,1.62,1.62,0,0,0,.58-1.4Z"/><path class="cls-6" d="M64.11,93.72h.26a3.18,3.18,0,0,0,.57,0,1,1,0,0,0,.45-.16,1.09,1.09,0,0,0,.33-.5,1.22,1.22,0,0,0,.13-.47L63,84.5h2.25l1.69,5.71,1.6-5.71h2.15L68,92.11a10.7,10.7,0,0,1-1.22,2.73,2.31,2.31,0,0,1-1.79.53H64.6l-.49,0Z"/><path class="cls-6" d="M83.69,81.77v1.85H80.56v8.61h-2.2V83.63H75.21V81.77Z"/><path class="cls-6" d="M90.18,91.29a4.26,4.26,0,0,1-5.95,0,4.8,4.8,0,0,1,0-5.81,4.22,4.22,0,0,1,5.95,0,4.8,4.8,0,0,1,0,5.81Zm-1.62-1.12a3.61,3.61,0,0,0,0-3.58,1.8,1.8,0,0,0-2.73,0,3.59,3.59,0,0,0,0,3.58,1.79,1.79,0,0,0,2.73,0Z"/><path class="cls-6" d="M104.41,81.77v1.85h-3.13v8.61h-2.2V83.63H95.93V81.77Z"/><path class="cls-6" d="M111.08,84.54a2.27,2.27,0,0,1,1,.76,2,2,0,0,1,.39.89,11,11,0,0,1,.07,1.49v4.55h-2.06V87.52a2.09,2.09,0,0,0-.21-1,1.06,1.06,0,0,0-1-.54,1.43,1.43,0,0,0-1.21.54,2.47,2.47,0,0,0-.41,1.53v4.19h-2V81.81h2V85.5a2.47,2.47,0,0,1,1-.94,2.85,2.85,0,0,1,1.21-.27A3.28,3.28,0,0,1,111.08,84.54Z"/><path class="cls-6" d="M119.44,84.66a3.15,3.15,0,0,1,1.34,1.14,3.8,3.8,0,0,1,.62,1.6,9.87,9.87,0,0,1,.07,1.54h-5.63a1.86,1.86,0,0,0,.81,1.63,2.05,2.05,0,0,0,1.12.29,1.57,1.57,0,0,0,1.54-.89h2.06a2.53,2.53,0,0,1-.75,1.4,3.76,3.76,0,0,1-2.91,1.13,4.22,4.22,0,0,1-2.72-1,3.75,3.75,0,0,1-1.18-3.1,4.19,4.19,0,0,1,1.07-3.08,3.73,3.73,0,0,1,2.77-1.07A4.4,4.4,0,0,1,119.44,84.66Zm-3,1.75a2.1,2.1,0,0,0-.54,1.2h3.48a1.69,1.69,0,0,0-.54-1.22,1.77,1.77,0,0,0-1.2-.42A1.6,1.6,0,0,0,116.41,86.4Z"/><path class="cls-6" d="M54.24,108.74A4.56,4.56,0,0,1,50.82,110a4.56,4.56,0,0,1-3.43-1.22,5.64,5.64,0,0,1-1.59-4.31,5.53,5.53,0,0,1,1.59-4.31,4.56,4.56,0,0,1,3.43-1.22,4.56,4.56,0,0,1,3.43,1.22,5.55,5.55,0,0,1,1.58,4.31A5.66,5.66,0,0,1,54.24,108.74Zm-1.37-1.59a5.24,5.24,0,0,0,0-5.45,2.49,2.49,0,0,0-2.06-1,2.53,2.53,0,0,0-2.07,1,5.19,5.19,0,0,0,0,5.45,2.53,2.53,0,0,0,2.07,1A2.5,2.5,0,0,0,52.88,107.15Z"/><path class="cls-6" d="M61.63,101.76h.17v2.07l-.34,0h-.24a1.68,1.68,0,0,0-1.64.79,3.09,3.09,0,0,0-.23,1.38v3.7h-2v-7.73h1.93v1.35a4.27,4.27,0,0,1,.82-1.06,2.22,2.22,0,0,1,1.48-.48Z"/><path class="cls-6" d="M67.09,102.06a2.46,2.46,0,0,1,.89.86V99.23H70v10.45h-2V108.6a2.85,2.85,0,0,1-1,1,2.77,2.77,0,0,1-1.38.31,2.87,2.87,0,0,1-2.28-1.1,4.21,4.21,0,0,1-.93-2.81,4.84,4.84,0,0,1,.91-3.12,3,3,0,0,1,2.44-1.14A2.5,2.5,0,0,1,67.09,102.06Zm.5,5.51a2.82,2.82,0,0,0,.45-1.65,2.54,2.54,0,0,0-.72-2,1.54,1.54,0,0,0-1-.37,1.42,1.42,0,0,0-1.3.67,3.62,3.62,0,0,0,0,3.38,1.43,1.43,0,0,0,1.28.64A1.49,1.49,0,0,0,67.58,107.57Z"/><path class="cls-6" d="M76.9,102.1a3.15,3.15,0,0,1,1.34,1.14,3.8,3.8,0,0,1,.62,1.6,9.88,9.88,0,0,1,.07,1.54H73.29A1.86,1.86,0,0,0,74.1,108a2.05,2.05,0,0,0,1.12.29,1.57,1.57,0,0,0,1.54-.89h2.06a2.53,2.53,0,0,1-.75,1.4,3.76,3.76,0,0,1-2.91,1.13,4.22,4.22,0,0,1-2.72-1,3.75,3.75,0,0,1-1.18-3.1,4.19,4.19,0,0,1,1.07-3.08,3.73,3.73,0,0,1,2.77-1.07A4.4,4.4,0,0,1,76.9,102.1Zm-3,1.75a2.1,2.1,0,0,0-.54,1.2h3.48a1.69,1.69,0,0,0-.54-1.22,1.77,1.77,0,0,0-1.2-.42A1.6,1.6,0,0,0,73.88,103.84Z"/><path class="cls-6" d="M84.24,101.76h.17v2.07l-.34,0h-.24a1.68,1.68,0,0,0-1.64.79A3.09,3.09,0,0,0,82,106v3.7h-2v-7.73h1.93v1.35a4.27,4.27,0,0,1,.82-1.06,2.22,2.22,0,0,1,1.48-.48Z"/><path class="cls-6" d="M97.86,108.74a5.42,5.42,0,0,1-6.86,0,5.64,5.64,0,0,1-1.59-4.31A5.53,5.53,0,0,1,91,100.12a5.42,5.42,0,0,1,6.86,0,5.55,5.55,0,0,1,1.58,4.31A5.66,5.66,0,0,1,97.86,108.74Zm-1.37-1.59a5.24,5.24,0,0,0,0-5.45,2.49,2.49,0,0,0-2.06-1,2.53,2.53,0,0,0-2.07,1,5.19,5.19,0,0,0,0,5.45,2.53,2.53,0,0,0,2.07,1A2.5,2.5,0,0,0,96.49,107.15Z"/><path class="cls-6" d="M104.14,99.12l.43,0v1.65l-.57,0a.66.66,0,0,0-.55.18.64.64,0,0,0-.15.42V102h1.33v1.43h-1.33v6.24h-2v-6.24h-1.14V102h1.11v-.5a2.61,2.61,0,0,1,.42-1.71q.44-.7,2.12-.7Z"/><rect class="cls-6" x="45.81" y="113.17" width="336.36" height="1.46"/><rect class="cls-6" x="406.07" y="78.04" width="131.17" height="1.75"/><path class="cls-6" d="M53.13,156.4h3.14v10.46h-2v-7.07q0-.31,0-.86t0-.85l-2,8.78H50.14l-2-8.78q0,.3,0,.85t0,.86v7.07h-2V156.4h3.18l1.9,8.22Z"/><path class="cls-6" d="M63.17,159.28a3.15,3.15,0,0,1,1.34,1.14,3.8,3.8,0,0,1,.62,1.6,9.83,9.83,0,0,1,.07,1.53H59.56a1.86,1.86,0,0,0,.81,1.63,2.05,2.05,0,0,0,1.12.29A1.57,1.57,0,0,0,63,164.6h2.06a2.53,2.53,0,0,1-.75,1.4,3.76,3.76,0,0,1-2.91,1.13,4.22,4.22,0,0,1-2.72-1,3.75,3.75,0,0,1-1.18-3.1A4.19,4.19,0,0,1,58.59,160a3.73,3.73,0,0,1,2.77-1.07A4.4,4.4,0,0,1,63.17,159.28Zm-3,1.75a2.1,2.1,0,0,0-.54,1.2h3.48a1.69,1.69,0,0,0-.54-1.22,1.77,1.77,0,0,0-1.2-.42A1.61,1.61,0,0,0,60.15,161Z"/><path class="cls-6" d="M75.87,159.15a2.25,2.25,0,0,1,.9.7,2.22,2.22,0,0,1,.44,1,6.86,6.86,0,0,1,.07,1.14v4.88H75.19v-4.92a1.62,1.62,0,0,0-.14-.72,1,1,0,0,0-1-.54,1.16,1.16,0,0,0-1.16.69,2.18,2.18,0,0,0-.16.89v4.61h-2v-4.61a2.59,2.59,0,0,0-.14-1,1,1,0,0,0-1-.56,1.19,1.19,0,0,0-1.16.56,2.16,2.16,0,0,0-.16,1v4.66H66.18v-7.72h2v1.13a3.25,3.25,0,0,1,.71-.86,2.81,2.81,0,0,1,3-.06,2.27,2.27,0,0,1,.67.93,2.57,2.57,0,0,1,1-1,3,3,0,0,1,1.39-.32A2.69,2.69,0,0,1,75.87,159.15Z"/><path class="cls-6" d="M85.59,165.91a4.26,4.26,0,0,1-5.95,0,4.8,4.8,0,0,1,0-5.81,4.22,4.22,0,0,1,5.95,0,4.8,4.8,0,0,1,0,5.81ZM84,164.8a3.61,3.61,0,0,0,0-3.58,1.8,1.8,0,0,0-2.73,0,3.59,3.59,0,0,0,0,3.58,1.79,1.79,0,0,0,2.73,0Z"/><path class="cls-6" d="M489.83,129.15a3.59,3.59,0,0,1,1.85,1.38,4.85,4.85,0,0,1,.78,1.76,8.42,8.42,0,0,1,.21,1.8,7.23,7.23,0,0,1-.87,3.68,3.93,3.93,0,0,1-3.65,2h-4.69V128.91h4.69A5.72,5.72,0,0,1,489.83,129.15Zm-4.17,1.65v7.1h2.1a2.27,2.27,0,0,0,2.25-1.59,5.59,5.59,0,0,0,.35-2.07,5.1,5.1,0,0,0-.52-2.55,2.2,2.2,0,0,0-2.07-.89Z"/><path class="cls-6" d="M501.21,138.81a4.43,4.43,0,0,1-6.18,0,5,5,0,0,1,0-6,4.39,4.39,0,0,1,6.18,0,5,5,0,0,1,0,6Zm-1.68-1.16a3.76,3.76,0,0,0,0-3.72,1.87,1.87,0,0,0-2.84,0,3.73,3.73,0,0,0,0,3.72,1.86,1.86,0,0,0,2.84,0Z"/><path class="cls-6" d="M506.18,139.79h-2.1V128.91h2.1Z"/><path class="cls-6" d="M510.68,139.79h-2.1V128.91h2.1Z"/><path class="cls-6" d="M516.22,134.9a3.32,3.32,0,0,0,.84-.18.63.63,0,0,0,.45-.6.71.71,0,0,0-.35-.68,2.2,2.2,0,0,0-1-.19,1.34,1.34,0,0,0-1.07.37,1.53,1.53,0,0,0-.3.74h-2a3.08,3.08,0,0,1,.59-1.73,3.46,3.46,0,0,1,2.88-1.06,5.13,5.13,0,0,1,2.36.52,2,2,0,0,1,1,2v3.69q0,.38,0,.93a1.17,1.17,0,0,0,.13.56.76.76,0,0,0,.31.24v.31h-2.29a2.35,2.35,0,0,1-.13-.46q0-.21-.06-.49a4.35,4.35,0,0,1-1,.8A3,3,0,0,1,515,140a2.66,2.66,0,0,1-1.81-.62,2.22,2.22,0,0,1-.72-1.77,2.29,2.29,0,0,1,1.15-2.15,5.14,5.14,0,0,1,1.86-.52Zm1.29,1a2.32,2.32,0,0,1-.41.2,3.4,3.4,0,0,1-.56.14l-.48.09a3.15,3.15,0,0,0-1,.29,1,1,0,0,0-.5.89.93.93,0,0,0,.3.78,1.15,1.15,0,0,0,.74.24,2.2,2.2,0,0,0,1.27-.4,1.69,1.69,0,0,0,.6-1.45Z"/><path class="cls-6" d="M526.21,131.56h.18v2.15l-.35,0h-.25a1.74,1.74,0,0,0-1.7.83,3.22,3.22,0,0,0-.24,1.43v3.84h-2.12v-8h2v1.4a4.44,4.44,0,0,1,.85-1.1,2.31,2.31,0,0,1,1.53-.49Z"/><path class="cls-6" d="M529.56,137.22a1.4,1.4,0,0,0,.29.8,2,2,0,0,0,1.45.42,2.22,2.22,0,0,0,1-.18.62.62,0,0,0,.07-1.09,12.1,12.1,0,0,0-2.2-.63,4.57,4.57,0,0,1-1.93-.85,1.84,1.84,0,0,1-.56-1.45,2.51,2.51,0,0,1,.88-1.91,3.53,3.53,0,0,1,2.47-.8,4.53,4.53,0,0,1,2.46.6,2.58,2.58,0,0,1,1.09,2.08h-2.1a1.24,1.24,0,0,0-.23-.64,1.45,1.45,0,0,0-1.18-.43,1.71,1.71,0,0,0-1,.21.62.62,0,0,0-.29.5.55.55,0,0,0,.31.52,13.47,13.47,0,0,0,2.2.58,4,4,0,0,1,1.88.89,2,2,0,0,1,.62,1.51,2.44,2.44,0,0,1-.89,2,5.35,5.35,0,0,1-5.56,0,2.6,2.6,0,0,1-.91-2Z"/><path class="cls-6" d="M412.47,64.5a3.59,3.59,0,0,1,1.85,1.38,4.84,4.84,0,0,1,.78,1.76,8.41,8.41,0,0,1,.21,1.8,7.23,7.23,0,0,1-.87,3.68,3.93,3.93,0,0,1-3.65,2H406.1V64.26h4.69A5.73,5.73,0,0,1,412.47,64.5Zm-4.17,1.65v7.1h2.1a2.27,2.27,0,0,0,2.25-1.59,5.59,5.59,0,0,0,.35-2.07,5.1,5.1,0,0,0-.52-2.55,2.2,2.2,0,0,0-2.07-.89Z"/><path class="cls-6" d="M420.33,70.25a3.33,3.33,0,0,0,.84-.18.63.63,0,0,0,.45-.6.71.71,0,0,0-.35-.68,2.2,2.2,0,0,0-1-.19,1.34,1.34,0,0,0-1.07.37,1.52,1.52,0,0,0-.3.74h-2a3.08,3.08,0,0,1,.59-1.73,3.46,3.46,0,0,1,2.88-1.06,5.13,5.13,0,0,1,2.36.52,2,2,0,0,1,1,2V73.1q0,.38,0,.93a1.17,1.17,0,0,0,.13.56.75.75,0,0,0,.31.24v.31h-2.29a2.34,2.34,0,0,1-.13-.46q0-.21-.06-.49a4.35,4.35,0,0,1-1,.8,3,3,0,0,1-1.54.39,2.66,2.66,0,0,1-1.81-.62A2.22,2.22,0,0,1,416.6,73a2.29,2.29,0,0,1,1.15-2.15,5.15,5.15,0,0,1,1.86-.52Zm1.29,1a2.32,2.32,0,0,1-.41.2,3.46,3.46,0,0,1-.57.14l-.48.09a3.15,3.15,0,0,0-1,.29,1,1,0,0,0-.5.89.93.93,0,0,0,.3.78,1.15,1.15,0,0,0,.74.24,2.2,2.2,0,0,0,1.27-.4,1.69,1.69,0,0,0,.6-1.45Z"/><path class="cls-6" d="M425,68.67v-1.5h1.12V64.93h2.08v2.24h1.31v1.5h-1.31v4.25a1,1,0,0,0,.13.62,1.38,1.38,0,0,0,.77.12h.41v1.57l-1,0a2.67,2.67,0,0,1-2-.52,1.54,1.54,0,0,1-.35-1.11v-5Z"/><path class="cls-6" d="M436.43,67.26a3.27,3.27,0,0,1,1.39,1.19,4,4,0,0,1,.64,1.66,10.23,10.23,0,0,1,.07,1.6h-5.86a1.93,1.93,0,0,0,.84,1.7,2.13,2.13,0,0,0,1.16.3,1.63,1.63,0,0,0,1.6-.92h2.15a2.63,2.63,0,0,1-.78,1.45,3.91,3.91,0,0,1-3,1.17,4.38,4.38,0,0,1-2.83-1,3.9,3.9,0,0,1-1.23-3.22A4.36,4.36,0,0,1,431.66,68a3.88,3.88,0,0,1,2.88-1.12A4.58,4.58,0,0,1,436.43,67.26Zm-3.15,1.82a2.18,2.18,0,0,0-.56,1.25h3.62a1.75,1.75,0,0,0-.56-1.27,1.84,1.84,0,0,0-1.25-.43A1.67,1.67,0,0,0,433.28,69.08Z"/><path class="cls-6" d="M393.94,114.76h-1.38V112.4a11.19,11.19,0,0,1-4.19-1,4.81,4.81,0,0,1-2.39-4.65h3.85a5,5,0,0,0,.56,2,3.09,3.09,0,0,0,2.18,1v-5.06l-1.15-.28a7.79,7.79,0,0,1-3.84-1.85,4,4,0,0,1-1.12-2.86,4.55,4.55,0,0,1,.43-2,4.6,4.6,0,0,1,1.22-1.55A5.72,5.72,0,0,1,390.35,95a12.24,12.24,0,0,1,2.21-.3V93.12h1.38v1.6a8.12,8.12,0,0,1,3.63.95,4.48,4.48,0,0,1,2.48,4.11h-3.75a3.7,3.7,0,0,0-.42-1.54,2.29,2.29,0,0,0-1.94-.92v4.52a19.64,19.64,0,0,1,4.54,1.72,4,4,0,0,1,1.92,3.51,4.54,4.54,0,0,1-2.64,4.34,9.62,9.62,0,0,1-3.82,1Zm-1.38-17.42a2.81,2.81,0,0,0-1.84.55,1.82,1.82,0,0,0-.6,1.44,1.79,1.79,0,0,0,.9,1.58,5.61,5.61,0,0,0,1.54.59Zm1.38,12.39a4.09,4.09,0,0,0,1.62-.43,2,2,0,0,0,.89-1.89,1.88,1.88,0,0,0-.83-1.61,6.52,6.52,0,0,0-1.68-.71Z"/><path class="cls-6" d="M351,179.39h1.33l2,5.63h-1.28l-.37-1.16h-2.07l-.38,1.16H349Zm-.08,3.5h1.44l-.71-2.22Z"/><path class="cls-6" d="M356.49,179.39h1.2v3.46a2,2,0,0,0,.14.85,1.14,1.14,0,0,0,1.85,0,2,2,0,0,0,.14-.85v-3.46H361v3.46a2.9,2.9,0,0,1-.28,1.4,2.6,2.6,0,0,1-4,0,2.9,2.9,0,0,1-.28-1.4Z"/><path class="cls-6" d="M367.64,179.39v1H366V185h-1.18v-4.64h-1.69v-1Z"/><path class="cls-6" d="M369.73,185v-5.63h1.17v2.15h2.19v-2.15h1.17V185h-1.17v-2.51H370.9V185Z"/><path class="cls-6" d="M381.14,184.52a2.92,2.92,0,0,1-3.69,0,3,3,0,0,1-.86-2.32,3,3,0,0,1,.86-2.32,2.92,2.92,0,0,1,3.69,0,3,3,0,0,1,.85,2.32A3,3,0,0,1,381.14,184.52Zm-.74-.86a2.82,2.82,0,0,0,0-2.93,1.34,1.34,0,0,0-1.11-.52,1.36,1.36,0,0,0-1.12.52,2.79,2.79,0,0,0,0,2.94,1.36,1.36,0,0,0,1.12.52A1.34,1.34,0,0,0,380.4,183.67Z"/><path class="cls-6" d="M387.91,179.53a1.39,1.39,0,0,1,.53.39,1.74,1.74,0,0,1,.28.47,1.57,1.57,0,0,1,.1.59,1.69,1.69,0,0,1-.2.79,1.13,1.13,0,0,1-.67.55,1.05,1.05,0,0,1,.55.45,1.86,1.86,0,0,1,.16.88V184a2.86,2.86,0,0,0,0,.52.47.47,0,0,0,.22.32V185h-1.3q-.05-.19-.08-.3a2.76,2.76,0,0,1,0-.49v-.52a1.07,1.07,0,0,0-.19-.72,1,1,0,0,0-.67-.18h-1.15V185h-1.15v-5.63H387A2.45,2.45,0,0,1,387.91,179.53Zm-2.43.83v1.51h1.27a1.35,1.35,0,0,0,.57-.09.63.63,0,0,0,.33-.63.71.71,0,0,0-.32-.69,1.17,1.17,0,0,0-.54-.1Z"/><path class="cls-6" d="M392.43,185h-1.17v-5.63h1.17Z"/><path class="cls-6" d="M394.54,184l2.88-3.64h-2.81v-1h4.27v.94L396,184h2.92v1h-4.35Z"/><path class="cls-6" d="M405.24,180.39h-2.92v1.2H405v1h-2.68V184h3.06v1h-4.21v-5.63h4.07Z"/><path class="cls-6" d="M411.06,179.51a1.86,1.86,0,0,1,1,.71,2.51,2.51,0,0,1,.4.91,4.37,4.37,0,0,1,.11.93,3.74,3.74,0,0,1-.45,1.9,2,2,0,0,1-1.89,1.05h-2.43v-5.63h2.43A3,3,0,0,1,411.06,179.51Zm-2.16.86V184H410a1.17,1.17,0,0,0,1.16-.82,2.89,2.89,0,0,0,.18-1.07,2.64,2.64,0,0,0-.27-1.32,1.14,1.14,0,0,0-1.07-.46Z"/><path class="cls-6" d="M419.25,183.28a1.14,1.14,0,0,0,.21.58,1.25,1.25,0,0,0,1,.35,2.15,2.15,0,0,0,.69-.09.66.66,0,0,0,.5-.65.48.48,0,0,0-.25-.43,2.67,2.67,0,0,0-.78-.26l-.61-.13a3.8,3.8,0,0,1-1.24-.43,1.37,1.37,0,0,1-.57-1.22,1.62,1.62,0,0,1,.56-1.26,2.37,2.37,0,0,1,1.64-.5,2.51,2.51,0,0,1,1.54.47,1.68,1.68,0,0,1,.67,1.37h-1.13a.81.81,0,0,0-.45-.72,1.56,1.56,0,0,0-.7-.14,1.34,1.34,0,0,0-.74.18.58.58,0,0,0-.28.51.48.48,0,0,0,.27.45,3.41,3.41,0,0,0,.75.23l1,.23a2.51,2.51,0,0,1,1,.41,1.38,1.38,0,0,1,.5,1.15,1.62,1.62,0,0,1-.6,1.28,2.52,2.52,0,0,1-1.69.51,2.75,2.75,0,0,1-1.75-.5,1.66,1.66,0,0,1-.64-1.38Z"/><path class="cls-6" d="M426.11,185h-1.17v-5.63h1.17Z"/><path class="cls-6" d="M432.41,181.15a1.1,1.1,0,0,0-.65-.81,1.6,1.6,0,0,0-.65-.13,1.4,1.4,0,0,0-1.12.51,2.33,2.33,0,0,0-.44,1.54,1.91,1.91,0,0,0,.47,1.47,1.56,1.56,0,0,0,1.08.43,1.4,1.4,0,0,0,1-.34,1.46,1.46,0,0,0,.47-.89h-1.3V182h2.35v3h-.78l-.12-.7a2.7,2.7,0,0,1-.61.56,2.16,2.16,0,0,1-1.15.29,2.38,2.38,0,0,1-1.83-.78,3,3,0,0,1-.75-2.13,3.13,3.13,0,0,1,.75-2.19,2.57,2.57,0,0,1,2-.82,2.6,2.6,0,0,1,1.73.54,2,2,0,0,1,.75,1.36Z"/><path class="cls-6" d="M436.1,179.39h1.23l2.24,3.93v-3.93h1.1V185h-1.18l-2.29-4v4h-1.1Z"/><path class="cls-6" d="M444.79,179.39h1.33l2,5.63h-1.28l-.37-1.16h-2.07L444,185h-1.23Zm-.08,3.5h1.44l-.71-2.22Z"/><path class="cls-6" d="M453.75,179.39v1h-1.69V185h-1.18v-4.64h-1.69v-1Z"/><path class="cls-6" d="M455.85,179.39H457v3.46a2,2,0,0,0,.14.85,1.14,1.14,0,0,0,1.85,0,2,2,0,0,0,.14-.85v-3.46h1.2v3.46a2.9,2.9,0,0,1-.28,1.4,2.6,2.6,0,0,1-4,0,2.9,2.9,0,0,1-.28-1.4Z"/><path class="cls-6" d="M466.52,179.53a1.39,1.39,0,0,1,.53.39,1.74,1.74,0,0,1,.28.47,1.58,1.58,0,0,1,.1.59,1.69,1.69,0,0,1-.2.79,1.13,1.13,0,0,1-.67.55,1.05,1.05,0,0,1,.55.45,1.86,1.86,0,0,1,.16.88V184a2.84,2.84,0,0,0,0,.52.47.47,0,0,0,.22.32V185h-1.3c0-.12-.06-.23-.08-.3a2.74,2.74,0,0,1,0-.49v-.52a1.06,1.06,0,0,0-.19-.72,1,1,0,0,0-.67-.18h-1.15V185h-1.15v-5.63h2.69A2.45,2.45,0,0,1,466.52,179.53Zm-2.43.83v1.51h1.27a1.35,1.35,0,0,0,.57-.09.63.63,0,0,0,.33-.63.71.71,0,0,0-.32-.69,1.17,1.17,0,0,0-.54-.1Z"/><path class="cls-6" d="M474.08,180.39h-2.92v1.2h2.68v1h-2.68V184h3.06v1H470v-5.63h4.07Z"/><rect x="45.81" y="170.6" width="490.99" height="1.46"/><rect class="cls-6" x="45.81" y="142.32" width="489.84" height="1.46"/><path class="cls-6" d="M50.24,202.77c-.37,0-.64,0-.87-.32a1.07,1.07,0,0,1-.18-.75v-.94a1.07,1.07,0,0,1,.18-.75c.23-.32.5-.32.87-.32h1.21c.37,0,.64,0,.87.32a1.07,1.07,0,0,1,.18.75v.94a1.07,1.07,0,0,1-.18.75c-.23.32-.5.32-.87.32Zm0,5.7c-.37,0-.64,0-.87-.32a1.07,1.07,0,0,1-.18-.75v-.94a1.07,1.07,0,0,1,.18-.75c.23-.32.5-.32.87-.32h1.21c.37,0,.64,0,.87.32a1.07,1.07,0,0,1,.18.75v.94a1.07,1.07,0,0,1-.18.75c-.23.32-.5.32-.87.32Z"/><path class="cls-6" d="M65.37,208.92v-3.38a.84.84,0,0,1,1.68,0v4.22a.77.77,0,0,1-.84.84h-6.6a.84.84,0,0,1,0-1.68h2.46v-9.68H59.61a.84.84,0,0,1,0-1.68h4.14v11.36Z"/><path class="cls-6" d="M72.51,208.92h5.76a.84.84,0,0,1,0,1.68H70.83v-5.46a1.68,1.68,0,0,1,1.89-1.89h4.71v-4H71.67a.84.84,0,1,1,0-1.68h5.56a1.73,1.73,0,0,1,1.88,2V203a1.73,1.73,0,0,1-1.88,2H72.51Z"/><path class="cls-6" d="M83.73,199.23a.84.84,0,0,1,0-1.68h5.76a1.64,1.64,0,0,1,1.68,1.68v3.22a1.94,1.94,0,0,1-.65,1.63,1.94,1.94,0,0,1,.65,1.63v3.22a1.64,1.64,0,0,1-1.68,1.68H83.73a.84.84,0,0,1,0-1.68h5.76v-2.78c0-.94-.37-1.22-.84-1.22H85.37a.84.84,0,0,1,0-1.68h3.28c.47,0,.84-.28.84-1.22v-2.78Z"/><path class="cls-6" d="M100.72,204.66v-4.84a.84.84,0,1,1,1.68,0v4.84a.84.84,0,1,1,0,1.68v3.42a.84.84,0,1,1-1.68,0v-3.42H95.79v-7.94a.84.84,0,1,1,1.68,0v6.27Z"/><path class="cls-6" d="M110.35,203.24h3.08a1.72,1.72,0,0,1,1.34.47,1.65,1.65,0,0,1,.52,1.42v3.59a1.77,1.77,0,0,1-.4,1.31,1.63,1.63,0,0,1-1.46.57h-3.72a2.44,2.44,0,0,1-1.11-.3L108,210c-.45-.2-1-.35-1-.94a.85.85,0,0,1,.8-.84,1.21,1.21,0,0,1,.54.13l.5.22a2.86,2.86,0,0,0,.89.33h3.87v-4h-4.94v-7.36h5.78a.84.84,0,0,1,0,1.68h-4.11Z"/><path class="cls-6" d="M120.75,204.66h5.6c.84,0,1,.35,1,1.12v3.75c0,.79-.34,1.06-1.09,1.06h-6.1c-.79,0-1.09-.29-1.09-1.06V198.39c0-.39.13-.84.72-.84h1a.83.83,0,0,1,.79.84.8.8,0,0,1-.84.84Zm0,1.68v2.58h4.93v-2.58Z"/><path class="cls-6" d="M132.82,199.23a.84.84,0,1,1-1.68,0v-.84a.85.85,0,0,1,.84-.84h7.44v4.86c0,.59,0,.65-.45,1.06l-2.35,2c-.44.39-.47.42-.47,1v3.25a.84.84,0,1,1-1.68,0v-4a.91.91,0,0,1,.44-1l2.31-2c.55-.49.52-.47.52-1.21v-2.31Z"/><path class="cls-6" d="M149,197.55a.79.79,0,0,1,.84.84v4.84a1.72,1.72,0,0,1,1.22.47,1.62,1.62,0,0,1,.45,1.22v4a1.56,1.56,0,0,1-1.68,1.68h-4.93a1.56,1.56,0,0,1-1.68-1.68v-4a1.62,1.62,0,0,1,.45-1.22,1.72,1.72,0,0,1,1.22-.47v-4.84a.79.79,0,0,1,.84-.84Zm.84,11.36v-4h-4.93v4Zm-1.68-5.68v-4h-1.58v4Z"/><path class="cls-6" d="M161.87,203.52H156.1a.85.85,0,0,1-.84-.84v-4.29a.85.85,0,0,1,.84-.84h6.6a.85.85,0,0,1,.84.84v11.36a.82.82,0,0,1-.84.84h-.84a.82.82,0,0,1-.84-.84.8.8,0,0,1,.84-.84Zm0-1.68v-2.61h-4.93v2.61Z"/><path class="cls-6" d="M175.55,202.77c-.37,0-.64,0-.87-.32a1.07,1.07,0,0,1-.18-.75v-.94a1.07,1.07,0,0,1,.18-.75c.23-.32.5-.32.87-.32h1.21c.37,0,.64,0,.87.32a1.07,1.07,0,0,1,.18.75v.94a1.07,1.07,0,0,1-.18.75c-.23.32-.5.32-.87.32Zm0,5.7c-.37,0-.64,0-.87-.32a1.07,1.07,0,0,1-.18-.75v-.94a1.07,1.07,0,0,1,.18-.75c.23-.32.5-.32.87-.32h1.21c.37,0,.64,0,.87.32a1.07,1.07,0,0,1,.18.75v.94a1.07,1.07,0,0,1-.18.75c-.23.32-.5.32-.87.32Z"/><path class="cls-6" d="M200.74,197.55a1.68,1.68,0,0,1,1.68,1.68v9.68a1.65,1.65,0,0,1-1.68,1.68h-4.93a1.65,1.65,0,0,1-1.68-1.68v-9.68a1.68,1.68,0,0,1,1.68-1.68Zm0,11.36v-9.68h-4.93v9.68Z"/><path class="cls-6" d="M212.8,208.92v-3.38a.84.84,0,0,1,1.68,0v4.22a.77.77,0,0,1-.84.84H207a.84.84,0,0,1,0-1.68h2.46v-9.68H207a.84.84,0,0,1,0-1.68h4.14v11.36Z"/><path class="cls-6" d="M219.93,208.92h5.76a.84.84,0,0,1,0,1.68h-7.44v-5.46a1.68,1.68,0,0,1,1.89-1.89h4.71v-4H219.1a.84.84,0,0,1,0-1.68h5.56a1.73,1.73,0,0,1,1.88,2V203a1.73,1.73,0,0,1-1.88,2h-4.73Z"/><path class="cls-6" d="M231.16,199.23a.84.84,0,0,1,0-1.68h5.76a1.64,1.64,0,0,1,1.68,1.68v3.22a1.94,1.94,0,0,1-.65,1.63,1.94,1.94,0,0,1,.65,1.63v3.22a1.64,1.64,0,0,1-1.68,1.68h-5.76a.84.84,0,0,1,0-1.68h5.76v-2.78c0-.94-.37-1.22-.84-1.22H232.8a.84.84,0,1,1,0-1.68h3.28c.47,0,.84-.28.84-1.22v-2.78Z"/><path class="cls-6" d="M248.15,204.66v-4.84a.84.84,0,1,1,1.68,0v4.84a.84.84,0,0,1,0,1.68v3.42a.84.84,0,1,1-1.68,0v-3.42h-4.93v-7.94a.84.84,0,1,1,1.68,0v6.27Z"/><path class="cls-6" d="M257.78,203.24h3.08a1.72,1.72,0,0,1,1.34.47,1.65,1.65,0,0,1,.52,1.42v3.59a1.77,1.77,0,0,1-.4,1.31,1.63,1.63,0,0,1-1.46.57h-3.72a2.44,2.44,0,0,1-1.11-.3l-.64-.28c-.45-.2-1-.35-1-.94a.85.85,0,0,1,.8-.84,1.21,1.21,0,0,1,.54.13l.5.22a2.86,2.86,0,0,0,.89.33H261v-4H256.1v-7.36h5.78a.84.84,0,0,1,0,1.68h-4.11Z"/><path class="cls-6" d="M268.18,204.66h5.6c.84,0,1,.35,1,1.12v3.75c0,.79-.34,1.06-1.09,1.06h-6.1c-.79,0-1.09-.29-1.09-1.06V198.39c0-.39.13-.84.72-.84h1a.83.83,0,0,1,.79.84.8.8,0,0,1-.84.84Zm0,1.68v2.58h4.93v-2.58Z"/><path class="cls-6" d="M280.24,199.23a.84.84,0,1,1-1.68,0v-.84a.85.85,0,0,1,.84-.84h7.44v4.86c0,.59,0,.65-.45,1.06l-2.35,2c-.44.39-.47.42-.47,1v3.25a.84.84,0,1,1-1.68,0v-4a.91.91,0,0,1,.44-1l2.31-2c.55-.49.52-.47.52-1.21v-2.31Z"/><path class="cls-6" d="M296.4,197.55a.79.79,0,0,1,.84.84v4.84a1.72,1.72,0,0,1,1.22.47,1.62,1.62,0,0,1,.45,1.22v4a1.56,1.56,0,0,1-1.68,1.68h-4.93a1.56,1.56,0,0,1-1.68-1.68v-4a1.62,1.62,0,0,1,.45-1.22,1.72,1.72,0,0,1,1.22-.47v-4.84a.79.79,0,0,1,.84-.84Zm.84,11.36v-4h-4.93v4Zm-1.68-5.68v-4H294v4Z"/><path class="cls-6" d="M309.3,203.52h-5.76a.85.85,0,0,1-.84-.84v-4.29a.85.85,0,0,1,.84-.84h6.6a.85.85,0,0,1,.84.84v11.36a.82.82,0,0,1-.84.84h-.84a.82.82,0,0,1-.84-.84.8.8,0,0,1,.84-.84Zm0-1.68v-2.61h-4.93v2.61Z"/><path class="cls-6" d="M321.36,208.92v-3.38a.84.84,0,0,1,1.68,0v4.22a.77.77,0,0,1-.84.84h-6.6a.84.84,0,1,1,0-1.68h2.46v-9.68h-2.46a.84.84,0,1,1,0-1.68h4.14v11.36Z"/><path class="cls-6" d="M328.49,208.92h5.76a.84.84,0,0,1,0,1.68h-7.44v-5.46a1.68,1.68,0,0,1,1.89-1.89h4.71v-4h-5.76a.84.84,0,0,1,0-1.68h5.56a1.73,1.73,0,0,1,1.88,2V203a1.73,1.73,0,0,1-1.88,2h-4.72Z"/><path class="cls-6" d="M369.61,197.55a1.68,1.68,0,0,1,1.68,1.68v9.68a1.65,1.65,0,0,1-1.68,1.68h-4.93a1.65,1.65,0,0,1-1.68-1.68v-9.68a1.68,1.68,0,0,1,1.68-1.68Zm0,11.36v-9.68h-4.93v9.68Z"/><path class="cls-6" d="M381.67,197.55a1.68,1.68,0,0,1,1.68,1.68v9.68a1.65,1.65,0,0,1-1.68,1.68h-4.93a1.65,1.65,0,0,1-1.68-1.68v-9.68a1.68,1.68,0,0,1,1.68-1.68Zm0,11.36v-9.68h-4.93v9.68Z"/><path class="cls-6" d="M393.73,208.92v-3.38a.84.84,0,0,1,1.68,0v4.22a.77.77,0,0,1-.84.84H388a.84.84,0,0,1,0-1.68h2.46v-9.68H388a.84.84,0,0,1,0-1.68h4.14v11.36Z"/><path class="cls-6" d="M400.87,208.92h5.76a.84.84,0,0,1,0,1.68h-7.44v-5.46a1.68,1.68,0,0,1,1.89-1.89h4.71v-4H400a.84.84,0,0,1,0-1.68h5.56a1.73,1.73,0,0,1,1.88,2V203a1.73,1.73,0,0,1-1.88,2h-4.72Z"/><path class="cls-6" d="M349,203.77c-.37,0-.64,0-.87-.32a1.07,1.07,0,0,1-.18-.75v-.94a1.07,1.07,0,0,1,.18-.75c.23-.32.5-.32.87-.32h1.21c.37,0,.64,0,.87.32a1.07,1.07,0,0,1,.18.75v.94a1.07,1.07,0,0,1-.18.75c-.23.32-.5.32-.87.32Z"/><path class="cls-6" d="M45.46,202.23c0-.69.27-1,1-1s1,.32,1,1v3.92c0,.69-.27,1-1,1s-1-.32-1-1Z"/><path class="cls-6" d="M340,202.23c0-.69.27-1,1-1s1,.32,1,1v3.92c0,.69-.27,1-1,1s-1-.32-1-1Z"/><path class="cls-6" d="M344.19,202.23c0-.69.27-1,1-1s1,.32,1,1v3.92c0,.69-.27,1-1,1s-1-.32-1-1Z"/><path class="cls-6" d="M169.35,202.23c0-.69.27-1,1-1s1,.32,1,1v3.92c0,.69-.27,1-1,1s-1-.32-1-1Z"/><path class="cls-6" d="M497.49,23.53a1.68,1.68,0,0,1,1.68,1.68v9.68a1.65,1.65,0,0,1-1.68,1.68h-4.93a1.65,1.65,0,0,1-1.68-1.68V25.2a1.68,1.68,0,0,1,1.68-1.68Zm0,11.36V25.2h-4.93v9.68Z"/><path class="cls-6" d="M509.55,23.53a1.68,1.68,0,0,1,1.68,1.68v9.68a1.65,1.65,0,0,1-1.68,1.68h-4.93a1.65,1.65,0,0,1-1.68-1.68V25.2a1.68,1.68,0,0,1,1.68-1.68Zm0,11.36V25.2h-4.93v9.68Z"/><path class="cls-6" d="M521.61,34.89V31.5a.84.84,0,0,1,1.68,0v4.22a.77.77,0,0,1-.84.84h-6.6a.84.84,0,1,1,0-1.68h2.46V25.2h-2.46a.84.84,0,1,1,0-1.68H520V34.89Z"/><path class="cls-6" d="M528.75,34.89h5.76a.84.84,0,1,1,0,1.68h-7.44V31.1A1.68,1.68,0,0,1,529,29.21h4.71v-4h-5.76a.84.84,0,1,1,0-1.68h5.56a1.73,1.73,0,0,1,1.88,2v3.43a1.73,1.73,0,0,1-1.88,2h-4.73Z"/><rect class="cls-7" x="406.07" y="93.28" width="130.01" height="20.84"/><path class="cls-6" d="M536.8,114.85H405.34V92.55H536.8Zm-130-1.46H535.35V94H406.8Z"/></g><rect class="cls-8" x="49.32" y="190.73" width="123.5" height="24.7"/><rect class="cls-8" x="190.69" y="190.73" width="150.9" height="24.7"/><line class="cls-8" x1="50.84" y1="275.81" x2="50.84" y2="215.43"/><line class="cls-8" x1="340.74" y1="273.81" x2="340.74" y2="215.43"/><path class="cls-7" d="M0,296.39V277.78H3.66l7.62,12.43V277.78h3.49v18.61H11l-7.5-12.14v12.14Z"/><path class="cls-7" d="M27.59,296.39v-2a5.2,5.2,0,0,1-1.94,1.7,5.44,5.44,0,0,1-2.53.62,4.94,4.94,0,0,1-2.44-.6,3.53,3.53,0,0,1-1.56-1.68,7.47,7.47,0,0,1-.48-3v-8.53H22.2v6.2a17.18,17.18,0,0,0,.2,3.49,1.9,1.9,0,0,0,.72,1,2.21,2.21,0,0,0,1.32.37,2.81,2.81,0,0,0,1.64-.5,2.56,2.56,0,0,0,1-1.24,14.45,14.45,0,0,0,.27-3.64v-5.69H30.9v13.48ZM23,281.26l1.75-3.8h4l-3.49,3.8Z"/><path class="cls-7" d="M34.33,282.91h3.29v1.84a5.29,5.29,0,0,1,4.2-2.15,4.53,4.53,0,0,1,2.25.53,4.1,4.1,0,0,1,1.56,1.61,6.24,6.24,0,0,1,1.92-1.61,4.7,4.7,0,0,1,2.2-.53,4.9,4.9,0,0,1,2.51.6A3.69,3.69,0,0,1,53.79,285a7.68,7.68,0,0,1,.37,2.79v8.62H50.59v-7.71a5.73,5.73,0,0,0-.37-2.59,1.69,1.69,0,0,0-1.52-.76,2.43,2.43,0,0,0-1.41.46,2.53,2.53,0,0,0-1,1.34,9.63,9.63,0,0,0-.29,2.79v6.47H42.48V289a10.25,10.25,0,0,0-.19-2.54,1.62,1.62,0,0,0-.59-.85,1.87,1.87,0,0,0-1.09-.28,2.6,2.6,0,0,0-1.49.44,2.44,2.44,0,0,0-.95,1.28,9.53,9.53,0,0,0-.29,2.78v6.55H34.33Z"/><path class="cls-7" d="M65.52,292.1l3.55.6a5.83,5.83,0,0,1-2.16,3,6.36,6.36,0,0,1-3.7,1A6,6,0,0,1,58,294.4a7.72,7.72,0,0,1-1.33-4.65,7.45,7.45,0,0,1,1.75-5.25,5.77,5.77,0,0,1,4.43-1.9,6,6,0,0,1,4.75,2q1.74,2,1.66,6.09H60.33a3.61,3.61,0,0,0,.86,2.47,2.7,2.7,0,0,0,2.06.88,2.18,2.18,0,0,0,1.41-.46A2.82,2.82,0,0,0,65.52,292.1Zm.2-3.61a3.43,3.43,0,0,0-.8-2.35,2.57,2.57,0,0,0-3.78,0,3.29,3.29,0,0,0-.75,2.31Z"/><path class="cls-7" d="M75.59,296.39H72V282.91h3.31v1.92A5.75,5.75,0,0,1,76.86,283a2.81,2.81,0,0,1,1.54-.43,4.52,4.52,0,0,1,2.35.67l-1.1,3.11A3.13,3.13,0,0,0,78,285.8a2,2,0,0,0-1.27.41,2.81,2.81,0,0,0-.82,1.49,21.19,21.19,0,0,0-.3,4.52Z"/><path class="cls-7" d="M81.47,289.46a7.3,7.3,0,0,1,.88-3.44,6,6,0,0,1,2.48-2.54,7.37,7.37,0,0,1,3.59-.88,6.73,6.73,0,0,1,5,2,6.86,6.86,0,0,1,2,5,6.94,6.94,0,0,1-2,5.07,6.67,6.67,0,0,1-5,2,7.83,7.83,0,0,1-3.54-.84,5.75,5.75,0,0,1-2.56-2.46A8.19,8.19,0,0,1,81.47,289.46Zm3.66.19a4.47,4.47,0,0,0,1,3.07,3.11,3.11,0,0,0,4.69,0,4.53,4.53,0,0,0,.95-3.1,4.45,4.45,0,0,0-.95-3,3.11,3.11,0,0,0-4.69,0A4.47,4.47,0,0,0,85.12,289.65Z"/><path class="cls-7" d="M117.76,296.39h-3.31v-2a5.34,5.34,0,0,1-1.95,1.72,5,5,0,0,1-2.27.57,5.14,5.14,0,0,1-4-1.87,7.62,7.62,0,0,1-1.66-5.22,7.53,7.53,0,0,1,1.61-5.21,5.26,5.26,0,0,1,4.08-1.78,5,5,0,0,1,3.91,1.88v-6.7h3.57Zm-9.52-7a6.17,6.17,0,0,0,.6,3.12,2.7,2.7,0,0,0,2.41,1.4,2.62,2.62,0,0,0,2.09-1,4.83,4.83,0,0,0,.86-3.13,5.29,5.29,0,0,0-.84-3.35,2.75,2.75,0,0,0-4.27,0A4.56,4.56,0,0,0,108.24,289.36Z"/><path class="cls-7" d="M129.09,292.1l3.55.6a5.83,5.83,0,0,1-2.16,3,6.36,6.36,0,0,1-3.7,1,6,6,0,0,1-5.21-2.3,7.72,7.72,0,0,1-1.33-4.65A7.45,7.45,0,0,1,122,284.5a5.77,5.77,0,0,1,4.43-1.9,6,6,0,0,1,4.75,2q1.74,2,1.66,6.09h-8.94a3.61,3.61,0,0,0,.86,2.47,2.7,2.7,0,0,0,2.06.88,2.18,2.18,0,0,0,1.41-.46A2.82,2.82,0,0,0,129.09,292.1Zm.2-3.61a3.43,3.43,0,0,0-.8-2.35,2.57,2.57,0,0,0-3.78,0,3.29,3.29,0,0,0-.75,2.31Z"/><path class="cls-7" d="M146.38,296.39h-3.57V282.91h3.31v1.92a5.75,5.75,0,0,1,1.53-1.79,2.81,2.81,0,0,1,1.54-.43,4.52,4.52,0,0,1,2.35.67l-1.1,3.11a3.13,3.13,0,0,0-1.68-.58,2,2,0,0,0-1.27.41,2.81,2.81,0,0,0-.82,1.49,21.19,21.19,0,0,0-.3,4.52Z"/><path class="cls-7" d="M162,296.39v-2a5.2,5.2,0,0,1-1.94,1.7,5.44,5.44,0,0,1-2.53.62,4.94,4.94,0,0,1-2.44-.6,3.53,3.53,0,0,1-1.56-1.68,7.47,7.47,0,0,1-.48-3v-8.53h3.57v6.2a17.18,17.18,0,0,0,.2,3.49,1.9,1.9,0,0,0,.72,1,2.21,2.21,0,0,0,1.32.37,2.81,2.81,0,0,0,1.64-.5,2.56,2.56,0,0,0,1-1.24,14.45,14.45,0,0,0,.27-3.64v-5.69h3.57v13.48Z"/><path class="cls-7" d="M175.14,282.91v2.84h-2.44v5.43a13.48,13.48,0,0,0,.07,1.92.78.78,0,0,0,.32.45,1,1,0,0,0,.6.18,4.62,4.62,0,0,0,1.43-.34l.3,2.77a7.09,7.09,0,0,1-2.82.53,4.49,4.49,0,0,1-1.74-.32,2.55,2.55,0,0,1-1.14-.84,3.31,3.31,0,0,1-.5-1.39,17.28,17.28,0,0,1-.11-2.51v-5.88h-1.64v-2.84h1.64v-2.68l3.58-2.08v4.76Z"/><path class="cls-7" d="M180.29,287l-3.24-.58a5,5,0,0,1,1.88-2.89,6.88,6.88,0,0,1,4-.94,8.53,8.53,0,0,1,3.55.57,3.54,3.54,0,0,1,1.64,1.43,7.36,7.36,0,0,1,.48,3.19l0,4.16a14.44,14.44,0,0,0,.17,2.62,7.65,7.65,0,0,0,.64,1.81h-3.53q-.14-.36-.34-1.05c-.06-.21-.1-.35-.13-.42a6.44,6.44,0,0,1-2,1.33,5.59,5.59,0,0,1-2.22.44,4.59,4.59,0,0,1-3.28-1.13,3.76,3.76,0,0,1-1.2-2.86,3.84,3.84,0,0,1,.55-2,3.58,3.58,0,0,1,1.53-1.37,12,12,0,0,1,2.84-.83,19.41,19.41,0,0,0,3.47-.88v-.36a1.85,1.85,0,0,0-.51-1.47,3.05,3.05,0,0,0-1.92-.44,2.55,2.55,0,0,0-1.49.38A2.6,2.6,0,0,0,180.29,287Zm4.77,2.89a22.11,22.11,0,0,1-2.17.55,6.52,6.52,0,0,0-1.94.62,1.49,1.49,0,0,0-.7,1.26,1.75,1.75,0,0,0,.56,1.29,2,2,0,0,0,1.42.55,3.09,3.09,0,0,0,1.84-.63,2.24,2.24,0,0,0,.85-1.18,7.05,7.05,0,0,0,.14-1.74Z"/><path class="cls-7" d="M199.15,296.39V277.78h3.57v6.7a5,5,0,0,1,3.91-1.88,5.26,5.26,0,0,1,4.08,1.78,7.38,7.38,0,0,1,1.61,5.12,7.8,7.8,0,0,1-1.64,5.32,5.13,5.13,0,0,1-4,1.87,4.94,4.94,0,0,1-2.28-.58,5.46,5.46,0,0,1-1.94-1.71v2Zm3.54-7a5.73,5.73,0,0,0,.66,3.1,2.82,2.82,0,0,0,2.46,1.42,2.53,2.53,0,0,0,2-1,5,5,0,0,0,.83-3.18,5.27,5.27,0,0,0-.84-3.33,2.65,2.65,0,0,0-2.15-1,2.69,2.69,0,0,0-2.13,1A4.58,4.58,0,0,0,202.69,289.36Z"/><path class="cls-7" d="M217.85,287l-3.24-.58a5,5,0,0,1,1.88-2.89,6.88,6.88,0,0,1,4-.94,8.53,8.53,0,0,1,3.55.57,3.54,3.54,0,0,1,1.64,1.43,7.36,7.36,0,0,1,.48,3.19l0,4.16a14.44,14.44,0,0,0,.17,2.62,7.65,7.65,0,0,0,.64,1.81h-3.53q-.14-.36-.34-1.05c-.06-.21-.1-.35-.13-.42a6.44,6.44,0,0,1-2,1.33,5.59,5.59,0,0,1-2.22.44,4.59,4.59,0,0,1-3.28-1.13,3.76,3.76,0,0,1-1.2-2.86,3.84,3.84,0,0,1,.55-2,3.58,3.58,0,0,1,1.53-1.37,12,12,0,0,1,2.84-.83,19.41,19.41,0,0,0,3.47-.88v-.36a1.85,1.85,0,0,0-.51-1.47,3.05,3.05,0,0,0-1.92-.44,2.55,2.55,0,0,0-1.49.38A2.6,2.6,0,0,0,217.85,287Zm4.77,2.89a22.11,22.11,0,0,1-2.17.55,6.52,6.52,0,0,0-1.94.62,1.49,1.49,0,0,0-.7,1.26,1.75,1.75,0,0,0,.56,1.29,2,2,0,0,0,1.42.55,3.09,3.09,0,0,0,1.84-.63,2.24,2.24,0,0,0,.85-1.18,7.05,7.05,0,0,0,.14-1.74Z"/><path class="cls-7" d="M241.91,296.39h-3.57v-6.88a10.64,10.64,0,0,0-.23-2.83,2,2,0,0,0-.74-1,2.13,2.13,0,0,0-1.24-.36,2.86,2.86,0,0,0-1.66.51,2.56,2.56,0,0,0-1,1.35,11.63,11.63,0,0,0-.27,3.1v6.11h-3.57V282.91h3.31v2a5.53,5.53,0,0,1,6.6-1.86,3.63,3.63,0,0,1,1.48,1.09,3.93,3.93,0,0,1,.7,1.5,11.15,11.15,0,0,1,.2,2.4Z"/><path class="cls-7" d="M257.28,286.89l-3.52.63a2.55,2.55,0,0,0-.81-1.59,2.43,2.43,0,0,0-1.63-.53,2.67,2.67,0,0,0-2.13.92,4.72,4.72,0,0,0-.79,3.08,5.45,5.45,0,0,0,.81,3.39,2.65,2.65,0,0,0,2.16,1,2.4,2.4,0,0,0,1.66-.58,3.47,3.47,0,0,0,.91-2l3.5.6a6.22,6.22,0,0,1-2.09,3.64,6.49,6.49,0,0,1-4.15,1.23,6.17,6.17,0,0,1-4.72-1.87,8.5,8.5,0,0,1,0-10.37,6.27,6.27,0,0,1,4.77-1.86,6.52,6.52,0,0,1,3.92,1.06A5.88,5.88,0,0,1,257.28,286.89Z"/><path class="cls-7" d="M262.65,287l-3.24-.58a5,5,0,0,1,1.88-2.89,6.88,6.88,0,0,1,4-.94,8.53,8.53,0,0,1,3.55.57,3.54,3.54,0,0,1,1.64,1.43,7.36,7.36,0,0,1,.48,3.19l0,4.16a14.44,14.44,0,0,0,.17,2.62,7.65,7.65,0,0,0,.64,1.81h-3.53q-.14-.36-.34-1.05c-.06-.21-.1-.35-.13-.42a6.44,6.44,0,0,1-2,1.33,5.59,5.59,0,0,1-2.22.44,4.59,4.59,0,0,1-3.28-1.13,3.76,3.76,0,0,1-1.2-2.86,3.84,3.84,0,0,1,.55-2,3.58,3.58,0,0,1,1.53-1.37,12,12,0,0,1,2.84-.83,19.41,19.41,0,0,0,3.47-.88v-.36a1.85,1.85,0,0,0-.51-1.47,3.05,3.05,0,0,0-1.92-.44,2.55,2.55,0,0,0-1.49.38A2.6,2.6,0,0,0,262.65,287Zm4.77,2.89a22.11,22.11,0,0,1-2.17.55,6.52,6.52,0,0,0-1.94.62,1.49,1.49,0,0,0-.7,1.26,1.75,1.75,0,0,0,.56,1.29,2,2,0,0,0,1.42.55,3.09,3.09,0,0,0,1.84-.63,2.24,2.24,0,0,0,.85-1.18,7.05,7.05,0,0,0,.14-1.74Z"/><path class="cls-7" d="M277.86,296.39h-3.57V282.91h3.31v1.92a5.75,5.75,0,0,1,1.53-1.79,2.81,2.81,0,0,1,1.54-.43,4.52,4.52,0,0,1,2.35.67l-1.1,3.11a3.13,3.13,0,0,0-1.68-.58,2,2,0,0,0-1.27.41,2.81,2.81,0,0,0-.82,1.49,21.19,21.19,0,0,0-.3,4.52Z"/><path class="cls-7" d="M284.57,281.08v-3.3h3.57v3.3Zm0,15.31V282.91h3.57v13.48Z"/><path class="cls-7" d="M294.46,287l-3.24-.58a5,5,0,0,1,1.88-2.89,6.88,6.88,0,0,1,4-.94,8.53,8.53,0,0,1,3.55.57,3.54,3.54,0,0,1,1.64,1.43,7.36,7.36,0,0,1,.48,3.19l0,4.16a14.44,14.44,0,0,0,.17,2.62,7.65,7.65,0,0,0,.64,1.81H300q-.14-.36-.34-1.05c-.06-.21-.1-.35-.13-.42a6.44,6.44,0,0,1-2,1.33,5.59,5.59,0,0,1-2.22.44,4.59,4.59,0,0,1-3.28-1.13,3.76,3.76,0,0,1-1.2-2.86,3.84,3.84,0,0,1,.55-2,3.58,3.58,0,0,1,1.53-1.37,12,12,0,0,1,2.84-.83,19.41,19.41,0,0,0,3.47-.88v-.36a1.85,1.85,0,0,0-.51-1.47,3.05,3.05,0,0,0-1.92-.44,2.55,2.55,0,0,0-1.49.38A2.6,2.6,0,0,0,294.46,287Zm4.77,2.89a22.11,22.11,0,0,1-2.17.55,6.52,6.52,0,0,0-1.94.62,1.49,1.49,0,0,0-.7,1.26,1.75,1.75,0,0,0,.56,1.29,2,2,0,0,0,1.42.55,3.09,3.09,0,0,0,1.84-.63,2.24,2.24,0,0,0,.85-1.18,7.05,7.05,0,0,0,.14-1.74Z"/><path class="cls-7" d="M332.9,296.39V277.78h3.66l7.62,12.43V277.78h3.49v18.61h-3.77l-7.5-12.14v12.14Z"/><path class="cls-7" d="M360.49,296.39v-2a5.2,5.2,0,0,1-1.94,1.7,5.44,5.44,0,0,1-2.53.62,4.94,4.94,0,0,1-2.44-.6,3.53,3.53,0,0,1-1.56-1.68,7.47,7.47,0,0,1-.48-3v-8.53h3.57v6.2a17.18,17.18,0,0,0,.2,3.49,1.9,1.9,0,0,0,.72,1,2.21,2.21,0,0,0,1.32.37,2.81,2.81,0,0,0,1.64-.5,2.56,2.56,0,0,0,1-1.24,14.45,14.45,0,0,0,.27-3.64v-5.69h3.57v13.48Zm-4.62-15.13,1.75-3.8h4l-3.49,3.8Z"/><path class="cls-7" d="M367.23,282.91h3.29v1.84a5.29,5.29,0,0,1,4.2-2.15,4.53,4.53,0,0,1,2.25.53,4.1,4.1,0,0,1,1.56,1.61,6.24,6.24,0,0,1,1.92-1.61,4.7,4.7,0,0,1,2.2-.53,4.9,4.9,0,0,1,2.51.6,3.69,3.69,0,0,1,1.54,1.77,7.68,7.68,0,0,1,.37,2.79v8.62h-3.57v-7.71a5.73,5.73,0,0,0-.37-2.59,1.69,1.69,0,0,0-1.52-.76,2.43,2.43,0,0,0-1.41.46,2.53,2.53,0,0,0-1,1.34,9.63,9.63,0,0,0-.29,2.79v6.47h-3.57V289a10.25,10.25,0,0,0-.19-2.54,1.62,1.62,0,0,0-.59-.85,1.87,1.87,0,0,0-1.09-.28,2.6,2.6,0,0,0-1.49.44,2.44,2.44,0,0,0-.95,1.28,9.53,9.53,0,0,0-.29,2.78v6.55h-3.57Z"/><path class="cls-7" d="M398.42,292.1l3.55.6a5.83,5.83,0,0,1-2.16,3,6.36,6.36,0,0,1-3.7,1,6,6,0,0,1-5.21-2.3,7.72,7.72,0,0,1-1.33-4.65,7.45,7.45,0,0,1,1.75-5.25,5.77,5.77,0,0,1,4.43-1.9,6,6,0,0,1,4.75,2q1.74,2,1.66,6.09h-8.94a3.61,3.61,0,0,0,.86,2.47,2.7,2.7,0,0,0,2.06.88,2.18,2.18,0,0,0,1.41-.46A2.82,2.82,0,0,0,398.42,292.1Zm.2-3.61a3.43,3.43,0,0,0-.8-2.35,2.57,2.57,0,0,0-3.78,0,3.29,3.29,0,0,0-.75,2.31Z"/><path class="cls-7" d="M408.49,296.39h-3.57V282.91h3.31v1.92a5.75,5.75,0,0,1,1.53-1.79,2.81,2.81,0,0,1,1.54-.43,4.52,4.52,0,0,1,2.35.67l-1.1,3.11a3.13,3.13,0,0,0-1.68-.58,2,2,0,0,0-1.27.41,2.81,2.81,0,0,0-.82,1.49,21.19,21.19,0,0,0-.3,4.52Z"/><path class="cls-7" d="M414.36,289.46a7.3,7.3,0,0,1,.88-3.44,6,6,0,0,1,2.48-2.54,7.37,7.37,0,0,1,3.59-.88,6.73,6.73,0,0,1,5,2,6.86,6.86,0,0,1,2,5,6.94,6.94,0,0,1-2,5.07,6.67,6.67,0,0,1-5,2,7.83,7.83,0,0,1-3.54-.84,5.75,5.75,0,0,1-2.56-2.46A8.19,8.19,0,0,1,414.36,289.46Zm3.66.19a4.47,4.47,0,0,0,1,3.07,3.11,3.11,0,0,0,4.69,0,4.53,4.53,0,0,0,.95-3.1,4.45,4.45,0,0,0-.95-3,3.11,3.11,0,0,0-4.69,0A4.47,4.47,0,0,0,418,289.65Z"/><path class="cls-7" d="M450.66,296.39h-3.31v-2a5.34,5.34,0,0,1-1.95,1.72,5,5,0,0,1-2.27.57,5.14,5.14,0,0,1-4-1.87,7.62,7.62,0,0,1-1.66-5.22,7.53,7.53,0,0,1,1.61-5.21,5.26,5.26,0,0,1,4.08-1.78,5,5,0,0,1,3.91,1.88v-6.7h3.57Zm-9.52-7a6.17,6.17,0,0,0,.6,3.12,2.7,2.7,0,0,0,2.41,1.4,2.62,2.62,0,0,0,2.09-1,4.83,4.83,0,0,0,.86-3.13,5.29,5.29,0,0,0-.84-3.35,2.75,2.75,0,0,0-4.27,0A4.56,4.56,0,0,0,441.14,289.36Z"/><path class="cls-7" d="M462,292.1l3.55.6a5.83,5.83,0,0,1-2.16,3,6.36,6.36,0,0,1-3.7,1,6,6,0,0,1-5.21-2.3,7.72,7.72,0,0,1-1.33-4.65,7.45,7.45,0,0,1,1.75-5.25,5.77,5.77,0,0,1,4.43-1.9,6,6,0,0,1,4.75,2q1.74,2,1.66,6.09h-8.94a3.61,3.61,0,0,0,.86,2.47,2.7,2.7,0,0,0,2.06.88,2.18,2.18,0,0,0,1.41-.46A2.82,2.82,0,0,0,462,292.1Zm.2-3.61a3.43,3.43,0,0,0-.8-2.35,2.57,2.57,0,0,0-3.78,0,3.29,3.29,0,0,0-.75,2.31Z"/><path class="cls-7" d="M487.62,286.89l-3.52.63a2.55,2.55,0,0,0-.81-1.59,2.43,2.43,0,0,0-1.63-.53,2.67,2.67,0,0,0-2.13.92,4.72,4.72,0,0,0-.79,3.08,5.45,5.45,0,0,0,.81,3.39,2.65,2.65,0,0,0,2.16,1,2.4,2.4,0,0,0,1.66-.58,3.47,3.47,0,0,0,.91-2l3.5.6a6.22,6.22,0,0,1-2.09,3.64,6.49,6.49,0,0,1-4.15,1.23,6.17,6.17,0,0,1-4.72-1.87,8.5,8.5,0,0,1,0-10.37,6.27,6.27,0,0,1,4.77-1.86,6.52,6.52,0,0,1,3.92,1.06A5.88,5.88,0,0,1,487.62,286.89Z"/><path class="cls-7" d="M499.19,296.39v-2a5.2,5.2,0,0,1-1.94,1.7,5.44,5.44,0,0,1-2.53.62,4.94,4.94,0,0,1-2.44-.6,3.53,3.53,0,0,1-1.56-1.68,7.47,7.47,0,0,1-.48-3v-8.53h3.57v6.2a17.18,17.18,0,0,0,.2,3.49,1.9,1.9,0,0,0,.72,1A2.21,2.21,0,0,0,496,294a2.81,2.81,0,0,0,1.64-.5,2.56,2.56,0,0,0,1-1.24,14.45,14.45,0,0,0,.27-3.64v-5.69h3.57v13.48Z"/><path class="cls-7" d="M514,292.1l3.55.6a5.83,5.83,0,0,1-2.16,3,6.36,6.36,0,0,1-3.7,1,6,6,0,0,1-5.21-2.3,7.72,7.72,0,0,1-1.33-4.65,7.45,7.45,0,0,1,1.75-5.25,5.77,5.77,0,0,1,4.43-1.9,6,6,0,0,1,4.75,2q1.74,2,1.66,6.09h-8.94a3.61,3.61,0,0,0,.86,2.47,2.7,2.7,0,0,0,2.06.88,2.18,2.18,0,0,0,1.41-.46A2.82,2.82,0,0,0,514,292.1Zm.2-3.61a3.43,3.43,0,0,0-.8-2.35,2.57,2.57,0,0,0-3.78,0,3.29,3.29,0,0,0-.75,2.31Z"/><path class="cls-7" d="M532.93,296.39h-3.57v-6.88a10.64,10.64,0,0,0-.23-2.83,2,2,0,0,0-.74-1,2.13,2.13,0,0,0-1.24-.36,2.86,2.86,0,0,0-1.66.51,2.56,2.56,0,0,0-1,1.35,11.63,11.63,0,0,0-.27,3.1v6.11h-3.57V282.91H524v2a5.53,5.53,0,0,1,6.6-1.86,3.63,3.63,0,0,1,1.48,1.09,3.93,3.93,0,0,1,.7,1.5,11.15,11.15,0,0,1,.2,2.4Z"/><path class="cls-7" d="M542.73,282.91v2.84h-2.44v5.43a13.48,13.48,0,0,0,.07,1.92.78.78,0,0,0,.32.45,1,1,0,0,0,.6.18,4.62,4.62,0,0,0,1.43-.34l.3,2.77a7.09,7.09,0,0,1-2.82.53,4.49,4.49,0,0,1-1.74-.32,2.55,2.55,0,0,1-1.14-.84,3.31,3.31,0,0,1-.5-1.39,17.28,17.28,0,0,1-.11-2.51v-5.88h-1.64v-2.84h1.64v-2.68l3.58-2.08v4.76Z"/><path class="cls-7" d="M547.87,287l-3.24-.58a5,5,0,0,1,1.88-2.89,6.88,6.88,0,0,1,4-.94,8.53,8.53,0,0,1,3.55.57,3.54,3.54,0,0,1,1.64,1.43,7.36,7.36,0,0,1,.48,3.19l0,4.16a14.44,14.44,0,0,0,.17,2.62,7.65,7.65,0,0,0,.64,1.81h-3.53q-.14-.36-.34-1.05c-.06-.21-.1-.35-.13-.42a6.44,6.44,0,0,1-2,1.33,5.59,5.59,0,0,1-2.22.44,4.59,4.59,0,0,1-3.28-1.13,3.76,3.76,0,0,1-1.2-2.86,3.84,3.84,0,0,1,.55-2,3.58,3.58,0,0,1,1.53-1.37,12,12,0,0,1,2.84-.83,19.41,19.41,0,0,0,3.47-.88v-.36a1.85,1.85,0,0,0-.51-1.47,3.05,3.05,0,0,0-1.92-.44,2.55,2.55,0,0,0-1.49.38A2.6,2.6,0,0,0,547.87,287Zm4.77,2.89a22.11,22.11,0,0,1-2.17.55,6.52,6.52,0,0,0-1.94.62,1.49,1.49,0,0,0-.7,1.26,1.75,1.75,0,0,0,.56,1.29,2,2,0,0,0,1.42.55,3.09,3.09,0,0,0,1.84-.63,2.24,2.24,0,0,0,.85-1.18,7.05,7.05,0,0,0,.14-1.74Z"/></g></g></svg>