<svg xmlns="http://www.w3.org/2000/svg" viewBox="0 0 548.87 301.86"><defs><style>.cls-1{opacity:0.8;}.cls-2{fill:#ddeef4;}.cls-3{opacity:0.5;}.cls-4{fill:#8ed4ed;}.cls-5{fill:#b3efff;}.cls-6{fill:#04506e;}.cls-7{fill:#fff;}.cls-8{fill:none;stroke:#fff;stroke-miterlimit:10;stroke-width:3.5px;}</style></defs><title>Asset 108</title><g id="Layer_2" data-name="Layer 2"><g id="Comps"><g class="cls-1"><rect class="cls-2" width="548.87" height="238.06"/><g class="cls-3"><rect class="cls-4" x="19.65" y="18.69" width="509.57" height="1.25"/><rect class="cls-4" x="19.65" y="23.55" width="509.57" height="1.25"/><rect class="cls-4" x="19.65" y="28.42" width="509.57" height="1.25"/><rect class="cls-4" x="19.65" y="33.28" width="509.57" height="1.25"/><rect class="cls-4" x="19.65" y="38.15" width="509.57" height="1.25"/><rect class="cls-4" x="19.65" y="43.01" width="509.57" height="1.25"/><rect class="cls-4" x="19.65" y="47.87" width="509.57" height="1.25"/><rect class="cls-4" x="19.65" y="52.74" width="509.57" height="1.25"/><rect class="cls-4" x="19.65" y="57.6" width="509.57" height="1.25"/><rect class="cls-4" x="19.65" y="62.47" width="509.57" height="1.25"/><rect class="cls-4" x="19.65" y="67.33" width="509.57" height="1.25"/><rect class="cls-4" x="19.65" y="72.2" width="509.57" height="1.25"/><rect class="cls-4" x="19.65" y="77.06" width="509.57" height="1.25"/><rect class="cls-4" x="19.65" y="81.92" width="509.57" height="1.25"/><rect class="cls-4" x="19.65" y="86.79" width="509.57" height="1.25"/><rect class="cls-4" x="19.65" y="91.65" width="509.57" height="1.25"/><rect class="cls-4" x="19.65" y="96.52" width="509.57" height="1.25"/><rect class="cls-4" x="19.65" y="101.38" width="509.57" height="1.25"/><rect class="cls-4" x="19.65" y="106.25" width="509.57" height="1.25"/><rect class="cls-4" x="19.65" y="111.11" width="509.57" height="1.25"/><rect class="cls-4" x="19.65" y="115.98" width="509.57" height="1.25"/><rect class="cls-4" x="19.65" y="120.84" width="509.57" height="1.25"/><rect class="cls-4" x="19.65" y="125.7" width="509.57" height="1.25"/><rect class="cls-4" x="19.65" y="130.57" width="509.57" height="1.25"/><rect class="cls-4" x="19.65" y="135.43" width="509.57" height="1.25"/><rect class="cls-4" x="19.65" y="140.3" width="509.57" height="1.25"/><rect class="cls-4" x="19.65" y="145.16" width="509.57" height="1.25"/><rect class="cls-4" x="19.65" y="150.03" width="509.57" height="1.25"/><rect class="cls-4" x="19.65" y="154.89" width="509.57" height="1.25"/><rect class="cls-4" x="19.65" y="159.75" width="509.57" height="1.25"/><rect class="cls-4" x="19.65" y="164.62" width="509.57" height="1.25"/><rect class="cls-4" x="19.65" y="169.48" width="509.57" height="1.25"/><rect class="cls-4" x="19.65" y="174.35" width="509.57" height="1.25"/><rect class="cls-4" x="19.65" y="179.21" width="509.57" height="1.25"/><rect class="cls-4" x="19.65" y="184.08" width="509.57" height="1.25"/><rect class="cls-4" x="19.65" y="188.94" width="509.57" height="1.25"/><rect class="cls-4" x="19.65" y="193.81" width="509.57" height="1.25"/><rect class="cls-4" x="19.65" y="198.67" width="509.57" height="1.25"/><rect class="cls-4" x="19.65" y="203.53" width="509.57" height="1.25"/><rect class="cls-4" x="19.65" y="208.4" width="509.57" height="1.25"/><rect class="cls-4" x="19.65" y="213.26" width="509.57" height="1.25"/><rect class="cls-4" x="19.65" y="218.13" width="509.57" height="1.25"/></g><g class="cls-3"><polygon class="cls-4" points="230.13 230.03 224.59 235.57 221.82 232.8 224.59 230.03 221.82 227.26 224.59 224.5 230.13 230.03"/><rect class="cls-5" x="219.86" y="228.08" width="3.92" height="3.92" transform="translate(-97.69 224.22) rotate(-45)"/><rect class="cls-4" x="217.09" y="225.31" width="3.92" height="3.92" transform="translate(-96.54 221.52) rotate(-45.01)"/><rect class="cls-4" x="217.09" y="230.85" width="3.92" height="3.92" transform="translate(-100.46 223.01) rotate(-44.99)"/><rect class="cls-5" x="214.32" y="228.08" width="3.92" height="3.92" transform="translate(-99.31 220.38) rotate(-45.01)"/><polygon class="cls-4" points="216.28 227.26 213.51 230.03 216.28 232.8 213.51 235.57 207.97 230.03 213.51 224.5 216.28 227.26"/><path class="cls-5" d="M208,232.85a2.82,2.82,0,0,0,0-5.64Z"/><path class="cls-5" d="M230.13,227.21a2.82,2.82,0,1,0,0,5.64Z"/></g><g class="cls-3"><polygon class="cls-4" points="252.28 230.03 246.74 235.57 243.97 232.8 246.74 230.03 243.97 227.26 246.74 224.5 252.28 230.03"/><rect class="cls-5" x="242.01" y="228.08" width="3.92" height="3.92" transform="translate(-91.2 239.89) rotate(-45)"/><rect class="cls-4" x="239.25" y="225.31" width="3.92" height="3.92" transform="translate(-90.05 237.19) rotate(-45.01)"/><rect class="cls-4" x="239.25" y="230.85" width="3.92" height="3.92" transform="translate(-93.97 238.67) rotate(-44.99)"/><rect class="cls-5" x="236.48" y="228.08" width="3.92" height="3.92" transform="translate(-92.82 236.05) rotate(-45.01)"/><polygon class="cls-4" points="238.44 227.26 235.66 230.03 238.44 232.8 235.66 235.57 230.13 230.03 235.66 224.5 238.44 227.26"/><path class="cls-5" d="M230.13,232.85a2.82,2.82,0,0,0,0-5.64Z"/><path class="cls-5" d="M252.28,227.21a2.82,2.82,0,1,0,0,5.64Z"/></g><g class="cls-3"><polygon class="cls-4" points="185.81 230.03 180.28 235.57 177.51 232.8 180.28 230.03 177.51 227.26 180.28 224.5 185.81 230.03"/><rect class="cls-5" x="175.55" y="228.08" width="3.92" height="3.92" transform="translate(-110.67 192.89) rotate(-45)"/><rect class="cls-4" x="172.78" y="225.31" width="3.92" height="3.92" transform="translate(-109.53 190.18) rotate(-45.01)"/><rect class="cls-4" x="172.78" y="230.85" width="3.92" height="3.92" transform="translate(-113.43 191.68) rotate(-44.99)"/><rect class="cls-5" x="170.01" y="228.08" width="3.92" height="3.92" transform="translate(-112.3 189.04) rotate(-45.01)"/><polygon class="cls-4" points="171.97 227.26 169.2 230.03 171.97 232.8 169.2 235.57 163.66 230.03 169.2 224.5 171.97 227.26"/><path class="cls-5" d="M163.66,232.85a2.82,2.82,0,0,0,0-5.64Z"/><path class="cls-5" d="M185.82,227.21a2.82,2.82,0,1,0,0,5.64Z"/></g><g class="cls-3"><polygon class="cls-4" points="207.97 230.03 202.43 235.57 199.66 232.8 202.43 230.03 199.66 227.26 202.43 224.5 207.97 230.03"/><rect class="cls-5" x="197.7" y="228.08" width="3.92" height="3.92" transform="translate(-104.18 208.56) rotate(-45)"/><rect class="cls-4" x="194.93" y="225.31" width="3.92" height="3.92" transform="translate(-103.04 205.85) rotate(-45.01)"/><rect class="cls-4" x="194.94" y="230.85" width="3.92" height="3.92" transform="translate(-106.94 207.34) rotate(-44.99)"/><rect class="cls-5" x="192.17" y="228.08" width="3.92" height="3.92" transform="translate(-105.81 204.71) rotate(-45.01)"/><polygon class="cls-4" points="194.12 227.26 191.35 230.03 194.12 232.8 191.35 235.57 185.81 230.03 191.35 224.5 194.12 227.26"/><path class="cls-5" d="M185.82,232.85a2.82,2.82,0,0,0,0-5.64Z"/><path class="cls-5" d="M208,227.21a2.82,2.82,0,1,0,0,5.64Z"/></g><g class="cls-3"><polygon class="cls-4" points="141.5 230.03 135.97 235.57 133.2 232.8 135.97 230.03 133.2 227.26 135.97 224.5 141.5 230.03"/><rect class="cls-5" x="131.24" y="228.08" width="3.92" height="3.92" transform="translate(-123.65 161.56) rotate(-45)"/><rect class="cls-4" x="128.47" y="225.31" width="3.92" height="3.92" transform="translate(-122.51 158.85) rotate(-45.01)"/><rect class="cls-4" x="128.47" y="230.85" width="3.92" height="3.92" transform="translate(-126.4 160.36) rotate(-44.99)"/><rect class="cls-5" x="125.7" y="228.08" width="3.92" height="3.92" transform="translate(-125.28 157.7) rotate(-45.01)"/><polygon class="cls-4" points="127.66 227.26 124.89 230.03 127.66 232.8 124.89 235.57 119.35 230.03 124.89 224.5 127.66 227.26"/><path class="cls-5" d="M119.35,232.85a2.82,2.82,0,0,0,0-5.64Z"/><path class="cls-5" d="M141.5,227.21a2.82,2.82,0,1,0,0,5.64Z"/></g><g class="cls-3"><polygon class="cls-4" points="163.66 230.03 158.12 235.57 155.35 232.8 158.12 230.03 155.35 227.26 158.12 224.5 163.66 230.03"/><rect class="cls-5" x="153.39" y="228.08" width="3.92" height="3.92" transform="translate(-117.16 177.23) rotate(-45)"/><rect class="cls-4" x="150.62" y="225.31" width="3.92" height="3.92" transform="translate(-116.02 174.51) rotate(-45.01)"/><rect class="cls-4" x="150.62" y="230.85" width="3.92" height="3.92" transform="translate(-119.91 176.02) rotate(-44.99)"/><rect class="cls-5" x="147.86" y="228.08" width="3.92" height="3.92" transform="translate(-118.79 173.37) rotate(-45.01)"/><polygon class="cls-4" points="149.81 227.26 147.04 230.03 149.81 232.8 147.04 235.57 141.5 230.03 147.04 224.5 149.81 227.26"/><path class="cls-5" d="M141.5,232.85a2.82,2.82,0,0,0,0-5.64Z"/><path class="cls-5" d="M163.66,227.21a2.82,2.82,0,1,0,0,5.64Z"/></g><g class="cls-3"><polygon class="cls-4" points="97.19 230.03 91.66 235.57 88.89 232.8 91.66 230.03 88.89 227.26 91.66 224.5 97.19 230.03"/><rect class="cls-5" x="86.93" y="228.08" width="3.92" height="3.92" transform="translate(-136.62 130.23) rotate(-45)"/><rect class="cls-4" x="84.16" y="225.31" width="3.92" height="3.92" transform="translate(-135.5 127.51) rotate(-45.01)"/><rect class="cls-4" x="84.16" y="230.85" width="3.92" height="3.92" transform="translate(-139.37 129.03) rotate(-44.99)"/><rect class="cls-5" x="81.39" y="228.08" width="3.92" height="3.92" transform="translate(-138.27 126.36) rotate(-45.01)"/><polygon class="cls-4" points="83.35 227.26 80.58 230.03 83.35 232.8 80.58 235.57 75.04 230.03 80.58 224.5 83.35 227.26"/><path class="cls-5" d="M75,232.85a2.82,2.82,0,0,0,0-5.64Z"/><path class="cls-5" d="M97.19,227.21a2.82,2.82,0,1,0,0,5.64Z"/></g><g class="cls-3"><polygon class="cls-4" points="119.35 230.03 113.81 235.57 111.04 232.8 113.81 230.03 111.04 227.26 113.81 224.5 119.35 230.03"/><rect class="cls-5" x="109.08" y="228.08" width="3.92" height="3.92" transform="translate(-130.14 145.89) rotate(-45)"/><rect class="cls-4" x="106.31" y="225.31" width="3.92" height="3.92" transform="translate(-129.01 143.18) rotate(-45.01)"/><rect class="cls-4" x="106.31" y="230.85" width="3.92" height="3.92" transform="translate(-132.89 144.69) rotate(-44.99)"/><rect class="cls-5" x="103.54" y="228.08" width="3.92" height="3.92" transform="translate(-131.78 142.03) rotate(-45.01)"/><polygon class="cls-4" points="105.5 227.26 102.73 230.03 105.5 232.8 102.73 235.57 97.19 230.03 102.73 224.5 105.5 227.26"/><path class="cls-5" d="M97.19,232.85a2.82,2.82,0,0,0,0-5.64Z"/><path class="cls-5" d="M119.35,227.21a2.82,2.82,0,1,0,0,5.64Z"/></g><g class="cls-3"><polygon class="cls-4" points="52.88 230.03 47.34 235.57 44.58 232.8 47.35 230.03 44.58 227.26 47.34 224.5 52.88 230.03"/><rect class="cls-5" x="42.62" y="228.08" width="3.92" height="3.92" transform="translate(-149.6 98.9) rotate(-45)"/><rect class="cls-4" x="39.85" y="225.31" width="3.92" height="3.92" transform="translate(-148.48 96.17) rotate(-45.01)"/><rect class="cls-4" x="39.85" y="230.85" width="3.92" height="3.92" transform="translate(-152.34 97.71) rotate(-44.99)"/><rect class="cls-5" x="37.08" y="228.08" width="3.92" height="3.92" transform="translate(-151.25 95.02) rotate(-45.01)"/><polygon class="cls-4" points="39.04 227.26 36.27 230.03 39.04 232.8 36.27 235.57 30.73 230.03 36.27 224.5 39.04 227.26"/><path class="cls-5" d="M30.73,232.85a2.82,2.82,0,0,0,0-5.64Z"/><path class="cls-5" d="M52.88,227.21a2.82,2.82,0,1,0,0,5.64Z"/></g><g class="cls-3"><polygon class="cls-4" points="75.04 230.03 69.5 235.57 66.73 232.8 69.5 230.03 66.73 227.26 69.5 224.5 75.04 230.03"/><rect class="cls-5" x="64.77" y="228.08" width="3.92" height="3.92" transform="translate(-143.11 114.56) rotate(-45)"/><rect class="cls-4" x="62" y="225.31" width="3.92" height="3.92" transform="translate(-141.99 111.84) rotate(-45.01)"/><rect class="cls-4" x="62" y="230.85" width="3.92" height="3.92" transform="translate(-145.86 113.37) rotate(-44.99)"/><rect class="cls-5" x="59.23" y="228.08" width="3.92" height="3.92" transform="translate(-144.76 110.69) rotate(-45.01)"/><polygon class="cls-4" points="61.19 227.26 58.42 230.03 61.19 232.8 58.42 235.57 52.88 230.03 58.42 224.5 61.19 227.26"/><path class="cls-5" d="M52.88,232.85a2.82,2.82,0,0,0,0-5.64Z"/><path class="cls-5" d="M75,227.21a2.82,2.82,0,1,0,0,5.64Z"/></g><g class="cls-3"><polygon class="cls-4" points="473.83 230.03 468.29 235.57 465.52 232.8 468.29 230.03 465.52 227.26 468.29 224.5 473.83 230.03"/><rect class="cls-5" x="463.57" y="228.08" width="3.92" height="3.92" transform="translate(-26.31 396.55) rotate(-45)"/><rect class="cls-4" x="460.8" y="225.31" width="3.92" height="3.92" transform="translate(-25.13 393.89) rotate(-45.01)"/><rect class="cls-4" x="460.8" y="230.85" width="3.92" height="3.92" transform="translate(-29.11 395.3) rotate(-44.99)"/><rect class="cls-5" x="458.03" y="228.08" width="3.92" height="3.92" transform="translate(-27.9 392.74) rotate(-45.01)"/><polygon class="cls-4" points="459.99 227.26 457.22 230.03 459.99 232.8 457.22 235.57 451.68 230.03 457.22 224.5 459.99 227.26"/><path class="cls-5" d="M451.68,232.85a2.82,2.82,0,0,0,0-5.64Z"/><path class="cls-5" d="M473.83,227.21a2.82,2.82,0,1,0,0,5.64Z"/></g><g class="cls-3"><polygon class="cls-4" points="495.99 230.03 490.45 235.57 487.68 232.8 490.45 230.03 487.68 227.26 490.45 224.5 495.99 230.03"/><rect class="cls-5" x="485.72" y="228.08" width="3.92" height="3.92" transform="translate(-19.82 412.22) rotate(-45)"/><rect class="cls-4" x="482.95" y="225.31" width="3.92" height="3.92" transform="translate(-18.63 409.56) rotate(-45.01)"/><rect class="cls-4" x="482.95" y="230.85" width="3.92" height="3.92" transform="translate(-22.63 410.96) rotate(-44.99)"/><rect class="cls-5" x="480.18" y="228.08" width="3.92" height="3.92" transform="translate(-21.4 408.41) rotate(-45.01)"/><polygon class="cls-4" points="482.14 227.26 479.37 230.03 482.14 232.8 479.37 235.57 473.83 230.03 479.37 224.5 482.14 227.26"/><path class="cls-5" d="M473.83,232.85a2.82,2.82,0,0,0,0-5.64Z"/><path class="cls-5" d="M496,227.21a2.82,2.82,0,1,0,0,5.64Z"/></g><g class="cls-3"><polygon class="cls-4" points="518.14 230.03 512.6 235.57 509.83 232.8 512.61 230.03 509.83 227.26 512.6 224.5 518.14 230.03"/><rect class="cls-5" x="507.88" y="228.08" width="3.92" height="3.92" transform="translate(-13.33 427.88) rotate(-45)"/><rect class="cls-4" x="505.11" y="225.31" width="3.92" height="3.92" transform="translate(-12.14 425.23) rotate(-45.01)"/><rect class="cls-4" x="505.11" y="230.85" width="3.92" height="3.92" transform="translate(-16.14 426.62) rotate(-44.99)"/><rect class="cls-5" x="502.34" y="228.08" width="3.92" height="3.92" transform="translate(-14.91 424.08) rotate(-45.01)"/><polygon class="cls-4" points="504.3 227.26 501.53 230.03 504.3 232.8 501.53 235.57 495.99 230.03 501.53 224.5 504.3 227.26"/><path class="cls-5" d="M496,232.85a2.82,2.82,0,0,0,0-5.64Z"/><path class="cls-5" d="M518.14,227.21a2.82,2.82,0,1,0,0,5.64Z"/></g><g class="cls-3"><polygon class="cls-4" points="429.52 230.03 423.98 235.57 421.21 232.8 423.98 230.03 421.21 227.26 423.98 224.5 429.52 230.03"/><rect class="cls-5" x="419.26" y="228.08" width="3.92" height="3.92" transform="translate(-39.29 365.22) rotate(-45)"/><rect class="cls-4" x="416.49" y="225.31" width="3.92" height="3.92" transform="translate(-38.11 362.55) rotate(-45.01)"/><rect class="cls-4" x="416.49" y="230.85" width="3.92" height="3.92" transform="translate(-42.09 363.97) rotate(-44.99)"/><rect class="cls-5" x="413.72" y="228.08" width="3.92" height="3.92" transform="translate(-40.88 361.4) rotate(-45.01)"/><polygon class="cls-4" points="415.68 227.26 412.91 230.03 415.68 232.8 412.91 235.57 407.37 230.03 412.91 224.5 415.68 227.26"/><path class="cls-5" d="M407.37,232.85a2.82,2.82,0,0,0,0-5.64Z"/><path class="cls-5" d="M429.52,227.21a2.82,2.82,0,1,0,0,5.64Z"/></g><g class="cls-3"><polygon class="cls-4" points="451.68 230.03 446.14 235.57 443.37 232.8 446.14 230.03 443.37 227.26 446.14 224.5 451.68 230.03"/><rect class="cls-5" x="441.41" y="228.08" width="3.92" height="3.92" transform="translate(-32.8 380.89) rotate(-45)"/><rect class="cls-4" x="438.64" y="225.31" width="3.92" height="3.92" transform="translate(-31.62 378.22) rotate(-45.01)"/><rect class="cls-4" x="438.64" y="230.85" width="3.92" height="3.92" transform="translate(-35.6 379.63) rotate(-44.99)"/><rect class="cls-5" x="435.87" y="228.08" width="3.92" height="3.92" transform="translate(-34.39 377.07) rotate(-45.01)"/><polygon class="cls-4" points="437.83 227.26 435.06 230.03 437.83 232.8 435.06 235.57 429.52 230.03 435.06 224.5 437.83 227.26"/><path class="cls-5" d="M429.52,232.85a2.82,2.82,0,0,0,0-5.64Z"/><path class="cls-5" d="M451.68,227.21a2.82,2.82,0,1,0,0,5.64Z"/></g><g class="cls-3"><polygon class="cls-4" points="385.21 230.03 379.67 235.57 376.9 232.8 379.67 230.03 376.9 227.26 379.67 224.5 385.21 230.03"/><rect class="cls-5" x="374.95" y="228.08" width="3.92" height="3.92" transform="translate(-52.27 333.89) rotate(-45)"/><rect class="cls-4" x="372.18" y="225.31" width="3.92" height="3.92" transform="translate(-51.1 331.21) rotate(-45.01)"/><rect class="cls-4" x="372.18" y="230.85" width="3.92" height="3.92" transform="translate(-55.06 332.65) rotate(-44.99)"/><rect class="cls-5" x="369.41" y="228.08" width="3.92" height="3.92" transform="translate(-53.87 330.06) rotate(-45.01)"/><polygon class="cls-4" points="371.37 227.26 368.6 230.03 371.37 232.8 368.6 235.57 363.06 230.03 368.6 224.5 371.37 227.26"/><path class="cls-5" d="M363.06,232.85a2.82,2.82,0,0,0,0-5.64Z"/><path class="cls-5" d="M385.21,227.21a2.82,2.82,0,1,0,0,5.64Z"/></g><g class="cls-3"><polygon class="cls-4" points="407.37 230.03 401.83 235.57 399.06 232.8 401.83 230.03 399.06 227.26 401.83 224.5 407.37 230.03"/><rect class="cls-5" x="397.1" y="228.08" width="3.92" height="3.92" transform="translate(-45.78 349.55) rotate(-45)"/><rect class="cls-4" x="394.33" y="225.31" width="3.92" height="3.92" transform="translate(-44.6 346.88) rotate(-45.01)"/><rect class="cls-4" x="394.33" y="230.85" width="3.92" height="3.92" transform="translate(-48.57 348.31) rotate(-44.99)"/><rect class="cls-5" x="391.56" y="228.08" width="3.92" height="3.92" transform="translate(-47.37 345.73) rotate(-45.01)"/><polygon class="cls-4" points="393.52 227.26 390.75 230.03 393.52 232.8 390.75 235.57 385.21 230.03 390.75 224.5 393.52 227.26"/><path class="cls-5" d="M385.21,232.85a2.82,2.82,0,0,0,0-5.64Z"/><path class="cls-5" d="M407.37,227.21a2.82,2.82,0,1,0,0,5.64Z"/></g><g class="cls-3"><polygon class="cls-4" points="340.9 230.03 335.36 235.57 332.59 232.8 335.36 230.03 332.59 227.26 335.36 224.5 340.9 230.03"/><rect class="cls-5" x="330.64" y="228.08" width="3.92" height="3.92" transform="translate(-65.24 302.56) rotate(-45)"/><rect class="cls-4" x="327.87" y="225.31" width="3.92" height="3.92" transform="translate(-64.08 299.87) rotate(-45.01)"/><rect class="cls-4" x="327.87" y="230.85" width="3.92" height="3.92" transform="translate(-68.03 301.32) rotate(-44.99)"/><rect class="cls-5" x="325.1" y="228.08" width="3.92" height="3.92" transform="translate(-66.85 298.72) rotate(-45.01)"/><polygon class="cls-4" points="327.06 227.26 324.29 230.03 327.06 232.8 324.29 235.57 318.75 230.03 324.29 224.5 327.06 227.26"/><path class="cls-5" d="M318.75,232.85a2.82,2.82,0,0,0,0-5.64Z"/><path class="cls-5" d="M340.9,227.21a2.82,2.82,0,1,0,0,5.64Z"/></g><g class="cls-3"><polygon class="cls-4" points="363.06 230.03 357.52 235.57 354.75 232.8 357.52 230.03 354.75 227.26 357.52 224.5 363.06 230.03"/><rect class="cls-5" x="352.79" y="228.08" width="3.92" height="3.92" transform="translate(-58.75 318.22) rotate(-45)"/><rect class="cls-4" x="350.02" y="225.31" width="3.92" height="3.92" transform="translate(-57.59 315.54) rotate(-45.01)"/><rect class="cls-4" x="350.02" y="230.85" width="3.92" height="3.92" transform="translate(-61.54 316.98) rotate(-44.99)"/><rect class="cls-5" x="347.25" y="228.08" width="3.92" height="3.92" transform="translate(-60.36 314.39) rotate(-45.01)"/><polygon class="cls-4" points="349.21 227.26 346.44 230.03 349.21 232.8 346.44 235.57 340.9 230.03 346.44 224.5 349.21 227.26"/><path class="cls-5" d="M340.9,232.85a2.82,2.82,0,0,0,0-5.64Z"/><path class="cls-5" d="M363.06,227.21a2.82,2.82,0,1,0,0,5.64Z"/></g><g class="cls-3"><polygon class="cls-4" points="296.59 230.03 291.05 235.57 288.28 232.8 291.05 230.03 288.28 227.26 291.05 224.5 296.59 230.03"/><rect class="cls-5" x="286.32" y="228.08" width="3.92" height="3.92" transform="translate(-78.22 271.22) rotate(-45)"/><rect class="cls-4" x="283.56" y="225.31" width="3.92" height="3.92" transform="translate(-77.07 268.53) rotate(-45.01)"/><rect class="cls-4" x="283.56" y="230.85" width="3.92" height="3.92" transform="translate(-81 270) rotate(-44.99)"/><rect class="cls-5" x="280.79" y="228.08" width="3.92" height="3.92" transform="translate(-79.84 267.39) rotate(-45.01)"/><polygon class="cls-4" points="282.75 227.26 279.98 230.03 282.75 232.8 279.98 235.57 274.44 230.03 279.98 224.5 282.75 227.26"/><path class="cls-5" d="M274.44,232.85a2.82,2.82,0,0,0,0-5.64Z"/><path class="cls-5" d="M296.59,227.21a2.82,2.82,0,1,0,0,5.64Z"/></g><g class="cls-3"><polygon class="cls-4" points="274.44 230.03 268.9 235.57 266.13 232.8 268.9 230.03 266.13 227.26 268.9 224.5 274.44 230.03"/><rect class="cls-5" x="264.17" y="228.08" width="3.92" height="3.92" transform="translate(-84.71 255.56) rotate(-45)"/><rect class="cls-4" x="261.4" y="225.31" width="3.92" height="3.92" transform="translate(-83.56 252.86) rotate(-45.01)"/><rect class="cls-4" x="261.4" y="230.85" width="3.92" height="3.92" transform="translate(-87.49 254.33) rotate(-44.99)"/><rect class="cls-5" x="258.63" y="228.08" width="3.92" height="3.92" transform="translate(-86.33 251.72) rotate(-45.01)"/><polygon class="cls-4" points="260.59 227.26 257.82 230.03 260.59 232.8 257.82 235.57 252.28 230.03 257.82 224.5 260.59 227.26"/><path class="cls-5" d="M252.28,232.85a2.82,2.82,0,0,0,0-5.64Z"/><path class="cls-5" d="M274.44,227.21a2.82,2.82,0,1,0,0,5.64Z"/></g><g class="cls-3"><polygon class="cls-4" points="318.75 230.03 313.21 235.57 310.44 232.8 313.21 230.03 310.44 227.26 313.21 224.5 318.75 230.03"/><rect class="cls-5" x="308.48" y="228.08" width="3.92" height="3.92" transform="translate(-71.73 286.89) rotate(-45)"/><rect class="cls-4" x="305.71" y="225.31" width="3.92" height="3.92" transform="translate(-70.57 284.2) rotate(-45.01)"/><rect class="cls-4" x="305.71" y="230.85" width="3.92" height="3.92" transform="translate(-74.51 285.66) rotate(-44.99)"/><rect class="cls-5" x="302.94" y="228.08" width="3.92" height="3.92" transform="translate(-73.34 283.05) rotate(-45.01)"/><polygon class="cls-4" points="304.9 227.26 302.13 230.03 304.9 232.8 302.13 235.57 296.59 230.03 302.13 224.5 304.9 227.26"/><path class="cls-5" d="M296.59,232.85a2.82,2.82,0,0,0,0-5.64Z"/><path class="cls-5" d="M318.75,227.21a2.82,2.82,0,1,0,0,5.64Z"/></g><g class="cls-3"><polygon class="cls-4" points="540.3 207.9 545.84 213.44 543.07 216.21 540.3 213.44 537.53 216.21 534.76 213.44 540.3 207.9"/><rect class="cls-5" x="538.34" y="214.25" width="3.92" height="3.92" transform="translate(5.37 445.39) rotate(-45)"/><rect class="cls-4" x="535.57" y="217.02" width="3.92" height="3.92" transform="translate(2.64 444.33) rotate(-45.01)"/><rect class="cls-4" x="541.11" y="217.02" width="3.92" height="3.92" transform="translate(4.17 448.01) rotate(-44.99)"/><rect class="cls-5" x="538.34" y="219.79" width="3.92" height="3.92" transform="translate(1.51 447.13) rotate(-45.01)"/><polygon class="cls-4" points="537.53 221.75 540.3 224.51 543.07 221.75 545.84 224.51 540.3 230.05 534.76 224.51 537.53 221.75"/><path class="cls-5" d="M543.12,230.05a2.82,2.82,0,0,0-5.64,0Z"/><path class="cls-5" d="M537.48,207.9a2.82,2.82,0,1,0,5.64,0Z"/></g><g class="cls-3"><polygon class="cls-4" points="518.14 230.05 523.68 224.51 526.45 227.28 523.68 230.05 526.45 232.82 523.68 235.59 518.14 230.05"/><rect class="cls-5" x="524.49" y="228.1" width="3.92" height="3.92" transform="translate(-8.47 439.65) rotate(-45)"/><rect class="cls-4" x="527.26" y="230.87" width="3.92" height="3.92" transform="translate(-9.59 442.51) rotate(-45.01)"/><rect class="cls-4" x="527.26" y="225.33" width="3.92" height="3.92" transform="translate(-5.75 440.68) rotate(-44.99)"/><rect class="cls-5" x="530.03" y="228.1" width="3.92" height="3.92" transform="translate(-6.81 443.68) rotate(-45.01)"/><polygon class="cls-4" points="531.99 232.82 534.76 230.05 531.99 227.28 534.76 224.51 540.3 230.05 534.76 235.59 531.99 232.82"/><path class="cls-5" d="M540.3,227.23a2.82,2.82,0,0,0,0,5.64Z"/><path class="cls-5" d="M518.14,232.87a2.82,2.82,0,1,0,0-5.64Z"/><path class="cls-5" d="M540.3,232.87a2.82,2.82,0,0,0,0-5.64Z"/></g><g class="cls-3"><polygon class="cls-4" points="8.57 207.9 3.04 213.44 5.8 216.21 8.57 213.44 11.35 216.21 14.11 213.44 8.57 207.9"/><rect class="cls-5" x="6.62" y="214.25" width="3.92" height="3.92" transform="translate(-150.37 69.39) rotate(-45)"/><rect class="cls-4" x="9.39" y="217.02" width="3.92" height="3.92" transform="translate(-151.49 72.13) rotate(-44.99)"/><rect class="cls-4" x="3.85" y="217.02" width="3.92" height="3.92" transform="translate(-153.18 68.28) rotate(-45.01)"/><rect class="cls-5" x="6.62" y="219.79" width="3.92" height="3.92" transform="translate(-154.25 70.97) rotate(-44.99)"/><polygon class="cls-4" points="11.34 221.75 8.57 224.52 5.8 221.75 3.04 224.52 8.57 230.06 14.11 224.52 11.34 221.75"/><path class="cls-5" d="M5.75,230.06a2.82,2.82,0,0,1,5.64,0Z"/><path class="cls-5" d="M11.4,207.9a2.82,2.82,0,1,1-5.64,0Z"/></g><g class="cls-3"><polygon class="cls-4" points="30.73 230.06 25.19 224.52 22.42 227.29 25.19 230.06 22.42 232.83 25.19 235.59 30.73 230.06"/><rect class="cls-5" x="20.46" y="228.1" width="3.92" height="3.92" transform="translate(-156.1 83.23) rotate(-45)"/><rect class="cls-4" x="17.7" y="230.87" width="3.92" height="3.92" transform="translate(-158.85 82.05) rotate(-44.99)"/><rect class="cls-4" x="17.7" y="225.33" width="3.92" height="3.92" transform="translate(-154.99 80.5) rotate(-45.01)"/><rect class="cls-5" x="14.93" y="228.1" width="3.92" height="3.92" transform="translate(-157.69 79.28) rotate(-44.99)"/><polygon class="cls-4" points="16.88 232.82 14.11 230.06 16.88 227.29 14.11 224.52 8.57 230.06 14.11 235.59 16.88 232.82"/><path class="cls-5" d="M8.58,227.24a2.82,2.82,0,0,1,0,5.64Z"/><path class="cls-5" d="M30.73,232.88a2.82,2.82,0,1,1,0-5.64Z"/><path class="cls-5" d="M8.58,232.88a2.82,2.82,0,0,1,0-5.64Z"/></g><g class="cls-3"><polygon class="cls-4" points="8.6 185.53 3.06 179.99 5.83 177.23 8.6 180 11.37 177.23 14.14 179.99 8.6 185.53"/><rect class="cls-5" x="6.64" y="175.27" width="3.92" height="3.92" transform="translate(-122.8 57.99) rotate(-45)"/><rect class="cls-4" x="9.41" y="172.5" width="3.92" height="3.92" transform="translate(-120.05 59.16) rotate(-45.01)"/><rect class="cls-4" x="3.87" y="172.5" width="3.92" height="3.92" transform="translate(-121.63 55.19) rotate(-44.99)"/><rect class="cls-5" x="6.64" y="169.73" width="3.92" height="3.92" transform="translate(-118.91 56.39) rotate(-45.01)"/><polygon class="cls-4" points="11.37 171.69 8.6 168.92 5.83 171.69 3.06 168.92 8.6 163.38 14.14 168.92 11.37 171.69"/><path class="cls-5" d="M5.78,163.38a2.82,2.82,0,0,0,5.64,0Z"/><path class="cls-5" d="M11.42,185.53a2.82,2.82,0,1,0-5.64,0Z"/></g><g class="cls-3"><polygon class="cls-4" points="8.6 207.69 3.06 202.15 5.83 199.38 8.6 202.15 11.37 199.38 14.14 202.15 8.6 207.69"/><rect class="cls-5" x="6.64" y="197.42" width="3.92" height="3.92" transform="translate(-138.47 64.48) rotate(-45)"/><rect class="cls-4" x="9.41" y="194.65" width="3.92" height="3.92" transform="translate(-135.72 65.66) rotate(-45.01)"/><rect class="cls-4" x="3.87" y="194.65" width="3.92" height="3.92" transform="translate(-137.29 61.68) rotate(-44.99)"/><rect class="cls-5" x="6.64" y="191.88" width="3.92" height="3.92" transform="translate(-134.58 62.89) rotate(-45.01)"/><polygon class="cls-4" points="11.37 193.84 8.6 191.07 5.83 193.84 3.06 191.07 8.6 185.53 14.14 191.07 11.37 193.84"/><path class="cls-5" d="M5.78,185.53a2.82,2.82,0,0,0,5.64,0Z"/><path class="cls-5" d="M11.42,207.69a2.82,2.82,0,1,0-5.64,0Z"/></g><g class="cls-3"><polygon class="cls-4" points="8.6 141.22 3.06 135.68 5.83 132.91 8.6 135.69 11.37 132.91 14.14 135.68 8.6 141.22"/><rect class="cls-5" x="6.64" y="130.96" width="3.92" height="3.92" transform="translate(-91.47 45.01) rotate(-45)"/><rect class="cls-4" x="9.41" y="128.19" width="3.92" height="3.92" transform="translate(-88.72 46.18) rotate(-45.01)"/><rect class="cls-4" x="3.87" y="128.19" width="3.92" height="3.92" transform="translate(-90.3 42.22) rotate(-44.99)"/><rect class="cls-5" x="6.64" y="125.42" width="3.92" height="3.92" transform="translate(-87.57 43.41) rotate(-45.01)"/><polygon class="cls-4" points="11.37 127.38 8.6 124.61 5.83 127.38 3.06 124.61 8.6 119.07 14.14 124.61 11.37 127.38"/><path class="cls-5" d="M5.78,119.07a2.82,2.82,0,0,0,5.64,0Z"/><path class="cls-5" d="M11.42,141.22a2.82,2.82,0,1,0-5.64,0Z"/></g><g class="cls-3"><polygon class="cls-4" points="8.6 163.38 3.06 157.84 5.83 155.07 8.6 157.84 11.37 155.07 14.14 157.84 8.6 163.38"/><rect class="cls-5" x="6.64" y="153.11" width="3.92" height="3.92" transform="translate(-107.13 51.5) rotate(-45)"/><rect class="cls-4" x="9.41" y="150.34" width="3.92" height="3.92" transform="translate(-104.39 52.67) rotate(-45.01)"/><rect class="cls-4" x="3.87" y="150.34" width="3.92" height="3.92" transform="translate(-105.96 48.71) rotate(-44.99)"/><rect class="cls-5" x="6.64" y="147.57" width="3.92" height="3.92" transform="translate(-103.24 49.9) rotate(-45.01)"/><polygon class="cls-4" points="11.37 149.53 8.6 146.76 5.83 149.53 3.06 146.76 8.6 141.22 14.14 146.76 11.37 149.53"/><path class="cls-5" d="M5.78,141.22a2.82,2.82,0,0,0,5.64,0Z"/><path class="cls-5" d="M11.42,163.38a2.82,2.82,0,1,0-5.64,0Z"/></g><g class="cls-3"><polygon class="cls-4" points="8.6 96.91 3.06 91.37 5.83 88.61 8.6 91.38 11.37 88.61 14.14 91.37 8.6 96.91"/><rect class="cls-5" x="6.64" y="86.65" width="3.92" height="3.92" transform="translate(-60.14 32.03) rotate(-45)"/><rect class="cls-4" x="9.41" y="83.88" width="3.92" height="3.92" transform="translate(-57.38 33.19) rotate(-45.01)"/><rect class="cls-4" x="3.87" y="83.88" width="3.92" height="3.92" transform="translate(-58.98 29.25) rotate(-44.99)"/><rect class="cls-5" x="6.64" y="81.11" width="3.92" height="3.92" transform="translate(-56.23 30.42) rotate(-45.01)"/><polygon class="cls-4" points="11.37 83.07 8.6 80.3 5.83 83.07 3.06 80.3 8.6 74.76 14.14 80.3 11.37 83.07"/><path class="cls-5" d="M5.78,74.76a2.82,2.82,0,0,0,5.64,0Z"/><path class="cls-5" d="M11.42,96.91a2.82,2.82,0,1,0-5.64,0Z"/></g><g class="cls-3"><polygon class="cls-4" points="8.6 119.07 3.06 113.53 5.83 110.76 8.6 113.53 11.37 110.76 14.14 113.53 8.6 119.07"/><rect class="cls-5" x="6.64" y="108.8" width="3.92" height="3.92" transform="translate(-75.8 38.52) rotate(-45)"/><rect class="cls-4" x="9.41" y="106.03" width="3.92" height="3.92" transform="translate(-73.05 39.69) rotate(-45.01)"/><rect class="cls-4" x="3.87" y="106.03" width="3.92" height="3.92" transform="translate(-74.64 35.73) rotate(-44.99)"/><rect class="cls-5" x="6.64" y="103.26" width="3.92" height="3.92" transform="translate(-71.9 36.92) rotate(-45.01)"/><polygon class="cls-4" points="11.37 105.22 8.6 102.45 5.83 105.22 3.06 102.45 8.6 96.91 14.14 102.45 11.37 105.22"/><path class="cls-5" d="M5.78,96.91a2.82,2.82,0,0,0,5.64,0Z"/><path class="cls-5" d="M11.42,119.07a2.82,2.82,0,1,0-5.64,0Z"/></g><g class="cls-3"><polygon class="cls-4" points="8.6 52.6 3.06 47.06 5.83 44.3 8.6 47.06 11.37 44.3 14.14 47.06 8.6 52.6"/><rect class="cls-5" x="6.64" y="42.34" width="3.92" height="3.92" transform="translate(-28.8 19.05) rotate(-45)"/><rect class="cls-4" x="9.41" y="39.57" width="3.92" height="3.92" transform="translate(-26.04 20.21) rotate(-45.01)"/><rect class="cls-4" x="3.87" y="39.57" width="3.92" height="3.92" transform="translate(-27.65 16.28) rotate(-44.99)"/><rect class="cls-5" x="6.64" y="36.8" width="3.92" height="3.92" transform="translate(-24.89 17.44) rotate(-45.01)"/><polygon class="cls-4" points="11.37 38.76 8.6 35.99 5.83 38.76 3.06 35.99 8.6 30.45 14.14 35.99 11.37 38.76"/><path class="cls-5" d="M5.78,30.45a2.82,2.82,0,0,0,5.64,0Z"/><path class="cls-5" d="M11.42,52.6a2.82,2.82,0,1,0-5.64,0Z"/></g><g class="cls-3"><polygon class="cls-4" points="8.6 74.76 3.06 69.22 5.83 66.45 8.6 69.22 11.37 66.45 14.14 69.22 8.6 74.76"/><rect class="cls-5" x="6.64" y="64.49" width="3.92" height="3.92" transform="translate(-44.47 25.54) rotate(-45)"/><rect class="cls-4" x="9.41" y="61.72" width="3.92" height="3.92" transform="translate(-41.71 26.7) rotate(-45.01)"/><rect class="cls-4" x="3.87" y="61.72" width="3.92" height="3.92" transform="translate(-43.31 22.76) rotate(-44.99)"/><rect class="cls-5" x="6.64" y="58.95" width="3.92" height="3.92" transform="translate(-40.56 23.93) rotate(-45.01)"/><polygon class="cls-4" points="11.37 60.91 8.6 58.14 5.83 60.91 3.06 58.14 8.6 52.6 14.14 58.14 11.37 60.91"/><path class="cls-5" d="M5.78,52.6a2.82,2.82,0,0,0,5.64,0Z"/><path class="cls-5" d="M11.42,74.76a2.82,2.82,0,1,0-5.64,0Z"/></g><g class="cls-3"><polygon class="cls-4" points="30.73 8.29 25.19 2.75 22.42 5.52 25.19 8.29 22.42 11.06 25.19 13.83 30.73 8.29"/><rect class="cls-5" x="20.47" y="6.34" width="3.92" height="3.92" transform="translate(0.7 18.28) rotate(-45)"/><rect class="cls-4" x="17.7" y="9.1" width="3.92" height="3.92" transform="translate(-2.07 17.13) rotate(-44.99)"/><rect class="cls-4" x="17.7" y="3.57" width="3.92" height="3.92" transform="translate(1.85 15.52) rotate(-45.01)"/><rect class="cls-5" x="14.93" y="6.34" width="3.92" height="3.92" transform="translate(-0.92 14.36) rotate(-44.99)"/><polygon class="cls-4" points="16.89 11.06 14.12 8.29 16.89 5.52 14.12 2.75 8.58 8.29 14.12 13.83 16.89 11.06"/><path class="cls-5" d="M8.58,5.47a2.82,2.82,0,0,1,0,5.64Z"/><path class="cls-5" d="M30.73,11.11a2.82,2.82,0,1,1,0-5.64Z"/></g><g class="cls-3"><polygon class="cls-4" points="8.58 30.45 14.12 24.91 11.35 22.14 8.58 24.91 5.81 22.14 3.04 24.91 8.58 30.45"/><rect class="cls-5" x="6.62" y="20.18" width="3.92" height="3.92" transform="translate(-13.14 12.55) rotate(-45)"/><rect class="cls-4" x="3.85" y="17.41" width="3.92" height="3.92" transform="translate(-12 9.78) rotate(-44.99)"/><rect class="cls-4" x="9.39" y="17.41" width="3.92" height="3.92" transform="translate(-10.38 13.7) rotate(-45.01)"/><rect class="cls-5" x="6.62" y="14.64" width="3.92" height="3.92" transform="translate(-9.23 10.92) rotate(-44.99)"/><polygon class="cls-4" points="5.81 16.6 8.58 13.83 11.35 16.6 14.12 13.83 8.58 8.29 3.04 13.83 5.81 16.6"/><path class="cls-5" d="M11.4,8.29a2.82,2.82,0,0,1-5.64,0Z"/><path class="cls-5" d="M5.76,30.45a2.82,2.82,0,1,1,5.64,0Z"/><path class="cls-5" d="M5.76,8.29a2.82,2.82,0,0,1,5.64,0Z"/></g><g class="cls-3"><polygon class="cls-4" points="318.82 8.09 324.36 2.55 327.12 5.32 324.35 8.09 327.12 10.86 324.36 13.63 318.82 8.09"/><rect class="cls-5" x="325.17" y="6.13" width="3.92" height="3.92" transform="translate(90.09 233.68) rotate(-45)"/><rect class="cls-4" x="327.93" y="8.9" width="3.92" height="3.92" transform="translate(89 236.5) rotate(-45.01)"/><rect class="cls-4" x="327.93" y="3.36" width="3.92" height="3.92" transform="translate(92.81 234.78) rotate(-44.99)"/><rect class="cls-5" x="330.7" y="6.13" width="3.92" height="3.92" transform="translate(91.77 237.65) rotate(-45.01)"/><polygon class="cls-4" points="332.66 10.86 335.43 8.09 332.66 5.32 335.43 2.55 340.97 8.09 335.43 13.63 332.66 10.86"/><path class="cls-5" d="M341,5.27a2.82,2.82,0,0,0,0,5.64Z"/><path class="cls-5" d="M318.82,10.91a2.82,2.82,0,1,0,0-5.64Z"/></g><g class="cls-3"><polygon class="cls-4" points="296.66 8.09 302.2 2.55 304.97 5.32 302.2 8.09 304.97 10.86 302.2 13.63 296.66 8.09"/><rect class="cls-5" x="303.01" y="6.13" width="3.92" height="3.92" transform="translate(83.61 218.01) rotate(-45)"/><rect class="cls-4" x="305.78" y="8.9" width="3.92" height="3.92" transform="translate(82.5 220.83) rotate(-45.01)"/><rect class="cls-4" x="305.78" y="3.36" width="3.92" height="3.92" transform="translate(86.33 219.11) rotate(-44.99)"/><rect class="cls-5" x="308.55" y="6.13" width="3.92" height="3.92" transform="translate(85.27 221.98) rotate(-45.01)"/><polygon class="cls-4" points="310.51 10.86 313.28 8.09 310.51 5.32 313.28 2.55 318.82 8.09 313.28 13.63 310.51 10.86"/><path class="cls-5" d="M318.82,5.27a2.82,2.82,0,0,0,0,5.64Z"/><path class="cls-5" d="M296.66,10.91a2.82,2.82,0,1,0,0-5.64Z"/></g><g class="cls-3"><polygon class="cls-4" points="363.13 8.09 368.67 2.55 371.43 5.32 368.66 8.09 371.43 10.86 368.67 13.63 363.13 8.09"/><rect class="cls-5" x="369.48" y="6.13" width="3.92" height="3.92" transform="translate(103.07 265.01) rotate(-45)"/><rect class="cls-4" x="372.24" y="8.9" width="3.92" height="3.92" transform="translate(101.98 267.84) rotate(-45.01)"/><rect class="cls-4" x="372.25" y="3.36" width="3.92" height="3.92" transform="translate(105.78 266.1) rotate(-44.99)"/><rect class="cls-5" x="375.01" y="6.13" width="3.92" height="3.92" transform="translate(104.75 268.99) rotate(-45.01)"/><polygon class="cls-4" points="376.97 10.86 379.74 8.09 376.97 5.32 379.74 2.55 385.28 8.09 379.74 13.63 376.97 10.86"/><path class="cls-5" d="M385.28,5.27a2.82,2.82,0,0,0,0,5.64Z"/><path class="cls-5" d="M363.13,10.91a2.82,2.82,0,1,0,0-5.64Z"/></g><g class="cls-3"><polygon class="cls-4" points="340.97 8.09 346.51 2.55 349.28 5.32 346.51 8.09 349.28 10.86 346.51 13.63 340.97 8.09"/><rect class="cls-5" x="347.32" y="6.13" width="3.92" height="3.92" transform="translate(96.58 249.35) rotate(-45)"/><rect class="cls-4" x="350.09" y="8.9" width="3.92" height="3.92" transform="translate(95.49 252.17) rotate(-45.01)"/><rect class="cls-4" x="350.09" y="3.36" width="3.92" height="3.92" transform="translate(99.3 250.44) rotate(-44.99)"/><rect class="cls-5" x="352.86" y="6.13" width="3.92" height="3.92" transform="translate(98.26 253.32) rotate(-45.01)"/><polygon class="cls-4" points="354.82 10.86 357.59 8.09 354.82 5.32 357.59 2.55 363.13 8.09 357.59 13.63 354.82 10.86"/><path class="cls-5" d="M363.13,5.27a2.82,2.82,0,0,0,0,5.64Z"/><path class="cls-5" d="M341,10.91a2.82,2.82,0,1,0,0-5.64Z"/></g><g class="cls-3"><polygon class="cls-4" points="407.44 8.09 412.98 2.55 415.74 5.32 412.97 8.09 415.74 10.86 412.98 13.63 407.44 8.09"/><rect class="cls-5" x="413.79" y="6.13" width="3.92" height="3.92" transform="translate(116.05 296.34) rotate(-45)"/><rect class="cls-4" x="416.56" y="8.9" width="3.92" height="3.92" transform="translate(114.97 299.18) rotate(-45.01)"/><rect class="cls-4" x="416.56" y="3.36" width="3.92" height="3.92" transform="translate(118.76 297.43) rotate(-44.99)"/><rect class="cls-5" x="419.32" y="6.13" width="3.92" height="3.92" transform="translate(117.74 300.33) rotate(-45.01)"/><polygon class="cls-4" points="421.28 10.86 424.05 8.09 421.28 5.32 424.05 2.55 429.59 8.09 424.05 13.63 421.28 10.86"/><path class="cls-5" d="M429.59,5.27a2.82,2.82,0,0,0,0,5.64Z"/><path class="cls-5" d="M407.44,10.91a2.82,2.82,0,1,0,0-5.64Z"/></g><g class="cls-3"><polygon class="cls-4" points="385.28 8.09 390.82 2.55 393.59 5.32 390.82 8.09 393.59 10.86 390.82 13.63 385.28 8.09"/><rect class="cls-5" x="391.63" y="6.13" width="3.92" height="3.92" transform="translate(109.56 280.68) rotate(-45)"/><rect class="cls-4" x="394.4" y="8.9" width="3.92" height="3.92" transform="translate(108.47 283.51) rotate(-45.01)"/><rect class="cls-4" x="394.4" y="3.36" width="3.92" height="3.92" transform="translate(112.27 281.76) rotate(-44.99)"/><rect class="cls-5" x="397.17" y="6.13" width="3.92" height="3.92" transform="translate(111.24 284.66) rotate(-45.01)"/><polygon class="cls-4" points="399.13 10.86 401.9 8.09 399.13 5.32 401.9 2.55 407.44 8.09 401.9 13.63 399.13 10.86"/><path class="cls-5" d="M407.44,5.27a2.82,2.82,0,0,0,0,5.64Z"/><path class="cls-5" d="M385.28,10.91a2.82,2.82,0,1,0,0-5.64Z"/></g><g class="cls-3"><polygon class="cls-4" points="451.75 8.09 457.29 2.55 460.06 5.32 457.29 8.09 460.06 10.86 457.29 13.63 451.75 8.09"/><rect class="cls-5" x="458.1" y="6.13" width="3.92" height="3.92" transform="translate(129.03 327.68) rotate(-45)"/><rect class="cls-4" x="460.87" y="8.9" width="3.92" height="3.92" transform="translate(127.95 330.52) rotate(-45.01)"/><rect class="cls-4" x="460.87" y="3.36" width="3.92" height="3.92" transform="translate(131.73 328.75) rotate(-44.99)"/><rect class="cls-5" x="463.63" y="6.13" width="3.92" height="3.92" transform="translate(130.72 331.67) rotate(-45.01)"/><polygon class="cls-4" points="465.59 10.86 468.36 8.09 465.59 5.32 468.36 2.55 473.9 8.09 468.36 13.63 465.59 10.86"/><path class="cls-5" d="M473.9,5.27a2.82,2.82,0,0,0,0,5.64Z"/><path class="cls-5" d="M451.75,10.91a2.82,2.82,0,1,0,0-5.64Z"/></g><g class="cls-3"><polygon class="cls-4" points="429.59 8.09 435.13 2.55 437.9 5.32 435.13 8.09 437.9 10.86 435.13 13.63 429.59 8.09"/><rect class="cls-5" x="435.94" y="6.13" width="3.92" height="3.92" transform="translate(122.54 312.01) rotate(-45)"/><rect class="cls-4" x="438.71" y="8.9" width="3.92" height="3.92" transform="translate(121.46 314.85) rotate(-45.01)"/><rect class="cls-4" x="438.71" y="3.36" width="3.92" height="3.92" transform="translate(125.24 313.09) rotate(-44.99)"/><rect class="cls-5" x="441.48" y="6.13" width="3.92" height="3.92" transform="translate(124.23 316) rotate(-45.01)"/><polygon class="cls-4" points="443.44 10.86 446.21 8.09 443.44 5.32 446.21 2.55 451.75 8.09 446.21 13.63 443.44 10.86"/><path class="cls-5" d="M451.75,5.27a2.82,2.82,0,0,0,0,5.64Z"/><path class="cls-5" d="M429.59,10.91a2.82,2.82,0,1,0,0-5.64Z"/></g><g class="cls-3"><polygon class="cls-4" points="496.06 8.09 501.6 2.55 504.37 5.32 501.6 8.09 504.37 10.86 501.6 13.63 496.06 8.09"/><rect class="cls-5" x="502.41" y="6.13" width="3.92" height="3.92" transform="translate(142.01 359.01) rotate(-45)"/><rect class="cls-4" x="505.18" y="8.9" width="3.92" height="3.92" transform="translate(140.94 361.86) rotate(-45.01)"/><rect class="cls-4" x="505.18" y="3.36" width="3.92" height="3.92" transform="translate(144.7 360.08) rotate(-44.99)"/><rect class="cls-5" x="507.95" y="6.13" width="3.92" height="3.92" transform="translate(143.71 363) rotate(-45.01)"/><polygon class="cls-4" points="509.9 10.86 512.67 8.09 509.9 5.32 512.67 2.55 518.21 8.09 512.67 13.63 509.9 10.86"/><path class="cls-5" d="M518.21,5.27a2.82,2.82,0,0,0,0,5.64Z"/><path class="cls-5" d="M496.06,10.91a2.82,2.82,0,1,0,0-5.64Z"/></g><g class="cls-3"><polygon class="cls-4" points="473.9 8.09 479.44 2.55 482.21 5.32 479.44 8.09 482.21 10.86 479.44 13.63 473.9 8.09"/><rect class="cls-5" x="480.25" y="6.13" width="3.92" height="3.92" transform="translate(135.52 343.34) rotate(-45)"/><rect class="cls-4" x="483.02" y="8.9" width="3.92" height="3.92" transform="translate(134.44 346.19) rotate(-45.01)"/><rect class="cls-4" x="483.02" y="3.36" width="3.92" height="3.92" transform="translate(138.21 344.41) rotate(-44.99)"/><rect class="cls-5" x="485.79" y="6.13" width="3.92" height="3.92" transform="translate(137.21 347.34) rotate(-45.01)"/><polygon class="cls-4" points="487.75 10.86 490.52 8.09 487.75 5.32 490.52 2.55 496.06 8.09 490.52 13.63 487.75 10.86"/><path class="cls-5" d="M496.06,5.27a2.82,2.82,0,0,0,0,5.64Z"/><path class="cls-5" d="M473.9,10.91a2.82,2.82,0,1,0,0-5.64Z"/></g><g class="cls-3"><polygon class="cls-4" points="75.11 8.09 80.65 2.55 83.42 5.32 80.65 8.09 83.42 10.86 80.65 13.63 75.11 8.09"/><rect class="cls-5" x="81.46" y="6.13" width="3.92" height="3.92" transform="translate(18.71 61.35) rotate(-45)"/><rect class="cls-4" x="84.23" y="8.9" width="3.92" height="3.92" transform="translate(17.58 64.14) rotate(-45.01)"/><rect class="cls-4" x="84.23" y="3.36" width="3.92" height="3.92" transform="translate(21.47 62.49) rotate(-44.99)"/><rect class="cls-5" x="87" y="6.13" width="3.92" height="3.92" transform="translate(20.35 65.28) rotate(-45.01)"/><polygon class="cls-4" points="88.95 10.86 91.72 8.09 88.95 5.32 91.72 2.55 97.26 8.09 91.72 13.63 88.95 10.86"/><path class="cls-5" d="M97.26,5.27a2.82,2.82,0,0,0,0,5.64Z"/><path class="cls-5" d="M75.11,10.91a2.82,2.82,0,1,0,0-5.64Z"/></g><g class="cls-3"><polygon class="cls-4" points="52.95 8.09 58.49 2.55 61.26 5.32 58.49 8.09 61.26 10.86 58.49 13.63 52.95 8.09"/><rect class="cls-5" x="59.3" y="6.13" width="3.92" height="3.92" transform="translate(12.22 45.69) rotate(-45)"/><rect class="cls-4" x="62.07" y="8.9" width="3.92" height="3.92" transform="translate(11.09 48.47) rotate(-45.01)"/><rect class="cls-4" x="62.07" y="3.36" width="3.92" height="3.92" transform="translate(14.99 46.82) rotate(-44.99)"/><rect class="cls-5" x="64.84" y="6.13" width="3.92" height="3.92" transform="translate(13.86 49.61) rotate(-45.01)"/><polygon class="cls-4" points="66.8 10.86 69.57 8.09 66.8 5.32 69.57 2.55 75.11 8.09 69.57 13.63 66.8 10.86"/><path class="cls-5" d="M75.11,5.27a2.82,2.82,0,0,0,0,5.64Z"/><path class="cls-5" d="M53,10.91a2.82,2.82,0,1,0,0-5.64Z"/></g><g class="cls-3"><polygon class="cls-4" points="30.8 8.09 36.34 2.55 39.11 5.32 36.34 8.09 39.11 10.86 36.34 13.63 30.8 8.09"/><rect class="cls-5" x="37.15" y="6.13" width="3.92" height="3.92" transform="translate(5.74 30.02) rotate(-45)"/><rect class="cls-4" x="39.92" y="8.9" width="3.92" height="3.92" transform="translate(4.59 32.8) rotate(-45.01)"/><rect class="cls-4" x="39.92" y="3.36" width="3.92" height="3.92" transform="translate(8.5 31.16) rotate(-44.99)"/><rect class="cls-5" x="42.69" y="6.13" width="3.92" height="3.92" transform="translate(7.36 33.95) rotate(-45.01)"/><polygon class="cls-4" points="44.65 10.86 47.41 8.09 44.65 5.32 47.41 2.55 52.95 8.09 47.41 13.63 44.65 10.86"/><path class="cls-5" d="M53,5.27a2.82,2.82,0,0,0,0,5.64Z"/><path class="cls-5" d="M30.8,10.91a2.82,2.82,0,1,0,0-5.64Z"/></g><g class="cls-3"><polygon class="cls-4" points="119.42 8.09 124.96 2.55 127.73 5.32 124.96 8.09 127.73 10.86 124.96 13.63 119.42 8.09"/><rect class="cls-5" x="125.77" y="6.13" width="3.92" height="3.92" transform="translate(31.69 92.69) rotate(-45)"/><rect class="cls-4" x="128.54" y="8.9" width="3.92" height="3.92" transform="translate(30.56 95.48) rotate(-45.01)"/><rect class="cls-4" x="128.54" y="3.36" width="3.92" height="3.92" transform="translate(34.44 93.81) rotate(-44.99)"/><rect class="cls-5" x="131.31" y="6.13" width="3.92" height="3.92" transform="translate(33.33 96.62) rotate(-45.01)"/><polygon class="cls-4" points="133.26 10.86 136.03 8.09 133.26 5.32 136.03 2.55 141.57 8.09 136.03 13.63 133.26 10.86"/><path class="cls-5" d="M141.57,5.27a2.82,2.82,0,0,0,0,5.64Z"/><path class="cls-5" d="M119.42,10.91a2.82,2.82,0,1,0,0-5.64Z"/></g><g class="cls-3"><polygon class="cls-4" points="97.26 8.09 102.8 2.55 105.57 5.32 102.8 8.09 105.57 10.86 102.8 13.63 97.26 8.09"/><rect class="cls-5" x="103.61" y="6.13" width="3.92" height="3.92" transform="translate(25.2 77.02) rotate(-45)"/><rect class="cls-4" x="106.38" y="8.9" width="3.92" height="3.92" transform="translate(24.07 79.81) rotate(-45.01)"/><rect class="cls-4" x="106.38" y="3.36" width="3.92" height="3.92" transform="translate(27.96 78.15) rotate(-44.99)"/><rect class="cls-5" x="109.15" y="6.13" width="3.92" height="3.92" transform="translate(26.84 80.95) rotate(-45.01)"/><polygon class="cls-4" points="111.11 10.86 113.88 8.09 111.11 5.32 113.88 2.55 119.42 8.09 113.88 13.63 111.11 10.86"/><path class="cls-5" d="M119.42,5.27a2.82,2.82,0,0,0,0,5.64Z"/><path class="cls-5" d="M97.26,10.91a2.82,2.82,0,1,0,0-5.64Z"/></g><g class="cls-3"><polygon class="cls-4" points="163.73 8.09 169.27 2.55 172.04 5.32 169.27 8.09 172.04 10.86 169.27 13.63 163.73 8.09"/><rect class="cls-5" x="170.08" y="6.13" width="3.92" height="3.92" transform="translate(44.67 124.02) rotate(-45)"/><rect class="cls-4" x="172.85" y="8.9" width="3.92" height="3.92" transform="translate(43.55 126.82) rotate(-45.01)"/><rect class="cls-4" x="172.85" y="3.36" width="3.92" height="3.92" transform="translate(47.41 125.14) rotate(-44.99)"/><rect class="cls-5" x="175.62" y="6.13" width="3.92" height="3.92" transform="translate(46.32 127.96) rotate(-45.01)"/><polygon class="cls-4" points="177.57 10.86 180.35 8.09 177.57 5.32 180.35 2.55 185.88 8.09 180.35 13.63 177.57 10.86"/><path class="cls-5" d="M185.88,5.27a2.82,2.82,0,0,0,0,5.64Z"/><path class="cls-5" d="M163.73,10.91a2.82,2.82,0,1,0,0-5.64Z"/></g><g class="cls-3"><polygon class="cls-4" points="141.57 8.09 147.11 2.55 149.88 5.32 147.11 8.09 149.88 10.86 147.11 13.63 141.57 8.09"/><rect class="cls-5" x="147.92" y="6.13" width="3.92" height="3.92" transform="translate(38.18 108.35) rotate(-45)"/><rect class="cls-4" x="150.69" y="8.9" width="3.92" height="3.92" transform="translate(37.06 111.15) rotate(-45.01)"/><rect class="cls-4" x="150.69" y="3.36" width="3.92" height="3.92" transform="translate(40.93 109.47) rotate(-44.99)"/><rect class="cls-5" x="153.46" y="6.13" width="3.92" height="3.92" transform="translate(39.83 112.29) rotate(-45.01)"/><polygon class="cls-4" points="155.42 10.86 158.19 8.09 155.42 5.32 158.19 2.55 163.73 8.09 158.19 13.63 155.42 10.86"/><path class="cls-5" d="M163.73,5.27a2.82,2.82,0,0,0,0,5.64Z"/><path class="cls-5" d="M141.57,10.91a2.82,2.82,0,1,0,0-5.64Z"/></g><g class="cls-3"><polygon class="cls-4" points="208.04 8.09 213.58 2.55 216.35 5.32 213.58 8.09 216.35 10.86 213.58 13.63 208.04 8.09"/><rect class="cls-5" x="214.39" y="6.13" width="3.92" height="3.92" transform="translate(57.65 155.35) rotate(-45)"/><rect class="cls-4" x="217.16" y="8.9" width="3.92" height="3.92" transform="translate(56.53 158.15) rotate(-45.01)"/><rect class="cls-4" x="217.16" y="3.36" width="3.92" height="3.92" transform="translate(60.38 156.46) rotate(-44.99)"/><rect class="cls-5" x="219.93" y="6.13" width="3.92" height="3.92" transform="translate(59.3 159.3) rotate(-45.01)"/><polygon class="cls-4" points="221.89 10.86 224.66 8.09 221.89 5.32 224.66 2.55 230.19 8.09 224.66 13.63 221.89 10.86"/><path class="cls-5" d="M230.2,5.27a2.82,2.82,0,0,0,0,5.64Z"/><path class="cls-5" d="M208,10.91a2.82,2.82,0,1,0,0-5.64Z"/></g><g class="cls-3"><polygon class="cls-4" points="185.88 8.09 191.42 2.55 194.19 5.32 191.42 8.09 194.19 10.86 191.42 13.63 185.88 8.09"/><rect class="cls-5" x="192.23" y="6.13" width="3.92" height="3.92" transform="translate(51.16 139.68) rotate(-45)"/><rect class="cls-4" x="195" y="8.9" width="3.92" height="3.92" transform="translate(50.04 142.48) rotate(-45.01)"/><rect class="cls-4" x="195" y="3.36" width="3.92" height="3.92" transform="translate(53.9 140.8) rotate(-44.99)"/><rect class="cls-5" x="197.77" y="6.13" width="3.92" height="3.92" transform="translate(52.81 143.63) rotate(-45.01)"/><polygon class="cls-4" points="199.73 10.86 202.5 8.09 199.73 5.32 202.5 2.55 208.04 8.09 202.5 13.63 199.73 10.86"/><path class="cls-5" d="M208,5.27a2.82,2.82,0,0,0,0,5.64Z"/><path class="cls-5" d="M185.88,10.91a2.82,2.82,0,1,0,0-5.64Z"/></g><g class="cls-3"><polygon class="cls-4" points="252.35 8.09 257.89 2.55 260.66 5.32 257.89 8.09 260.66 10.86 257.89 13.63 252.35 8.09"/><rect class="cls-5" x="258.7" y="6.13" width="3.92" height="3.92" transform="translate(70.63 186.68) rotate(-45)"/><rect class="cls-4" x="261.47" y="8.9" width="3.92" height="3.92" transform="translate(69.52 189.49) rotate(-45.01)"/><rect class="cls-4" x="261.47" y="3.36" width="3.92" height="3.92" transform="translate(73.36 187.79) rotate(-44.99)"/><rect class="cls-5" x="264.24" y="6.13" width="3.92" height="3.92" transform="translate(72.29 190.64) rotate(-45.01)"/><polygon class="cls-4" points="266.2 10.86 268.97 8.09 266.2 5.32 268.97 2.55 274.5 8.09 268.97 13.63 266.2 10.86"/><path class="cls-5" d="M274.51,5.27a2.82,2.82,0,0,0,0,5.64Z"/><path class="cls-5" d="M252.35,10.91a2.82,2.82,0,1,0,0-5.64Z"/></g><g class="cls-3"><polygon class="cls-4" points="274.5 8.09 280.04 2.55 282.81 5.32 280.04 8.09 282.81 10.86 280.04 13.63 274.5 8.09"/><rect class="cls-5" x="280.85" y="6.13" width="3.92" height="3.92" transform="translate(77.12 202.35) rotate(-45)"/><rect class="cls-4" x="283.62" y="8.9" width="3.92" height="3.92" transform="translate(76.01 205.16) rotate(-45.01)"/><rect class="cls-4" x="283.62" y="3.36" width="3.92" height="3.92" transform="translate(79.84 203.45) rotate(-44.99)"/><rect class="cls-5" x="286.39" y="6.13" width="3.92" height="3.92" transform="translate(78.78 206.31) rotate(-45.01)"/><polygon class="cls-4" points="288.35 10.86 291.12 8.09 288.35 5.32 291.12 2.55 296.66 8.09 291.12 13.63 288.35 10.86"/><path class="cls-5" d="M296.66,5.27a2.82,2.82,0,0,0,0,5.64Z"/><path class="cls-5" d="M274.5,10.91a2.82,2.82,0,1,0,0-5.64Z"/></g><g class="cls-3"><polygon class="cls-4" points="230.19 8.09 235.73 2.55 238.5 5.32 235.73 8.09 238.5 10.86 235.73 13.63 230.19 8.09"/><rect class="cls-5" x="236.54" y="6.13" width="3.92" height="3.92" transform="translate(64.14 171.02) rotate(-45)"/><rect class="cls-4" x="239.31" y="8.9" width="3.92" height="3.92" transform="translate(63.03 173.82) rotate(-45.01)"/><rect class="cls-4" x="239.31" y="3.36" width="3.92" height="3.92" transform="translate(66.87 172.12) rotate(-44.99)"/><rect class="cls-5" x="242.08" y="6.13" width="3.92" height="3.92" transform="translate(65.8 174.97) rotate(-45.01)"/><polygon class="cls-4" points="244.04 10.86 246.81 8.09 244.04 5.32 246.81 2.55 252.35 8.09 246.81 13.63 244.04 10.86"/><path class="cls-5" d="M252.35,5.27a2.82,2.82,0,0,0,0,5.64Z"/><path class="cls-5" d="M230.2,10.91a2.82,2.82,0,1,0,0-5.64Z"/></g><g class="cls-3"><polygon class="cls-4" points="540.37 30.22 545.9 24.68 543.14 21.91 540.37 24.68 537.6 21.91 534.83 24.68 540.37 30.22"/><rect class="cls-5" x="538.41" y="19.95" width="3.92" height="3.92" transform="translate(142.77 388.51) rotate(-45)"/><rect class="cls-4" x="535.64" y="17.19" width="3.92" height="3.92" transform="translate(143.85 385.67) rotate(-44.99)"/><rect class="cls-4" x="541.18" y="17.19" width="3.92" height="3.92" transform="translate(145.63 389.76) rotate(-45.01)"/><rect class="cls-5" x="538.41" y="14.42" width="3.92" height="3.92" transform="translate(146.6 386.8) rotate(-44.99)"/><polygon class="cls-4" points="537.6 16.37 540.37 13.6 543.14 16.37 545.9 13.6 540.37 8.06 534.83 13.6 537.6 16.37"/><path class="cls-5" d="M543.19,8.07a2.82,2.82,0,0,1-5.64,0Z"/><path class="cls-5" d="M537.55,30.22a2.82,2.82,0,1,1,5.64,0Z"/></g><g class="cls-3"><polygon class="cls-4" points="518.21 8.06 523.75 13.6 526.52 10.84 523.75 8.06 526.52 5.29 523.75 2.53 518.21 8.06"/><rect class="cls-5" x="524.56" y="6.11" width="3.92" height="3.92" transform="translate(148.5 374.66) rotate(-45)"/><rect class="cls-4" x="527.33" y="3.34" width="3.92" height="3.92" transform="translate(151.21 375.74) rotate(-44.99)"/><rect class="cls-4" x="527.33" y="8.88" width="3.92" height="3.92" transform="translate(147.43 377.51) rotate(-45.01)"/><rect class="cls-5" x="530.1" y="6.11" width="3.92" height="3.92" transform="translate(150.04 378.49) rotate(-44.99)"/><polygon class="cls-4" points="532.06 5.3 534.83 8.06 532.06 10.84 534.83 13.6 540.37 8.06 534.83 2.53 532.06 5.3"/><path class="cls-5" d="M540.37,10.89a2.82,2.82,0,0,1,0-5.64Z"/><path class="cls-5" d="M518.21,5.24a2.82,2.82,0,1,1,0,5.64Z"/><path class="cls-5" d="M540.37,5.24a2.82,2.82,0,0,1,0,5.64Z"/></g><g class="cls-3"><polygon class="cls-4" points="540.34 52.59 545.88 58.13 543.11 60.9 540.34 58.13 537.57 60.9 534.8 58.13 540.34 52.59"/><rect class="cls-5" x="538.38" y="58.94" width="3.92" height="3.92" transform="translate(115.2 399.92) rotate(-45)"/><rect class="cls-4" x="535.62" y="61.71" width="3.92" height="3.92" transform="translate(112.51 398.86) rotate(-45.01)"/><rect class="cls-4" x="541.15" y="61.71" width="3.92" height="3.92" transform="translate(113.98 402.59) rotate(-44.99)"/><rect class="cls-5" x="538.38" y="64.48" width="3.92" height="3.92" transform="translate(111.36 401.63) rotate(-45.01)"/><polygon class="cls-4" points="537.57 66.43 540.34 69.2 543.11 66.43 545.88 69.2 540.34 74.74 534.8 69.2 537.57 66.43"/><path class="cls-5" d="M543.16,74.74a2.82,2.82,0,0,0-5.64,0Z"/><path class="cls-5" d="M537.52,52.59a2.82,2.82,0,1,0,5.64,0Z"/></g><g class="cls-3"><polygon class="cls-4" points="540.34 30.43 545.88 35.97 543.11 38.74 540.34 35.97 537.57 38.74 534.8 35.97 540.34 30.43"/><rect class="cls-5" x="538.38" y="36.78" width="3.92" height="3.92" transform="translate(130.87 393.43) rotate(-45)"/><rect class="cls-4" x="535.62" y="39.55" width="3.92" height="3.92" transform="translate(128.18 392.37) rotate(-45.01)"/><rect class="cls-4" x="541.15" y="39.55" width="3.92" height="3.92" transform="translate(129.65 396.11) rotate(-44.99)"/><rect class="cls-5" x="538.38" y="42.32" width="3.92" height="3.92" transform="translate(127.03 395.14) rotate(-45.01)"/><polygon class="cls-4" points="537.57 44.28 540.34 47.05 543.11 44.28 545.88 47.05 540.34 52.59 534.8 47.05 537.57 44.28"/><path class="cls-5" d="M543.16,52.59a2.82,2.82,0,0,0-5.64,0Z"/><path class="cls-5" d="M537.52,30.43a2.82,2.82,0,1,0,5.64,0Z"/></g><g class="cls-3"><polygon class="cls-4" points="540.34 96.9 545.88 102.44 543.11 105.21 540.34 102.44 537.57 105.21 534.8 102.44 540.34 96.9"/><rect class="cls-5" x="538.38" y="103.25" width="3.92" height="3.92" transform="translate(83.87 412.89) rotate(-45)"/><rect class="cls-4" x="535.62" y="106.02" width="3.92" height="3.92" transform="translate(81.17 411.85) rotate(-45.01)"/><rect class="cls-4" x="541.15" y="106.02" width="3.92" height="3.92" transform="translate(82.66 415.56) rotate(-44.99)"/><rect class="cls-5" x="538.38" y="108.79" width="3.92" height="3.92" transform="translate(80.02 414.62) rotate(-45.01)"/><polygon class="cls-4" points="537.57 110.74 540.34 113.51 543.11 110.74 545.88 113.51 540.34 119.05 534.8 113.51 537.57 110.74"/><path class="cls-5" d="M543.16,119.05a2.82,2.82,0,0,0-5.64,0Z"/><path class="cls-5" d="M537.52,96.9a2.82,2.82,0,1,0,5.64,0Z"/></g><g class="cls-3"><polygon class="cls-4" points="540.34 74.74 545.88 80.28 543.11 83.05 540.34 80.28 537.57 83.05 534.8 80.28 540.34 74.74"/><rect class="cls-5" x="538.38" y="81.09" width="3.92" height="3.92" transform="translate(99.54 406.41) rotate(-45)"/><rect class="cls-4" x="535.62" y="83.86" width="3.92" height="3.92" transform="translate(96.84 405.35) rotate(-45.01)"/><rect class="cls-4" x="541.15" y="83.86" width="3.92" height="3.92" transform="translate(98.32 409.08) rotate(-44.99)"/><rect class="cls-5" x="538.38" y="86.63" width="3.92" height="3.92" transform="translate(95.69 408.12) rotate(-45.01)"/><polygon class="cls-4" points="537.57 88.59 540.34 91.36 543.11 88.59 545.88 91.36 540.34 96.9 534.8 91.36 537.57 88.59"/><path class="cls-5" d="M543.16,96.9a2.82,2.82,0,0,0-5.64,0Z"/><path class="cls-5" d="M537.52,74.74a2.82,2.82,0,1,0,5.64,0Z"/></g><g class="cls-3"><polygon class="cls-4" points="540.34 141.21 545.88 146.75 543.11 149.52 540.34 146.75 537.57 149.52 534.8 146.75 540.34 141.21"/><rect class="cls-5" x="538.38" y="147.56" width="3.92" height="3.92" transform="translate(52.54 425.87) rotate(-45)"/><rect class="cls-4" x="535.62" y="150.33" width="3.92" height="3.92" transform="translate(49.83 424.83) rotate(-45.01)"/><rect class="cls-4" x="541.15" y="150.33" width="3.92" height="3.92" transform="translate(51.33 428.53) rotate(-44.99)"/><rect class="cls-5" x="538.38" y="153.1" width="3.92" height="3.92" transform="translate(48.68 427.6) rotate(-45.01)"/><polygon class="cls-4" points="537.57 155.05 540.34 157.82 543.11 155.05 545.88 157.82 540.34 163.36 534.8 157.82 537.57 155.05"/><path class="cls-5" d="M543.16,163.36a2.82,2.82,0,0,0-5.64,0Z"/><path class="cls-5" d="M537.52,141.21a2.82,2.82,0,1,0,5.64,0Z"/></g><g class="cls-3"><polygon class="cls-4" points="540.34 119.05 545.88 124.59 543.11 127.36 540.34 124.59 537.57 127.36 534.8 124.59 540.34 119.05"/><rect class="cls-5" x="538.38" y="125.4" width="3.92" height="3.92" transform="translate(68.21 419.38) rotate(-45)"/><rect class="cls-4" x="535.62" y="128.17" width="3.92" height="3.92" transform="translate(65.5 418.34) rotate(-45.01)"/><rect class="cls-4" x="541.15" y="128.17" width="3.92" height="3.92" transform="translate(66.99 422.05) rotate(-44.99)"/><rect class="cls-5" x="538.38" y="130.94" width="3.92" height="3.92" transform="translate(64.35 421.11) rotate(-45.01)"/><polygon class="cls-4" points="537.57 132.9 540.34 135.67 543.11 132.9 545.88 135.67 540.34 141.21 534.8 135.67 537.57 132.9"/><path class="cls-5" d="M543.16,141.21a2.82,2.82,0,0,0-5.64,0Z"/><path class="cls-5" d="M537.52,119.05a2.82,2.82,0,1,0,5.64,0Z"/></g><g class="cls-3"><polygon class="cls-4" points="540.34 185.52 545.88 191.06 543.11 193.83 540.34 191.06 537.57 193.83 534.8 191.06 540.34 185.52"/><rect class="cls-5" x="538.38" y="191.87" width="3.92" height="3.92" transform="translate(21.21 438.85) rotate(-45)"/><rect class="cls-4" x="535.62" y="194.64" width="3.92" height="3.92" transform="translate(18.49 437.82) rotate(-45.01)"/><rect class="cls-4" x="541.15" y="194.64" width="3.92" height="3.92" transform="translate(20.01 441.51) rotate(-44.99)"/><rect class="cls-5" x="538.38" y="197.41" width="3.92" height="3.92" transform="translate(17.34 440.59) rotate(-45.01)"/><polygon class="cls-4" points="537.57 199.36 540.34 202.13 543.11 199.36 545.88 202.13 540.34 207.67 534.8 202.13 537.57 199.36"/><path class="cls-5" d="M543.16,207.67a2.82,2.82,0,0,0-5.64,0Z"/><path class="cls-5" d="M537.52,185.52a2.82,2.82,0,1,0,5.64,0Z"/></g><g class="cls-3"><polygon class="cls-4" points="540.34 163.36 545.88 168.9 543.11 171.67 540.34 168.9 537.57 171.67 534.8 168.9 540.34 163.36"/><rect class="cls-5" x="538.38" y="169.71" width="3.92" height="3.92" transform="translate(36.87 432.36) rotate(-45)"/><rect class="cls-4" x="535.62" y="172.48" width="3.92" height="3.92" transform="translate(34.16 431.32) rotate(-45.01)"/><rect class="cls-4" x="541.15" y="172.48" width="3.92" height="3.92" transform="translate(35.67 435.02) rotate(-44.99)"/><rect class="cls-5" x="538.38" y="175.25" width="3.92" height="3.92" transform="translate(33.01 434.09) rotate(-45.01)"/><polygon class="cls-4" points="537.57 177.21 540.34 179.98 543.11 177.21 545.88 179.98 540.34 185.52 534.8 179.98 537.57 177.21"/><path class="cls-5" d="M543.16,185.52a2.82,2.82,0,0,0-5.64,0Z"/><path class="cls-5" d="M537.52,163.36a2.82,2.82,0,1,0,5.64,0Z"/></g><path class="cls-6" d="M29.28,87.71a4,4,0,0,1-2.62.77H24.48v3.76H22.31V81.77H26.8a3.62,3.62,0,0,1,2.48.81,3.16,3.16,0,0,1,.92,2.5A3.25,3.25,0,0,1,29.28,87.71Zm-1.67-3.77a1.76,1.76,0,0,0-1.16-.35h-2v3.08h2a1.67,1.67,0,0,0,1.16-.38A1.53,1.53,0,0,0,28,85.1,1.44,1.44,0,0,0,27.61,83.94Z"/><path class="cls-6" d="M34.85,87.53a3.19,3.19,0,0,0,.81-.18.61.61,0,0,0,.44-.57.68.68,0,0,0-.33-.66,2.11,2.11,0,0,0-1-.18,1.29,1.29,0,0,0-1,.35,1.46,1.46,0,0,0-.29.71h-2a3,3,0,0,1,.57-1.67,3.32,3.32,0,0,1,2.77-1,4.93,4.93,0,0,1,2.27.5,1.93,1.93,0,0,1,1,1.9v3.55q0,.37,0,.89a1.12,1.12,0,0,0,.12.54.72.72,0,0,0,.3.23v.3h-2.2a2.24,2.24,0,0,1-.13-.44q0-.21-.06-.47a4.17,4.17,0,0,1-1,.77,2.93,2.93,0,0,1-1.48.38,2.56,2.56,0,0,1-1.74-.6,2.13,2.13,0,0,1-.69-1.7,2.2,2.2,0,0,1,1.11-2.06,5,5,0,0,1,1.79-.5Zm1.24.94a2.22,2.22,0,0,1-.39.2,3.32,3.32,0,0,1-.54.14l-.46.09a3,3,0,0,0-.93.28.92.92,0,0,0-.48.86.9.9,0,0,0,.29.75,1.11,1.11,0,0,0,.71.23,2.11,2.11,0,0,0,1.22-.38,1.62,1.62,0,0,0,.58-1.4Z"/><path class="cls-6" d="M40.17,93.72h.26a3.18,3.18,0,0,0,.57,0,1,1,0,0,0,.45-.16,1.09,1.09,0,0,0,.33-.5,1.22,1.22,0,0,0,.13-.47L39.07,84.5h2.25L43,90.2l1.6-5.71h2.15L44.1,92.11a10.7,10.7,0,0,1-1.22,2.73,2.31,2.31,0,0,1-1.79.53h-.43l-.49,0Z"/><path class="cls-6" d="M59.75,81.77v1.85H56.62v8.61h-2.2V83.63H51.28V81.77Z"/><path class="cls-6" d="M66.25,91.29a4.26,4.26,0,0,1-5.95,0,4.8,4.8,0,0,1,0-5.81,4.22,4.22,0,0,1,5.95,0,4.8,4.8,0,0,1,0,5.81Zm-1.62-1.12a3.61,3.61,0,0,0,0-3.58,1.8,1.8,0,0,0-2.73,0,3.59,3.59,0,0,0,0,3.58,1.79,1.79,0,0,0,2.73,0Z"/><path class="cls-6" d="M80.47,81.77v1.85H77.34v8.61h-2.2V83.63H72V81.77Z"/><path class="cls-6" d="M87.15,84.54a2.27,2.27,0,0,1,1,.76,2,2,0,0,1,.39.89,11,11,0,0,1,.07,1.49v4.55H86.5V87.52a2.09,2.09,0,0,0-.21-1,1.06,1.06,0,0,0-1-.54,1.43,1.43,0,0,0-1.21.54A2.47,2.47,0,0,0,83.62,88v4.19h-2V81.81h2V85.5a2.47,2.47,0,0,1,1-.94,2.85,2.85,0,0,1,1.21-.27A3.28,3.28,0,0,1,87.15,84.54Z"/><path class="cls-6" d="M95.51,84.66a3.15,3.15,0,0,1,1.34,1.14,3.8,3.8,0,0,1,.62,1.6,9.87,9.87,0,0,1,.07,1.54H91.89a1.86,1.86,0,0,0,.81,1.63,2.05,2.05,0,0,0,1.12.29A1.57,1.57,0,0,0,95.35,90h2.06a2.53,2.53,0,0,1-.75,1.4,3.76,3.76,0,0,1-2.91,1.13,4.22,4.22,0,0,1-2.72-1,3.75,3.75,0,0,1-1.18-3.1,4.19,4.19,0,0,1,1.07-3.08,3.73,3.73,0,0,1,2.77-1.07A4.4,4.4,0,0,1,95.51,84.66Zm-3,1.75a2.1,2.1,0,0,0-.54,1.2h3.48a1.69,1.69,0,0,0-.54-1.22,1.77,1.77,0,0,0-1.2-.42A1.6,1.6,0,0,0,92.48,86.4Z"/><path class="cls-6" d="M30.31,108.74A4.56,4.56,0,0,1,26.88,110a4.56,4.56,0,0,1-3.43-1.22,5.64,5.64,0,0,1-1.59-4.31,5.53,5.53,0,0,1,1.59-4.31,4.56,4.56,0,0,1,3.43-1.22,4.56,4.56,0,0,1,3.43,1.22,5.55,5.55,0,0,1,1.58,4.31A5.66,5.66,0,0,1,30.31,108.74Zm-1.37-1.59a5.24,5.24,0,0,0,0-5.45,2.49,2.49,0,0,0-2.06-1,2.53,2.53,0,0,0-2.07,1,5.19,5.19,0,0,0,0,5.45,2.53,2.53,0,0,0,2.07,1A2.5,2.5,0,0,0,28.94,107.15Z"/><path class="cls-6" d="M37.69,101.76h.17v2.07l-.34,0h-.24a1.68,1.68,0,0,0-1.64.79,3.09,3.09,0,0,0-.23,1.38v3.7h-2v-7.73h1.93v1.35a4.27,4.27,0,0,1,.82-1.06,2.22,2.22,0,0,1,1.48-.48Z"/><path class="cls-6" d="M43.15,102.06a2.46,2.46,0,0,1,.89.86V99.23h2.05v10.45h-2V108.6a2.85,2.85,0,0,1-1,1,2.77,2.77,0,0,1-1.38.31,2.87,2.87,0,0,1-2.28-1.1,4.21,4.21,0,0,1-.93-2.81,4.84,4.84,0,0,1,.91-3.12,3,3,0,0,1,2.44-1.14A2.5,2.5,0,0,1,43.15,102.06Zm.5,5.51a2.82,2.82,0,0,0,.45-1.65,2.54,2.54,0,0,0-.72-2,1.54,1.54,0,0,0-1-.37,1.42,1.42,0,0,0-1.3.67,3.62,3.62,0,0,0,0,3.38,1.43,1.43,0,0,0,1.28.64A1.49,1.49,0,0,0,43.65,107.57Z"/><path class="cls-6" d="M53,102.1a3.15,3.15,0,0,1,1.34,1.14,3.8,3.8,0,0,1,.62,1.6,9.88,9.88,0,0,1,.07,1.54H49.36a1.86,1.86,0,0,0,.81,1.63,2.05,2.05,0,0,0,1.12.29,1.57,1.57,0,0,0,1.54-.89h2.06a2.53,2.53,0,0,1-.75,1.4,3.76,3.76,0,0,1-2.91,1.13,4.22,4.22,0,0,1-2.72-1,3.75,3.75,0,0,1-1.18-3.1,4.19,4.19,0,0,1,1.07-3.08,3.73,3.73,0,0,1,2.77-1.07A4.4,4.4,0,0,1,53,102.1Zm-3,1.75a2.1,2.1,0,0,0-.54,1.2h3.48a1.69,1.69,0,0,0-.54-1.22,1.77,1.77,0,0,0-1.2-.42A1.6,1.6,0,0,0,49.95,103.84Z"/><path class="cls-6" d="M60.31,101.76h.17v2.07l-.34,0H59.9a1.68,1.68,0,0,0-1.64.79A3.09,3.09,0,0,0,58,106v3.7H56v-7.73h1.93v1.35a4.27,4.27,0,0,1,.82-1.06,2.22,2.22,0,0,1,1.48-.48Z"/><path class="cls-6" d="M73.92,108.74a5.42,5.42,0,0,1-6.86,0,5.64,5.64,0,0,1-1.59-4.31,5.53,5.53,0,0,1,1.59-4.31,5.42,5.42,0,0,1,6.86,0,5.55,5.55,0,0,1,1.58,4.31A5.66,5.66,0,0,1,73.92,108.74Zm-1.37-1.59a5.24,5.24,0,0,0,0-5.45,2.49,2.49,0,0,0-2.06-1,2.53,2.53,0,0,0-2.07,1,5.19,5.19,0,0,0,0,5.45,2.53,2.53,0,0,0,2.07,1A2.5,2.5,0,0,0,72.56,107.15Z"/><path class="cls-6" d="M80.21,99.12l.43,0v1.65l-.57,0a.66.66,0,0,0-.55.18.64.64,0,0,0-.15.42V102h1.33v1.43H79.36v6.24h-2v-6.24H76.22V102h1.11v-.5a2.61,2.61,0,0,1,.42-1.71q.44-.7,2.12-.7Z"/><rect class="cls-6" x="21.88" y="113.17" width="336.36" height="1.46"/><rect class="cls-6" x="382.13" y="78.04" width="131.17" height="1.75"/><path class="cls-6" d="M29.19,156.4h3.14v10.46h-2v-7.07q0-.31,0-.86t0-.85l-2,8.78H26.21l-2-8.78q0,.3,0,.85t0,.86v7.07h-2V156.4H25.4l1.9,8.22Z"/><path class="cls-6" d="M39.24,159.28a3.15,3.15,0,0,1,1.34,1.14,3.8,3.8,0,0,1,.62,1.6,9.83,9.83,0,0,1,.07,1.53H35.63a1.86,1.86,0,0,0,.81,1.63,2.05,2.05,0,0,0,1.12.29,1.57,1.57,0,0,0,1.54-.89h2.06a2.53,2.53,0,0,1-.75,1.4,3.76,3.76,0,0,1-2.91,1.13,4.22,4.22,0,0,1-2.72-1,3.75,3.75,0,0,1-1.18-3.1A4.19,4.19,0,0,1,34.65,160a3.73,3.73,0,0,1,2.77-1.07A4.4,4.4,0,0,1,39.24,159.28Zm-3,1.75a2.1,2.1,0,0,0-.54,1.2h3.48a1.69,1.69,0,0,0-.54-1.22,1.77,1.77,0,0,0-1.2-.42A1.61,1.61,0,0,0,36.21,161Z"/><path class="cls-6" d="M51.93,159.15a2.25,2.25,0,0,1,.9.7,2.22,2.22,0,0,1,.44,1,6.86,6.86,0,0,1,.07,1.14v4.88H51.26v-4.92a1.62,1.62,0,0,0-.14-.72,1,1,0,0,0-1-.54,1.16,1.16,0,0,0-1.16.69,2.18,2.18,0,0,0-.16.89v4.61h-2v-4.61a2.59,2.59,0,0,0-.14-1,1,1,0,0,0-1-.56,1.19,1.19,0,0,0-1.16.56,2.16,2.16,0,0,0-.16,1v4.66H42.25v-7.72h2v1.13a3.25,3.25,0,0,1,.71-.86,2.81,2.81,0,0,1,3-.06,2.27,2.27,0,0,1,.67.93,2.57,2.57,0,0,1,1-1,3,3,0,0,1,1.39-.32A2.69,2.69,0,0,1,51.93,159.15Z"/><path class="cls-6" d="M61.65,165.91a4.26,4.26,0,0,1-5.95,0,4.8,4.8,0,0,1,0-5.81,4.22,4.22,0,0,1,5.95,0,4.8,4.8,0,0,1,0,5.81ZM60,164.8a3.61,3.61,0,0,0,0-3.58,1.8,1.8,0,0,0-2.73,0,3.59,3.59,0,0,0,0,3.58,1.79,1.79,0,0,0,2.73,0Z"/><path class="cls-6" d="M465.89,129.15a3.59,3.59,0,0,1,1.85,1.38,4.85,4.85,0,0,1,.78,1.76,8.42,8.42,0,0,1,.21,1.8,7.23,7.23,0,0,1-.87,3.68,3.93,3.93,0,0,1-3.65,2h-4.69V128.91h4.69A5.72,5.72,0,0,1,465.89,129.15Zm-4.17,1.65v7.1h2.1a2.27,2.27,0,0,0,2.25-1.59,5.59,5.59,0,0,0,.35-2.07,5.1,5.1,0,0,0-.52-2.55,2.2,2.2,0,0,0-2.07-.89Z"/><path class="cls-6" d="M477.27,138.81a4.43,4.43,0,0,1-6.18,0,5,5,0,0,1,0-6,4.39,4.39,0,0,1,6.18,0,5,5,0,0,1,0,6Zm-1.68-1.16a3.76,3.76,0,0,0,0-3.72,1.87,1.87,0,0,0-2.84,0,3.73,3.73,0,0,0,0,3.72,1.86,1.86,0,0,0,2.84,0Z"/><path class="cls-6" d="M482.25,139.79h-2.1V128.91h2.1Z"/><path class="cls-6" d="M486.75,139.79h-2.1V128.91h2.1Z"/><path class="cls-6" d="M492.29,134.9a3.32,3.32,0,0,0,.84-.18.63.63,0,0,0,.45-.6.71.71,0,0,0-.35-.68,2.2,2.2,0,0,0-1-.19,1.34,1.34,0,0,0-1.07.37,1.53,1.53,0,0,0-.3.74h-2a3.08,3.08,0,0,1,.59-1.73,3.46,3.46,0,0,1,2.88-1.06,5.13,5.13,0,0,1,2.36.52,2,2,0,0,1,1,2v3.69q0,.38,0,.93a1.17,1.17,0,0,0,.13.56.76.76,0,0,0,.31.24v.31h-2.29a2.35,2.35,0,0,1-.13-.46q0-.21-.06-.49a4.35,4.35,0,0,1-1,.8,3,3,0,0,1-1.54.39,2.66,2.66,0,0,1-1.81-.62,2.22,2.22,0,0,1-.72-1.77,2.29,2.29,0,0,1,1.15-2.15,5.14,5.14,0,0,1,1.86-.52Zm1.29,1a2.32,2.32,0,0,1-.41.2,3.4,3.4,0,0,1-.56.14l-.48.09a3.15,3.15,0,0,0-1,.29,1,1,0,0,0-.5.89.93.93,0,0,0,.3.78,1.15,1.15,0,0,0,.74.24,2.2,2.2,0,0,0,1.27-.4,1.69,1.69,0,0,0,.6-1.45Z"/><path class="cls-6" d="M502.28,131.56h.18v2.15l-.35,0h-.25a1.74,1.74,0,0,0-1.7.83,3.22,3.22,0,0,0-.24,1.43v3.84h-2.12v-8h2v1.4a4.44,4.44,0,0,1,.85-1.1,2.31,2.31,0,0,1,1.53-.49Z"/><path class="cls-6" d="M505.62,137.22a1.4,1.4,0,0,0,.29.8,2,2,0,0,0,1.45.42,2.22,2.22,0,0,0,1-.18.62.62,0,0,0,.07-1.09,12.1,12.1,0,0,0-2.2-.63,4.57,4.57,0,0,1-1.93-.85,1.84,1.84,0,0,1-.56-1.45,2.51,2.51,0,0,1,.88-1.91,3.53,3.53,0,0,1,2.47-.8,4.53,4.53,0,0,1,2.46.6,2.58,2.58,0,0,1,1.09,2.08h-2.1a1.24,1.24,0,0,0-.23-.64,1.45,1.45,0,0,0-1.18-.43,1.71,1.71,0,0,0-1,.21.62.62,0,0,0-.29.5.55.55,0,0,0,.31.52,13.47,13.47,0,0,0,2.2.58,4,4,0,0,1,1.88.89,2,2,0,0,1,.62,1.51,2.44,2.44,0,0,1-.89,2,5.35,5.35,0,0,1-5.56,0,2.6,2.6,0,0,1-.91-2Z"/><path class="cls-6" d="M388.54,64.5a3.59,3.59,0,0,1,1.85,1.38,4.84,4.84,0,0,1,.78,1.76,8.41,8.41,0,0,1,.21,1.8,7.23,7.23,0,0,1-.87,3.68,3.93,3.93,0,0,1-3.65,2h-4.69V64.26h4.69A5.73,5.73,0,0,1,388.54,64.5Zm-4.17,1.65v7.1h2.1a2.27,2.27,0,0,0,2.25-1.59,5.59,5.59,0,0,0,.35-2.07,5.1,5.1,0,0,0-.52-2.55,2.2,2.2,0,0,0-2.07-.89Z"/><path class="cls-6" d="M396.4,70.25a3.33,3.33,0,0,0,.84-.18.63.63,0,0,0,.45-.6.71.71,0,0,0-.35-.68,2.2,2.2,0,0,0-1-.19,1.34,1.34,0,0,0-1.07.37,1.52,1.52,0,0,0-.3.74h-2a3.08,3.08,0,0,1,.59-1.73,3.46,3.46,0,0,1,2.88-1.06,5.13,5.13,0,0,1,2.36.52,2,2,0,0,1,1,2V73.1q0,.38,0,.93a1.17,1.17,0,0,0,.13.56.75.75,0,0,0,.31.24v.31h-2.29a2.34,2.34,0,0,1-.13-.46q0-.21-.06-.49a4.35,4.35,0,0,1-1,.8,3,3,0,0,1-1.54.39,2.66,2.66,0,0,1-1.81-.62,2.22,2.22,0,0,1-.72-1.77,2.29,2.29,0,0,1,1.15-2.15,5.15,5.15,0,0,1,1.86-.52Zm1.29,1a2.32,2.32,0,0,1-.41.2,3.46,3.46,0,0,1-.57.14l-.48.09a3.15,3.15,0,0,0-1,.29,1,1,0,0,0-.5.89.93.93,0,0,0,.3.78,1.15,1.15,0,0,0,.74.24,2.2,2.2,0,0,0,1.27-.4,1.69,1.69,0,0,0,.6-1.45Z"/><path class="cls-6" d="M401.09,68.67v-1.5h1.12V64.93h2.08v2.24h1.31v1.5h-1.31v4.25a1,1,0,0,0,.13.62,1.38,1.38,0,0,0,.77.12h.41v1.57l-1,0a2.67,2.67,0,0,1-2-.52,1.54,1.54,0,0,1-.35-1.11v-5Z"/><path class="cls-6" d="M412.49,67.26a3.27,3.27,0,0,1,1.39,1.19,4,4,0,0,1,.64,1.66,10.23,10.23,0,0,1,.07,1.6h-5.86a1.93,1.93,0,0,0,.84,1.7,2.13,2.13,0,0,0,1.16.3,1.63,1.63,0,0,0,1.6-.92h2.15a2.63,2.63,0,0,1-.78,1.45,3.91,3.91,0,0,1-3,1.17,4.38,4.38,0,0,1-2.83-1,3.9,3.9,0,0,1-1.23-3.22A4.36,4.36,0,0,1,407.73,68a3.88,3.88,0,0,1,2.88-1.12A4.58,4.58,0,0,1,412.49,67.26Zm-3.15,1.82a2.18,2.18,0,0,0-.56,1.25h3.62a1.75,1.75,0,0,0-.56-1.27,1.84,1.84,0,0,0-1.25-.43A1.67,1.67,0,0,0,409.35,69.08Z"/><path class="cls-6" d="M370,114.76h-1.38V112.4a11.19,11.19,0,0,1-4.19-1,4.81,4.81,0,0,1-2.39-4.65h3.85a5,5,0,0,0,.56,2,3.09,3.09,0,0,0,2.18,1v-5.06l-1.15-.28a7.79,7.79,0,0,1-3.84-1.85,4,4,0,0,1-1.12-2.86,4.55,4.55,0,0,1,.43-2,4.6,4.6,0,0,1,1.22-1.55A5.72,5.72,0,0,1,366.42,95a12.24,12.24,0,0,1,2.21-.3V93.12H370v1.6a8.12,8.12,0,0,1,3.63.95,4.48,4.48,0,0,1,2.48,4.11h-3.75a3.7,3.7,0,0,0-.42-1.54,2.29,2.29,0,0,0-1.94-.92v4.52a19.64,19.64,0,0,1,4.54,1.72,4,4,0,0,1,1.92,3.51,4.54,4.54,0,0,1-2.64,4.34,9.62,9.62,0,0,1-3.82,1Zm-1.38-17.42a2.81,2.81,0,0,0-1.84.55,1.82,1.82,0,0,0-.6,1.44,1.79,1.79,0,0,0,.9,1.58,5.61,5.61,0,0,0,1.54.59ZM370,109.74a4.09,4.09,0,0,0,1.62-.43,2,2,0,0,0,.89-1.89,1.88,1.88,0,0,0-.83-1.61,6.52,6.52,0,0,0-1.68-.71Z"/><path class="cls-6" d="M327.1,179.39h1.33l2,5.63h-1.28l-.37-1.16h-2.07l-.38,1.16h-1.23Zm-.08,3.5h1.44l-.71-2.22Z"/><path class="cls-6" d="M332.55,179.39h1.2v3.46a2,2,0,0,0,.14.85,1.14,1.14,0,0,0,1.85,0,2,2,0,0,0,.14-.85v-3.46h1.2v3.46a2.9,2.9,0,0,1-.28,1.4,2.6,2.6,0,0,1-4,0,2.9,2.9,0,0,1-.28-1.4Z"/><path class="cls-6" d="M343.71,179.39v1H342V185h-1.18v-4.64h-1.69v-1Z"/><path class="cls-6" d="M345.8,185v-5.63H347v2.15h2.19v-2.15h1.17V185h-1.17v-2.51H347V185Z"/><path class="cls-6" d="M357.2,184.52a2.92,2.92,0,0,1-3.69,0,3,3,0,0,1-.86-2.32,3,3,0,0,1,.86-2.32,2.92,2.92,0,0,1,3.69,0,3,3,0,0,1,.85,2.32A3,3,0,0,1,357.2,184.52Zm-.74-.86a2.82,2.82,0,0,0,0-2.93,1.34,1.34,0,0,0-1.11-.52,1.36,1.36,0,0,0-1.12.52,2.79,2.79,0,0,0,0,2.94,1.36,1.36,0,0,0,1.12.52A1.34,1.34,0,0,0,356.47,183.67Z"/><path class="cls-6" d="M364,179.53a1.39,1.39,0,0,1,.53.39,1.74,1.74,0,0,1,.28.47,1.57,1.57,0,0,1,.1.59,1.69,1.69,0,0,1-.2.79,1.13,1.13,0,0,1-.67.55,1.05,1.05,0,0,1,.55.45,1.86,1.86,0,0,1,.16.88V184a2.86,2.86,0,0,0,0,.52.47.47,0,0,0,.22.32V185h-1.3q-.05-.19-.08-.3a2.76,2.76,0,0,1,0-.49v-.52a1.07,1.07,0,0,0-.19-.72,1,1,0,0,0-.67-.18h-1.15V185h-1.15v-5.63h2.69A2.45,2.45,0,0,1,364,179.53Zm-2.43.83v1.51h1.27a1.35,1.35,0,0,0,.57-.09.63.63,0,0,0,.33-.63.71.71,0,0,0-.32-.69,1.17,1.17,0,0,0-.54-.1Z"/><path class="cls-6" d="M368.5,185h-1.17v-5.63h1.17Z"/><path class="cls-6" d="M370.61,184l2.88-3.64h-2.81v-1H375v.94L372,184H375v1h-4.35Z"/><path class="cls-6" d="M381.3,180.39h-2.92v1.2h2.68v1h-2.68V184h3.06v1h-4.21v-5.63h4.07Z"/><path class="cls-6" d="M387.13,179.51a1.86,1.86,0,0,1,1,.71,2.51,2.51,0,0,1,.4.91,4.37,4.37,0,0,1,.11.93,3.74,3.74,0,0,1-.45,1.9,2,2,0,0,1-1.89,1.05h-2.43v-5.63h2.43A3,3,0,0,1,387.13,179.51Zm-2.16.86V184h1.09a1.17,1.17,0,0,0,1.16-.82,2.89,2.89,0,0,0,.18-1.07,2.64,2.64,0,0,0-.27-1.32,1.14,1.14,0,0,0-1.07-.46Z"/><path class="cls-6" d="M395.32,183.28a1.14,1.14,0,0,0,.21.58,1.25,1.25,0,0,0,1,.35,2.15,2.15,0,0,0,.69-.09.66.66,0,0,0,.5-.65.48.48,0,0,0-.25-.43,2.67,2.67,0,0,0-.78-.26l-.61-.13a3.8,3.8,0,0,1-1.24-.43,1.37,1.37,0,0,1-.57-1.22,1.62,1.62,0,0,1,.56-1.26,2.37,2.37,0,0,1,1.64-.5,2.51,2.51,0,0,1,1.54.47,1.68,1.68,0,0,1,.67,1.37h-1.13a.81.81,0,0,0-.45-.72,1.56,1.56,0,0,0-.7-.14,1.34,1.34,0,0,0-.74.18.58.58,0,0,0-.28.51.48.48,0,0,0,.27.45,3.41,3.41,0,0,0,.75.23l1,.23a2.51,2.51,0,0,1,1,.41,1.38,1.38,0,0,1,.5,1.15,1.62,1.62,0,0,1-.6,1.28,2.52,2.52,0,0,1-1.69.51,2.75,2.75,0,0,1-1.75-.5,1.66,1.66,0,0,1-.64-1.38Z"/><path class="cls-6" d="M402.18,185H401v-5.63h1.17Z"/><path class="cls-6" d="M408.47,181.15a1.1,1.1,0,0,0-.65-.81,1.6,1.6,0,0,0-.65-.13,1.4,1.4,0,0,0-1.12.51,2.33,2.33,0,0,0-.44,1.54,1.91,1.91,0,0,0,.47,1.47,1.56,1.56,0,0,0,1.08.43,1.4,1.4,0,0,0,1-.34,1.46,1.46,0,0,0,.47-.89h-1.3V182h2.35v3h-.78l-.12-.7a2.7,2.7,0,0,1-.61.56,2.16,2.16,0,0,1-1.15.29,2.38,2.38,0,0,1-1.83-.78,3,3,0,0,1-.75-2.13,3.13,3.13,0,0,1,.75-2.19,2.57,2.57,0,0,1,2-.82,2.6,2.6,0,0,1,1.73.54,2,2,0,0,1,.75,1.36Z"/><path class="cls-6" d="M412.16,179.39h1.23l2.24,3.93v-3.93h1.1V185h-1.18l-2.29-4v4h-1.1Z"/><path class="cls-6" d="M420.85,179.39h1.33l2,5.63H422.9l-.37-1.16h-2.07l-.38,1.16h-1.23Zm-.08,3.5h1.44l-.71-2.22Z"/><path class="cls-6" d="M429.82,179.39v1h-1.69V185H427v-4.64h-1.69v-1Z"/><path class="cls-6" d="M431.92,179.39h1.2v3.46a2,2,0,0,0,.14.85,1.14,1.14,0,0,0,1.85,0,2,2,0,0,0,.14-.85v-3.46h1.2v3.46a2.9,2.9,0,0,1-.28,1.4,2.6,2.6,0,0,1-4,0,2.9,2.9,0,0,1-.28-1.4Z"/><path class="cls-6" d="M442.59,179.53a1.39,1.39,0,0,1,.53.39,1.74,1.74,0,0,1,.28.47,1.58,1.58,0,0,1,.1.59,1.69,1.69,0,0,1-.2.79,1.13,1.13,0,0,1-.67.55,1.05,1.05,0,0,1,.55.45,1.86,1.86,0,0,1,.16.88V184a2.84,2.84,0,0,0,0,.52.47.47,0,0,0,.22.32V185h-1.3c0-.12-.06-.23-.08-.3a2.74,2.74,0,0,1,0-.49v-.52A1.06,1.06,0,0,0,442,183a1,1,0,0,0-.67-.18h-1.15V185H439v-5.63h2.69A2.45,2.45,0,0,1,442.59,179.53Zm-2.43.83v1.51h1.27a1.35,1.35,0,0,0,.57-.09.63.63,0,0,0,.33-.63.71.71,0,0,0-.32-.69,1.17,1.17,0,0,0-.54-.1Z"/><path class="cls-6" d="M450.15,180.39h-2.92v1.2h2.68v1h-2.68V184h3.06v1h-4.21v-5.63h4.07Z"/><rect x="21.88" y="170.6" width="490.99" height="1.46"/><rect class="cls-6" x="21.88" y="142.32" width="489.84" height="1.46"/><path class="cls-6" d="M26.31,202.77c-.37,0-.64,0-.87-.32a1.07,1.07,0,0,1-.18-.75v-.94a1.07,1.07,0,0,1,.18-.75c.23-.32.5-.32.87-.32h1.21c.37,0,.64,0,.87.32a1.07,1.07,0,0,1,.18.75v.94a1.07,1.07,0,0,1-.18.75c-.23.32-.5.32-.87.32Zm0,5.7c-.37,0-.64,0-.87-.32a1.07,1.07,0,0,1-.18-.75v-.94a1.07,1.07,0,0,1,.18-.75c.23-.32.5-.32.87-.32h1.21c.37,0,.64,0,.87.32a1.07,1.07,0,0,1,.18.75v.94a1.07,1.07,0,0,1-.18.75c-.23.32-.5.32-.87.32Z"/><path class="cls-6" d="M41.44,208.92v-3.38a.84.84,0,0,1,1.68,0v4.22a.77.77,0,0,1-.84.84h-6.6a.84.84,0,0,1,0-1.68h2.46v-9.68H35.67a.84.84,0,0,1,0-1.68h4.14v11.36Z"/><path class="cls-6" d="M48.57,208.92h5.76a.84.84,0,0,1,0,1.68H46.9v-5.46a1.68,1.68,0,0,1,1.89-1.89H53.5v-4H47.73a.84.84,0,1,1,0-1.68H53.3a1.73,1.73,0,0,1,1.88,2V203a1.73,1.73,0,0,1-1.88,2H48.57Z"/><path class="cls-6" d="M59.8,199.23a.84.84,0,0,1,0-1.68h5.76a1.64,1.64,0,0,1,1.68,1.68v3.22a1.94,1.94,0,0,1-.65,1.63,1.94,1.94,0,0,1,.65,1.63v3.22a1.64,1.64,0,0,1-1.68,1.68H59.8a.84.84,0,0,1,0-1.68h5.76v-2.78c0-.94-.37-1.22-.84-1.22H61.44a.84.84,0,0,1,0-1.68h3.28c.47,0,.84-.28.84-1.22v-2.78Z"/><path class="cls-6" d="M76.79,204.66v-4.84a.84.84,0,1,1,1.68,0v4.84a.84.84,0,1,1,0,1.68v3.42a.84.84,0,1,1-1.68,0v-3.42H71.86v-7.94a.84.84,0,1,1,1.68,0v6.27Z"/><path class="cls-6" d="M86.42,203.24H89.5a1.72,1.72,0,0,1,1.34.47,1.65,1.65,0,0,1,.52,1.42v3.59A1.77,1.77,0,0,1,91,210a1.63,1.63,0,0,1-1.46.57H85.78a2.44,2.44,0,0,1-1.11-.3L84,210c-.45-.2-1-.35-1-.94a.85.85,0,0,1,.8-.84,1.21,1.21,0,0,1,.54.13l.5.22a2.86,2.86,0,0,0,.89.33h3.87v-4H84.74v-7.36h5.78a.84.84,0,0,1,0,1.68H86.42Z"/><path class="cls-6" d="M96.82,204.66h5.6c.84,0,1,.35,1,1.12v3.75c0,.79-.34,1.06-1.09,1.06h-6.1c-.79,0-1.09-.29-1.09-1.06V198.39c0-.39.13-.84.72-.84h1a.83.83,0,0,1,.79.84.8.8,0,0,1-.84.84Zm0,1.68v2.58h4.93v-2.58Z"/><path class="cls-6" d="M108.88,199.23a.84.84,0,1,1-1.68,0v-.84a.85.85,0,0,1,.84-.84h7.44v4.86c0,.59,0,.65-.45,1.06l-2.35,2c-.44.39-.47.42-.47,1v3.25a.84.84,0,1,1-1.68,0v-4a.91.91,0,0,1,.44-1l2.31-2c.55-.49.52-.47.52-1.21v-2.31Z"/><path class="cls-6" d="M125,197.55a.79.79,0,0,1,.84.84v4.84a1.72,1.72,0,0,1,1.22.47,1.62,1.62,0,0,1,.45,1.22v4a1.56,1.56,0,0,1-1.68,1.68h-4.93a1.56,1.56,0,0,1-1.68-1.68v-4a1.62,1.62,0,0,1,.45-1.22,1.72,1.72,0,0,1,1.22-.47v-4.84a.79.79,0,0,1,.84-.84Zm.84,11.36v-4h-4.93v4Zm-1.68-5.68v-4h-1.58v4Z"/><path class="cls-6" d="M137.93,203.52h-5.76a.85.85,0,0,1-.84-.84v-4.29a.85.85,0,0,1,.84-.84h6.6a.85.85,0,0,1,.84.84v11.36a.82.82,0,0,1-.84.84h-.84a.82.82,0,0,1-.84-.84.8.8,0,0,1,.84-.84Zm0-1.68v-2.61H133v2.61Z"/><path class="cls-6" d="M151.62,202.77c-.37,0-.64,0-.87-.32a1.07,1.07,0,0,1-.18-.75v-.94a1.07,1.07,0,0,1,.18-.75c.23-.32.5-.32.87-.32h1.21c.37,0,.64,0,.87.32a1.07,1.07,0,0,1,.18.75v.94a1.07,1.07,0,0,1-.18.75c-.23.32-.5.32-.87.32Zm0,5.7c-.37,0-.64,0-.87-.32a1.07,1.07,0,0,1-.18-.75v-.94a1.07,1.07,0,0,1,.18-.75c.23-.32.5-.32.87-.32h1.21c.37,0,.64,0,.87.32a1.07,1.07,0,0,1,.18.75v.94a1.07,1.07,0,0,1-.18.75c-.23.32-.5.32-.87.32Z"/><path class="cls-6" d="M176.8,197.55a1.68,1.68,0,0,1,1.68,1.68v9.68a1.65,1.65,0,0,1-1.68,1.68h-4.93a1.65,1.65,0,0,1-1.68-1.68v-9.68a1.68,1.68,0,0,1,1.68-1.68Zm0,11.36v-9.68h-4.93v9.68Z"/><path class="cls-6" d="M188.86,208.92v-3.38a.84.84,0,0,1,1.68,0v4.22a.77.77,0,0,1-.84.84h-6.6a.84.84,0,0,1,0-1.68h2.46v-9.68H183.1a.84.84,0,0,1,0-1.68h4.14v11.36Z"/><path class="cls-6" d="M196,208.92h5.76a.84.84,0,0,1,0,1.68h-7.44v-5.46a1.68,1.68,0,0,1,1.89-1.89h4.71v-4h-5.76a.84.84,0,0,1,0-1.68h5.56a1.73,1.73,0,0,1,1.88,2V203a1.73,1.73,0,0,1-1.88,2H196Z"/><path class="cls-6" d="M207.22,199.23a.84.84,0,0,1,0-1.68H213a1.64,1.64,0,0,1,1.68,1.68v3.22a1.94,1.94,0,0,1-.65,1.63,1.94,1.94,0,0,1,.65,1.63v3.22a1.64,1.64,0,0,1-1.68,1.68h-5.76a.84.84,0,0,1,0-1.68H213v-2.78c0-.94-.37-1.22-.84-1.22h-3.28a.84.84,0,1,1,0-1.68h3.28c.47,0,.84-.28.84-1.22v-2.78Z"/><path class="cls-6" d="M224.21,204.66v-4.84a.84.84,0,1,1,1.68,0v4.84a.84.84,0,0,1,0,1.68v3.42a.84.84,0,1,1-1.68,0v-3.42h-4.93v-7.94a.84.84,0,1,1,1.68,0v6.27Z"/><path class="cls-6" d="M233.85,203.24h3.08a1.72,1.72,0,0,1,1.34.47,1.65,1.65,0,0,1,.52,1.42v3.59a1.77,1.77,0,0,1-.4,1.31,1.63,1.63,0,0,1-1.46.57h-3.72a2.44,2.44,0,0,1-1.11-.3l-.64-.28c-.45-.2-1-.35-1-.94a.85.85,0,0,1,.8-.84,1.21,1.21,0,0,1,.54.13l.5.22a2.86,2.86,0,0,0,.89.33h3.87v-4h-4.94v-7.36H238a.84.84,0,0,1,0,1.68h-4.11Z"/><path class="cls-6" d="M244.25,204.66h5.6c.84,0,1,.35,1,1.12v3.75c0,.79-.34,1.06-1.09,1.06h-6.1c-.79,0-1.09-.29-1.09-1.06V198.39c0-.39.13-.84.72-.84h1a.83.83,0,0,1,.79.84.8.8,0,0,1-.84.84Zm0,1.68v2.58h4.93v-2.58Z"/><path class="cls-6" d="M256.31,199.23a.84.84,0,1,1-1.68,0v-.84a.85.85,0,0,1,.84-.84h7.44v4.86c0,.59,0,.65-.45,1.06l-2.35,2c-.44.39-.47.42-.47,1v3.25a.84.84,0,1,1-1.68,0v-4a.91.91,0,0,1,.44-1l2.31-2c.55-.49.52-.47.52-1.21v-2.31Z"/><path class="cls-6" d="M272.46,197.55a.79.79,0,0,1,.84.84v4.84a1.72,1.72,0,0,1,1.22.47,1.62,1.62,0,0,1,.45,1.22v4a1.56,1.56,0,0,1-1.68,1.68h-4.93a1.56,1.56,0,0,1-1.68-1.68v-4a1.62,1.62,0,0,1,.45-1.22,1.72,1.72,0,0,1,1.22-.47v-4.84a.79.79,0,0,1,.84-.84Zm.84,11.36v-4h-4.93v4Zm-1.68-5.68v-4H270v4Z"/><path class="cls-6" d="M285.36,203.52H279.6a.85.85,0,0,1-.84-.84v-4.29a.85.85,0,0,1,.84-.84h6.6a.85.85,0,0,1,.84.84v11.36a.82.82,0,0,1-.84.84h-.84a.82.82,0,0,1-.84-.84.8.8,0,0,1,.84-.84Zm0-1.68v-2.61h-4.93v2.61Z"/><path class="cls-6" d="M297.42,208.92v-3.38a.84.84,0,0,1,1.68,0v4.22a.77.77,0,0,1-.84.84h-6.6a.84.84,0,1,1,0-1.68h2.46v-9.68h-2.46a.84.84,0,1,1,0-1.68h4.14v11.36Z"/><path class="cls-6" d="M304.56,208.92h5.76a.84.84,0,0,1,0,1.68h-7.44v-5.46a1.68,1.68,0,0,1,1.89-1.89h4.71v-4h-5.76a.84.84,0,0,1,0-1.68h5.56a1.73,1.73,0,0,1,1.88,2V203a1.73,1.73,0,0,1-1.88,2h-4.72Z"/><path class="cls-6" d="M345.67,197.55a1.68,1.68,0,0,1,1.68,1.68v9.68a1.65,1.65,0,0,1-1.68,1.68h-4.93a1.65,1.65,0,0,1-1.68-1.68v-9.68a1.68,1.68,0,0,1,1.68-1.68Zm0,11.36v-9.68h-4.93v9.68Z"/><path class="cls-6" d="M357.74,197.55a1.68,1.68,0,0,1,1.68,1.68v9.68a1.65,1.65,0,0,1-1.68,1.68h-4.93a1.65,1.65,0,0,1-1.68-1.68v-9.68a1.68,1.68,0,0,1,1.68-1.68Zm0,11.36v-9.68h-4.93v9.68Z"/><path class="cls-6" d="M369.8,208.92v-3.38a.84.84,0,0,1,1.68,0v4.22a.77.77,0,0,1-.84.84H364a.84.84,0,0,1,0-1.68h2.46v-9.68H364a.84.84,0,0,1,0-1.68h4.14v11.36Z"/><path class="cls-6" d="M376.93,208.92h5.76a.84.84,0,0,1,0,1.68h-7.44v-5.46a1.68,1.68,0,0,1,1.89-1.89h4.71v-4H376.1a.84.84,0,0,1,0-1.68h5.56a1.73,1.73,0,0,1,1.88,2V203a1.73,1.73,0,0,1-1.88,2h-4.72Z"/><path class="cls-6" d="M325,203.77c-.37,0-.64,0-.87-.32a1.07,1.07,0,0,1-.18-.75v-.94a1.07,1.07,0,0,1,.18-.75c.23-.32.5-.32.87-.32h1.21c.37,0,.64,0,.87.32a1.07,1.07,0,0,1,.18.75v.94a1.07,1.07,0,0,1-.18.75c-.23.32-.5.32-.87.32Z"/><path class="cls-6" d="M21.53,202.23c0-.69.27-1,1-1s1,.32,1,1v3.92c0,.69-.27,1-1,1s-1-.32-1-1Z"/><path class="cls-6" d="M316.05,202.23c0-.69.27-1,1-1s1,.32,1,1v3.92c0,.69-.27,1-1,1s-1-.32-1-1Z"/><path class="cls-6" d="M320.26,202.23c0-.69.27-1,1-1s1,.32,1,1v3.92c0,.69-.27,1-1,1s-1-.32-1-1Z"/><path class="cls-6" d="M145.42,202.23c0-.69.27-1,1-1s1,.32,1,1v3.92c0,.69-.27,1-1,1s-1-.32-1-1Z"/><path class="cls-6" d="M473.55,23.53a1.68,1.68,0,0,1,1.68,1.68v9.68a1.65,1.65,0,0,1-1.68,1.68h-4.93A1.65,1.65,0,0,1,467,34.89V25.2a1.68,1.68,0,0,1,1.68-1.68Zm0,11.36V25.2h-4.93v9.68Z"/><path class="cls-6" d="M485.62,23.53a1.68,1.68,0,0,1,1.68,1.68v9.68a1.65,1.65,0,0,1-1.68,1.68h-4.93A1.65,1.65,0,0,1,479,34.89V25.2a1.68,1.68,0,0,1,1.68-1.68Zm0,11.36V25.2h-4.93v9.68Z"/><path class="cls-6" d="M497.68,34.89V31.5a.84.84,0,0,1,1.68,0v4.22a.77.77,0,0,1-.84.84h-6.6a.84.84,0,1,1,0-1.68h2.46V25.2h-2.46a.84.84,0,0,1,0-1.68h4.14V34.89Z"/><path class="cls-6" d="M504.81,34.89h5.76a.84.84,0,1,1,0,1.68h-7.44V31.1A1.68,1.68,0,0,1,505,29.21h4.71v-4H504a.84.84,0,1,1,0-1.68h5.56a1.73,1.73,0,0,1,1.88,2v3.43a1.73,1.73,0,0,1-1.88,2h-4.73Z"/><rect class="cls-7" x="382.13" y="93.28" width="130.01" height="20.84"/><path class="cls-6" d="M512.87,114.85H381.41V92.55H512.87Zm-130-1.46H511.41V94H382.86Z"/></g><rect class="cls-8" x="25.39" y="190.73" width="123.5" height="24.7"/><rect class="cls-8" x="166.76" y="190.73" width="150.9" height="24.7"/><line class="cls-8" x1="26.91" y1="275.81" x2="26.91" y2="215.43"/><line class="cls-8" x1="316.8" y1="275.81" x2="316.8" y2="215.43"/><path class="cls-7" d="M5.37,296.39V277.78h7.91a13.55,13.55,0,0,1,4.34.5,4.28,4.28,0,0,1,2.16,1.78A5.36,5.36,0,0,1,20.6,283a5,5,0,0,1-1.23,3.46,5.91,5.91,0,0,1-3.68,1.72,8.78,8.78,0,0,1,2,1.56,21.25,21.25,0,0,1,2.14,3l2.27,3.63H17.61l-2.72-4a26.33,26.33,0,0,0-2-2.74,2.88,2.88,0,0,0-1.13-.77,6.16,6.16,0,0,0-1.89-.21H9.13v7.77Zm3.76-10.74h2.78a14.36,14.36,0,0,0,3.38-.23,2,2,0,0,0,1.05-.79,2.42,2.42,0,0,0,.38-1.4,2.23,2.23,0,0,0-.5-1.52,2.3,2.3,0,0,0-1.42-.73q-.46-.06-2.74-.06H9.13Z"/><path class="cls-7" d="M23.29,289.46a7.3,7.3,0,0,1,.88-3.44,6,6,0,0,1,2.48-2.54,7.37,7.37,0,0,1,3.59-.88,6.73,6.73,0,0,1,5,2,6.86,6.86,0,0,1,2,5,6.94,6.94,0,0,1-2,5.07,6.67,6.67,0,0,1-5,2,7.83,7.83,0,0,1-3.54-.84,5.75,5.75,0,0,1-2.56-2.46A8.19,8.19,0,0,1,23.29,289.46Zm3.66.19a4.47,4.47,0,0,0,1,3.07,3.11,3.11,0,0,0,4.69,0,4.53,4.53,0,0,0,.95-3.1,4.45,4.45,0,0,0-.95-3,3.11,3.11,0,0,0-4.69,0A4.47,4.47,0,0,0,26.94,289.65Z"/><path class="cls-7" d="M48.87,296.39v-2a5.2,5.2,0,0,1-1.94,1.7,5.44,5.44,0,0,1-2.53.62,4.94,4.94,0,0,1-2.44-.6,3.53,3.53,0,0,1-1.56-1.68,7.47,7.47,0,0,1-.48-3v-8.53h3.57v6.2a17.18,17.18,0,0,0,.2,3.49,1.9,1.9,0,0,0,.72,1,2.21,2.21,0,0,0,1.32.37,2.81,2.81,0,0,0,1.64-.5,2.56,2.56,0,0,0,1-1.24,14.45,14.45,0,0,0,.27-3.64v-5.69h3.57v13.48Z"/><path class="cls-7" d="M62.06,282.91v2.84H59.62v5.43a13.48,13.48,0,0,0,.07,1.92.78.78,0,0,0,.32.45,1,1,0,0,0,.6.18,4.62,4.62,0,0,0,1.43-.34l.3,2.77a7.09,7.09,0,0,1-2.82.53,4.49,4.49,0,0,1-1.74-.32,2.55,2.55,0,0,1-1.14-.84,3.31,3.31,0,0,1-.5-1.39,17.28,17.28,0,0,1-.11-2.51v-5.88H54.4v-2.84H56v-2.68l3.58-2.08v4.76Z"/><path class="cls-7" d="M64.53,281.08v-3.3H68.1v3.3Zm0,15.31V282.91H68.1v13.48Z"/><path class="cls-7" d="M84,296.39H80.45v-6.88a10.64,10.64,0,0,0-.23-2.83,2,2,0,0,0-.74-1,2.13,2.13,0,0,0-1.24-.36,2.86,2.86,0,0,0-1.66.51,2.56,2.56,0,0,0-1,1.35,11.63,11.63,0,0,0-.27,3.1v6.11H71.73V282.91H75v2a5.53,5.53,0,0,1,6.6-1.86,3.63,3.63,0,0,1,1.48,1.09,3.93,3.93,0,0,1,.7,1.5A11.15,11.15,0,0,1,84,288Z"/><path class="cls-7" d="M87.31,297.28l4.08.5a1.39,1.39,0,0,0,.47,1,2.68,2.68,0,0,0,1.6.38,4.15,4.15,0,0,0,2.09-.42,1.72,1.72,0,0,0,.71-.9,5.42,5.42,0,0,0,.17-1.64v-2a4.83,4.83,0,0,1-4,2.18,5,5,0,0,1-4.3-2.3,7.81,7.81,0,0,1-1.24-4.52,7.43,7.43,0,0,1,1.63-5.18,5.26,5.26,0,0,1,4.06-1.79,4.94,4.94,0,0,1,4.13,2.2v-1.89H100V295a12.06,12.06,0,0,1-.39,3.57,4.42,4.42,0,0,1-1.1,1.85,4.89,4.89,0,0,1-1.9,1.05,10,10,0,0,1-3,.38q-3.43,0-4.86-1.17a3.68,3.68,0,0,1-1.43-3C87.3,297.59,87.3,297.45,87.31,297.28Zm3.19-7.91a4.87,4.87,0,0,0,.83,3.14,2.57,2.57,0,0,0,2.05,1,2.84,2.84,0,0,0,2.21-1,4.46,4.46,0,0,0,.9-3,4.72,4.72,0,0,0-.86-3.11,2.74,2.74,0,0,0-2.18-1,2.63,2.63,0,0,0-2.11,1A4.67,4.67,0,0,0,90.5,289.37Z"/><path class="cls-7" d="M110.81,296.39V277.78h3.66l7.62,12.43V277.78h3.49v18.61H121.8l-7.5-12.14v12.14Z"/><path class="cls-7" d="M138.4,296.39v-2a5.2,5.2,0,0,1-1.94,1.7,5.44,5.44,0,0,1-2.53.62,4.94,4.94,0,0,1-2.44-.6,3.53,3.53,0,0,1-1.56-1.68,7.47,7.47,0,0,1-.48-3v-8.53H133v6.2a17.18,17.18,0,0,0,.2,3.49,1.9,1.9,0,0,0,.72,1,2.21,2.21,0,0,0,1.32.37,2.81,2.81,0,0,0,1.64-.5,2.56,2.56,0,0,0,1-1.24,14.45,14.45,0,0,0,.27-3.64v-5.69h3.57v13.48Z"/><path class="cls-7" d="M145.14,282.91h3.29v1.84a5.29,5.29,0,0,1,4.2-2.15,4.53,4.53,0,0,1,2.25.53,4.1,4.1,0,0,1,1.56,1.61,6.24,6.24,0,0,1,1.92-1.61,4.7,4.7,0,0,1,2.2-.53,4.9,4.9,0,0,1,2.51.6A3.69,3.69,0,0,1,164.6,285a7.68,7.68,0,0,1,.37,2.79v8.62H161.4v-7.71a5.73,5.73,0,0,0-.37-2.59,1.69,1.69,0,0,0-1.52-.76,2.43,2.43,0,0,0-1.41.46,2.53,2.53,0,0,0-1,1.34,9.63,9.63,0,0,0-.29,2.79v6.47h-3.57V289a10.25,10.25,0,0,0-.19-2.54,1.62,1.62,0,0,0-.59-.85,1.87,1.87,0,0,0-1.09-.28,2.6,2.6,0,0,0-1.49.44,2.44,2.44,0,0,0-.95,1.28,9.53,9.53,0,0,0-.29,2.78v6.55h-3.57Z"/><path class="cls-7" d="M168.37,296.39V277.78h3.57v6.7a5,5,0,0,1,3.91-1.88,5.26,5.26,0,0,1,4.08,1.78,7.38,7.38,0,0,1,1.61,5.12,7.8,7.8,0,0,1-1.64,5.32,5.13,5.13,0,0,1-4,1.87,4.94,4.94,0,0,1-2.28-.58,5.46,5.46,0,0,1-1.94-1.71v2Zm3.54-7a5.73,5.73,0,0,0,.66,3.1,2.82,2.82,0,0,0,2.46,1.42,2.53,2.53,0,0,0,2-1,5,5,0,0,0,.83-3.18,5.27,5.27,0,0,0-.84-3.33,2.65,2.65,0,0,0-2.15-1,2.69,2.69,0,0,0-2.13,1A4.58,4.58,0,0,0,171.91,289.36Z"/><path class="cls-7" d="M192.21,292.1l3.55.6a5.83,5.83,0,0,1-2.16,3,6.36,6.36,0,0,1-3.7,1,6,6,0,0,1-5.21-2.3,7.72,7.72,0,0,1-1.33-4.65,7.45,7.45,0,0,1,1.75-5.25,5.77,5.77,0,0,1,4.43-1.9,6,6,0,0,1,4.75,2q1.74,2,1.66,6.09H187a3.61,3.61,0,0,0,.86,2.47,2.7,2.7,0,0,0,2.06.88,2.18,2.18,0,0,0,1.41-.46A2.82,2.82,0,0,0,192.21,292.1Zm.2-3.61a3.43,3.43,0,0,0-.8-2.35,2.57,2.57,0,0,0-3.78,0,3.29,3.29,0,0,0-.75,2.31Z"/><path class="cls-7" d="M202.28,296.39h-3.57V282.91H202v1.92a5.75,5.75,0,0,1,1.53-1.79,2.81,2.81,0,0,1,1.54-.43,4.52,4.52,0,0,1,2.35.67l-1.1,3.11a3.13,3.13,0,0,0-1.68-.58,2,2,0,0,0-1.27.41,2.81,2.81,0,0,0-.82,1.49,21.19,21.19,0,0,0-.3,4.52Z"/><path class="cls-7" d="M307.39,296.39h-4.09l-1.62-4.23h-7.44l-1.54,4.23h-4L296,277.78h4ZM300.48,289l-2.56-6.91L295.4,289Z"/><path class="cls-7" d="M321.12,286.89l-3.52.63a2.55,2.55,0,0,0-.81-1.59,2.43,2.43,0,0,0-1.63-.53,2.67,2.67,0,0,0-2.13.92,4.72,4.72,0,0,0-.79,3.08,5.45,5.45,0,0,0,.81,3.39,2.65,2.65,0,0,0,2.16,1,2.4,2.4,0,0,0,1.66-.58,3.47,3.47,0,0,0,.91-2l3.5.6a6.22,6.22,0,0,1-2.09,3.64A6.49,6.49,0,0,1,315,296.7a6.17,6.17,0,0,1-4.72-1.87,8.5,8.5,0,0,1,0-10.37,6.27,6.27,0,0,1,4.77-1.86,6.52,6.52,0,0,1,3.92,1.06A5.88,5.88,0,0,1,321.12,286.89Z"/><path class="cls-7" d="M335.58,286.89l-3.52.63a2.55,2.55,0,0,0-.81-1.59,2.43,2.43,0,0,0-1.63-.53,2.67,2.67,0,0,0-2.13.92,4.72,4.72,0,0,0-.79,3.08,5.45,5.45,0,0,0,.81,3.39,2.65,2.65,0,0,0,2.16,1,2.4,2.4,0,0,0,1.66-.58,3.47,3.47,0,0,0,.91-2l3.5.6a6.22,6.22,0,0,1-2.09,3.64,6.49,6.49,0,0,1-4.15,1.23,6.17,6.17,0,0,1-4.72-1.87,8.5,8.5,0,0,1,0-10.37,6.27,6.27,0,0,1,4.77-1.86,6.52,6.52,0,0,1,3.92,1.06A5.88,5.88,0,0,1,335.58,286.89Z"/><path class="cls-7" d="M337.46,289.46a7.3,7.3,0,0,1,.88-3.44,6,6,0,0,1,2.48-2.54,7.37,7.37,0,0,1,3.59-.88,6.73,6.73,0,0,1,5,2,6.86,6.86,0,0,1,2,5,6.94,6.94,0,0,1-2,5.07,6.67,6.67,0,0,1-5,2,7.83,7.83,0,0,1-3.54-.84,5.75,5.75,0,0,1-2.56-2.46A8.19,8.19,0,0,1,337.46,289.46Zm3.66.19a4.47,4.47,0,0,0,1,3.07,3.11,3.11,0,0,0,4.69,0,4.53,4.53,0,0,0,.95-3.1,4.45,4.45,0,0,0-.95-3,3.11,3.11,0,0,0-4.69,0A4.47,4.47,0,0,0,341.11,289.65Z"/><path class="cls-7" d="M363,296.39v-2a5.2,5.2,0,0,1-1.94,1.7,5.44,5.44,0,0,1-2.53.62,4.94,4.94,0,0,1-2.44-.6,3.53,3.53,0,0,1-1.56-1.68,7.47,7.47,0,0,1-.48-3v-8.53h3.57v6.2a17.18,17.18,0,0,0,.2,3.49,1.9,1.9,0,0,0,.72,1,2.21,2.21,0,0,0,1.32.37,2.81,2.81,0,0,0,1.64-.5,2.56,2.56,0,0,0,1-1.24,14.45,14.45,0,0,0,.27-3.64v-5.69h3.57v13.48Z"/><path class="cls-7" d="M382.31,296.39h-3.57v-6.88a10.64,10.64,0,0,0-.23-2.83,2,2,0,0,0-.74-1,2.13,2.13,0,0,0-1.24-.36,2.86,2.86,0,0,0-1.66.51,2.56,2.56,0,0,0-1,1.35,11.63,11.63,0,0,0-.27,3.1v6.11H370V282.91h3.31v2a5.53,5.53,0,0,1,6.6-1.86,3.63,3.63,0,0,1,1.48,1.09,3.93,3.93,0,0,1,.7,1.5,11.15,11.15,0,0,1,.2,2.4Z"/><path class="cls-7" d="M392.11,282.91v2.84h-2.44v5.43a13.48,13.48,0,0,0,.07,1.92.78.78,0,0,0,.32.45,1,1,0,0,0,.6.18,4.62,4.62,0,0,0,1.43-.34l.3,2.77a7.09,7.09,0,0,1-2.82.53,4.49,4.49,0,0,1-1.74-.32,2.55,2.55,0,0,1-1.14-.84,3.31,3.31,0,0,1-.5-1.39,17.28,17.28,0,0,1-.11-2.51v-5.88h-1.64v-2.84h1.64v-2.68l3.58-2.08v4.76Z"/><path class="cls-7" d="M401.87,296.39V277.78h3.66l7.62,12.43V277.78h3.49v18.61h-3.77l-7.5-12.14v12.14Z"/><path class="cls-7" d="M429.46,296.39v-2a5.2,5.2,0,0,1-1.94,1.7,5.44,5.44,0,0,1-2.53.62,4.94,4.94,0,0,1-2.44-.6,3.53,3.53,0,0,1-1.56-1.68,7.47,7.47,0,0,1-.48-3v-8.53h3.57v6.2a17.18,17.18,0,0,0,.2,3.49,1.9,1.9,0,0,0,.72,1,2.21,2.21,0,0,0,1.32.37,2.81,2.81,0,0,0,1.64-.5,2.56,2.56,0,0,0,1-1.24,14.45,14.45,0,0,0,.27-3.64v-5.69h3.57v13.48Z"/><path class="cls-7" d="M436.2,282.91h3.29v1.84a5.29,5.29,0,0,1,4.2-2.15,4.53,4.53,0,0,1,2.25.53,4.1,4.1,0,0,1,1.56,1.61,6.24,6.24,0,0,1,1.92-1.61,4.7,4.7,0,0,1,2.2-.53,4.9,4.9,0,0,1,2.51.6,3.69,3.69,0,0,1,1.54,1.77,7.68,7.68,0,0,1,.37,2.79v8.62h-3.57v-7.71a5.73,5.73,0,0,0-.37-2.59,1.69,1.69,0,0,0-1.52-.76,2.43,2.43,0,0,0-1.41.46,2.53,2.53,0,0,0-1,1.34,9.63,9.63,0,0,0-.29,2.79v6.47h-3.57V289a10.25,10.25,0,0,0-.19-2.54,1.62,1.62,0,0,0-.59-.85,1.87,1.87,0,0,0-1.09-.28,2.6,2.6,0,0,0-1.49.44,2.44,2.44,0,0,0-.95,1.28,9.53,9.53,0,0,0-.29,2.78v6.55H436.2Z"/><path class="cls-7" d="M459.43,296.39V277.78H463v6.7a5,5,0,0,1,3.91-1.88,5.26,5.26,0,0,1,4.08,1.78,7.38,7.38,0,0,1,1.61,5.12,7.8,7.8,0,0,1-1.64,5.32,5.13,5.13,0,0,1-4,1.87,4.94,4.94,0,0,1-2.28-.58,5.46,5.46,0,0,1-1.94-1.71v2Zm3.54-7a5.73,5.73,0,0,0,.66,3.1,2.82,2.82,0,0,0,2.46,1.42,2.53,2.53,0,0,0,2-1,5,5,0,0,0,.83-3.18,5.27,5.27,0,0,0-.84-3.33,2.65,2.65,0,0,0-2.15-1,2.69,2.69,0,0,0-2.13,1A4.58,4.58,0,0,0,463,289.36Z"/><path class="cls-7" d="M483.27,292.1l3.55.6a5.83,5.83,0,0,1-2.16,3,6.36,6.36,0,0,1-3.7,1,6,6,0,0,1-5.21-2.3,7.72,7.72,0,0,1-1.33-4.65,7.45,7.45,0,0,1,1.75-5.25,5.77,5.77,0,0,1,4.43-1.9,6,6,0,0,1,4.75,2q1.74,2,1.66,6.09h-8.94a3.61,3.61,0,0,0,.86,2.47A2.7,2.7,0,0,0,481,294a2.18,2.18,0,0,0,1.41-.46A2.82,2.82,0,0,0,483.27,292.1Zm.2-3.61a3.43,3.43,0,0,0-.8-2.35,2.57,2.57,0,0,0-3.78,0,3.29,3.29,0,0,0-.75,2.31Z"/><path class="cls-7" d="M493.34,296.39h-3.57V282.91h3.31v1.92a5.75,5.75,0,0,1,1.53-1.79,2.81,2.81,0,0,1,1.54-.43,4.52,4.52,0,0,1,2.35.67l-1.1,3.11a3.13,3.13,0,0,0-1.68-.58,2,2,0,0,0-1.27.41,2.81,2.81,0,0,0-.82,1.49,21.19,21.19,0,0,0-.3,4.52Z"/></g></g></svg>