<?xml version="1.0" encoding="UTF-8"?>
<svg width="201px" height="20px" viewBox="0 0 201 20" version="1.1" xmlns="http://www.w3.org/2000/svg" xmlns:xlink="http://www.w3.org/1999/xlink">
    <!-- Generator: Sketch 50 (54983) - http://www.bohemiancoding.com/sketch -->
    <title>Group</title>
    <desc>Created with Sketch.</desc>
    <defs>
        <polygon id="path-1" points="0.0118592836 0.156911765 5.28924081 0.156911765 5.28924081 8.37759191 0.0118592836 8.37759191"></polygon>
        <polygon id="path-3" points="0.00389391476 0.000226990017 6.27112312 0.000226990017 6.27112312 5.54140692 0.00389391476 5.54140692"></polygon>
        <polygon id="path-5" points="0.0160173413 0.0184616569 6.89450552 0.0184616569 6.89450552 5.57253853 0.0160173413 5.57253853"></polygon>
        <polygon id="path-7" points="0.00625107758 0.011494818 4.10169209 0.011494818 4.10169209 6.09684958 0.00625107758 6.09684958"></polygon>
    </defs>
    <g id="Menu" stroke="none" stroke-width="1" fill="none" fill-rule="evenodd">
        <g id="Main-Menu---cross-shiled-shp-signature-service-Copy" transform="translate(-99.000000, -55.000000)">
            <g id="Group-10" transform="translate(83.000000, 0.000000)">
                <g id="Group" transform="translate(16.000000, 55.000000)">
                    <g id="Group-8" transform="translate(126.000000, 7.000000)">
                        <g id="Group-3">
                            <mask id="mask-2" fill="white">
                                <use xlink:href="#path-1"></use>
                            </mask>
                            <g id="Clip-2"></g>
                            <path d="M2.29734103,8.37759191 C1.06852152,8.37759191 0.0320200677,7.459375 0,6.15858456 L0.747925532,6.15858456 C0.769272244,7.37202206 1.6454757,7.72183824 2.68197715,7.72183824 C3.54750725,7.72183824 4.54131528,7.20783088 4.54131528,6.20226103 C4.54131528,5.41507353 3.98570781,5.04341912 3.33384248,4.82483456 C2.08367626,4.39858456 0.181644705,3.99417279 0.181644705,2.28856618 C0.181644705,0.911341912 1.42113757,0.156911765 2.63928373,0.156911765 C3.65443847,0.156911765 4.97951584,0.517849265 5.15048719,2.03722426 L4.402364,2.03722426 C4.38101729,1.06441176 3.51548719,0.812867647 2.72486823,0.812867647 C1.92337826,0.812867647 0.929570237,1.22840074 0.929570237,2.19029412 C0.929570237,4.43134191 5.28924081,3.41465074 5.28924081,6.13654412 C5.28924081,7.85286765 3.84675653,8.37759191 2.29734103,8.37759191" id="Fill-1" fill="#FFFFFF" mask="url(#mask-2)"></path>
                        </g>
                        <path d="M6.18973042,8.58020221 L6.83092239,8.58020221 L6.83092239,3.09253676 L6.18973042,3.09253676 L6.18973042,8.58020221 Z M6.13636364,1.50744485 L6.88428917,1.50744485 L6.88428917,0.6875 L6.13636364,0.6875 L6.13636364,1.50744485 Z" id="Fill-4" fill="#FFFFFF"></path>
                        <path d="M10.532526,3.35136029 C9.36774662,3.35136029 8.87637693,4.55367647 8.87637693,5.55944853 C8.87637693,6.56522059 9.37861763,7.77865809 10.5540704,7.77865809 C11.7828899,7.77865809 12.2529128,6.60889706 12.2529128,5.53761029 C12.2529128,4.48816176 11.686632,3.35136029 10.532526,3.35136029 Z M12.2849329,2.91398897 L12.9474716,2.91398897 C12.9261249,3.28564338 12.8941048,3.7228125 12.8941048,4.14926471 L12.8941048,7.43976103 C12.8941048,8.53288603 12.9474716,9.68060662 11.7613455,10.2490074 C11.334016,10.456875 11.04544,10.5005515 10.5431993,10.5005515 C9.57093569,10.5005515 8.41682967,10.1616544 8.41682967,9.02485294 L9.11138842,9.02485294 C9.18629956,9.68060662 9.94489845,9.89919118 10.6287838,9.89919118 C11.4622939,9.89919118 12.2315661,9.29803309 12.2529128,8.37981618 L12.2529128,7.35220588 L12.2315661,7.35220588 C11.9216435,7.99724265 11.1843913,8.37981618 10.4898326,8.37981618 C8.87637693,8.37981618 8.18181818,7.12270221 8.18181818,5.61424632 C8.18181818,4.12742647 8.83348586,2.75 10.4684859,2.75 C11.2486291,2.75 11.8042366,3.13277574 12.2315661,3.76669118 L12.2529128,3.7228125 L12.2849329,2.91398897 Z" id="Fill-5" fill="#FFFFFF"></path>
                        <path d="M15.0129382,8.40165441 L14.3717463,8.40165441 L14.3717463,4.14926471 C14.3717463,3.7228125 14.3395285,3.28564338 14.3181818,2.91398897 L14.9807205,2.91398897 L15.0129382,3.7228125 L15.0340873,3.74485294 C15.4082477,3.06705882 16.017222,2.75 16.7117807,2.75 C18.4643853,2.75 18.6031389,4.33509191 18.6031389,4.96920956 L18.6031389,8.40165441 L17.9619469,8.40165441 L17.9619469,4.85981618 C17.9619469,3.90884191 17.4276862,3.35136029 16.5514827,3.35136029 C15.4936346,3.35136029 15.0129382,4.25865809 15.0129382,5.24238971 L15.0129382,8.40165441" id="Fill-6" fill="#FFFFFF"></path>
                        <path d="M20.9929406,7.96448529 C22.3927315,7.96448529 22.6597631,6.78380515 22.5957229,5.63588235 C21.6874994,5.66884191 19.7854678,5.49393382 19.7854678,6.87115809 C19.7854678,7.61466912 20.3410753,7.96448529 20.9929406,7.96448529 Z M22.5957229,4.53204044 C22.5316828,3.63545956 22.0828089,3.35136029 21.32421,3.35136029 C20.6509979,3.35136029 20.0951928,3.55902574 20.009806,4.30233456 L19.3259206,4.30233456 C19.4862186,3.17625 20.3090552,2.75 21.3348833,2.75 C22.5210094,2.75 23.2582616,3.30748162 23.2369149,4.56479779 L23.2369149,7.16637868 C23.2262415,7.59283088 23.268935,8.03 23.2902817,8.40165441 L22.627743,8.40165441 L22.6063963,7.59283088 L22.5850496,7.59283088 L22.5530295,7.66926471 C22.3178204,8.12847426 21.6019149,8.56564338 20.8753361,8.56564338 C19.881528,8.56564338 19.0909091,7.94264706 19.0909091,6.87115809 C19.0909091,6.12784926 19.528912,5.55944853 20.170104,5.28606618 C20.8860094,4.96920956 21.8155797,5.07860294 22.5957229,5.03472426 L22.5957229,4.53204044 Z" id="Fill-7" fill="#FFFFFF"></path>
                        <path d="M24.9319602,3.43022059 L23.8636364,3.43022059 L23.8636364,2.82886029 L24.9319602,2.82886029 L24.9319602,1.65909926 L25.5733499,1.375 L25.5733499,2.82886029 L26.7912984,2.82886029 L26.7912984,3.43022059 L25.5733499,3.43022059 L25.5733499,7.10308824 C25.5624788,7.60597426 25.8190347,7.87935662 26.310602,7.87935662 C26.5029201,7.87935662 26.6952382,7.8684375 26.8662095,7.81363971 L26.8662095,8.38204044 C26.6632181,8.43683824 26.4280089,8.48051471 26.2143442,8.48051471 C24.8572467,8.48051471 24.9319602,7.59505515 24.9319602,6.85174632 L24.9319602,3.43022059" id="Fill-8" fill="#FFFFFF"></path>
                        <path d="M31.5449438,2.75 L32.1861358,2.75 L32.1861358,7.00238971 C32.1861358,7.42884191 32.2181558,7.86601103 32.2395025,8.23766544 L31.5769639,8.23766544 L31.5449438,7.42884191 L31.5235971,7.40680147 C31.1494367,8.08459559 30.5404624,8.40165441 29.8459037,8.40165441 C28.0934967,8.40165441 27.9545455,6.8165625 27.9545455,6.18264706 L27.9545455,2.75 L28.5957374,2.75 L28.5957374,6.29183824 C28.5957374,7.24301471 29.1299982,7.80049632 30.0062016,7.80049632 C31.0640498,7.80049632 31.5449438,6.89319853 31.5449438,5.90926471 L31.5449438,2.75" id="Fill-9" fill="#FFFFFF"></path>
                        <path d="M34.1036497,8.40617726 L33.4624577,8.40617726 L33.4624577,4.15378755 C33.473131,3.72733535 33.4304376,3.29016623 33.4090909,2.91851182 L34.0714319,2.91851182 L34.1036497,3.72733535 L34.1249964,3.72733535 C34.3173144,3.17005593 34.7982084,2.77636108 35.3324692,2.75452285 C35.5461339,2.74360373 35.7597987,2.75452285 35.9734635,2.76544196 L35.9734635,3.39955961 C35.8453832,3.38864049 35.7064319,3.35588314 35.578154,3.35588314 C34.6272371,3.35588314 34.1249964,4.05551549 34.1036497,5.10496402 L34.1036497,8.40617726" id="Fill-10" fill="#FFFFFF"></path>
                        <path d="M40.2823694,5.20963235 C40.2074583,4.14926471 39.6520485,3.35136029 38.5406359,3.35136029 C37.4934611,3.35136029 36.9378536,4.24773897 36.8522691,5.20963235 L40.2823694,5.20963235 Z M36.8309224,5.81099265 C36.8522691,6.98055147 37.3758565,7.96448529 38.6902605,7.96448529 C39.4490571,7.96448529 40.079378,7.40700368 40.239676,6.65257353 L40.9128881,6.65257353 C40.5816187,7.96448529 39.7801287,8.56564338 38.4872691,8.56564338 C36.8842892,8.56564338 36.1363636,7.15545956 36.1363636,5.65792279 C36.1363636,4.17110294 36.9378536,2.75 38.5299625,2.75 C40.3252605,2.75 40.9769282,4.09466912 40.9769282,5.81099265 L36.8309224,5.81099265 Z" id="Fill-11" fill="#FFFFFF"></path>
                        <path d="M44.5700683,8.90818015 C43.3412488,8.90818015 42.3047473,7.98996324 42.2727273,6.68917279 L43.0204551,6.68917279 C43.0419995,7.90261029 43.9180053,8.25242647 44.9549021,8.25242647 C45.8202345,8.25242647 46.8140426,7.73841912 46.8140426,6.73284926 C46.8140426,5.94566176 46.2582374,5.57400735 45.6063721,5.35542279 C44.3562059,4.92917279 42.4541743,4.52476103 42.4541743,2.81915441 C42.4541743,1.44193015 43.6938648,0.6875 44.912011,0.6875 C45.9271657,0.6875 47.2522431,1.0484375 47.4232145,2.5678125 L46.6750913,2.5678125 C46.6537446,1.595 45.7882145,1.34345588 44.9973978,1.34345588 C44.1961055,1.34345588 43.2022975,1.75898897 43.2022975,2.72088235 C43.2022975,4.96193015 47.5619681,3.94523897 47.5619681,6.66713235 C47.5619681,8.38345588 46.1194838,8.90818015 44.5700683,8.90818015" id="Fill-12" fill="#FFFFFF"></path>
                        <path d="M52.5550967,5.20963235 C52.4803832,4.14926471 51.9245781,3.35136029 50.8133632,3.35136029 C49.7661883,3.35136029 49.2105809,4.24773897 49.1249964,5.20963235 L52.5550967,5.20963235 Z M49.1036497,5.81099265 C49.1249964,6.98055147 49.6487814,7.96448529 50.9629878,7.96448529 C51.7215867,7.96448529 52.3521053,7.40700368 52.5124033,6.65257353 L53.1856153,6.65257353 C52.8541483,7.96448529 52.0530537,8.56564338 50.7599964,8.56564338 C49.1570164,8.56564338 48.4090909,7.15545956 48.4090909,5.65792279 C48.4090909,4.17110294 49.2105809,2.75 50.8024921,2.75 C52.5977901,2.75 53.2496555,4.09466912 53.2496555,5.81099265 L49.1036497,5.81099265 Z" id="Fill-13" fill="#FFFFFF"></path>
                        <path d="M54.5581951,8.40617726 L53.9172008,8.40617726 L53.9172008,4.15378755 C53.9278742,3.72733535 53.8851807,3.29016623 53.8636364,2.91851182 L54.526175,2.91851182 L54.5581951,3.72733535 L54.5797395,3.72733535 C54.7718599,3.17005593 55.2529515,2.77636108 55.7872123,2.75452285 C56.0008771,2.74360373 56.2145418,2.75452285 56.4282066,2.76544196 L56.4282066,3.39955961 C56.3001263,3.38864049 56.161175,3.35588314 56.0328971,3.35588314 C55.0819802,3.35588314 54.5797395,4.05551549 54.5581951,5.10496402 L54.5581951,8.40617726" id="Fill-14" fill="#FFFFFF"></path>
                        <polyline id="Fill-15" fill="#FFFFFF" points="57.2961412 2.75 59.144806 7.33036765 60.929233 2.75 61.6344651 2.75 59.5080954 8.23766544 58.7815166 8.23766544 56.5909091 2.75 57.2961412 2.75"></polyline>
                        <path d="M62.7806395,8.58020221 L63.4220291,8.58020221 L63.4220291,3.09253676 L62.7806395,3.09253676 L62.7806395,8.58020221 Z M62.7272727,1.50744485 L63.4751983,1.50744485 L63.4751983,0.6875 L62.7272727,0.6875 L62.7272727,1.50744485 Z" id="Fill-16" fill="#FFFFFF"></path>
                        <path d="M67.8416054,4.59755515 C67.788041,3.75577206 67.2644536,3.35136029 66.3773791,3.35136029 C65.3944421,3.35136029 64.7854678,4.40080882 64.7854678,5.64700368 C64.7854678,6.90411765 65.3944421,7.96448529 66.3773791,7.96448529 C67.2108891,7.96448529 67.788041,7.43976103 67.8416054,6.68533088 L68.5359665,6.68533088 C68.3649952,7.94264706 67.6599607,8.56564338 66.4418146,8.56564338 C64.8388346,8.56564338 64.0909091,7.15545956 64.0909091,5.65792279 C64.0909091,4.17110294 64.8922014,2.75 66.4843103,2.75 C67.5850496,2.75 68.4825997,3.42779412 68.5359665,4.59755515 L67.8416054,4.59755515" id="Fill-17" fill="#FFFFFF"></path>
                        <path d="M73.6914603,5.20963235 C73.6167469,4.14926471 73.0611394,3.35136029 71.9499244,3.35136029 C70.9027496,3.35136029 70.3469445,4.24773897 70.2615577,5.20963235 L73.6914603,5.20963235 Z M70.2400133,5.81099265 C70.2615577,6.98055147 70.7851451,7.96448529 72.0993514,7.96448529 C72.8579503,7.96448529 73.4886666,7.40700368 73.6487669,6.65257353 L74.321979,6.65257353 C73.9907096,7.96448529 73.1894173,8.56564338 71.89636,8.56564338 C70.2935777,8.56564338 69.5454545,7.15545956 69.5454545,5.65792279 C69.5454545,4.17110294 70.3469445,2.75 71.9390534,2.75 C73.7343514,2.75 74.3862168,4.09466912 74.3862168,5.81099265 L70.2400133,5.81099265 Z" id="Fill-18" fill="#FFFFFF"></path>
                    </g>
                    <g id="Group-4">
                        <text id="State-Health-Plan" font-family="UniversLTStd, Univers LT Std" font-size="10.7999994" font-weight="normal" letter-spacing="-0.0473684432" fill="#FFFFFF">
                            <tspan x="22.7999986" y="14.5999996">State Health Plan</tspan>
                        </text>
                        <g id="Page-1">
                            <g id="Group-3" transform="translate(11.117315, 6.167261)">
                                <mask id="mask-4" fill="white">
                                    <use xlink:href="#path-3"></use>
                                </mask>
                                <g id="Clip-2"></g>
                                <path d="M6.12766071,3.46604435 C5.27494398,-0.0208025894 1.78768056,0.000228497396 1.78768056,0.000228497396 C1.78768056,0.000228497396 0.806811093,0.00139430043 0.443513128,0.0868243472 C0.240505355,0.134552324 0.00564040235,0.339453866 0.00449597289,1.20818697 C0.00314134209,2.33516877 0.00449597289,5.54140692 0.00449597289,5.54140692 L6.21657587,5.54140692 C6.30929801,4.82287588 6.28650285,4.11572307 6.12766071,3.46604435" id="Fill-1" fill="#FEFEFE" mask="url(#mask-4)"></path>
                            </g>
                            <g id="Group-6" transform="translate(3.433288, 12.415966)">
                                <mask id="mask-6" fill="white">
                                    <use xlink:href="#path-5"></use>
                                </mask>
                                <g id="Clip-5"></g>
                                <path d="M0.0515413661,0.161062685 C0.0515413661,0.161062685 0.536312344,2.48607032 2.45484324,4.06759872 C4.26210756,5.55744837 5.20264173,5.64369448 6.89450552,5.54364527 L6.89450552,0.0184616569 L0.0160173413,0.0184616569 C0.0277185487,0.0658632085 0.0390460648,0.113078232 0.0515413661,0.161062685" id="Fill-4" fill="#FEFEFE" mask="url(#mask-6)"></path>
                            </g>
                            <path d="M11.1218154,17.9229067 L11.164136,17.9214378 C14.0728085,18.178031 16.5234758,15.3402333 17.2019589,12.4344226 L11.1218154,12.4344226 L11.1218154,17.9229067 Z" id="Fill-7" fill="#FEFEFE"></path>
                            <g id="Group-11" transform="translate(9.342281, 0.011821)">
                                <mask id="mask-8" fill="white">
                                    <use xlink:href="#path-7"></use>
                                </mask>
                                <g id="Clip-10"></g>
                                <path d="M4.05194593,0.0114878231 C4.05194593,0.0114878231 3.83151481,0.733539594 2.91849365,1.42378826 C2.00542579,2.11403692 0.567461845,2.79353688 0.1475263,3.94040728 C-0.272362534,5.08725436 0.378514206,6.06410404 0.367934072,6.09595378 C0.357424006,6.1277802 2.45656455,5.3101559 3.41174275,3.86605236 C4.36692095,2.42197214 4.05194593,0.0114878231 4.05194593,0.0114878231" id="Fill-9" fill="#FEFEFE" mask="url(#mask-8)"></path>
                            </g>
                            <path d="M0.0859256325,12.4072687 C0.873923706,16.9900171 6.24178835,17.7737865 6.24178835,17.7737865 C6.24178835,17.7737865 2.02356149,15.3296338 2.3944267,10.4925538 C2.76522185,5.65519396 6.31127157,3.8221319 6.31127157,3.8221319 C4.13265157,4.68771734 -0.702095797,7.8242871 0.0859256325,12.4072687" id="Fill-12" fill="#FEFEFE"></path>
                            <path d="M8.00360014,8.38958499 C7.99867209,8.41357722 7.21466784,8.16481817 6.86998437,7.60688815 C6.5253009,7.04895813 6.98795403,6.49762656 7.48276796,6.75627162 C7.94229142,6.99649699 8.21043825,7.38219127 8.00360014,8.38958499 M7.01514007,9.96467816 C6.53940774,10.1629579 5.8035396,9.85010304 5.61020109,9.403344 C5.41690929,8.95649169 5.73875088,8.44535701 6.53177043,8.61083109 C7.32483669,8.77616528 7.62836741,9.41257716 8.0001435,9.68159787 C8.0001435,9.68159787 7.49094245,9.76649165 7.01514007,9.96467816 M5.13892971,11.4891755 C5.13892971,11.4891755 4.8708763,11.1482014 4.51089485,10.7762636 C4.15089003,10.4042559 4.08192064,9.62948647 4.41894344,9.28074815 C4.75596624,8.9319632 5.46829184,9.11800205 5.61382122,9.92389837 C5.75937397,10.7297481 5.24615574,11.0396651 5.13892971,11.4891755 M5.91256402,7.2271861 C5.91256402,7.2271861 6.04274871,8.19585184 5.63680323,8.62204612 C5.23088111,9.04821708 4.48025216,8.99405387 4.50321082,8.25784925 C4.52619283,7.52166795 5.43005855,7.25043221 5.91256402,7.2271861 M7.11388798,6.32254626 C5.49512754,5.90043229 2.57078328,7.39862909 3.29777626,11.7086729 L10.3277962,11.7086729 L10.3277962,7.32476381 C9.49957965,7.15651512 8.79998291,6.76217058 7.11388798,6.32254626" id="Fill-14" fill="#FEFEFE"></path>
                        </g>
                    </g>
                    <path d="M118,1 L118,19.4325915" id="Stroke-53" stroke="#FFFFFF" stroke-width="0.306"></path>
                </g>
            </g>
        </g>
    </g>
</svg>