<?xml version="1.0" encoding="utf-8"?>
<!-- Generator: Adobe Illustrator 22.0.1, SVG Export Plug-In . SVG Version: 6.00 Build 0)  -->
<svg version="1.1" id="Layer_1" xmlns="http://www.w3.org/2000/svg" xmlns:xlink="http://www.w3.org/1999/xlink" x="0px" y="0px"
	 viewBox="0 0 194 22" style="enable-background:new 0 0 194 22;" xml:space="preserve">
<style type="text/css">
	.st0{fill:#29ABE2;}
	.st1{fill:#FFFFFF;}
	.st2{filter:url(#Adobe_OpacityMaskFilter);}
	.st3{mask:url(#mask-2_1_);fill:#29ABE2;}
	.st4{filter:url(#Adobe_OpacityMaskFilter_1_);}
	.st5{mask:url(#mask-4_1_);fill:#FFFFFF;}
	.st6{enable-background:new    ;}
	.st7{filter:url(#Adobe_OpacityMaskFilter_2_);}
	.st8{mask:url(#mask-6_1_);fill:#FEFEFE;}
	.st9{filter:url(#Adobe_OpacityMaskFilter_3_);}
	.st10{mask:url(#mask-8_1_);fill:#FEFEFE;}
	.st11{fill:#FEFEFE;}
	.st12{filter:url(#Adobe_OpacityMaskFilter_4_);}
	.st13{mask:url(#mask-10_1_);fill:#FEFEFE;}
	.st14{fill:none;stroke:#FFFFFF;stroke-width:0.306;}
</style>
<title>Cross-Shield-SHP Logo</title>
<desc>Created with Sketch.</desc>
<g id="Cross-Shield-SHP-Logo">
	<g id="Group-7-Copy">
		<g id="logo-_x2F_-white-_x2F_-cross-shield-nc">
			<g id="Page-1">
				<polygon id="Fill-1" class="st0" points="5.8,1.2 5.8,6.7 0,6.7 0,15.6 5.8,15.6 5.8,21.2 14.9,21.2 14.9,15.6 20.7,15.6 
					20.7,6.7 14.9,6.7 14.9,1.2 				"/>
				<g id="Group-54" transform="translate(4.565217, 0.207833)">
					<path id="Fill-2" class="st1" d="M0.5,9l3.8,0.4c0.7,0.1,0.8,0.8,0.6,1.2l-2.6,4.7l0,0c-1.3-1-2.2-2.6-2.2-4.3
						C0.1,10.3,0.2,9.7,0.5,9L0.5,9z"/>
					<path id="Fill-4" class="st0" d="M1,9.9l2.9,0.3c0.2,0,0.2,0.1,0.2,0.2l-2,3.7c-0.7-0.8-1.2-1.9-1.2-3.1
						C0.9,10.6,0.9,10.2,1,9.9"/>
					<path id="Fill-6" class="st1" d="M11.1,9L7.3,9.4c-0.7,0.1-0.8,0.8-0.6,1.2l2.6,4.7l0,0c1.3-1,2.2-2.6,2.2-4.3
						C11.5,10.3,11.3,9.7,11.1,9L11.1,9z"/>
					<path id="Fill-8" class="st1" d="M5.8,5.5c-2.3,0-4.2,1.3-5.2,3.2h4c0.6,0,0.8-0.3,0.8-0.6c0-0.3,0-0.4-0.3-0.8
						C4.9,6.9,5.1,6.2,5.8,6.2c0.7,0,0.9,0.7,0.6,1.1C6.1,7.6,6,7.7,6.1,8.1c0,0.3,0.3,0.6,0.8,0.6h4C10,6.8,8.1,5.5,5.8,5.5"/>
					<path id="Fill-10" class="st0" d="M10.5,9.9l-2.9,0.3c-0.2,0-0.2,0.1-0.2,0.2l2,3.7c0.7-0.8,1.2-1.9,1.2-3.1
						C10.7,10.6,10.6,10.2,10.5,9.9"/>
					<path id="Fill-12" class="st0" d="M7.1,6.4c0.3,0.5,0.1,1.1-0.2,1.4c0,0,0,0.1,0,0.1h2.6C8.9,7.2,8.1,6.7,7.1,6.4"/>
					<path id="Fill-14" class="st1" d="M5.8,16.5c1.2,0,2.2-0.3,3.1-0.9l0,0l-2.8-4c-0.2-0.3-0.5-0.3-0.7,0l-2.8,4v0
						C3.6,16.2,4.6,16.5,5.8,16.5"/>
					<g id="Group-18" transform="translate(18.641304, 0.000000)">
						<g id="Clip-17">
						</g>
						<defs>
							<filter id="Adobe_OpacityMaskFilter" filterUnits="userSpaceOnUse" x="0.4" y="0.7" width="16.9" height="20.5">
								<feColorMatrix  type="matrix" values="1 0 0 0 0  0 1 0 0 0  0 0 1 0 0  0 0 0 1 0"/>
							</filter>
						</defs>
						<mask maskUnits="userSpaceOnUse" x="0.4" y="0.7" width="16.9" height="20.5" id="mask-2_1_">
							<g class="st2">
								<polygon id="path-1_1_" class="st1" points="0.4,21.2 17.3,21.2 17.3,0.7 0.4,0.7 								"/>
							</g>
						</mask>
						<path id="Fill-16" class="st3" d="M8.8,21.2c4-2.1,6.4-5.5,7.6-9.2c1.3-3.9,1.1-8.4-0.4-11.3c-2.3,1.1-4.6,1.7-7.2,1.7
							c-2.7,0-4.9-0.6-7.2-1.7C0.1,3.6-0.1,8.1,1.2,12C2.4,15.7,4.9,19.1,8.8,21.2"/>
					</g>
					<path id="Fill-19" class="st1" d="M27.5,19.5c3.3-2,5-4.8,6.1-7.9c1-2.8,1.2-6.1,0.1-8.7c-1.6,0.5-2.6,0.7-3.5,0.8
						c-0.8,0.1-1.6,0.2-2.8,0.2h0c-1.2,0-2-0.1-2.8-0.2c-0.9-0.1-1.8-0.3-3.5-0.8c-1.1,2.6-0.8,5.9,0.1,8.7
						C22.5,14.7,24.2,17.5,27.5,19.5L27.5,19.5z"/>
					<path id="Fill-21" class="st0" d="M27.5,18.7c2.2-1.3,4.7-4.4,5.7-8.4c0.5-2.1,0.7-4.5,0-6.4c-1,0.3-1.9,0.5-2.9,0.6
						c-1,0.1-1.9,0.2-2.8,0.2h0c-0.9,0-1.9-0.1-2.8-0.2c-1-0.1-1.9-0.3-2.9-0.6c-0.7,1.9-0.5,4.3,0,6.4
						C22.7,14.3,25.3,17.4,27.5,18.7L27.5,18.7z"/>
					<path id="Fill-23" class="st1" d="M25.2,6.1c-0.7,0.4-1,1.3-0.7,2c0.3,0.6,0.9,1,1.5,1.2c0.3,0.1,0.7,0.1,1,0.1
						c0.4,0,0.8,0,1.2,0.1c0.1,0,0.2,0.1,0.2,0.2c0.1,0.2,0,0.4-0.2,0.5c0,0.3,0,1,0,1s1.7-0.2,1.4-1.7c-0.1-0.4-0.4-0.7-0.7-0.9
						c-0.9-0.4-1.8-0.2-2.7-0.5C26,8,25.6,7.9,25.5,7.6c0-0.1,0-0.4,0.1-0.4c0.2-0.1,0.5,0.1,0.8,0.2c0.2,0,0.4,0,0.6,0
						c0.1,0,0.2,0,0.2-0.1c0,0-0.1-0.1-0.1-0.1C27,7.1,26.9,7.1,26.8,7c-0.2-0.1-0.4-0.1-0.5-0.2c0.2,0,0.5,0,0.6,0
						c0.1,0,0.6,0,0.7,0c0,0,0.1,0,0.1-0.1c0-0.1-0.1-0.1-0.2-0.2c-0.1-0.2-0.2-0.3-0.4-0.4C26.4,5.9,25.8,5.8,25.2,6.1"/>
					<path id="Fill-25" class="st1" d="M28.1,11.5l0-1.8c0,0-0.2,0-0.6-0.1c-0.4,0-0.6,0-0.6,0l0,0.1c0,0-0.2,0.1-0.2,0.1
						c0,0-0.1,0.1,0,0.2c0.2,0.4,0.4,0.9,0.5,1.3C27.4,11.4,27.7,11.4,28.1,11.5"/>
					<path id="Fill-27" class="st1" d="M25.9,11.2c-0.1,0.7,0.4,1.1,0.9,1.2c0.4,0.1,0.8,0.1,1.2,0.2c0.1,0,0.2,0,0.3,0
						c0.1,0,0.1,0.1,0.1,0.1c0,0.1,0,0.1,0,0.2c0,0.1-0.2,0.1-0.2,0.1l0,0.8c0,0,0.3,0,0.6-0.2c0.3-0.2,0.4-0.4,0.5-0.6
						c0.1-0.3,0-0.6-0.2-0.8c-0.1-0.2-0.4-0.3-0.6-0.4c-0.5-0.2-1.1-0.1-1.6-0.2c-0.1,0-0.2-0.1-0.2-0.1c0-0.1,0.1-0.2,0.1-0.2
						s-0.1-0.2-0.1-0.4c-0.1-0.1-0.1-0.4-0.2-0.5C26.2,10.5,26,10.9,25.9,11.2"/>
					<path id="Fill-29" class="st1" d="M28.1,12.8l0,1.5l-0.4-0.2l-0.4-0.2l0-1.2C27.6,12.7,27.8,12.7,28.1,12.8"/>
					<path id="Fill-31" class="st1" d="M26.3,13.6c-0.2,0.5,0.1,1,0.5,1.2c0.2,0.1,0.5,0.2,0.7,0.3c0.2,0.1,0.6,0.3,0.7,0.5
						c0,0.1-0.1,0.1-0.1,0.1l0,0.6c0,0,0.3-0.1,0.4-0.2c0.2-0.1,0.3-0.3,0.3-0.6c0-0.3-0.2-0.6-0.6-0.8c-0.4-0.2-0.8-0.4-1.1-0.5
						c0,0-0.1-0.1-0.1-0.2c0-0.1,0.1-0.1,0.1-0.1l0-0.7c0,0-0.3,0.1-0.4,0.1C26.6,13.3,26.4,13.4,26.3,13.6"/>
					<path id="Fill-33" class="st1" d="M28,15.6C28,15.5,28,15.5,28,15.6c-0.1-0.2-0.3-0.3-0.3-0.3c-0.1-0.1-0.3-0.1-0.3-0.1
						s0,1.5,0,2.3c0,0.2,0.1,0.2,0.3,0.2c0.2,0,0.3-0.1,0.3-0.2C28,17.2,28,16.1,28,15.6"/>
					<path id="Fill-35" class="st1" d="M28.2,5.7c0.1,0.1,0.1,0.1,0.1,0.2c0.1,0.2,0,0.6,0,0.8c0,0.1,0.1,0.1,0.1,0
						c0.3-0.2,0.6-0.5,0.9-0.6C29.5,6,30,6.2,29.9,6.6c-0.1,0.2-0.1,0.2-0.2,0.3c-0.2,0.2-0.5,0.4-0.8,0.7c-0.2,0.2-0.4,0.3-0.5,0.5
						c0,0.1-0.1,0.2-0.1,0.2c-0.5-0.1-1-0.1-1.4-0.2l0-0.6c0,0,0.4-0.1,0.5-0.2c0,0,0-0.1-0.1-0.1c-0.1,0-0.2-0.1-0.2-0.1
						c0.4,0.1,0.6,0.1,1,0.3c0,0,0-0.1,0-0.2C28.1,7.1,28,7.1,27.9,7C27.7,7,27,6.9,27,6.9s0.3,0,0.5,0c0.1,0,0.2,0,0.2-0.1
						c0-0.1,0-0.1-0.1-0.2c-0.1-0.1-0.1-0.1-0.2-0.2c-0.1-0.1-0.2-0.2-0.3-0.3C27.2,6,27,5.9,27,5.9s0-0.3,0-0.4
						c0-0.1,0.2-0.1,0.2-0.1C27.5,5.5,27.8,5.7,28.2,5.7"/>
					<path id="Fill-37" class="st0" d="M26.9,6.3c-0.1,0.1-0.1,0.1-0.2,0.1c-0.2,0-0.1-0.1-0.2-0.2c-0.1-0.1-0.1,0-0.2-0.1
						C26.5,6.1,26.8,6.1,26.9,6.3C27,6.3,26.9,6.3,26.9,6.3"/>
					<path id="Fill-39" class="st0" d="M5.7,12.5c0-0.1,0.1-0.1,0.2,0l1.9,2.8c-0.6,0.3-1.3,0.4-2,0.4c-0.7,0-1.4-0.1-2-0.4
						L5.7,12.5c0.1-0.1,0.1-0.1,0.2,0"/>
					<path id="Fill-41" class="st1" d="M26.9,16.1c-0.1,0.1-0.3,0.3-0.3,0.6c0,0.3,0,0.4,0.1,0.5c0.1,0.1,0.2,0.1,0.2,0
						c0-0.1,0-0.2,0-0.4c0-0.2,0.1-0.2,0.1-0.2l0-0.7C27.2,15.9,27.1,16,26.9,16.1"/>
					<path id="Fill-43" class="st0" d="M4.4,6.4C4.1,6.9,4.4,7.5,4.6,7.8c0.1,0,0,0.1,0,0.1H2.1C2.7,7.2,3.5,6.7,4.4,6.4"/>
					<path id="Fill-45" class="st0" d="M31.8,19.7V20H32c0.2,0,0.3,0,0.3-0.2c0-0.1-0.1-0.2-0.3-0.2H31.8z M32.5,19.8
						c0,0.2-0.1,0.3-0.3,0.3l0.3,0.5h-0.2l-0.2-0.5h-0.2v0.5h-0.2v-1.1h0.4C32.4,19.5,32.5,19.6,32.5,19.8L32.5,19.8z M32.7,19.5
						c-0.2-0.2-0.4-0.2-0.6-0.2c-0.2,0-0.4,0.1-0.6,0.2c-0.2,0.2-0.3,0.4-0.3,0.6c0,0.2,0.1,0.4,0.3,0.6c0.2,0.2,0.4,0.2,0.6,0.2
						c0.2,0,0.4-0.1,0.6-0.2c0.2-0.2,0.3-0.4,0.3-0.6C32.9,19.9,32.8,19.7,32.7,19.5L32.7,19.5z M32.7,19.4c0.2,0.2,0.3,0.4,0.3,0.7
						c0,0.3-0.1,0.5-0.3,0.7c-0.2,0.2-0.4,0.3-0.7,0.3c-0.3,0-0.5-0.1-0.7-0.3c-0.2-0.2-0.3-0.4-0.3-0.7c0-0.3,0.1-0.5,0.3-0.7
						c0.2-0.2,0.4-0.3,0.7-0.3C32.3,19.1,32.6,19.2,32.7,19.4L32.7,19.4z"/>
					<path id="Fill-47" class="st0" d="M11.9,19.7V20h0.2c0.2,0,0.3,0,0.3-0.2c0-0.1-0.1-0.2-0.3-0.2H11.9z M12.6,19.8
						c0,0.2-0.1,0.3-0.3,0.3l0.3,0.5h-0.2l-0.2-0.5h-0.2v0.5h-0.2v-1.1h0.4C12.4,19.5,12.6,19.6,12.6,19.8L12.6,19.8z M12.7,19.5
						c-0.2-0.2-0.4-0.2-0.6-0.2c-0.2,0-0.4,0.1-0.6,0.2c-0.2,0.2-0.3,0.4-0.3,0.6c0,0.2,0.1,0.4,0.3,0.6c0.2,0.2,0.4,0.2,0.6,0.2
						c0.2,0,0.4-0.1,0.6-0.2c0.2-0.2,0.3-0.4,0.3-0.6C13,19.9,12.9,19.7,12.7,19.5L12.7,19.5z M12.8,19.4c0.2,0.2,0.3,0.4,0.3,0.7
						c0,0.3-0.1,0.5-0.3,0.7c-0.2,0.2-0.4,0.3-0.7,0.3c-0.3,0-0.5-0.1-0.7-0.3c-0.2-0.2-0.3-0.4-0.3-0.7c0-0.3,0.1-0.5,0.3-0.7
						c0.2-0.2,0.4-0.3,0.7-0.3C12.4,19.1,12.6,19.2,12.8,19.4L12.8,19.4z"/>
					<polygon id="Fill-49" class="st1" points="50.5,17.2 44.2,8.3 44.2,17.2 41.8,17.2 41.8,4.3 44.3,4.3 50.3,12.7 50.3,4.3 
						52.7,4.3 52.7,17.2 					"/>
					<g id="Group-53" transform="translate(54.402174, 3.443478)">
						<g id="Clip-52">
						</g>
						<defs>
							<filter id="Adobe_OpacityMaskFilter_1_" filterUnits="userSpaceOnUse" x="0.1" y="0.6" width="10.3" height="13.4">
								<feColorMatrix  type="matrix" values="1 0 0 0 0  0 1 0 0 0  0 0 1 0 0  0 0 0 1 0"/>
							</filter>
						</defs>
						<mask maskUnits="userSpaceOnUse" x="0.1" y="0.6" width="10.3" height="13.4" id="mask-4_1_">
							<g class="st4">
								<polygon id="path-3_1_" class="st1" points="10.4,14 10.4,0.6 0.1,0.6 0.1,14 								"/>
							</g>
						</mask>
						<path id="Fill-51" class="st5" d="M6.4,14c-3.9,0-6.3-2.7-6.3-6.7c0-4,2.5-6.7,6.3-6.7c1.5,0,2.8,0.4,3.7,0.9L9.8,3.9
							c-0.9-0.6-2-1.1-3.3-1.1c-2.4,0-3.8,1.7-3.8,4.6c0,2.9,1.5,4.5,3.9,4.5c1.2,0,2.4-0.4,3.4-1.1l0.3,2.1C9.3,13.5,7.9,14,6.4,14
							"/>
					</g>
				</g>
			</g>
		</g>
		<g id="Group-4" transform="translate(85.000000, 0.000000)">
			<g class="st6">
				<path class="st1" d="M24.5,12.9c0,0.5,0.1,1.5,1.9,1.5c1.6,0,1.8-1,1.8-1.4c0-0.9-0.7-1-1.8-1.3c-1.2-0.3-1.7-0.4-2.1-0.7
					c-0.6-0.4-0.8-1-0.8-1.5c0-1.6,1.5-2.3,3-2.3c0.5,0,1.6,0.1,2.2,0.8c0.4,0.5,0.5,1,0.5,1.3H28c-0.1-1-0.9-1.2-1.6-1.2
					c-1.1,0-1.7,0.5-1.7,1.3c0,0.7,0.5,0.9,1.4,1.2c1.9,0.5,2.1,0.5,2.5,0.8c0.7,0.5,0.8,1.2,0.8,1.6c0,1.4-1.1,2.4-3.1,2.4
					c-0.6,0-1.8-0.1-2.4-0.9c-0.4-0.6-0.5-1.2-0.5-1.6H24.5z"/>
				<path class="st1" d="M30.1,9.7h1V8.6l1-0.3v1.5h1.2v0.7H32v3.3c0,0.3,0,0.7,0.7,0.7c0.2,0,0.4,0,0.5-0.1v0.8
					c-0.2,0-0.5,0.1-0.8,0.1c-0.9,0-1.4-0.3-1.4-1.2v-3.6h-1V9.7z"/>
				<path class="st1" d="M37.8,15.2c-0.1-0.3-0.1-0.5-0.1-0.8c-0.5,0.9-1.2,1-1.7,1c-1.2,0-1.9-0.7-1.9-1.6c0-0.4,0.2-1.1,1-1.6
					c0.6-0.3,1.4-0.4,1.9-0.4c0.3,0,0.4,0,0.7,0c0-0.7,0-1-0.2-1.2c-0.2-0.3-0.6-0.4-0.9-0.4c-1,0-1.1,0.7-1.1,0.9h-1
					c0-0.3,0.1-0.7,0.4-1c0.4-0.5,1.2-0.6,1.8-0.6c0.8,0,1.6,0.2,1.9,0.8c0.2,0.3,0.2,0.6,0.2,0.8l0,2.6c0,0.1,0,0.8,0.1,1.4H37.8z
					 M37.1,12.5c-0.4,0-2,0-2,1.1c0,0.3,0.2,0.9,1.1,0.9c0.5,0,0.9-0.2,1.2-0.6c0.2-0.4,0.2-0.7,0.3-1.4
					C37.5,12.5,37.3,12.5,37.1,12.5z"/>
				<path class="st1" d="M39.6,9.7h1V8.6l1-0.3v1.5h1.2v0.7h-1.2v3.3c0,0.3,0,0.7,0.7,0.7c0.2,0,0.4,0,0.5-0.1v0.8
					c-0.2,0-0.5,0.1-0.8,0.1c-0.9,0-1.4-0.3-1.4-1.2v-3.6h-1V9.7z"/>
				<path class="st1" d="M44.6,12.6c0,1.1,0.4,2,1.6,2c0.7,0,1.2-0.3,1.3-1.1h1c0,0.3-0.1,0.7-0.5,1.1c-0.2,0.3-0.8,0.7-1.9,0.7
					c-1.7,0-2.5-1.1-2.5-2.8c0-1.1,0.2-2,1.1-2.5c0.5-0.4,1.2-0.4,1.5-0.4c2.4,0,2.4,2.1,2.4,3H44.6z M47.5,11.9
					c0-0.5-0.1-1.6-1.3-1.6c-0.7,0-1.5,0.4-1.5,1.6H47.5z"/>
				<path class="st1" d="M54,7.4v3.3h3.7V7.4h1.1v7.8h-1.1v-3.5H54v3.5h-1.1V7.4H54z"/>
				<path class="st1" d="M61.3,12.6c0,1.1,0.4,2,1.6,2c0.7,0,1.2-0.3,1.3-1.1h1c0,0.3-0.1,0.7-0.5,1.1c-0.2,0.3-0.8,0.7-1.9,0.7
					c-1.7,0-2.5-1.1-2.5-2.8c0-1.1,0.2-2,1.1-2.5c0.5-0.4,1.2-0.4,1.5-0.4c2.4,0,2.4,2.1,2.4,3H61.3z M64.1,11.9
					c0-0.5-0.1-1.6-1.3-1.6c-0.7,0-1.5,0.4-1.5,1.6H64.1z"/>
				<path class="st1" d="M69.9,15.2c-0.1-0.3-0.1-0.5-0.1-0.8c-0.5,0.9-1.2,1-1.7,1c-1.2,0-1.9-0.7-1.9-1.6c0-0.4,0.2-1.1,1-1.6
					c0.6-0.3,1.4-0.4,1.9-0.4c0.3,0,0.4,0,0.7,0c0-0.7,0-1-0.2-1.2c-0.2-0.3-0.6-0.4-0.9-0.4c-1,0-1.1,0.7-1.1,0.9h-1
					c0-0.3,0.1-0.7,0.4-1c0.4-0.5,1.2-0.6,1.8-0.6c0.8,0,1.6,0.2,1.9,0.8c0.2,0.3,0.2,0.6,0.2,0.8l0,2.6c0,0.1,0,0.8,0.1,1.4H69.9z
					 M69.2,12.5c-0.4,0-2,0-2,1.1c0,0.3,0.2,0.9,1.1,0.9c0.5,0,0.9-0.2,1.2-0.6c0.2-0.4,0.2-0.7,0.3-1.4
					C69.6,12.5,69.5,12.5,69.2,12.5z"/>
				<path class="st1" d="M72.6,7.4h1v7.8h-1V7.4z"/>
				<path class="st1" d="M74.7,9.7h1V8.6l1-0.3v1.5h1.2v0.7h-1.2v3.3c0,0.3,0,0.7,0.7,0.7c0.2,0,0.4,0,0.5-0.1v0.8
					c-0.2,0-0.5,0.1-0.8,0.1c-0.9,0-1.4-0.3-1.4-1.2v-3.6h-1V9.7z"/>
				<path class="st1" d="M79.1,7.4h1v3.2c0.3-0.6,1-0.9,1.8-0.9c0.6,0,1.4,0.2,1.7,0.9c0.1,0.2,0.2,0.5,0.2,1.3v3.4h-1v-3.2
					c0-0.5,0-1.5-1.2-1.5c-0.8,0-1.1,0.5-1.3,0.7c-0.2,0.3-0.2,0.8-0.2,1.1v2.9h-1V7.4z"/>
				<path class="st1" d="M88.6,7.4h2.6c1,0,1.6,0.1,2.1,0.6c0.4,0.4,0.6,0.9,0.6,1.5c0,0.6-0.2,1.1-0.6,1.5c-0.4,0.4-1,0.7-2.4,0.7
					h-1.3v3.5h-1.1V7.4z M89.7,10.8H91c0.7,0,1.8-0.1,1.8-1.3c0-1.2-1-1.2-1.6-1.2h-1.5V10.8z"/>
				<path class="st1" d="M95.2,7.4h1v7.8h-1V7.4z"/>
				<path class="st1" d="M101.4,15.2c-0.1-0.3-0.1-0.5-0.1-0.8c-0.5,0.9-1.2,1-1.7,1c-1.2,0-1.9-0.7-1.9-1.6c0-0.4,0.2-1.1,1-1.6
					c0.6-0.3,1.4-0.4,1.9-0.4c0.3,0,0.4,0,0.7,0c0-0.7,0-1-0.2-1.2c-0.2-0.3-0.6-0.4-0.9-0.4c-1,0-1.1,0.7-1.1,0.9h-1
					c0-0.3,0.1-0.7,0.4-1c0.4-0.5,1.2-0.6,1.8-0.6c0.8,0,1.6,0.2,1.9,0.8c0.2,0.3,0.2,0.6,0.2,0.8l0,2.6c0,0.1,0,0.8,0.1,1.4H101.4z
					 M100.7,12.5c-0.4,0-2,0-2,1.1c0,0.3,0.2,0.9,1.1,0.9c0.5,0,0.9-0.2,1.2-0.6c0.2-0.4,0.2-0.7,0.3-1.4
					C101.1,12.5,101,12.5,100.7,12.5z"/>
				<path class="st1" d="M104.1,10.4l0-0.6h1l0,0.9c0.1-0.2,0.5-1,1.7-1c0.5,0,2,0.2,2,1.8v3.7h-1v-3.4c0-0.4,0-0.7-0.3-0.9
					c-0.3-0.2-0.6-0.4-1-0.4c-0.7,0-1.4,0.5-1.4,1.6v3.1h-1V10.4z"/>
			</g>
			<g id="Page-1_1_">
				<g id="Group-3" transform="translate(11.117315, 6.167261)">
					<g id="Clip-2">
					</g>
					<defs>
						<filter id="Adobe_OpacityMaskFilter_2_" filterUnits="userSpaceOnUse" x="0" y="0.6" width="6.3" height="5.5">
							<feColorMatrix  type="matrix" values="1 0 0 0 0  0 1 0 0 0  0 0 1 0 0  0 0 0 1 0"/>
						</filter>
					</defs>
					<mask maskUnits="userSpaceOnUse" x="0" y="0.6" width="6.3" height="5.5" id="mask-6_1_">
						<g class="st7">
							<polygon id="path-5_1_" class="st1" points="0,0.6 6.3,0.6 6.3,6.1 0,6.1 							"/>
						</g>
					</mask>
					<path id="Fill-1_1_" class="st8" d="M6.1,4C5.3,0.5,1.8,0.6,1.8,0.6s-1,0-1.3,0.1C0.2,0.7,0,0.9,0,1.8c0,1.1,0,4.3,0,4.3h6.2
						C6.3,5.4,6.3,4.7,6.1,4"/>
				</g>
				<g id="Group-6" transform="translate(3.433288, 12.415966)">
					<g id="Clip-5">
					</g>
					<defs>
						<filter id="Adobe_OpacityMaskFilter_3_" filterUnits="userSpaceOnUse" x="0" y="0.6" width="6.9" height="5.6">
							<feColorMatrix  type="matrix" values="1 0 0 0 0  0 1 0 0 0  0 0 1 0 0  0 0 0 1 0"/>
						</filter>
					</defs>
					<mask maskUnits="userSpaceOnUse" x="0" y="0.6" width="6.9" height="5.6" id="mask-8_1_">
						<g class="st9">
							<polygon id="path-7_1_" class="st1" points="0,0.6 6.9,0.6 6.9,6.1 0,6.1 							"/>
						</g>
					</mask>
					<path id="Fill-4_1_" class="st10" d="M0.1,0.7c0,0,0.5,2.3,2.4,3.9c1.8,1.5,2.7,1.6,4.4,1.5V0.6H0C0,0.6,0,0.7,0.1,0.7"/>
				</g>
				<path id="Fill-7" class="st11" d="M11.1,18.5L11.1,18.5c3,0.3,5.4-2.6,6.1-5.5h-6.1V18.5z"/>
				<g id="Group-11" transform="translate(9.342281, 0.011821)">
					<g id="Clip-10">
					</g>
					<defs>
						<filter id="Adobe_OpacityMaskFilter_4_" filterUnits="userSpaceOnUse" x="0" y="0.6" width="4.1" height="6.1">
							<feColorMatrix  type="matrix" values="1 0 0 0 0  0 1 0 0 0  0 0 1 0 0  0 0 0 1 0"/>
						</filter>
					</defs>
					<mask maskUnits="userSpaceOnUse" x="0" y="0.6" width="4.1" height="6.1" id="mask-10_1_">
						<g class="st12">
							<polygon id="path-9_1_" class="st1" points="0,0.6 4.1,0.6 4.1,6.7 0,6.7 							"/>
						</g>
					</mask>
					<path id="Fill-9" class="st13" d="M4.1,0.6c0,0-0.2,0.7-1.1,1.4C2,2.7,0.6,3.3,0.1,4.5c-0.4,1.1,0.2,2.1,0.2,2.2
						c0,0,2.1-0.8,3-2.2C4.4,3,4.1,0.6,4.1,0.6"/>
				</g>
				<path id="Fill-12_1_" class="st11" d="M0.1,13c0.8,4.6,6.2,5.4,6.2,5.4S2,15.9,2.4,11c0.4-4.8,3.9-6.7,3.9-6.7
					C4.1,5.2-0.7,8.4,0.1,13"/>
				<path id="Fill-14_1_" class="st11" d="M8,8.9c0,0-0.8-0.2-1.1-0.8C6.5,7.6,7,7.1,7.5,7.3C7.9,7.6,8.2,7.9,8,8.9 M7,10.5
					c-0.5,0.2-1.2-0.1-1.4-0.6C5.4,9.5,5.7,9,6.5,9.2C7.3,9.3,7.6,10,8,10.2C8,10.2,7.5,10.3,7,10.5 M5.1,12c0,0-0.3-0.3-0.6-0.7
					C4.2,11,4.1,10.2,4.4,9.8c0.3-0.3,1-0.2,1.2,0.6C5.8,11.3,5.2,11.6,5.1,12 M5.9,7.8c0,0,0.1,1-0.3,1.4C5.2,9.6,4.5,9.5,4.5,8.8
					C4.5,8.1,5.4,7.8,5.9,7.8 M7.1,6.9C5.5,6.5,2.6,8,3.3,12.3h7V7.9C9.5,7.7,8.8,7.3,7.1,6.9"/>
			</g>
		</g>
		<path id="Stroke-53" class="st14" d="M78,1.6V20"/>
	</g>
</g>
</svg>
