<svg xmlns="http://www.w3.org/2000/svg" viewBox="0 0 58.99 19.14"><defs><style>.cls-1{fill:#2567ad;}.cls-2{fill:#e4a33f;}</style></defs><title>visa-logo</title><g id="Layer_2" data-name="Layer 2"><g id="Layer_1-2" data-name="Layer 1"><polygon class="cls-1" points="25.57 18.82 20.76 18.82 23.77 0.33 28.58 0.33 25.57 18.82"/><path class="cls-1" d="M16.71.33,12.12,13l-.54-2.74h0L10,2A2.06,2.06,0,0,0,7.67.33H.09L0,.64A18,18,0,0,1,5,2.76L9.22,18.82h5L21.89.33Z"/><path class="cls-1" d="M54.57,18.82H59L55.14.33H51.27A2.21,2.21,0,0,0,49,1.71L41.87,18.82h5l1-2.75H54Zm-5.3-6.54L51.8,5.36l1.42,6.92Z"/><path class="cls-1" d="M42.24,4.78l.69-4A13.9,13.9,0,0,0,38.6,0c-2.39,0-8.06,1-8.06,6.12,0,4.78,6.66,4.84,6.66,7.34s-6,2.06-7.94.48l-.72,4.15a13.48,13.48,0,0,0,5.43,1c3.28,0,8.24-1.7,8.24-6.33,0-4.81-6.72-5.25-6.72-7.34S40.18,3.64,42.24,4.78Z"/><path class="cls-2" d="M11.58,10.31,10,2A2.06,2.06,0,0,0,7.67.33H.09L0,.64A18.66,18.66,0,0,1,7.14,4.23,14.42,14.42,0,0,1,11.58,10.31Z"/></g></g></svg>